<svg width="278" height="580" viewBox="0 0 278 580" fill="none" xmlns="http://www.w3.org/2000/svg">
<g filter="url(#filter0_d_5_104)">
<path d="M4 217.5C4 208.663 11.1634 201.5 20 201.5H25.5378H47.0757H74.1513C82.9879 201.5 89.7108 209.084 93.7004 216.968C108.73 246.671 167.05 246.671 182.079 216.968C186.069 209.084 192.792 201.5 201.628 201.5H229.814H251.907H258C266.837 201.5 274 208.663 274 217.5V555.5C274 564.337 266.837 571.5 258 571.5H20C11.1634 571.5 4 564.337 4 555.5V217.5Z" fill="#09A1CC"/>
<path d="M74.1513 201.5C82.9879 201.5 89.7108 209.084 93.7004 216.968C108.73 246.671 167.05 246.671 182.079 216.968C186.069 209.084 192.792 201.5 201.628 201.5H229.814H251.907V16C251.907 7.16345 244.744 0 235.907 0H41.5378C32.7013 0 25.5378 7.16344 25.5378 16V201.5H47.0757H74.1513Z" fill="#ECECEC"/>
</g>
<path d="M180.937 169.56H108.5C107.741 169.56 107.127 168.946 107.127 168.188V161.935H100.875C100.116 161.935 99.5024 161.321 99.5024 160.563V154.31H97.0624C96.3038 154.31 95.6899 153.696 95.6899 152.938V61.4375C95.6899 60.6788 96.3038 60.065 97.0624 60.065H114.752V57.625C114.752 56.8663 115.366 56.2525 116.125 56.2525H122.377V53.8125C122.377 53.0538 122.991 52.44 123.75 52.44H139C139.759 52.44 140.372 53.0538 140.372 53.8125V56.2525H146.625C147.384 56.2525 147.997 56.8663 147.997 57.625V60.065H165.687C166.446 60.065 167.06 60.6788 167.06 61.4375V67.69H173.312C174.071 67.69 174.685 68.3038 174.685 69.0625V75.315H180.937C181.696 75.315 182.31 75.9288 182.31 76.6875V168.188C182.31 168.946 181.696 169.56 180.937 169.56ZM109.872 166.815H179.565V78.06H174.685V160.563C174.685 161.321 174.071 161.935 173.312 161.935H109.872V166.815ZM102.247 159.19H171.94V70.435H167.06V152.938C167.06 153.696 166.446 154.31 165.687 154.31H102.247V159.19ZM98.4349 151.565H164.315V62.81H147.997V65.25C147.997 66.0087 147.384 66.6225 146.625 66.6225H116.125C115.366 66.6225 114.752 66.0087 114.752 65.25V62.81H98.4349V151.565ZM117.497 63.8775H145.252V58.9975H139C138.241 58.9975 137.627 58.3837 137.627 57.625V55.185H125.122V57.625C125.122 58.3837 124.509 58.9975 123.75 58.9975H117.497V63.8775ZM156.156 131.435H106.594V128.69H156.156V131.435ZM156.156 116.185H106.594V113.44H156.156V116.185ZM156.156 100.935H106.594V98.19H156.156V100.935ZM156.156 85.685H106.594V82.94H156.156V85.685Z" fill="#09A1CC"/>
<path d="M107.726 328.25C106.393 328.25 105.151 328.033 104.001 327.6C102.868 327.15 101.876 326.525 101.026 325.725C100.193 324.908 99.543 323.95 99.0764 322.85C98.6097 321.75 98.3764 320.55 98.3764 319.25C98.3764 317.95 98.6097 316.75 99.0764 315.65C99.543 314.55 100.201 313.6 101.051 312.8C101.901 311.983 102.893 311.358 104.026 310.925C105.16 310.475 106.401 310.25 107.751 310.25C109.185 310.25 110.493 310.5 111.676 311C112.86 311.483 113.86 312.208 114.676 313.175L112.576 315.15C111.943 314.467 111.235 313.958 110.451 313.625C109.668 313.275 108.818 313.1 107.901 313.1C106.985 313.1 106.143 313.25 105.376 313.55C104.626 313.85 103.968 314.275 103.401 314.825C102.851 315.375 102.418 316.025 102.101 316.775C101.801 317.525 101.651 318.35 101.651 319.25C101.651 320.15 101.801 320.975 102.101 321.725C102.418 322.475 102.851 323.125 103.401 323.675C103.968 324.225 104.626 324.65 105.376 324.95C106.143 325.25 106.985 325.4 107.901 325.4C108.818 325.4 109.668 325.233 110.451 324.9C111.235 324.55 111.943 324.025 112.576 323.325L114.676 325.325C113.86 326.275 112.86 327 111.676 327.5C110.493 328 109.176 328.25 107.726 328.25ZM125.624 328.25C124.258 328.25 122.999 328.025 121.849 327.575C120.699 327.125 119.699 326.5 118.849 325.7C117.999 324.883 117.341 323.933 116.874 322.85C116.408 321.75 116.174 320.55 116.174 319.25C116.174 317.95 116.408 316.758 116.874 315.675C117.341 314.575 117.999 313.625 118.849 312.825C119.699 312.008 120.699 311.375 121.849 310.925C122.999 310.475 124.249 310.25 125.599 310.25C126.966 310.25 128.216 310.475 129.349 310.925C130.499 311.375 131.499 312.008 132.349 312.825C133.199 313.625 133.858 314.575 134.324 315.675C134.791 316.758 135.024 317.95 135.024 319.25C135.024 320.55 134.791 321.75 134.324 322.85C133.858 323.95 133.199 324.9 132.349 325.7C131.499 326.5 130.499 327.125 129.349 327.575C128.216 328.025 126.974 328.25 125.624 328.25ZM125.599 325.4C126.483 325.4 127.299 325.25 128.049 324.95C128.799 324.65 129.449 324.225 129.999 323.675C130.549 323.108 130.974 322.458 131.274 321.725C131.591 320.975 131.749 320.15 131.749 319.25C131.749 318.35 131.591 317.533 131.274 316.8C130.974 316.05 130.549 315.4 129.999 314.85C129.449 314.283 128.799 313.85 128.049 313.55C127.299 313.25 126.483 313.1 125.599 313.1C124.716 313.1 123.899 313.25 123.149 313.55C122.416 313.85 121.766 314.283 121.199 314.85C120.649 315.4 120.216 316.05 119.899 316.8C119.599 317.533 119.449 318.35 119.449 319.25C119.449 320.133 119.599 320.95 119.899 321.7C120.216 322.45 120.649 323.108 121.199 323.675C121.749 324.225 122.399 324.65 123.149 324.95C123.899 325.25 124.716 325.4 125.599 325.4ZM138.469 328V310.5H145.669C147.219 310.5 148.544 310.75 149.644 311.25C150.761 311.75 151.619 312.467 152.219 313.4C152.819 314.333 153.119 315.442 153.119 316.725C153.119 318.008 152.819 319.117 152.219 320.05C151.619 320.983 150.761 321.7 149.644 322.2C148.544 322.7 147.219 322.95 145.669 322.95H140.269L141.719 321.425V328H138.469ZM141.719 321.775L140.269 320.2H145.519C146.952 320.2 148.027 319.9 148.744 319.3C149.477 318.683 149.844 317.825 149.844 316.725C149.844 315.608 149.477 314.75 148.744 314.15C148.027 313.55 146.952 313.25 145.519 313.25H140.269L141.719 311.65V321.775ZM156.365 328V310.5H159.615V328H156.365ZM161.873 328L169.748 310.5H172.948L180.848 328H177.448L170.673 312.225H171.973L165.223 328H161.873ZM165.498 323.95L166.373 321.4H175.823L176.698 323.95H165.498ZM87.9931 358V340.5H91.2431V355.25H100.393V358H87.9931ZM102.959 358V340.5H106.209V358H102.959ZM114.492 358V343.25H108.692V340.5H123.542V343.25H117.742V358H114.492ZM128.981 347.775H137.681V350.45H128.981V347.775ZM129.231 355.275H139.106V358H125.981V340.5H138.756V343.225H129.231V355.275ZM142.729 358V340.5H149.929C151.479 340.5 152.804 340.75 153.904 341.25C155.021 341.75 155.879 342.467 156.479 343.4C157.079 344.333 157.379 345.442 157.379 346.725C157.379 348.008 157.079 349.117 156.479 350.05C155.879 350.967 155.021 351.675 153.904 352.175C152.804 352.658 151.479 352.9 149.929 352.9H144.529L145.979 351.425V358H142.729ZM154.179 358L149.754 351.65H153.229L157.679 358H154.179ZM145.979 351.775L144.529 350.225H149.779C151.213 350.225 152.288 349.917 153.004 349.3C153.738 348.683 154.104 347.825 154.104 346.725C154.104 345.608 153.738 344.75 153.004 344.15C152.288 343.55 151.213 343.25 149.779 343.25H144.529L145.979 341.65V351.775ZM158.541 358L166.416 340.5H169.616L177.516 358H174.116L167.341 342.225H168.641L161.891 358H158.541ZM162.166 353.95L163.041 351.4H172.491L173.366 353.95H162.166ZM179.741 358V340.5H182.991V355.25H192.141V358H179.741Z" fill="white"/>
<path d="M85.2159 443V430.74H80.4159V429H91.9959V430.74H87.1959V443H85.2159ZM97.3405 443.12C96.2738 443.12 95.3271 442.887 94.5005 442.42C93.6738 441.953 93.0205 441.313 92.5405 440.5C92.0605 439.673 91.8205 438.74 91.8205 437.7C91.8205 436.647 92.0605 435.713 92.5405 434.9C93.0205 434.087 93.6738 433.453 94.5005 433C95.3271 432.533 96.2738 432.3 97.3405 432.3C98.3938 432.3 99.3338 432.533 100.16 433C101 433.453 101.654 434.087 102.12 434.9C102.6 435.7 102.84 436.633 102.84 437.7C102.84 438.753 102.6 439.687 102.12 440.5C101.654 441.313 101 441.953 100.16 442.42C99.3338 442.887 98.3938 443.12 97.3405 443.12ZM97.3405 441.44C98.0205 441.44 98.6271 441.287 99.1605 440.98C99.7071 440.673 100.134 440.24 100.44 439.68C100.747 439.107 100.9 438.447 100.9 437.7C100.9 436.94 100.747 436.287 100.44 435.74C100.134 435.18 99.7071 434.747 99.1605 434.44C98.6271 434.133 98.0205 433.98 97.3405 433.98C96.6605 433.98 96.0538 434.133 95.5205 434.44C94.9871 434.747 94.5605 435.18 94.2405 435.74C93.9205 436.287 93.7605 436.94 93.7605 437.7C93.7605 438.447 93.9205 439.107 94.2405 439.68C94.5605 440.24 94.9871 440.673 95.5205 440.98C96.0538 441.287 96.6605 441.44 97.3405 441.44ZM109.136 443.12C108.069 443.12 107.242 442.833 106.656 442.26C106.069 441.687 105.776 440.867 105.776 439.8V430.08H107.696V439.72C107.696 440.293 107.836 440.733 108.116 441.04C108.409 441.347 108.822 441.5 109.356 441.5C109.956 441.5 110.456 441.333 110.856 441L111.456 442.38C111.162 442.633 110.809 442.82 110.396 442.94C109.996 443.06 109.576 443.12 109.136 443.12ZM103.976 433.98V432.4H110.736V433.98H103.976ZM120.357 443V440.76L120.257 440.34V436.52C120.257 435.707 120.017 435.08 119.537 434.64C119.07 434.187 118.364 433.96 117.417 433.96C116.79 433.96 116.177 434.067 115.577 434.28C114.977 434.48 114.47 434.753 114.057 435.1L113.257 433.66C113.804 433.22 114.457 432.887 115.217 432.66C115.99 432.42 116.797 432.3 117.637 432.3C119.09 432.3 120.21 432.653 120.997 433.36C121.784 434.067 122.177 435.147 122.177 436.6V443H120.357ZM116.877 443.12C116.09 443.12 115.397 442.987 114.797 442.72C114.21 442.453 113.757 442.087 113.437 441.62C113.117 441.14 112.957 440.6 112.957 440C112.957 439.427 113.09 438.907 113.357 438.44C113.637 437.973 114.084 437.6 114.697 437.32C115.324 437.04 116.164 436.9 117.217 436.9H120.577V438.28H117.297C116.337 438.28 115.69 438.44 115.357 438.76C115.024 439.08 114.857 439.467 114.857 439.92C114.857 440.44 115.064 440.86 115.477 441.18C115.89 441.487 116.464 441.64 117.197 441.64C117.917 441.64 118.544 441.48 119.077 441.16C119.624 440.84 120.017 440.373 120.257 439.76L120.637 441.08C120.384 441.707 119.937 442.207 119.297 442.58C118.657 442.94 117.85 443.12 116.877 443.12ZM125.73 443V428.16H127.65V443H125.73ZM144.576 432.3C145.429 432.3 146.183 432.467 146.836 432.8C147.489 433.133 147.996 433.64 148.356 434.32C148.729 435 148.916 435.86 148.916 436.9V443H146.996V437.12C146.996 436.093 146.756 435.32 146.276 434.8C145.796 434.28 145.123 434.02 144.256 434.02C143.616 434.02 143.056 434.153 142.576 434.42C142.096 434.687 141.723 435.08 141.456 435.6C141.203 436.12 141.076 436.767 141.076 437.54V443H139.156V437.12C139.156 436.093 138.916 435.32 138.436 434.8C137.969 434.28 137.296 434.02 136.416 434.02C135.789 434.02 135.236 434.153 134.756 434.42C134.276 434.687 133.903 435.08 133.636 435.6C133.369 436.12 133.236 436.767 133.236 437.54V443H131.316V432.4H133.156V435.22L132.856 434.5C133.189 433.807 133.703 433.267 134.396 432.88C135.089 432.493 135.896 432.3 136.816 432.3C137.829 432.3 138.703 432.553 139.436 433.06C140.169 433.553 140.649 434.307 140.876 435.32L140.096 435C140.416 434.187 140.976 433.533 141.776 433.04C142.576 432.547 143.509 432.3 144.576 432.3ZM157.169 443.12C156.036 443.12 155.036 442.887 154.169 442.42C153.316 441.953 152.649 441.313 152.169 440.5C151.702 439.687 151.469 438.753 151.469 437.7C151.469 436.647 151.696 435.713 152.149 434.9C152.616 434.087 153.249 433.453 154.049 433C154.862 432.533 155.776 432.3 156.789 432.3C157.816 432.3 158.722 432.527 159.509 432.98C160.296 433.433 160.909 434.073 161.349 434.9C161.802 435.713 162.029 436.667 162.029 437.76C162.029 437.84 162.022 437.933 162.009 438.04C162.009 438.147 162.002 438.247 161.989 438.34H152.969V436.96H160.989L160.209 437.44C160.222 436.76 160.082 436.153 159.789 435.62C159.496 435.087 159.089 434.673 158.569 434.38C158.062 434.073 157.469 433.92 156.789 433.92C156.122 433.92 155.529 434.073 155.009 434.38C154.489 434.673 154.082 435.093 153.789 435.64C153.496 436.173 153.349 436.787 153.349 437.48V437.8C153.349 438.507 153.509 439.14 153.829 439.7C154.162 440.247 154.622 440.673 155.209 440.98C155.796 441.287 156.469 441.44 157.229 441.44C157.856 441.44 158.422 441.333 158.929 441.12C159.449 440.907 159.902 440.587 160.289 440.16L161.349 441.4C160.869 441.96 160.269 442.387 159.549 442.68C158.842 442.973 158.049 443.12 157.169 443.12ZM170.355 432.3C171.222 432.3 171.982 432.467 172.635 432.8C173.302 433.133 173.822 433.64 174.195 434.32C174.568 435 174.755 435.86 174.755 436.9V443H172.835V437.12C172.835 436.093 172.582 435.32 172.075 434.8C171.582 434.28 170.882 434.02 169.975 434.02C169.295 434.02 168.702 434.153 168.195 434.42C167.688 434.687 167.295 435.08 167.015 435.6C166.748 436.12 166.615 436.767 166.615 437.54V443H164.695V432.4H166.535V435.26L166.235 434.5C166.582 433.807 167.115 433.267 167.835 432.88C168.555 432.493 169.395 432.3 170.355 432.3ZM181.948 443.12C180.882 443.12 180.055 442.833 179.468 442.26C178.882 441.687 178.588 440.867 178.588 439.8V430.08H180.508V439.72C180.508 440.293 180.648 440.733 180.928 441.04C181.222 441.347 181.635 441.5 182.168 441.5C182.768 441.5 183.268 441.333 183.668 441L184.268 442.38C183.975 442.633 183.622 442.82 183.208 442.94C182.808 443.06 182.388 443.12 181.948 443.12ZM176.788 433.98V432.4H183.548V433.98H176.788ZM190.958 443.12C189.825 443.12 188.825 442.887 187.958 442.42C187.105 441.953 186.438 441.313 185.958 440.5C185.491 439.687 185.258 438.753 185.258 437.7C185.258 436.647 185.485 435.713 185.938 434.9C186.405 434.087 187.038 433.453 187.838 433C188.651 432.533 189.565 432.3 190.578 432.3C191.605 432.3 192.511 432.527 193.298 432.98C194.085 433.433 194.698 434.073 195.138 434.9C195.591 435.713 195.818 436.667 195.818 437.76C195.818 437.84 195.811 437.933 195.798 438.04C195.798 438.147 195.791 438.247 195.778 438.34H186.758V436.96H194.778L193.998 437.44C194.011 436.76 193.871 436.153 193.578 435.62C193.285 435.087 192.878 434.673 192.358 434.38C191.851 434.073 191.258 433.92 190.578 433.92C189.911 433.92 189.318 434.073 188.798 434.38C188.278 434.673 187.871 435.093 187.578 435.64C187.285 436.173 187.138 436.787 187.138 437.48V437.8C187.138 438.507 187.298 439.14 187.618 439.7C187.951 440.247 188.411 440.673 188.998 440.98C189.585 441.287 190.258 441.44 191.018 441.44C191.645 441.44 192.211 441.333 192.718 441.12C193.238 440.907 193.691 440.587 194.078 440.16L195.138 441.4C194.658 441.96 194.058 442.387 193.338 442.68C192.631 442.973 191.838 443.12 190.958 443.12ZM98.3014 467.12C97.4214 467.12 96.5814 467 95.7814 466.76C94.9947 466.52 94.3747 466.227 93.9214 465.88L94.7214 464.36C95.1747 464.667 95.7347 464.927 96.4014 465.14C97.0681 465.353 97.7481 465.46 98.4414 465.46C99.3347 465.46 99.9747 465.333 100.361 465.08C100.761 464.827 100.961 464.473 100.961 464.02C100.961 463.687 100.841 463.427 100.601 463.24C100.361 463.053 100.041 462.913 99.6414 462.82C99.2547 462.727 98.8214 462.647 98.3414 462.58C97.8614 462.5 97.3814 462.407 96.9014 462.3C96.4214 462.18 95.9814 462.02 95.5814 461.82C95.1814 461.607 94.8614 461.32 94.6214 460.96C94.3814 460.587 94.2614 460.093 94.2614 459.48C94.2614 458.84 94.4414 458.28 94.8014 457.8C95.1614 457.32 95.6681 456.953 96.3214 456.7C96.9881 456.433 97.7747 456.3 98.6814 456.3C99.3747 456.3 100.075 456.387 100.781 456.56C101.501 456.72 102.088 456.953 102.541 457.26L101.721 458.78C101.241 458.46 100.741 458.24 100.221 458.12C99.7014 458 99.1814 457.94 98.6614 457.94C97.8214 457.94 97.1947 458.08 96.7814 458.36C96.3681 458.627 96.1614 458.973 96.1614 459.4C96.1614 459.76 96.2814 460.04 96.5214 460.24C96.7747 460.427 97.0947 460.573 97.4814 460.68C97.8814 460.787 98.3214 460.88 98.8014 460.96C99.2814 461.027 99.7614 461.12 100.241 461.24C100.721 461.347 101.155 461.5 101.541 461.7C101.941 461.9 102.261 462.18 102.501 462.54C102.755 462.9 102.881 463.38 102.881 463.98C102.881 464.62 102.695 465.173 102.321 465.64C101.948 466.107 101.421 466.473 100.741 466.74C100.061 466.993 99.2481 467.12 98.3014 467.12ZM111.861 467V464.76L111.761 464.34V460.52C111.761 459.707 111.521 459.08 111.041 458.64C110.574 458.187 109.868 457.96 108.921 457.96C108.294 457.96 107.681 458.067 107.081 458.28C106.481 458.48 105.974 458.753 105.561 459.1L104.761 457.66C105.308 457.22 105.961 456.887 106.721 456.66C107.494 456.42 108.301 456.3 109.141 456.3C110.594 456.3 111.714 456.653 112.501 457.36C113.288 458.067 113.681 459.147 113.681 460.6V467H111.861ZM108.381 467.12C107.594 467.12 106.901 466.987 106.301 466.72C105.714 466.453 105.261 466.087 104.941 465.62C104.621 465.14 104.461 464.6 104.461 464C104.461 463.427 104.594 462.907 104.861 462.44C105.141 461.973 105.588 461.6 106.201 461.32C106.828 461.04 107.668 460.9 108.721 460.9H112.081V462.28H108.801C107.841 462.28 107.194 462.44 106.861 462.76C106.528 463.08 106.361 463.467 106.361 463.92C106.361 464.44 106.568 464.86 106.981 465.18C107.394 465.487 107.968 465.64 108.701 465.64C109.421 465.64 110.048 465.48 110.581 465.16C111.128 464.84 111.521 464.373 111.761 463.76L112.141 465.08C111.888 465.707 111.441 466.207 110.801 466.58C110.161 466.94 109.354 467.12 108.381 467.12ZM122.894 456.3C123.761 456.3 124.521 456.467 125.174 456.8C125.841 457.133 126.361 457.64 126.734 458.32C127.107 459 127.294 459.86 127.294 460.9V467H125.374V461.12C125.374 460.093 125.121 459.32 124.614 458.8C124.121 458.28 123.421 458.02 122.514 458.02C121.834 458.02 121.241 458.153 120.734 458.42C120.227 458.687 119.834 459.08 119.554 459.6C119.287 460.12 119.154 460.767 119.154 461.54V467H117.234V456.4H119.074V459.26L118.774 458.5C119.121 457.807 119.654 457.267 120.374 456.88C121.094 456.493 121.934 456.3 122.894 456.3ZM135.567 467.12C134.434 467.12 133.434 466.887 132.567 466.42C131.714 465.953 131.047 465.313 130.567 464.5C130.101 463.687 129.867 462.753 129.867 461.7C129.867 460.647 130.094 459.713 130.547 458.9C131.014 458.087 131.647 457.453 132.447 457C133.261 456.533 134.174 456.3 135.187 456.3C136.214 456.3 137.121 456.527 137.907 456.98C138.694 457.433 139.307 458.073 139.747 458.9C140.201 459.713 140.427 460.667 140.427 461.76C140.427 461.84 140.421 461.933 140.407 462.04C140.407 462.147 140.401 462.247 140.387 462.34H131.367V460.96H139.387L138.607 461.44C138.621 460.76 138.481 460.153 138.187 459.62C137.894 459.087 137.487 458.673 136.967 458.38C136.461 458.073 135.867 457.92 135.187 457.92C134.521 457.92 133.927 458.073 133.407 458.38C132.887 458.673 132.481 459.093 132.187 459.64C131.894 460.173 131.747 460.787 131.747 461.48V461.8C131.747 462.507 131.907 463.14 132.227 463.7C132.561 464.247 133.021 464.673 133.607 464.98C134.194 465.287 134.867 465.44 135.627 465.44C136.254 465.44 136.821 465.333 137.327 465.12C137.847 464.907 138.301 464.587 138.687 464.16L139.747 465.4C139.267 465.96 138.667 466.387 137.947 466.68C137.241 466.973 136.447 467.12 135.567 467.12ZM149.38 467V464.76L149.28 464.34V460.52C149.28 459.707 149.04 459.08 148.56 458.64C148.094 458.187 147.387 457.96 146.44 457.96C145.814 457.96 145.2 458.067 144.6 458.28C144 458.48 143.494 458.753 143.08 459.1L142.28 457.66C142.827 457.22 143.48 456.887 144.24 456.66C145.014 456.42 145.82 456.3 146.66 456.3C148.114 456.3 149.234 456.653 150.02 457.36C150.807 458.067 151.2 459.147 151.2 460.6V467H149.38ZM145.9 467.12C145.114 467.12 144.42 466.987 143.82 466.72C143.234 466.453 142.78 466.087 142.46 465.62C142.14 465.14 141.98 464.6 141.98 464C141.98 463.427 142.114 462.907 142.38 462.44C142.66 461.973 143.107 461.6 143.72 461.32C144.347 461.04 145.187 460.9 146.24 460.9H149.6V462.28H146.32C145.36 462.28 144.714 462.44 144.38 462.76C144.047 463.08 143.88 463.467 143.88 463.92C143.88 464.44 144.087 464.86 144.5 465.18C144.914 465.487 145.487 465.64 146.22 465.64C146.94 465.64 147.567 465.48 148.1 465.16C148.647 464.84 149.04 464.373 149.28 463.76L149.66 465.08C149.407 465.707 148.96 466.207 148.32 466.58C147.68 466.94 146.874 467.12 145.9 467.12ZM159.134 467.12C158.107 467.12 157.187 466.893 156.374 466.44C155.574 465.987 154.94 465.353 154.474 464.54C154.007 463.727 153.774 462.78 153.774 461.7C153.774 460.62 154.007 459.68 154.474 458.88C154.94 458.067 155.574 457.433 156.374 456.98C157.187 456.527 158.107 456.3 159.134 456.3C160.027 456.3 160.834 456.5 161.554 456.9C162.274 457.3 162.847 457.9 163.274 458.7C163.714 459.5 163.934 460.5 163.934 461.7C163.934 462.9 163.72 463.9 163.294 464.7C162.88 465.5 162.314 466.107 161.594 466.52C160.874 466.92 160.054 467.12 159.134 467.12ZM159.294 465.44C159.96 465.44 160.56 465.287 161.094 464.98C161.64 464.673 162.067 464.24 162.374 463.68C162.694 463.107 162.854 462.447 162.854 461.7C162.854 460.94 162.694 460.287 162.374 459.74C162.067 459.18 161.64 458.747 161.094 458.44C160.56 458.133 159.96 457.98 159.294 457.98C158.614 457.98 158.007 458.133 157.474 458.44C156.94 458.747 156.514 459.18 156.194 459.74C155.874 460.287 155.714 460.94 155.714 461.7C155.714 462.447 155.874 463.107 156.194 463.68C156.514 464.24 156.94 464.673 157.474 464.98C158.007 465.287 158.614 465.44 159.294 465.44ZM162.914 467V464.14L163.034 461.68L162.834 459.22V452.16H164.754V467H162.914ZM172.926 467.12C171.86 467.12 170.913 466.887 170.086 466.42C169.26 465.953 168.606 465.313 168.126 464.5C167.646 463.673 167.406 462.74 167.406 461.7C167.406 460.647 167.646 459.713 168.126 458.9C168.606 458.087 169.26 457.453 170.086 457C170.913 456.533 171.86 456.3 172.926 456.3C173.98 456.3 174.92 456.533 175.746 457C176.586 457.453 177.24 458.087 177.706 458.9C178.186 459.7 178.426 460.633 178.426 461.7C178.426 462.753 178.186 463.687 177.706 464.5C177.24 465.313 176.586 465.953 175.746 466.42C174.92 466.887 173.98 467.12 172.926 467.12ZM172.926 465.44C173.606 465.44 174.213 465.287 174.746 464.98C175.293 464.673 175.72 464.24 176.026 463.68C176.333 463.107 176.486 462.447 176.486 461.7C176.486 460.94 176.333 460.287 176.026 459.74C175.72 459.18 175.293 458.747 174.746 458.44C174.213 458.133 173.606 457.98 172.926 457.98C172.246 457.98 171.64 458.133 171.106 458.44C170.573 458.747 170.146 459.18 169.826 459.74C169.506 460.287 169.346 460.94 169.346 461.7C169.346 462.447 169.506 463.107 169.826 463.68C170.146 464.24 170.573 464.673 171.106 464.98C171.64 465.287 172.246 465.44 172.926 465.44ZM181.307 467.12C180.934 467.12 180.614 466.993 180.347 466.74C180.081 466.473 179.947 466.14 179.947 465.74C179.947 465.34 180.081 465.013 180.347 464.76C180.614 464.507 180.934 464.38 181.307 464.38C181.667 464.38 181.974 464.507 182.227 464.76C182.494 465.013 182.627 465.34 182.627 465.74C182.627 466.14 182.494 466.473 182.227 466.74C181.974 466.993 181.667 467.12 181.307 467.12Z" fill="white" fill-opacity="0.9"/>
<defs>
<filter id="filter0_d_5_104" x="0" y="0" width="278" height="579.5" filterUnits="userSpaceOnUse" color-interpolation-filters="sRGB">
<feFlood flood-opacity="0" result="BackgroundImageFix"/>
<feColorMatrix in="SourceAlpha" type="matrix" values="0 0 0 0 0 0 0 0 0 0 0 0 0 0 0 0 0 0 127 0" result="hardAlpha"/>
<feOffset dy="4"/>
<feGaussianBlur stdDeviation="2"/>
<feComposite in2="hardAlpha" operator="out"/>
<feColorMatrix type="matrix" values="0 0 0 0 0 0 0 0 0 0 0 0 0 0 0 0 0 0 0.25 0"/>
<feBlend mode="normal" in2="BackgroundImageFix" result="effect1_dropShadow_5_104"/>
<feBlend mode="normal" in="SourceGraphic" in2="effect1_dropShadow_5_104" result="shape"/>
</filter>
</defs>
</svg>
