<svg width="278" height="580" viewBox="0 0 278 580" fill="none" xmlns="http://www.w3.org/2000/svg">
<g filter="url(#filter0_d_5_70)">
<path d="M4 217.5C4 208.663 11.1634 201.5 20 201.5H25.5378H47.0757H74.1513C82.9879 201.5 89.7108 209.084 93.7004 216.968C108.73 246.671 167.05 246.671 182.079 216.968C186.069 209.084 192.792 201.5 201.628 201.5H229.814H251.907H258C266.837 201.5 274 208.663 274 217.5V555.5C274 564.337 266.837 571.5 258 571.5H20C11.1634 571.5 4 564.337 4 555.5V217.5Z" fill="#09A1CC"/>
<path d="M74.1513 201.5C82.9879 201.5 89.7108 209.084 93.7004 216.968C108.73 246.671 167.05 246.671 182.079 216.968C186.069 209.084 192.792 201.5 201.628 201.5H229.814H251.907V16C251.907 7.16345 244.744 0 235.907 0H41.5378C32.7013 0 25.5378 7.16344 25.5378 16V201.5H47.0757H74.1513Z" fill="#ECECEC"/>
</g>
<path d="M180.962 50C179.787 50 178.835 50.952 178.835 52.1262V151.66C178.835 151.99 178.912 152.316 179.06 152.611L184.79 164.069C185.15 164.789 185.886 165.244 186.691 165.244C187.497 165.244 188.233 164.789 188.593 164.069L194.322 152.611C194.47 152.316 194.547 151.991 194.547 151.66V52.1262C194.547 50.952 193.595 50 192.421 50H180.962ZM190.294 151.158L186.691 158.363L183.088 151.158V54.2525H190.294V151.158Z" fill="#09A1CC"/>
<path d="M196.748 65.1824V99.1022C196.748 100.276 197.7 101.228 198.874 101.228C200.048 101.228 201 100.276 201 99.1022V65.1824C201 64.0082 200.048 63.0562 198.874 63.0562C197.7 63.0562 196.748 64.0082 196.748 65.1824Z" fill="#09A1CC"/>
<path d="M151.07 110.235H97.2385C96.0643 110.235 95.1123 111.188 95.1123 112.362C95.1123 113.536 96.0643 114.488 97.2385 114.488H151.07C152.244 114.488 153.196 113.536 153.196 112.362C153.196 111.188 152.244 110.235 151.07 110.235Z" fill="#09A1CC"/>
<path d="M151.07 141.697H97.2385C96.0643 141.697 95.1123 142.649 95.1123 143.824C95.1123 144.998 96.0643 145.95 97.2385 145.95H151.07C152.244 145.95 153.196 144.998 153.196 143.824C153.196 142.649 152.244 141.697 151.07 141.697Z" fill="#09A1CC"/>
<path d="M151.07 96.5787H97.2385C96.0643 96.5787 95.1123 97.5308 95.1123 98.705C95.1123 99.8792 96.0643 100.831 97.2385 100.831H151.07C152.244 100.831 153.196 99.8792 153.196 98.705C153.196 97.5308 152.244 96.5787 151.07 96.5787Z" fill="#09A1CC"/>
<path d="M97.2385 87.1758H129.196C130.37 87.1758 131.322 86.2234 131.322 85.0492C131.322 83.875 130.37 82.9233 129.196 82.9233H97.2385C96.0643 82.9233 95.1123 83.875 95.1123 85.0492C95.1123 86.2234 96.0643 87.1758 97.2385 87.1758Z" fill="#09A1CC"/>
<path d="M97.2385 73.5197H129.196C130.37 73.5197 131.322 72.568 131.322 71.3938C131.322 70.2196 130.37 69.2672 129.196 69.2672H97.2385C96.0643 69.2672 95.1123 70.2196 95.1123 71.3938C95.1123 72.568 96.0643 73.5197 97.2385 73.5197Z" fill="#09A1CC"/>
<path d="M81.1204 165.073H167.188C168.359 165.073 169.308 164.124 169.308 162.953V80.5626C169.308 80.5595 169.308 80.5568 169.308 80.5541C169.308 80.4857 169.304 80.4177 169.298 80.3512C169.293 80.2995 169.284 80.2488 169.275 80.1982C169.272 80.1808 169.27 80.1631 169.267 80.1457C169.255 80.0862 169.24 80.0267 169.223 79.9683C169.22 79.9606 169.219 79.9529 169.216 79.9448C169.198 79.8868 169.177 79.8292 169.155 79.7724C169.152 79.7651 169.149 79.7574 169.147 79.75C169.124 79.6967 169.099 79.6453 169.073 79.5947C169.067 79.5843 169.063 79.5727 169.057 79.5623C169.033 79.5163 169.005 79.4718 168.977 79.4274C168.968 79.4131 168.96 79.3977 168.95 79.3837C168.924 79.3439 168.894 79.3057 168.864 79.2674C168.851 79.2508 168.839 79.2331 168.826 79.2164C168.789 79.172 168.75 79.1295 168.709 79.0878C168.701 79.0797 168.695 79.0712 168.687 79.0634L140.414 50.7909C140.365 50.7418 140.314 50.6959 140.261 50.6522C140.247 50.641 140.232 50.631 140.218 50.6201C140.177 50.5885 140.136 50.5568 140.094 50.5286C140.082 50.5204 140.068 50.5131 140.056 50.505C140.01 50.4756 139.964 50.447 139.916 50.4211C139.908 50.4165 139.898 50.413 139.889 50.4084C139.837 50.381 139.783 50.3547 139.728 50.3323C139.722 50.3296 139.716 50.3276 139.71 50.3253C139.652 50.3018 139.593 50.2805 139.534 50.262C139.527 50.26 139.52 50.2589 139.513 50.2569C139.454 50.2392 139.394 50.2237 139.333 50.2113C139.316 50.2083 139.298 50.2067 139.282 50.2036C139.23 50.1947 139.179 50.1855 139.127 50.1804C139.057 50.1731 138.987 50.1696 138.915 50.1696H81.1204C79.9493 50.17 79 51.1193 79 52.2905V162.953C79 164.124 79.9493 165.073 81.1204 165.073ZM162.07 78.4429L141.037 78.4452L141.036 57.4104L162.07 78.4429ZM83.2409 54.4113H136.795L136.797 80.5661C136.797 81.1286 137.02 81.668 137.417 82.0656C137.815 82.4628 138.355 82.6861 138.917 82.6861L165.068 82.683V160.832H83.2409V54.4113Z" fill="#09A1CC"/>
<path d="M73.984 328.25C72.6173 328.25 71.309 328.058 70.059 327.675C68.809 327.275 67.8173 326.767 67.084 326.15L68.209 323.625C68.909 324.175 69.7757 324.633 70.809 325C71.8423 325.367 72.9007 325.55 73.984 325.55C74.9007 325.55 75.6423 325.45 76.209 325.25C76.7757 325.05 77.1923 324.783 77.459 324.45C77.7257 324.1 77.859 323.708 77.859 323.275C77.859 322.742 77.6673 322.317 77.284 322C76.9007 321.667 76.4007 321.408 75.784 321.225C75.184 321.025 74.509 320.842 73.759 320.675C73.0257 320.508 72.284 320.317 71.534 320.1C70.8007 319.867 70.1257 319.575 69.509 319.225C68.909 318.858 68.4173 318.375 68.034 317.775C67.6507 317.175 67.459 316.408 67.459 315.475C67.459 314.525 67.709 313.658 68.209 312.875C68.7257 312.075 69.5007 311.442 70.534 310.975C71.584 310.492 72.909 310.25 74.509 310.25C75.559 310.25 76.6007 310.383 77.634 310.65C78.6673 310.917 79.5673 311.3 80.334 311.8L79.309 314.325C78.5257 313.858 77.7173 313.517 76.884 313.3C76.0507 313.067 75.2507 312.95 74.484 312.95C73.584 312.95 72.8507 313.058 72.284 313.275C71.734 313.492 71.3257 313.775 71.059 314.125C70.809 314.475 70.684 314.875 70.684 315.325C70.684 315.858 70.8673 316.292 71.234 316.625C71.6173 316.942 72.109 317.192 72.709 317.375C73.3257 317.558 74.009 317.742 74.759 317.925C75.509 318.092 76.2507 318.283 76.984 318.5C77.734 318.717 78.409 319 79.009 319.35C79.6257 319.7 80.1173 320.175 80.484 320.775C80.8673 321.375 81.059 322.133 81.059 323.05C81.059 323.983 80.8007 324.85 80.284 325.65C79.784 326.433 79.009 327.067 77.959 327.55C76.909 328.017 75.584 328.25 73.984 328.25ZM87.2816 317.775H95.9816V320.45H87.2816V317.775ZM87.5316 325.275H97.4066V328H84.2816V310.5H97.0566V313.225H87.5316V325.275ZM101.03 328V310.5H108.23C109.78 310.5 111.105 310.75 112.205 311.25C113.321 311.75 114.18 312.467 114.78 313.4C115.38 314.333 115.68 315.442 115.68 316.725C115.68 318.008 115.38 319.117 114.78 320.05C114.18 320.983 113.321 321.7 112.205 322.2C111.105 322.7 109.78 322.95 108.23 322.95H102.83L104.28 321.425V328H101.03ZM104.28 321.775L102.83 320.2H108.08C109.513 320.2 110.588 319.9 111.305 319.3C112.038 318.683 112.405 317.825 112.405 316.725C112.405 315.608 112.038 314.75 111.305 314.15C110.588 313.55 109.513 313.25 108.08 313.25H102.83L104.28 311.65V321.775ZM115.571 328L123.446 310.5H126.646L134.546 328H131.146L124.371 312.225H125.671L118.921 328H115.571ZM119.196 323.95L120.071 321.4H129.521L130.396 323.95H119.196ZM136.772 328V310.5H143.972C145.522 310.5 146.847 310.75 147.947 311.25C149.064 311.75 149.922 312.467 150.522 313.4C151.122 314.333 151.422 315.442 151.422 316.725C151.422 318.008 151.122 319.117 150.522 320.05C149.922 320.967 149.064 321.675 147.947 322.175C146.847 322.658 145.522 322.9 143.972 322.9H138.572L140.022 321.425V328H136.772ZM148.222 328L143.797 321.65H147.272L151.722 328H148.222ZM140.022 321.775L138.572 320.225H143.822C145.255 320.225 146.33 319.917 147.047 319.3C147.78 318.683 148.147 317.825 148.147 316.725C148.147 315.608 147.78 314.75 147.047 314.15C146.33 313.55 145.255 313.25 143.822 313.25H138.572L140.022 311.65V321.775ZM152.583 328L160.458 310.5H163.658L171.558 328H168.158L161.383 312.225H162.683L155.933 328H152.583ZM156.208 323.95L157.083 321.4H166.533L167.408 323.95H156.208ZM184.243 328V313.25H178.443V310.5H193.293V313.25H187.493V328H184.243ZM202.939 328.25C200.539 328.25 198.656 327.575 197.289 326.225C195.939 324.875 195.264 322.925 195.264 320.375V310.5H198.514V320.25C198.514 322.05 198.898 323.358 199.664 324.175C200.448 324.992 201.548 325.4 202.964 325.4C204.381 325.4 205.473 324.992 206.239 324.175C207.006 323.358 207.389 322.05 207.389 320.25V310.5H210.589V320.375C210.589 322.925 209.906 324.875 208.539 326.225C207.189 327.575 205.323 328.25 202.939 328.25ZM69.0473 358V340.5H72.2973V355.25H81.4473V358H69.0473ZM91.8957 358.25C90.529 358.25 89.2707 358.025 88.1207 357.575C86.9707 357.125 85.9707 356.5 85.1207 355.7C84.2707 354.883 83.6124 353.933 83.1457 352.85C82.679 351.75 82.4457 350.55 82.4457 349.25C82.4457 347.95 82.679 346.758 83.1457 345.675C83.6124 344.575 84.2707 343.625 85.1207 342.825C85.9707 342.008 86.9707 341.375 88.1207 340.925C89.2707 340.475 90.5207 340.25 91.8707 340.25C93.2374 340.25 94.4874 340.475 95.6207 340.925C96.7707 341.375 97.7707 342.008 98.6207 342.825C99.4707 343.625 100.129 344.575 100.596 345.675C101.062 346.758 101.296 347.95 101.296 349.25C101.296 350.55 101.062 351.75 100.596 352.85C100.129 353.95 99.4707 354.9 98.6207 355.7C97.7707 356.5 96.7707 357.125 95.6207 357.575C94.4874 358.025 93.2457 358.25 91.8957 358.25ZM91.8707 355.4C92.754 355.4 93.5707 355.25 94.3207 354.95C95.0707 354.65 95.7207 354.225 96.2707 353.675C96.8207 353.108 97.2457 352.458 97.5457 351.725C97.8624 350.975 98.0207 350.15 98.0207 349.25C98.0207 348.35 97.8624 347.533 97.5457 346.8C97.2457 346.05 96.8207 345.4 96.2707 344.85C95.7207 344.283 95.0707 343.85 94.3207 343.55C93.5707 343.25 92.754 343.1 91.8707 343.1C90.9874 343.1 90.1707 343.25 89.4207 343.55C88.6874 343.85 88.0374 344.283 87.4707 344.85C86.9207 345.4 86.4874 346.05 86.1707 346.8C85.8707 347.533 85.7207 348.35 85.7207 349.25C85.7207 350.133 85.8707 350.95 86.1707 351.7C86.4874 352.45 86.9207 353.108 87.4707 353.675C88.0207 354.225 88.6707 354.65 89.4207 354.95C90.1707 355.25 90.9874 355.4 91.8707 355.4ZM108.046 358V343.25H102.246V340.5H117.096V343.25H111.296V358H108.046ZM122.536 347.775H131.236V350.45H122.536V347.775ZM122.786 355.275H132.661V358H119.536V340.5H132.311V343.225H122.786V355.275ZM145.568 350.45L146.193 361.85H142.493L143.093 350.45H145.568ZM144.343 344.5C144.926 344.5 145.401 344.692 145.768 345.075C146.134 345.442 146.318 345.9 146.318 346.45C146.318 346.967 146.134 347.417 145.768 347.8C145.401 348.167 144.926 348.35 144.343 348.35C143.759 348.35 143.276 348.167 142.893 347.8C142.509 347.417 142.318 346.967 142.318 346.45C142.318 345.9 142.509 345.442 142.893 345.075C143.276 344.692 143.759 344.5 144.343 344.5ZM162.451 340.5H165.701V358H162.451V340.5ZM153.401 358H150.151V340.5H153.401V358ZM162.701 350.5H153.126V347.725H162.701V350.5ZM178.59 358.25C177.223 358.25 175.965 358.025 174.815 357.575C173.665 357.125 172.665 356.5 171.815 355.7C170.965 354.883 170.307 353.933 169.84 352.85C169.373 351.75 169.14 350.55 169.14 349.25C169.14 347.95 169.373 346.758 169.84 345.675C170.307 344.575 170.965 343.625 171.815 342.825C172.665 342.008 173.665 341.375 174.815 340.925C175.965 340.475 177.215 340.25 178.565 340.25C179.932 340.25 181.182 340.475 182.315 340.925C183.465 341.375 184.465 342.008 185.315 342.825C186.165 343.625 186.823 344.575 187.29 345.675C187.757 346.758 187.99 347.95 187.99 349.25C187.99 350.55 187.757 351.75 187.29 352.85C186.823 353.95 186.165 354.9 185.315 355.7C184.465 356.5 183.465 357.125 182.315 357.575C181.182 358.025 179.94 358.25 178.59 358.25ZM178.565 355.4C179.448 355.4 180.265 355.25 181.015 354.95C181.765 354.65 182.415 354.225 182.965 353.675C183.515 353.108 183.94 352.458 184.24 351.725C184.557 350.975 184.715 350.15 184.715 349.25C184.715 348.35 184.557 347.533 184.24 346.8C183.94 346.05 183.515 345.4 182.965 344.85C182.415 344.283 181.765 343.85 181.015 343.55C180.265 343.25 179.448 343.1 178.565 343.1C177.682 343.1 176.865 343.25 176.115 343.55C175.382 343.85 174.732 344.283 174.165 344.85C173.615 345.4 173.182 346.05 172.865 346.8C172.565 347.533 172.415 348.35 172.415 349.25C172.415 350.133 172.565 350.95 172.865 351.7C173.182 352.45 173.615 353.108 174.165 353.675C174.715 354.225 175.365 354.65 176.115 354.95C176.865 355.25 177.682 355.4 178.565 355.4ZM194.978 358V351.075L195.703 353.075L188.103 340.5H191.578L197.678 350.625H195.728L201.878 340.5H205.078L197.478 353.075L198.228 351.075V358H194.978ZM207.595 352.2L206.995 340.5H210.695L210.07 352.2H207.595ZM208.845 358.175C208.261 358.175 207.778 357.983 207.395 357.6C207.011 357.217 206.82 356.758 206.82 356.225C206.82 355.692 207.011 355.242 207.395 354.875C207.778 354.492 208.261 354.3 208.845 354.3C209.428 354.3 209.903 354.492 210.27 354.875C210.636 355.242 210.82 355.692 210.82 356.225C210.82 356.758 210.636 357.217 210.27 357.6C209.903 357.983 209.428 358.175 208.845 358.175Z" fill="white"/>
<path d="M91.7515 443L98.0915 429H100.071L106.431 443H104.331L98.6715 430.12H99.4715L93.8115 443H91.7515ZM94.4515 439.5L94.9915 437.9H102.871L103.451 439.5H94.4515ZM119.231 443.12C118.351 443.12 117.544 442.92 116.811 442.52C116.091 442.107 115.511 441.5 115.071 440.7C114.644 439.9 114.431 438.9 114.431 437.7C114.431 436.5 114.638 435.5 115.051 434.7C115.478 433.9 116.051 433.3 116.771 432.9C117.504 432.5 118.324 432.3 119.231 432.3C120.271 432.3 121.191 432.527 121.991 432.98C122.791 433.433 123.424 434.067 123.891 434.88C124.358 435.68 124.591 436.62 124.591 437.7C124.591 438.78 124.358 439.727 123.891 440.54C123.424 441.353 122.791 441.987 121.991 442.44C121.191 442.893 120.271 443.12 119.231 443.12ZM113.611 446.88V432.4H115.451V435.26L115.331 437.72L115.531 440.18V446.88H113.611ZM119.071 441.44C119.751 441.44 120.358 441.287 120.891 440.98C121.438 440.673 121.864 440.24 122.171 439.68C122.491 439.107 122.651 438.447 122.651 437.7C122.651 436.94 122.491 436.287 122.171 435.74C121.864 435.18 121.438 434.747 120.891 434.44C120.358 434.133 119.751 433.98 119.071 433.98C118.404 433.98 117.798 434.133 117.251 434.44C116.718 434.747 116.291 435.18 115.971 435.74C115.664 436.287 115.511 436.94 115.511 437.7C115.511 438.447 115.664 439.107 115.971 439.68C116.291 440.24 116.718 440.673 117.251 440.98C117.798 441.287 118.404 441.44 119.071 441.44ZM127.244 443V432.4H129.084V435.28L128.904 434.56C129.197 433.827 129.69 433.267 130.384 432.88C131.077 432.493 131.93 432.3 132.944 432.3V434.16C132.864 434.147 132.784 434.14 132.704 434.14C132.637 434.14 132.57 434.14 132.504 434.14C131.477 434.14 130.664 434.447 130.064 435.06C129.464 435.673 129.164 436.56 129.164 437.72V443H127.244ZM139.933 443.12C138.799 443.12 137.799 442.887 136.933 442.42C136.079 441.953 135.413 441.313 134.933 440.5C134.466 439.687 134.233 438.753 134.233 437.7C134.233 436.647 134.459 435.713 134.913 434.9C135.379 434.087 136.013 433.453 136.813 433C137.626 432.533 138.539 432.3 139.553 432.3C140.579 432.3 141.486 432.527 142.273 432.98C143.059 433.433 143.673 434.073 144.113 434.9C144.566 435.713 144.793 436.667 144.793 437.76C144.793 437.84 144.786 437.933 144.773 438.04C144.773 438.147 144.766 438.247 144.753 438.34H135.733V436.96H143.753L142.973 437.44C142.986 436.76 142.846 436.153 142.553 435.62C142.259 435.087 141.853 434.673 141.333 434.38C140.826 434.073 140.233 433.92 139.553 433.92C138.886 433.92 138.293 434.073 137.773 434.38C137.253 434.673 136.846 435.093 136.553 435.64C136.259 436.173 136.113 436.787 136.113 437.48V437.8C136.113 438.507 136.273 439.14 136.593 439.7C136.926 440.247 137.386 440.673 137.973 440.98C138.559 441.287 139.233 441.44 139.993 441.44C140.619 441.44 141.186 441.333 141.693 441.12C142.213 440.907 142.666 440.587 143.053 440.16L144.113 441.4C143.633 441.96 143.033 442.387 142.313 442.68C141.606 442.973 140.813 443.12 139.933 443.12ZM152.079 443.12C150.999 443.12 150.032 442.887 149.179 442.42C148.339 441.953 147.679 441.313 147.199 440.5C146.719 439.687 146.479 438.753 146.479 437.7C146.479 436.647 146.719 435.713 147.199 434.9C147.679 434.087 148.339 433.453 149.179 433C150.032 432.533 150.999 432.3 152.079 432.3C153.039 432.3 153.892 432.493 154.639 432.88C155.399 433.253 155.985 433.813 156.399 434.56L154.939 435.5C154.592 434.98 154.165 434.6 153.659 434.36C153.165 434.107 152.632 433.98 152.059 433.98C151.365 433.98 150.745 434.133 150.199 434.44C149.652 434.747 149.219 435.18 148.899 435.74C148.579 436.287 148.419 436.94 148.419 437.7C148.419 438.46 148.579 439.12 148.899 439.68C149.219 440.24 149.652 440.673 150.199 440.98C150.745 441.287 151.365 441.44 152.059 441.44C152.632 441.44 153.165 441.32 153.659 441.08C154.165 440.827 154.592 440.44 154.939 439.92L156.399 440.84C155.985 441.573 155.399 442.14 154.639 442.54C153.892 442.927 153.039 443.12 152.079 443.12ZM158.748 443V432.4H160.668V443H158.748ZM159.708 430.36C159.334 430.36 159.021 430.24 158.768 430C158.528 429.76 158.408 429.467 158.408 429.12C158.408 428.76 158.528 428.46 158.768 428.22C159.021 427.98 159.334 427.86 159.708 427.86C160.081 427.86 160.388 427.98 160.628 428.22C160.881 428.447 161.008 428.733 161.008 429.08C161.008 429.44 160.888 429.747 160.648 430C160.408 430.24 160.094 430.36 159.708 430.36ZM168.874 443.12C167.807 443.12 166.86 442.887 166.034 442.42C165.207 441.953 164.554 441.313 164.074 440.5C163.594 439.673 163.354 438.74 163.354 437.7C163.354 436.647 163.594 435.713 164.074 434.9C164.554 434.087 165.207 433.453 166.034 433C166.86 432.533 167.807 432.3 168.874 432.3C169.927 432.3 170.867 432.533 171.694 433C172.534 433.453 173.187 434.087 173.654 434.9C174.134 435.7 174.374 436.633 174.374 437.7C174.374 438.753 174.134 439.687 173.654 440.5C173.187 441.313 172.534 441.953 171.694 442.42C170.867 442.887 169.927 443.12 168.874 443.12ZM168.874 441.44C169.554 441.44 170.16 441.287 170.694 440.98C171.24 440.673 171.667 440.24 171.974 439.68C172.28 439.107 172.434 438.447 172.434 437.7C172.434 436.94 172.28 436.287 171.974 435.74C171.667 435.18 171.24 434.747 170.694 434.44C170.16 434.133 169.554 433.98 168.874 433.98C168.194 433.98 167.587 434.133 167.054 434.44C166.52 434.747 166.094 435.18 165.774 435.74C165.454 436.287 165.294 436.94 165.294 437.7C165.294 438.447 165.454 439.107 165.774 439.68C166.094 440.24 166.52 440.673 167.054 440.98C167.587 441.287 168.194 441.44 168.874 441.44ZM180.069 443.12C179.189 443.12 178.349 443 177.549 442.76C176.762 442.52 176.142 442.227 175.689 441.88L176.489 440.36C176.942 440.667 177.502 440.927 178.169 441.14C178.836 441.353 179.516 441.46 180.209 441.46C181.102 441.46 181.742 441.333 182.129 441.08C182.529 440.827 182.729 440.473 182.729 440.02C182.729 439.687 182.609 439.427 182.369 439.24C182.129 439.053 181.809 438.913 181.409 438.82C181.022 438.727 180.589 438.647 180.109 438.58C179.629 438.5 179.149 438.407 178.669 438.3C178.189 438.18 177.749 438.02 177.349 437.82C176.949 437.607 176.629 437.32 176.389 436.96C176.149 436.587 176.029 436.093 176.029 435.48C176.029 434.84 176.209 434.28 176.569 433.8C176.929 433.32 177.436 432.953 178.089 432.7C178.756 432.433 179.542 432.3 180.449 432.3C181.142 432.3 181.842 432.387 182.549 432.56C183.269 432.72 183.856 432.953 184.309 433.26L183.489 434.78C183.009 434.46 182.509 434.24 181.989 434.12C181.469 434 180.949 433.94 180.429 433.94C179.589 433.94 178.962 434.08 178.549 434.36C178.136 434.627 177.929 434.973 177.929 435.4C177.929 435.76 178.049 436.04 178.289 436.24C178.542 436.427 178.862 436.573 179.249 436.68C179.649 436.787 180.089 436.88 180.569 436.96C181.049 437.027 181.529 437.12 182.009 437.24C182.489 437.347 182.922 437.5 183.309 437.7C183.709 437.9 184.029 438.18 184.269 438.54C184.522 438.9 184.649 439.38 184.649 439.98C184.649 440.62 184.462 441.173 184.089 441.64C183.716 442.107 183.189 442.473 182.509 442.74C181.829 442.993 181.016 443.12 180.069 443.12ZM89.0993 467V456.4H91.0193V467H89.0993ZM90.0593 454.36C89.686 454.36 89.3726 454.24 89.1193 454C88.8793 453.76 88.7593 453.467 88.7593 453.12C88.7593 452.76 88.8793 452.46 89.1193 452.22C89.3726 451.98 89.686 451.86 90.0593 451.86C90.4326 451.86 90.7393 451.98 90.9793 452.22C91.2326 452.447 91.3593 452.733 91.3593 453.08C91.3593 453.44 91.2393 453.747 90.9993 454C90.7593 454.24 90.446 454.36 90.0593 454.36ZM100.345 456.3C101.212 456.3 101.972 456.467 102.625 456.8C103.292 457.133 103.812 457.64 104.185 458.32C104.559 459 104.745 459.86 104.745 460.9V467H102.825V461.12C102.825 460.093 102.572 459.32 102.065 458.8C101.572 458.28 100.872 458.02 99.9652 458.02C99.2852 458.02 98.6919 458.153 98.1852 458.42C97.6786 458.687 97.2852 459.08 97.0052 459.6C96.7386 460.12 96.6052 460.767 96.6052 461.54V467H94.6852V456.4H96.5252V459.26L96.2252 458.5C96.5719 457.807 97.1052 457.267 97.8252 456.88C98.5452 456.493 99.3852 456.3 100.345 456.3ZM112.919 467.12C111.839 467.12 110.872 466.887 110.019 466.42C109.179 465.953 108.519 465.313 108.039 464.5C107.559 463.687 107.319 462.753 107.319 461.7C107.319 460.647 107.559 459.713 108.039 458.9C108.519 458.087 109.179 457.453 110.019 457C110.872 456.533 111.839 456.3 112.919 456.3C113.879 456.3 114.732 456.493 115.479 456.88C116.239 457.253 116.825 457.813 117.239 458.56L115.779 459.5C115.432 458.98 115.005 458.6 114.499 458.36C114.005 458.107 113.472 457.98 112.899 457.98C112.205 457.98 111.585 458.133 111.039 458.44C110.492 458.747 110.059 459.18 109.739 459.74C109.419 460.287 109.259 460.94 109.259 461.7C109.259 462.46 109.419 463.12 109.739 463.68C110.059 464.24 110.492 464.673 111.039 464.98C111.585 465.287 112.205 465.44 112.899 465.44C113.472 465.44 114.005 465.32 114.499 465.08C115.005 464.827 115.432 464.44 115.779 463.92L117.239 464.84C116.825 465.573 116.239 466.14 115.479 466.54C114.732 466.927 113.879 467.12 112.919 467.12ZM119.724 467V456.4H121.564V459.28L121.384 458.56C121.678 457.827 122.171 457.267 122.864 456.88C123.558 456.493 124.411 456.3 125.424 456.3V458.16C125.344 458.147 125.264 458.14 125.184 458.14C125.118 458.14 125.051 458.14 124.984 458.14C123.958 458.14 123.144 458.447 122.544 459.06C121.944 459.673 121.644 460.56 121.644 461.72V467H119.724ZM132.413 467.12C131.28 467.12 130.28 466.887 129.413 466.42C128.56 465.953 127.893 465.313 127.413 464.5C126.946 463.687 126.713 462.753 126.713 461.7C126.713 460.647 126.94 459.713 127.393 458.9C127.86 458.087 128.493 457.453 129.293 457C130.106 456.533 131.02 456.3 132.033 456.3C133.06 456.3 133.966 456.527 134.753 456.98C135.54 457.433 136.153 458.073 136.593 458.9C137.046 459.713 137.273 460.667 137.273 461.76C137.273 461.84 137.266 461.933 137.253 462.04C137.253 462.147 137.246 462.247 137.233 462.34H128.213V460.96H136.233L135.453 461.44C135.466 460.76 135.326 460.153 135.033 459.62C134.74 459.087 134.333 458.673 133.813 458.38C133.306 458.073 132.713 457.92 132.033 457.92C131.366 457.92 130.773 458.073 130.253 458.38C129.733 458.673 129.326 459.093 129.033 459.64C128.74 460.173 128.593 460.787 128.593 461.48V461.8C128.593 462.507 128.753 463.14 129.073 463.7C129.406 464.247 129.866 464.673 130.453 464.98C131.04 465.287 131.713 465.44 132.473 465.44C133.1 465.44 133.666 465.333 134.173 465.12C134.693 464.907 135.146 464.587 135.533 464.16L136.593 465.4C136.113 465.96 135.513 466.387 134.793 466.68C134.086 466.973 133.293 467.12 132.413 467.12ZM139.939 467V456.4H141.859V467H139.939ZM139.399 454.86L142.119 452.26H144.559L141.199 454.86H139.399ZM151.145 467.12C150.238 467.12 149.418 466.92 148.685 466.52C147.965 466.107 147.392 465.5 146.965 464.7C146.552 463.9 146.345 462.9 146.345 461.7C146.345 460.5 146.558 459.5 146.985 458.7C147.425 457.9 148.005 457.3 148.725 456.9C149.458 456.5 150.265 456.3 151.145 456.3C152.185 456.3 153.105 456.527 153.905 456.98C154.705 457.433 155.338 458.067 155.805 458.88C156.272 459.68 156.505 460.62 156.505 461.7C156.505 462.78 156.272 463.727 155.805 464.54C155.338 465.353 154.705 465.987 153.905 466.44C153.105 466.893 152.185 467.12 151.145 467.12ZM145.525 467V452.16H147.445V459.22L147.245 461.68L147.365 464.14V467H145.525ZM150.985 465.44C151.665 465.44 152.272 465.287 152.805 464.98C153.352 464.673 153.778 464.24 154.085 463.68C154.405 463.107 154.565 462.447 154.565 461.7C154.565 460.94 154.405 460.287 154.085 459.74C153.778 459.18 153.352 458.747 152.805 458.44C152.272 458.133 151.665 457.98 150.985 457.98C150.318 457.98 149.712 458.133 149.165 458.44C148.632 458.747 148.205 459.18 147.885 459.74C147.578 460.287 147.425 460.94 147.425 461.7C147.425 462.447 147.578 463.107 147.885 463.68C148.205 464.24 148.632 464.673 149.165 464.98C149.712 465.287 150.318 465.44 150.985 465.44ZM159.158 467V452.16H161.078V467H159.158ZM169.464 467.12C168.33 467.12 167.33 466.887 166.464 466.42C165.61 465.953 164.944 465.313 164.464 464.5C163.997 463.687 163.764 462.753 163.764 461.7C163.764 460.647 163.99 459.713 164.444 458.9C164.91 458.087 165.544 457.453 166.344 457C167.157 456.533 168.07 456.3 169.084 456.3C170.11 456.3 171.017 456.527 171.804 456.98C172.59 457.433 173.204 458.073 173.644 458.9C174.097 459.713 174.324 460.667 174.324 461.76C174.324 461.84 174.317 461.933 174.304 462.04C174.304 462.147 174.297 462.247 174.284 462.34H165.264V460.96H173.284L172.504 461.44C172.517 460.76 172.377 460.153 172.084 459.62C171.79 459.087 171.384 458.673 170.864 458.38C170.357 458.073 169.764 457.92 169.084 457.92C168.417 457.92 167.824 458.073 167.304 458.38C166.784 458.673 166.377 459.093 166.084 459.64C165.79 460.173 165.644 460.787 165.644 461.48V461.8C165.644 462.507 165.804 463.14 166.124 463.7C166.457 464.247 166.917 464.673 167.504 464.98C168.09 465.287 168.764 465.44 169.524 465.44C170.15 465.44 170.717 465.333 171.224 465.12C171.744 464.907 172.197 464.587 172.584 464.16L173.644 465.4C173.164 465.96 172.564 466.387 171.844 466.68C171.137 466.973 170.344 467.12 169.464 467.12ZM180.03 467.12C179.15 467.12 178.31 467 177.51 466.76C176.723 466.52 176.103 466.227 175.65 465.88L176.45 464.36C176.903 464.667 177.463 464.927 178.13 465.14C178.797 465.353 179.477 465.46 180.17 465.46C181.063 465.46 181.703 465.333 182.09 465.08C182.49 464.827 182.69 464.473 182.69 464.02C182.69 463.687 182.57 463.427 182.33 463.24C182.09 463.053 181.77 462.913 181.37 462.82C180.983 462.727 180.55 462.647 180.07 462.58C179.59 462.5 179.11 462.407 178.63 462.3C178.15 462.18 177.71 462.02 177.31 461.82C176.91 461.607 176.59 461.32 176.35 460.96C176.11 460.587 175.99 460.093 175.99 459.48C175.99 458.84 176.17 458.28 176.53 457.8C176.89 457.32 177.397 456.953 178.05 456.7C178.717 456.433 179.503 456.3 180.41 456.3C181.103 456.3 181.803 456.387 182.51 456.56C183.23 456.72 183.817 456.953 184.27 457.26L183.45 458.78C182.97 458.46 182.47 458.24 181.95 458.12C181.43 458 180.91 457.94 180.39 457.94C179.55 457.94 178.923 458.08 178.51 458.36C178.097 458.627 177.89 458.973 177.89 459.4C177.89 459.76 178.01 460.04 178.25 460.24C178.503 460.427 178.823 460.573 179.21 460.68C179.61 460.787 180.05 460.88 180.53 460.96C181.01 461.027 181.49 461.12 181.97 461.24C182.45 461.347 182.883 461.5 183.27 461.7C183.67 461.9 183.99 462.18 184.23 462.54C184.483 462.9 184.61 463.38 184.61 463.98C184.61 464.62 184.423 465.173 184.05 465.64C183.677 466.107 183.15 466.473 182.47 466.74C181.79 466.993 180.977 467.12 180.03 467.12ZM187.469 467.12C187.096 467.12 186.776 466.993 186.509 466.74C186.243 466.473 186.109 466.14 186.109 465.74C186.109 465.34 186.243 465.013 186.509 464.76C186.776 464.507 187.096 464.38 187.469 464.38C187.829 464.38 188.136 464.507 188.389 464.76C188.656 465.013 188.789 465.34 188.789 465.74C188.789 466.14 188.656 466.473 188.389 466.74C188.136 466.993 187.829 467.12 187.469 467.12Z" fill="white" fill-opacity="0.9"/>
<defs>
<filter id="filter0_d_5_70" x="0" y="0" width="278" height="579.5" filterUnits="userSpaceOnUse" color-interpolation-filters="sRGB">
<feFlood flood-opacity="0" result="BackgroundImageFix"/>
<feColorMatrix in="SourceAlpha" type="matrix" values="0 0 0 0 0 0 0 0 0 0 0 0 0 0 0 0 0 0 127 0" result="hardAlpha"/>
<feOffset dy="4"/>
<feGaussianBlur stdDeviation="2"/>
<feComposite in2="hardAlpha" operator="out"/>
<feColorMatrix type="matrix" values="0 0 0 0 0 0 0 0 0 0 0 0 0 0 0 0 0 0 0.25 0"/>
<feBlend mode="normal" in2="BackgroundImageFix" result="effect1_dropShadow_5_70"/>
<feBlend mode="normal" in="SourceGraphic" in2="effect1_dropShadow_5_70" result="shape"/>
</filter>
</defs>
</svg>
