<svg width="278" height="580" viewBox="0 0 278 580" fill="none" xmlns="http://www.w3.org/2000/svg">
<g filter="url(#filter0_d_5_92)">
<path d="M4 217.5C4 208.663 11.1634 201.5 20 201.5H25.5378H47.0757H74.1513C82.9879 201.5 89.7108 209.084 93.7004 216.968C108.73 246.671 167.05 246.671 182.079 216.968C186.069 209.084 192.792 201.5 201.628 201.5H229.814H251.907H258C266.837 201.5 274 208.663 274 217.5V555.5C274 564.337 266.837 571.5 258 571.5H20C11.1634 571.5 4 564.337 4 555.5V217.5Z" fill="#09A1CC"/>
<path d="M74.1513 201.5C82.9879 201.5 89.7108 209.084 93.7004 216.968C108.73 246.671 167.05 246.671 182.079 216.968C186.069 209.084 192.792 201.5 201.628 201.5H229.814H251.907V16C251.907 7.16345 244.744 0 235.907 0H41.5378C32.7013 0 25.5378 7.16344 25.5378 16V201.5H47.0757H74.1513Z" fill="#ECECEC"/>
</g>
<path d="M185.175 105.283L184.922 102.329L183.546 86.2433C166.485 84.3305 155.372 76.9588 152.811 75.1058C149.024 75.5876 146.114 77.2061 143.93 80.0414C137.542 88.3314 140.05 103.935 140.077 104.094L141.006 109.676C146.131 115.073 153.356 118.456 161.386 118.456C171.418 118.455 180.199 113.186 185.175 105.283ZM147.595 92.5954C147.595 90.5486 149.255 88.8891 151.301 88.8891C153.348 88.8891 155.008 90.5489 155.008 92.5954C155.008 94.6422 153.348 96.3016 151.301 96.3016C149.255 96.3016 147.595 94.6422 147.595 92.5954ZM170.863 105.423C164.935 109.161 157.821 109.185 152.055 105.139C150 103.698 152.588 100.79 154.615 102.213C158.906 105.224 164.36 104.927 168.693 102.197C170.813 100.861 172.981 104.087 170.863 105.423ZM170.85 96.3019C168.803 96.3019 167.144 94.6422 167.144 92.5956C167.144 90.5489 168.804 88.8894 170.85 88.8894C172.897 88.8894 174.556 90.5491 174.556 92.5956C174.556 94.6422 172.897 96.3019 170.85 96.3019Z" fill="#09A1CC"/>
<path d="M132.932 95.0024C134.021 97.9839 135.578 101.145 137.773 104.482C137.773 104.482 132.743 73.3038 153.035 71.3436C153.035 71.3436 165.498 81.5279 185.788 83.488L187.327 102.156C187.327 102.156 188.224 100.612 189.186 97.9284C190.384 94.5865 191.678 89.4738 191.474 83.3378C191.371 80.2616 190.883 76.93 189.822 73.4358C188.817 70.129 187.306 66.6839 185.091 63.1712C180.964 56.6297 171.857 54 162.725 54C150.14 54 137.505 58.9933 137.779 65.6236C137.779 65.6236 134.557 68.772 132.508 74.4282C131.384 77.5354 130.622 81.3982 130.937 85.9201C131.128 88.7058 131.74 91.741 132.932 95.0024Z" fill="#09A1CC"/>
<path d="M181.469 121.544H170.311L168.342 165.814H154.013L152.044 121.544H140.886C131.789 121.544 124.413 128.92 124.413 138.017L122.354 171.992H200L197.941 138.017C197.942 128.92 190.566 121.544 181.469 121.544Z" fill="#09A1CC"/>
<path d="M161.889 121.544L161.177 120.832L160.466 121.544L155.232 126.778L159.441 130.987L155.232 155.605L161.177 161.55L167.123 155.605L162.914 130.987L167.123 126.778L161.889 121.544Z" fill="#09A1CC"/>
<path d="M91.3985 147.517H106.191C113.591 147.517 119.59 141.519 119.59 134.119V113.291L126.817 106.064C128.124 104.756 128.124 102.636 126.817 101.328L119.555 94.0657C119.188 86.9926 113.357 81.3673 106.193 81.3673H91.3985C83.9982 81.3673 78 87.3655 78 94.7638V134.119C78 141.519 83.9982 147.517 91.3985 147.517ZM82.1181 94.7638C82.1181 89.6469 86.2816 85.4837 91.3983 85.4837H106.191C111.122 85.4837 115.185 89.3464 115.44 94.278L115.523 95.8594L116.641 96.9775L123.36 103.696L116.676 110.38L115.469 111.587V113.291V134.121C115.469 139.238 111.306 143.401 106.189 143.401H91.3985C86.2816 143.399 82.1184 139.236 82.1184 134.119L82.1181 94.7638Z" fill="#09A1CC"/>
<path d="M87.101 113.74L88.0441 113.036V124.632C88.0441 125.769 88.9667 126.692 90.1033 126.692H106.407C107.544 126.692 108.466 125.769 108.466 124.632V112.931L109.574 113.748C109.943 114.02 110.371 114.15 110.795 114.15C111.427 114.15 112.051 113.859 112.455 113.314C113.13 112.397 112.934 111.108 112.02 110.435L99.4784 101.186C98.7474 100.646 97.7508 100.65 97.0241 101.192L84.6388 110.441C83.7266 111.123 83.5391 112.412 84.2208 113.322C84.9 114.234 86.1908 114.424 87.101 113.74ZM98.2633 105.405L104.406 109.935C104.393 110.03 104.35 110.112 104.35 110.211V122.574H100.994V115.363H95.5186V122.574H92.1622V110.209C92.1622 110.133 92.1272 110.067 92.1189 109.992L98.2633 105.405Z" fill="#09A1CC"/>
<path d="M49.305 318.55H58.03V321.3H49.305V318.55ZM49.58 328H46.33V310.5H59.105V313.225H49.58V328ZM62.2479 328V310.5H65.4979V328H62.2479ZM70.2313 328V310.5H77.4313C78.9813 310.5 80.3063 310.75 81.4063 311.25C82.523 311.75 83.3813 312.467 83.9813 313.4C84.5813 314.333 84.8813 315.442 84.8813 316.725C84.8813 318.008 84.5813 319.117 83.9813 320.05C83.3813 320.967 82.523 321.675 81.4063 322.175C80.3063 322.658 78.9813 322.9 77.4313 322.9H72.0313L73.4813 321.425V328H70.2313ZM81.6813 328L77.2563 321.65H80.7313L85.1813 328H81.6813ZM73.4813 321.775L72.0313 320.225H77.2813C78.7147 320.225 79.7897 319.917 80.5063 319.3C81.2397 318.683 81.6063 317.825 81.6063 316.725C81.6063 315.608 81.2397 314.75 80.5063 314.15C79.7897 313.55 78.7147 313.25 77.2813 313.25H72.0313L73.4813 311.65V321.775ZM88.5175 328V310.5H91.1925L98.8425 323.275H97.4425L104.967 310.5H107.642L107.667 328H104.592L104.567 315.325H105.217L98.8175 326H97.3675L90.8675 315.325H91.6175V328H88.5175ZM109.919 328L117.794 310.5H120.994L128.894 328H125.494L118.719 312.225H120.019L113.269 328H109.919ZM113.544 323.95L114.419 321.4H123.869L124.744 323.95H113.544ZM131.12 328V310.5H133.795L144.77 323.975H143.445V310.5H146.67V328H143.995L133.02 314.525H134.345V328H131.12ZM151.359 328V310.5H159.009C160.909 310.5 162.576 310.867 164.009 311.6C165.443 312.333 166.559 313.35 167.359 314.65C168.159 315.95 168.559 317.483 168.559 319.25C168.559 321 168.159 322.533 167.359 323.85C166.559 325.15 165.443 326.167 164.009 326.9C162.576 327.633 160.909 328 159.009 328H151.359ZM154.609 325.25H158.859C160.176 325.25 161.309 325 162.259 324.5C163.226 324 163.968 323.3 164.484 322.4C165.018 321.5 165.284 320.45 165.284 319.25C165.284 318.033 165.018 316.983 164.484 316.1C163.968 315.2 163.226 314.5 162.259 314C161.309 313.5 160.176 313.25 158.859 313.25H154.609V325.25ZM180.214 328.25C178.847 328.25 177.589 328.025 176.439 327.575C175.289 327.125 174.289 326.5 173.439 325.7C172.589 324.883 171.93 323.933 171.464 322.85C170.997 321.75 170.764 320.55 170.764 319.25C170.764 317.95 170.997 316.758 171.464 315.675C171.93 314.575 172.589 313.625 173.439 312.825C174.289 312.008 175.289 311.375 176.439 310.925C177.589 310.475 178.839 310.25 180.189 310.25C181.555 310.25 182.805 310.475 183.939 310.925C185.089 311.375 186.089 312.008 186.939 312.825C187.789 313.625 188.447 314.575 188.914 315.675C189.38 316.758 189.614 317.95 189.614 319.25C189.614 320.55 189.38 321.75 188.914 322.85C188.447 323.95 187.789 324.9 186.939 325.7C186.089 326.5 185.089 327.125 183.939 327.575C182.805 328.025 181.564 328.25 180.214 328.25ZM180.189 325.4C181.072 325.4 181.889 325.25 182.639 324.95C183.389 324.65 184.039 324.225 184.589 323.675C185.139 323.108 185.564 322.458 185.864 321.725C186.18 320.975 186.339 320.15 186.339 319.25C186.339 318.35 186.18 317.533 185.864 316.8C185.564 316.05 185.139 315.4 184.589 314.85C184.039 314.283 183.389 313.85 182.639 313.55C181.889 313.25 181.072 313.1 180.189 313.1C179.305 313.1 178.489 313.25 177.739 313.55C177.005 313.85 176.355 314.283 175.789 314.85C175.239 315.4 174.805 316.05 174.489 316.8C174.189 317.533 174.039 318.35 174.039 319.25C174.039 320.133 174.189 320.95 174.489 321.7C174.805 322.45 175.239 323.108 175.789 323.675C176.339 324.225 176.989 324.65 177.739 324.95C178.489 325.25 179.305 325.4 180.189 325.4ZM199.968 328V310.5H207.618C209.518 310.5 211.184 310.867 212.618 311.6C214.051 312.333 215.168 313.35 215.968 314.65C216.768 315.95 217.168 317.483 217.168 319.25C217.168 321 216.768 322.533 215.968 323.85C215.168 325.15 214.051 326.167 212.618 326.9C211.184 327.633 209.518 328 207.618 328H199.968ZM203.218 325.25H207.468C208.784 325.25 209.918 325 210.868 324.5C211.834 324 212.576 323.3 213.093 322.4C213.626 321.5 213.893 320.45 213.893 319.25C213.893 318.033 213.626 316.983 213.093 316.1C212.576 315.2 211.834 314.5 210.868 314C209.918 313.5 208.784 313.25 207.468 313.25H203.218V325.25ZM223.622 317.775H232.322V320.45H223.622V317.775ZM223.872 325.275H233.747V328H220.622V310.5H233.397V313.225H223.872V325.275ZM51.6744 358V343.25H45.8744V340.5H60.7244V343.25H54.9244V358H51.6744ZM70.3711 358.25C67.9711 358.25 66.0878 357.575 64.7211 356.225C63.3711 354.875 62.6961 352.925 62.6961 350.375V340.5H65.9461V350.25C65.9461 352.05 66.3294 353.358 67.0961 354.175C67.8794 354.992 68.9794 355.4 70.3961 355.4C71.8128 355.4 72.9044 354.992 73.6711 354.175C74.4378 353.358 74.8211 352.05 74.8211 350.25V340.5H78.0211V350.375C78.0211 352.925 77.3378 354.875 75.9711 356.225C74.6211 357.575 72.7544 358.25 70.3711 358.25ZM97.5818 358.25C96.2485 358.25 95.0068 358.033 93.8568 357.6C92.7235 357.15 91.7318 356.525 90.8818 355.725C90.0485 354.908 89.3985 353.95 88.9318 352.85C88.4652 351.75 88.2318 350.55 88.2318 349.25C88.2318 347.95 88.4652 346.75 88.9318 345.65C89.3985 344.55 90.0568 343.6 90.9068 342.8C91.7568 341.983 92.7485 341.358 93.8818 340.925C95.0152 340.475 96.2568 340.25 97.6068 340.25C99.0402 340.25 100.349 340.5 101.532 341C102.715 341.483 103.715 342.208 104.532 343.175L102.432 345.15C101.799 344.467 101.09 343.958 100.307 343.625C99.5235 343.275 98.6735 343.1 97.7568 343.1C96.8402 343.1 95.9985 343.25 95.2318 343.55C94.4818 343.85 93.8235 344.275 93.2568 344.825C92.7068 345.375 92.2735 346.025 91.9568 346.775C91.6568 347.525 91.5068 348.35 91.5068 349.25C91.5068 350.15 91.6568 350.975 91.9568 351.725C92.2735 352.475 92.7068 353.125 93.2568 353.675C93.8235 354.225 94.4818 354.65 95.2318 354.95C95.9985 355.25 96.8402 355.4 97.7568 355.4C98.6735 355.4 99.5235 355.233 100.307 354.9C101.09 354.55 101.799 354.025 102.432 353.325L104.532 355.325C103.715 356.275 102.715 357 101.532 357.5C100.349 358 99.0318 358.25 97.5818 358.25ZM115.48 358.25C114.113 358.25 112.855 358.025 111.705 357.575C110.555 357.125 109.555 356.5 108.705 355.7C107.855 354.883 107.196 353.933 106.73 352.85C106.263 351.75 106.03 350.55 106.03 349.25C106.03 347.95 106.263 346.758 106.73 345.675C107.196 344.575 107.855 343.625 108.705 342.825C109.555 342.008 110.555 341.375 111.705 340.925C112.855 340.475 114.105 340.25 115.455 340.25C116.821 340.25 118.071 340.475 119.205 340.925C120.355 341.375 121.355 342.008 122.205 342.825C123.055 343.625 123.713 344.575 124.18 345.675C124.646 346.758 124.88 347.95 124.88 349.25C124.88 350.55 124.646 351.75 124.18 352.85C123.713 353.95 123.055 354.9 122.205 355.7C121.355 356.5 120.355 357.125 119.205 357.575C118.071 358.025 116.83 358.25 115.48 358.25ZM115.455 355.4C116.338 355.4 117.155 355.25 117.905 354.95C118.655 354.65 119.305 354.225 119.855 353.675C120.405 353.108 120.83 352.458 121.13 351.725C121.446 350.975 121.605 350.15 121.605 349.25C121.605 348.35 121.446 347.533 121.13 346.8C120.83 346.05 120.405 345.4 119.855 344.85C119.305 344.283 118.655 343.85 117.905 343.55C117.155 343.25 116.338 343.1 115.455 343.1C114.571 343.1 113.755 343.25 113.005 343.55C112.271 343.85 111.621 344.283 111.055 344.85C110.505 345.4 110.071 346.05 109.755 346.8C109.455 347.533 109.305 348.35 109.305 349.25C109.305 350.133 109.455 350.95 109.755 351.7C110.071 352.45 110.505 353.108 111.055 353.675C111.605 354.225 112.255 354.65 113.005 354.95C113.755 355.25 114.571 355.4 115.455 355.4ZM128.325 358V340.5H131L141.975 353.975H140.65V340.5H143.875V358H141.2L130.225 344.525H131.55V358H128.325ZM152.114 358V343.25H146.314V340.5H161.164V343.25H155.364V358H152.114ZM163.603 358V340.5H170.803C172.353 340.5 173.678 340.75 174.778 341.25C175.895 341.75 176.753 342.467 177.353 343.4C177.953 344.333 178.253 345.442 178.253 346.725C178.253 348.008 177.953 349.117 177.353 350.05C176.753 350.967 175.895 351.675 174.778 352.175C173.678 352.658 172.353 352.9 170.803 352.9H165.403L166.853 351.425V358H163.603ZM175.053 358L170.628 351.65H174.103L178.553 358H175.053ZM166.853 351.775L165.403 350.225H170.653C172.086 350.225 173.161 349.917 173.878 349.3C174.611 348.683 174.978 347.825 174.978 346.725C174.978 345.608 174.611 344.75 173.878 344.15C173.161 343.55 172.086 343.25 170.653 343.25H165.403L166.853 341.65V351.775ZM179.414 358L187.289 340.5H190.489L198.389 358H194.989L188.214 342.225H189.514L182.764 358H179.414ZM183.039 353.95L183.914 351.4H193.364L194.239 353.95H183.039ZM203.286 358V343.25H197.486V340.5H212.336V343.25H206.536V358H203.286ZM222.731 358.25C221.364 358.25 220.106 358.025 218.956 357.575C217.806 357.125 216.806 356.5 215.956 355.7C215.106 354.883 214.447 353.933 213.981 352.85C213.514 351.75 213.281 350.55 213.281 349.25C213.281 347.95 213.514 346.758 213.981 345.675C214.447 344.575 215.106 343.625 215.956 342.825C216.806 342.008 217.806 341.375 218.956 340.925C220.106 340.475 221.356 340.25 222.706 340.25C224.072 340.25 225.322 340.475 226.456 340.925C227.606 341.375 228.606 342.008 229.456 342.825C230.306 343.625 230.964 344.575 231.431 345.675C231.897 346.758 232.131 347.95 232.131 349.25C232.131 350.55 231.897 351.75 231.431 352.85C230.964 353.95 230.306 354.9 229.456 355.7C228.606 356.5 227.606 357.125 226.456 357.575C225.322 358.025 224.081 358.25 222.731 358.25ZM222.706 355.4C223.589 355.4 224.406 355.25 225.156 354.95C225.906 354.65 226.556 354.225 227.106 353.675C227.656 353.108 228.081 352.458 228.381 351.725C228.697 350.975 228.856 350.15 228.856 349.25C228.856 348.35 228.697 347.533 228.381 346.8C228.081 346.05 227.656 345.4 227.106 344.85C226.556 344.283 225.906 343.85 225.156 343.55C224.406 343.25 223.589 343.1 222.706 343.1C221.822 343.1 221.006 343.25 220.256 343.55C219.522 343.85 218.872 344.283 218.306 344.85C217.756 345.4 217.322 346.05 217.006 346.8C216.706 347.533 216.556 348.35 216.556 349.25C216.556 350.133 216.706 350.95 217.006 351.7C217.322 352.45 217.756 353.108 218.306 353.675C218.856 354.225 219.506 354.65 220.256 354.95C221.006 355.25 221.822 355.4 222.706 355.4Z" fill="white"/>
<path d="M68.852 443V429H74.752C76.2453 429 77.5586 429.293 78.692 429.88C79.8386 430.467 80.7253 431.287 81.352 432.34C81.992 433.393 82.312 434.613 82.312 436C82.312 437.387 81.992 438.607 81.352 439.66C80.7253 440.713 79.8386 441.533 78.692 442.12C77.5586 442.707 76.2453 443 74.752 443H68.852ZM70.852 441.26H74.632C75.792 441.26 76.792 441.04 77.632 440.6C78.4853 440.16 79.1453 439.547 79.612 438.76C80.0786 437.96 80.312 437.04 80.312 436C80.312 434.947 80.0786 434.027 79.612 433.24C79.1453 432.453 78.4853 431.84 77.632 431.4C76.792 430.96 75.792 430.74 74.632 430.74H70.852V441.26ZM85.0954 443V432.4H87.0154V443H85.0954ZM86.0554 430.36C85.6821 430.36 85.3687 430.24 85.1154 430C84.8754 429.76 84.7554 429.467 84.7554 429.12C84.7554 428.76 84.8754 428.46 85.1154 428.22C85.3687 427.98 85.6821 427.86 86.0554 427.86C86.4287 427.86 86.7354 427.98 86.9754 428.22C87.2287 428.447 87.3554 428.733 87.3554 429.08C87.3554 429.44 87.2354 429.747 86.9954 430C86.7554 430.24 86.4421 430.36 86.0554 430.36ZM93.7213 443.12C92.8413 443.12 92.0013 443 91.2013 442.76C90.4147 442.52 89.7947 442.227 89.3413 441.88L90.1413 440.36C90.5947 440.667 91.1547 440.927 91.8213 441.14C92.488 441.353 93.168 441.46 93.8613 441.46C94.7547 441.46 95.3947 441.333 95.7813 441.08C96.1813 440.827 96.3813 440.473 96.3813 440.02C96.3813 439.687 96.2613 439.427 96.0213 439.24C95.7813 439.053 95.4613 438.913 95.0613 438.82C94.6747 438.727 94.2413 438.647 93.7613 438.58C93.2813 438.5 92.8013 438.407 92.3213 438.3C91.8413 438.18 91.4013 438.02 91.0013 437.82C90.6013 437.607 90.2813 437.32 90.0413 436.96C89.8013 436.587 89.6813 436.093 89.6813 435.48C89.6813 434.84 89.8613 434.28 90.2213 433.8C90.5813 433.32 91.088 432.953 91.7413 432.7C92.408 432.433 93.1947 432.3 94.1013 432.3C94.7947 432.3 95.4947 432.387 96.2013 432.56C96.9213 432.72 97.508 432.953 97.9613 433.26L97.1413 434.78C96.6613 434.46 96.1613 434.24 95.6413 434.12C95.1213 434 94.6013 433.94 94.0813 433.94C93.2413 433.94 92.6147 434.08 92.2013 434.36C91.788 434.627 91.5813 434.973 91.5813 435.4C91.5813 435.76 91.7013 436.04 91.9413 436.24C92.1947 436.427 92.5147 436.573 92.9013 436.68C93.3013 436.787 93.7413 436.88 94.2213 436.96C94.7013 437.027 95.1813 437.12 95.6613 437.24C96.1413 437.347 96.5747 437.5 96.9613 437.7C97.3613 437.9 97.6813 438.18 97.9213 438.54C98.1747 438.9 98.3013 439.38 98.3013 439.98C98.3013 440.62 98.1147 441.173 97.7413 441.64C97.368 442.107 96.8413 442.473 96.1613 442.74C95.4813 442.993 94.668 443.12 93.7213 443.12ZM100.981 443V431.46C100.981 430.42 101.281 429.593 101.881 428.98C102.494 428.353 103.361 428.04 104.481 428.04C104.894 428.04 105.288 428.093 105.661 428.2C106.048 428.293 106.374 428.447 106.641 428.66L106.061 430.12C105.861 429.96 105.634 429.84 105.381 429.76C105.128 429.667 104.861 429.62 104.581 429.62C104.021 429.62 103.594 429.78 103.301 430.1C103.008 430.407 102.861 430.867 102.861 431.48V432.9L102.901 433.78V443H100.981ZM99.1809 433.98V432.4H105.941V433.98H99.1809ZM107.752 443V432.4H109.592V435.28L109.412 434.56C109.705 433.827 110.198 433.267 110.892 432.88C111.585 432.493 112.438 432.3 113.452 432.3V434.16C113.372 434.147 113.292 434.14 113.212 434.14C113.145 434.14 113.078 434.14 113.012 434.14C111.985 434.14 111.172 434.447 110.572 435.06C109.972 435.673 109.672 436.56 109.672 437.72V443H107.752ZM120.415 443.12C119.508 443.12 118.708 442.953 118.015 442.62C117.335 442.287 116.801 441.78 116.415 441.1C116.041 440.407 115.855 439.54 115.855 438.5V432.4H117.775V438.28C117.775 439.32 118.021 440.1 118.515 440.62C119.021 441.14 119.728 441.4 120.635 441.4C121.301 441.4 121.881 441.267 122.375 441C122.868 440.72 123.248 440.32 123.515 439.8C123.781 439.267 123.915 438.627 123.915 437.88V432.4H125.835V443H124.015V440.14L124.315 440.9C123.968 441.607 123.448 442.153 122.755 442.54C122.061 442.927 121.281 443.12 120.415 443.12ZM133.13 443.12C132.063 443.12 131.237 442.833 130.65 442.26C130.063 441.687 129.77 440.867 129.77 439.8V430.08H131.69V439.72C131.69 440.293 131.83 440.733 132.11 441.04C132.403 441.347 132.817 441.5 133.35 441.5C133.95 441.5 134.45 441.333 134.85 441L135.45 442.38C135.157 442.633 134.803 442.82 134.39 442.94C133.99 443.06 133.57 443.12 133.13 443.12ZM127.97 433.98V432.4H134.73V433.98H127.97ZM144.351 443V440.76L144.251 440.34V436.52C144.251 435.707 144.011 435.08 143.531 434.64C143.065 434.187 142.358 433.96 141.411 433.96C140.785 433.96 140.171 434.067 139.571 434.28C138.971 434.48 138.465 434.753 138.051 435.1L137.251 433.66C137.798 433.22 138.451 432.887 139.211 432.66C139.985 432.42 140.791 432.3 141.631 432.3C143.085 432.3 144.205 432.653 144.991 433.36C145.778 434.067 146.171 435.147 146.171 436.6V443H144.351ZM140.871 443.12C140.085 443.12 139.391 442.987 138.791 442.72C138.205 442.453 137.751 442.087 137.431 441.62C137.111 441.14 136.951 440.6 136.951 440C136.951 439.427 137.085 438.907 137.351 438.44C137.631 437.973 138.078 437.6 138.691 437.32C139.318 437.04 140.158 436.9 141.211 436.9H144.571V438.28H141.291C140.331 438.28 139.685 438.44 139.351 438.76C139.018 439.08 138.851 439.467 138.851 439.92C138.851 440.44 139.058 440.86 139.471 441.18C139.885 441.487 140.458 441.64 141.191 441.64C141.911 441.64 142.538 441.48 143.071 441.16C143.618 440.84 144.011 440.373 144.251 439.76L144.631 441.08C144.378 441.707 143.931 442.207 143.291 442.58C142.651 442.94 141.845 443.12 140.871 443.12ZM158.735 443.12C157.669 443.12 156.842 442.833 156.255 442.26C155.669 441.687 155.375 440.867 155.375 439.8V430.08H157.295V439.72C157.295 440.293 157.435 440.733 157.715 441.04C158.009 441.347 158.422 441.5 158.955 441.5C159.555 441.5 160.055 441.333 160.455 441L161.055 442.38C160.762 442.633 160.409 442.82 159.995 442.94C159.595 443.06 159.175 443.12 158.735 443.12ZM153.575 433.98V432.4H160.335V433.98H153.575ZM167.565 443.12C166.498 443.12 165.552 442.887 164.725 442.42C163.898 441.953 163.245 441.313 162.765 440.5C162.285 439.673 162.045 438.74 162.045 437.7C162.045 436.647 162.285 435.713 162.765 434.9C163.245 434.087 163.898 433.453 164.725 433C165.552 432.533 166.498 432.3 167.565 432.3C168.618 432.3 169.558 432.533 170.385 433C171.225 433.453 171.878 434.087 172.345 434.9C172.825 435.7 173.065 436.633 173.065 437.7C173.065 438.753 172.825 439.687 172.345 440.5C171.878 441.313 171.225 441.953 170.385 442.42C169.558 442.887 168.618 443.12 167.565 443.12ZM167.565 441.44C168.245 441.44 168.852 441.287 169.385 440.98C169.932 440.673 170.358 440.24 170.665 439.68C170.972 439.107 171.125 438.447 171.125 437.7C171.125 436.94 170.972 436.287 170.665 435.74C170.358 435.18 169.932 434.747 169.385 434.44C168.852 434.133 168.245 433.98 167.565 433.98C166.885 433.98 166.278 434.133 165.745 434.44C165.212 434.747 164.785 435.18 164.465 435.74C164.145 436.287 163.985 436.94 163.985 437.7C163.985 438.447 164.145 439.107 164.465 439.68C164.785 440.24 165.212 440.673 165.745 440.98C166.278 441.287 166.885 441.44 167.565 441.44ZM180.1 443.12C179.074 443.12 178.154 442.893 177.34 442.44C176.54 441.987 175.907 441.353 175.44 440.54C174.974 439.727 174.74 438.78 174.74 437.7C174.74 436.62 174.974 435.68 175.44 434.88C175.907 434.067 176.54 433.433 177.34 432.98C178.154 432.527 179.074 432.3 180.1 432.3C180.994 432.3 181.8 432.5 182.52 432.9C183.24 433.3 183.814 433.9 184.24 434.7C184.68 435.5 184.9 436.5 184.9 437.7C184.9 438.9 184.687 439.9 184.26 440.7C183.847 441.5 183.28 442.107 182.56 442.52C181.84 442.92 181.02 443.12 180.1 443.12ZM180.26 441.44C180.927 441.44 181.527 441.287 182.06 440.98C182.607 440.673 183.034 440.24 183.34 439.68C183.66 439.107 183.82 438.447 183.82 437.7C183.82 436.94 183.66 436.287 183.34 435.74C183.034 435.18 182.607 434.747 182.06 434.44C181.527 434.133 180.927 433.98 180.26 433.98C179.58 433.98 178.974 434.133 178.44 434.44C177.907 434.747 177.48 435.18 177.16 435.74C176.84 436.287 176.68 436.94 176.68 437.7C176.68 438.447 176.84 439.107 177.16 439.68C177.48 440.24 177.907 440.673 178.44 440.98C178.974 441.287 179.58 441.44 180.26 441.44ZM183.88 443V440.14L184 437.68L183.8 435.22V428.16H185.72V443H183.88ZM193.893 443.12C192.827 443.12 191.88 442.887 191.053 442.42C190.227 441.953 189.573 441.313 189.093 440.5C188.613 439.673 188.373 438.74 188.373 437.7C188.373 436.647 188.613 435.713 189.093 434.9C189.573 434.087 190.227 433.453 191.053 433C191.88 432.533 192.827 432.3 193.893 432.3C194.947 432.3 195.887 432.533 196.713 433C197.553 433.453 198.207 434.087 198.673 434.9C199.153 435.7 199.393 436.633 199.393 437.7C199.393 438.753 199.153 439.687 198.673 440.5C198.207 441.313 197.553 441.953 196.713 442.42C195.887 442.887 194.947 443.12 193.893 443.12ZM193.893 441.44C194.573 441.44 195.18 441.287 195.713 440.98C196.26 440.673 196.687 440.24 196.993 439.68C197.3 439.107 197.453 438.447 197.453 437.7C197.453 436.94 197.3 436.287 196.993 435.74C196.687 435.18 196.26 434.747 195.713 434.44C195.18 434.133 194.573 433.98 193.893 433.98C193.213 433.98 192.607 434.133 192.073 434.44C191.54 434.747 191.113 435.18 190.793 435.74C190.473 436.287 190.313 436.94 190.313 437.7C190.313 438.447 190.473 439.107 190.793 439.68C191.113 440.24 191.54 440.673 192.073 440.98C192.607 441.287 193.213 441.44 193.893 441.44ZM205.089 443.12C204.209 443.12 203.369 443 202.569 442.76C201.782 442.52 201.162 442.227 200.709 441.88L201.509 440.36C201.962 440.667 202.522 440.927 203.189 441.14C203.855 441.353 204.535 441.46 205.229 441.46C206.122 441.46 206.762 441.333 207.149 441.08C207.549 440.827 207.749 440.473 207.749 440.02C207.749 439.687 207.629 439.427 207.389 439.24C207.149 439.053 206.829 438.913 206.429 438.82C206.042 438.727 205.609 438.647 205.129 438.58C204.649 438.5 204.169 438.407 203.689 438.3C203.209 438.18 202.769 438.02 202.369 437.82C201.969 437.607 201.649 437.32 201.409 436.96C201.169 436.587 201.049 436.093 201.049 435.48C201.049 434.84 201.229 434.28 201.589 433.8C201.949 433.32 202.455 432.953 203.109 432.7C203.775 432.433 204.562 432.3 205.469 432.3C206.162 432.3 206.862 432.387 207.569 432.56C208.289 432.72 208.875 432.953 209.329 433.26L208.509 434.78C208.029 434.46 207.529 434.24 207.009 434.12C206.489 434 205.969 433.94 205.449 433.94C204.609 433.94 203.982 434.08 203.569 434.36C203.155 434.627 202.949 434.973 202.949 435.4C202.949 435.76 203.069 436.04 203.309 436.24C203.562 436.427 203.882 436.573 204.269 436.68C204.669 436.787 205.109 436.88 205.589 436.96C206.069 437.027 206.549 437.12 207.029 437.24C207.509 437.347 207.942 437.5 208.329 437.7C208.729 437.9 209.049 438.18 209.289 438.54C209.542 438.9 209.669 439.38 209.669 439.98C209.669 440.62 209.482 441.173 209.109 441.64C208.735 442.107 208.209 442.473 207.529 442.74C206.849 442.993 206.035 443.12 205.089 443.12ZM69.236 467V452.16H71.156V467H69.236ZM79.362 467.12C78.2953 467.12 77.3486 466.887 76.522 466.42C75.6953 465.953 75.042 465.313 74.562 464.5C74.082 463.673 73.842 462.74 73.842 461.7C73.842 460.647 74.082 459.713 74.562 458.9C75.042 458.087 75.6953 457.453 76.522 457C77.3486 456.533 78.2953 456.3 79.362 456.3C80.4153 456.3 81.3553 456.533 82.182 457C83.022 457.453 83.6753 458.087 84.142 458.9C84.622 459.7 84.862 460.633 84.862 461.7C84.862 462.753 84.622 463.687 84.142 464.5C83.6753 465.313 83.022 465.953 82.182 466.42C81.3553 466.887 80.4153 467.12 79.362 467.12ZM79.362 465.44C80.042 465.44 80.6486 465.287 81.182 464.98C81.7286 464.673 82.1553 464.24 82.462 463.68C82.7686 463.107 82.922 462.447 82.922 461.7C82.922 460.94 82.7686 460.287 82.462 459.74C82.1553 459.18 81.7286 458.747 81.182 458.44C80.6486 458.133 80.042 457.98 79.362 457.98C78.682 457.98 78.0753 458.133 77.542 458.44C77.0086 458.747 76.582 459.18 76.262 459.74C75.942 460.287 75.782 460.94 75.782 461.7C75.782 462.447 75.942 463.107 76.262 463.68C76.582 464.24 77.0086 464.673 77.542 464.98C78.0753 465.287 78.682 465.44 79.362 465.44ZM90.5573 467.12C89.6773 467.12 88.8373 467 88.0373 466.76C87.2506 466.52 86.6306 466.227 86.1773 465.88L86.9773 464.36C87.4306 464.667 87.9906 464.927 88.6573 465.14C89.3239 465.353 90.0039 465.46 90.6973 465.46C91.5906 465.46 92.2306 465.333 92.6173 465.08C93.0173 464.827 93.2173 464.473 93.2173 464.02C93.2173 463.687 93.0973 463.427 92.8573 463.24C92.6173 463.053 92.2973 462.913 91.8973 462.82C91.5106 462.727 91.0773 462.647 90.5973 462.58C90.1173 462.5 89.6373 462.407 89.1573 462.3C88.6773 462.18 88.2373 462.02 87.8373 461.82C87.4373 461.607 87.1173 461.32 86.8773 460.96C86.6373 460.587 86.5173 460.093 86.5173 459.48C86.5173 458.84 86.6973 458.28 87.0573 457.8C87.4173 457.32 87.9239 456.953 88.5773 456.7C89.2439 456.433 90.0306 456.3 90.9373 456.3C91.6306 456.3 92.3306 456.387 93.0373 456.56C93.7573 456.72 94.3439 456.953 94.7973 457.26L93.9773 458.78C93.4973 458.46 92.9973 458.24 92.4773 458.12C91.9573 458 91.4373 457.94 90.9173 457.94C90.0773 457.94 89.4506 458.08 89.0373 458.36C88.6239 458.627 88.4173 458.973 88.4173 459.4C88.4173 459.76 88.5373 460.04 88.7773 460.24C89.0306 460.427 89.3506 460.573 89.7373 460.68C90.1373 460.787 90.5773 460.88 91.0573 460.96C91.5373 461.027 92.0173 461.12 92.4973 461.24C92.9773 461.347 93.4106 461.5 93.7973 461.7C94.1973 461.9 94.5173 462.18 94.7573 462.54C95.0106 462.9 95.1373 463.38 95.1373 463.98C95.1373 464.62 94.9506 465.173 94.5773 465.64C94.2039 466.107 93.6773 466.473 92.9973 466.74C92.3173 466.993 91.5039 467.12 90.5573 467.12ZM108.528 467.12C107.621 467.12 106.801 466.92 106.068 466.52C105.348 466.107 104.775 465.5 104.348 464.7C103.935 463.9 103.728 462.9 103.728 461.7C103.728 460.5 103.941 459.5 104.368 458.7C104.808 457.9 105.388 457.3 106.108 456.9C106.841 456.5 107.648 456.3 108.528 456.3C109.568 456.3 110.488 456.527 111.288 456.98C112.088 457.433 112.721 458.067 113.188 458.88C113.655 459.68 113.888 460.62 113.888 461.7C113.888 462.78 113.655 463.727 113.188 464.54C112.721 465.353 112.088 465.987 111.288 466.44C110.488 466.893 109.568 467.12 108.528 467.12ZM102.908 467V452.16H104.828V459.22L104.628 461.68L104.748 464.14V467H102.908ZM108.368 465.44C109.048 465.44 109.655 465.287 110.188 464.98C110.735 464.673 111.161 464.24 111.468 463.68C111.788 463.107 111.948 462.447 111.948 461.7C111.948 460.94 111.788 460.287 111.468 459.74C111.161 459.18 110.735 458.747 110.188 458.44C109.655 458.133 109.048 457.98 108.368 457.98C107.701 457.98 107.095 458.133 106.548 458.44C106.015 458.747 105.588 459.18 105.268 459.74C104.961 460.287 104.808 460.94 104.808 461.7C104.808 462.447 104.961 463.107 105.268 463.68C105.588 464.24 106.015 464.673 106.548 464.98C107.095 465.287 107.701 465.44 108.368 465.44ZM121.261 467.12C120.127 467.12 119.127 466.887 118.261 466.42C117.407 465.953 116.741 465.313 116.261 464.5C115.794 463.687 115.561 462.753 115.561 461.7C115.561 460.647 115.787 459.713 116.241 458.9C116.707 458.087 117.341 457.453 118.141 457C118.954 456.533 119.867 456.3 120.881 456.3C121.907 456.3 122.814 456.527 123.601 456.98C124.387 457.433 125.001 458.073 125.441 458.9C125.894 459.713 126.121 460.667 126.121 461.76C126.121 461.84 126.114 461.933 126.101 462.04C126.101 462.147 126.094 462.247 126.081 462.34H117.061V460.96H125.081L124.301 461.44C124.314 460.76 124.174 460.153 123.881 459.62C123.587 459.087 123.181 458.673 122.661 458.38C122.154 458.073 121.561 457.92 120.881 457.92C120.214 457.92 119.621 458.073 119.101 458.38C118.581 458.673 118.174 459.093 117.881 459.64C117.587 460.173 117.441 460.787 117.441 461.48V461.8C117.441 462.507 117.601 463.14 117.921 463.7C118.254 464.247 118.714 464.673 119.301 464.98C119.887 465.287 120.561 465.44 121.321 465.44C121.947 465.44 122.514 465.333 123.021 465.12C123.541 464.907 123.994 464.587 124.381 464.16L125.441 465.4C124.961 465.96 124.361 466.387 123.641 466.68C122.934 466.973 122.141 467.12 121.261 467.12ZM134.447 456.3C135.313 456.3 136.073 456.467 136.727 456.8C137.393 457.133 137.913 457.64 138.287 458.32C138.66 459 138.847 459.86 138.847 460.9V467H136.927V461.12C136.927 460.093 136.673 459.32 136.167 458.8C135.673 458.28 134.973 458.02 134.067 458.02C133.387 458.02 132.793 458.153 132.287 458.42C131.78 458.687 131.387 459.08 131.107 459.6C130.84 460.12 130.707 460.767 130.707 461.54V467H128.787V456.4H130.627V459.26L130.327 458.5C130.673 457.807 131.207 457.267 131.927 456.88C132.647 456.493 133.487 456.3 134.447 456.3ZM147.12 467.12C145.987 467.12 144.987 466.887 144.12 466.42C143.267 465.953 142.6 465.313 142.12 464.5C141.653 463.687 141.42 462.753 141.42 461.7C141.42 460.647 141.647 459.713 142.1 458.9C142.567 458.087 143.2 457.453 144 457C144.813 456.533 145.727 456.3 146.74 456.3C147.767 456.3 148.673 456.527 149.46 456.98C150.247 457.433 150.86 458.073 151.3 458.9C151.753 459.713 151.98 460.667 151.98 461.76C151.98 461.84 151.973 461.933 151.96 462.04C151.96 462.147 151.953 462.247 151.94 462.34H142.92V460.96H150.94L150.16 461.44C150.173 460.76 150.033 460.153 149.74 459.62C149.447 459.087 149.04 458.673 148.52 458.38C148.013 458.073 147.42 457.92 146.74 457.92C146.073 457.92 145.48 458.073 144.96 458.38C144.44 458.673 144.033 459.093 143.74 459.64C143.447 460.173 143.3 460.787 143.3 461.48V461.8C143.3 462.507 143.46 463.14 143.78 463.7C144.113 464.247 144.573 464.673 145.16 464.98C145.747 465.287 146.42 465.44 147.18 465.44C147.807 465.44 148.373 465.333 148.88 465.12C149.4 464.907 149.853 464.587 150.24 464.16L151.3 465.4C150.82 465.96 150.22 466.387 149.5 466.68C148.793 466.973 148 467.12 147.12 467.12ZM154.926 467V455.46C154.926 454.42 155.226 453.593 155.826 452.98C156.44 452.353 157.306 452.04 158.426 452.04C158.84 452.04 159.233 452.093 159.606 452.2C159.993 452.293 160.32 452.447 160.586 452.66L160.006 454.12C159.806 453.96 159.58 453.84 159.326 453.76C159.073 453.667 158.806 453.62 158.526 453.62C157.966 453.62 157.54 453.78 157.246 454.1C156.953 454.407 156.806 454.867 156.806 455.48V456.9L156.846 457.78V467H154.926ZM153.126 457.98V456.4H159.886V457.98H153.126ZM161.706 467V456.4H163.626V467H161.706ZM162.666 454.36C162.293 454.36 161.98 454.24 161.726 454C161.486 453.76 161.366 453.467 161.366 453.12C161.366 452.76 161.486 452.46 161.726 452.22C161.98 451.98 162.293 451.86 162.666 451.86C163.04 451.86 163.346 451.98 163.586 452.22C163.84 452.447 163.966 452.733 163.966 453.08C163.966 453.44 163.846 453.747 163.606 454C163.366 454.24 163.053 454.36 162.666 454.36ZM171.903 467.12C170.823 467.12 169.856 466.887 169.003 466.42C168.163 465.953 167.503 465.313 167.023 464.5C166.543 463.687 166.303 462.753 166.303 461.7C166.303 460.647 166.543 459.713 167.023 458.9C167.503 458.087 168.163 457.453 169.003 457C169.856 456.533 170.823 456.3 171.903 456.3C172.863 456.3 173.716 456.493 174.463 456.88C175.223 457.253 175.81 457.813 176.223 458.56L174.763 459.5C174.416 458.98 173.99 458.6 173.483 458.36C172.99 458.107 172.456 457.98 171.883 457.98C171.19 457.98 170.57 458.133 170.023 458.44C169.476 458.747 169.043 459.18 168.723 459.74C168.403 460.287 168.243 460.94 168.243 461.7C168.243 462.46 168.403 463.12 168.723 463.68C169.043 464.24 169.476 464.673 170.023 464.98C170.57 465.287 171.19 465.44 171.883 465.44C172.456 465.44 172.99 465.32 173.483 465.08C173.99 464.827 174.416 464.44 174.763 463.92L176.223 464.84C175.81 465.573 175.223 466.14 174.463 466.54C173.716 466.927 172.863 467.12 171.903 467.12ZM178.572 467V456.4H180.492V467H178.572ZM179.532 454.36C179.159 454.36 178.845 454.24 178.592 454C178.352 453.76 178.232 453.467 178.232 453.12C178.232 452.76 178.352 452.46 178.592 452.22C178.845 451.98 179.159 451.86 179.532 451.86C179.905 451.86 180.212 451.98 180.452 452.22C180.705 452.447 180.832 452.733 180.832 453.08C180.832 453.44 180.712 453.747 180.472 454C180.232 454.24 179.919 454.36 179.532 454.36ZM188.698 467.12C187.631 467.12 186.685 466.887 185.858 466.42C185.031 465.953 184.378 465.313 183.898 464.5C183.418 463.673 183.178 462.74 183.178 461.7C183.178 460.647 183.418 459.713 183.898 458.9C184.378 458.087 185.031 457.453 185.858 457C186.685 456.533 187.631 456.3 188.698 456.3C189.751 456.3 190.691 456.533 191.518 457C192.358 457.453 193.011 458.087 193.478 458.9C193.958 459.7 194.198 460.633 194.198 461.7C194.198 462.753 193.958 463.687 193.478 464.5C193.011 465.313 192.358 465.953 191.518 466.42C190.691 466.887 189.751 467.12 188.698 467.12ZM188.698 465.44C189.378 465.44 189.985 465.287 190.518 464.98C191.065 464.673 191.491 464.24 191.798 463.68C192.105 463.107 192.258 462.447 192.258 461.7C192.258 460.94 192.105 460.287 191.798 459.74C191.491 459.18 191.065 458.747 190.518 458.44C189.985 458.133 189.378 457.98 188.698 457.98C188.018 457.98 187.411 458.133 186.878 458.44C186.345 458.747 185.918 459.18 185.598 459.74C185.278 460.287 185.118 460.94 185.118 461.7C185.118 462.447 185.278 463.107 185.598 463.68C185.918 464.24 186.345 464.673 186.878 464.98C187.411 465.287 188.018 465.44 188.698 465.44ZM199.893 467.12C199.013 467.12 198.173 467 197.373 466.76C196.587 466.52 195.967 466.227 195.513 465.88L196.313 464.36C196.767 464.667 197.327 464.927 197.993 465.14C198.66 465.353 199.34 465.46 200.033 465.46C200.927 465.46 201.567 465.333 201.953 465.08C202.353 464.827 202.553 464.473 202.553 464.02C202.553 463.687 202.433 463.427 202.193 463.24C201.953 463.053 201.633 462.913 201.233 462.82C200.847 462.727 200.413 462.647 199.933 462.58C199.453 462.5 198.973 462.407 198.493 462.3C198.013 462.18 197.573 462.02 197.173 461.82C196.773 461.607 196.453 461.32 196.213 460.96C195.973 460.587 195.853 460.093 195.853 459.48C195.853 458.84 196.033 458.28 196.393 457.8C196.753 457.32 197.26 456.953 197.913 456.7C198.58 456.433 199.367 456.3 200.273 456.3C200.967 456.3 201.667 456.387 202.373 456.56C203.093 456.72 203.68 456.953 204.133 457.26L203.313 458.78C202.833 458.46 202.333 458.24 201.813 458.12C201.293 458 200.773 457.94 200.253 457.94C199.413 457.94 198.787 458.08 198.373 458.36C197.96 458.627 197.753 458.973 197.753 459.4C197.753 459.76 197.873 460.04 198.113 460.24C198.367 460.427 198.687 460.573 199.073 460.68C199.473 460.787 199.913 460.88 200.393 460.96C200.873 461.027 201.353 461.12 201.833 461.24C202.313 461.347 202.747 461.5 203.133 461.7C203.533 461.9 203.853 462.18 204.093 462.54C204.347 462.9 204.473 463.38 204.473 463.98C204.473 464.62 204.287 465.173 203.913 465.64C203.54 466.107 203.013 466.473 202.333 466.74C201.653 466.993 200.84 467.12 199.893 467.12ZM207.333 467.12C206.959 467.12 206.639 466.993 206.373 466.74C206.106 466.473 205.973 466.14 205.973 465.74C205.973 465.34 206.106 465.013 206.373 464.76C206.639 464.507 206.959 464.38 207.333 464.38C207.693 464.38 207.999 464.507 208.253 464.76C208.519 465.013 208.653 465.34 208.653 465.74C208.653 466.14 208.519 466.473 208.253 466.74C207.999 466.993 207.693 467.12 207.333 467.12Z" fill="white" fill-opacity="0.9"/>
<defs>
<filter id="filter0_d_5_92" x="0" y="0" width="278" height="579.5" filterUnits="userSpaceOnUse" color-interpolation-filters="sRGB">
<feFlood flood-opacity="0" result="BackgroundImageFix"/>
<feColorMatrix in="SourceAlpha" type="matrix" values="0 0 0 0 0 0 0 0 0 0 0 0 0 0 0 0 0 0 127 0" result="hardAlpha"/>
<feOffset dy="4"/>
<feGaussianBlur stdDeviation="2"/>
<feComposite in2="hardAlpha" operator="out"/>
<feColorMatrix type="matrix" values="0 0 0 0 0 0 0 0 0 0 0 0 0 0 0 0 0 0 0.25 0"/>
<feBlend mode="normal" in2="BackgroundImageFix" result="effect1_dropShadow_5_92"/>
<feBlend mode="normal" in="SourceGraphic" in2="effect1_dropShadow_5_92" result="shape"/>
</filter>
</defs>
</svg>
