<svg width="278" height="580" viewBox="0 0 278 580" fill="none" xmlns="http://www.w3.org/2000/svg">
<g filter="url(#filter0_d_5_83)">
<path d="M4 217.5C4 208.663 11.1634 201.5 20 201.5H25.5378H47.0757H74.1513C82.9879 201.5 89.7108 209.084 93.7004 216.968C108.73 246.671 167.05 246.671 182.079 216.968C186.069 209.084 192.792 201.5 201.628 201.5H229.814H251.907H258C266.837 201.5 274 208.663 274 217.5V555.5C274 564.337 266.837 571.5 258 571.5H20C11.1634 571.5 4 564.337 4 555.5V217.5Z" fill="#09A1CC"/>
<path d="M74.1513 201.5C82.9879 201.5 89.7108 209.084 93.7004 216.968C108.73 246.671 167.05 246.671 182.079 216.968C186.069 209.084 192.792 201.5 201.628 201.5H229.814H251.907V16C251.907 7.16345 244.744 0 235.907 0H41.5378C32.7013 0 25.5378 7.16344 25.5378 16V201.5H47.0757H74.1513Z" fill="#ECECEC"/>
</g>
<path d="M136.858 99V71H138.674V99H136.858ZM140.8 80.8C140.74 80.0708 140.464 79.5021 139.969 79.0938C139.482 78.6854 138.74 78.4813 137.744 78.4813C137.109 78.4813 136.588 78.5578 136.182 78.7109C135.784 78.8568 135.489 79.0573 135.297 79.3125C135.105 79.5677 135.005 79.8594 134.998 80.1875C134.983 80.4573 135.031 80.7016 135.142 80.9203C135.26 81.1318 135.444 81.325 135.695 81.5C135.946 81.6677 136.267 81.8209 136.658 81.9594C137.05 82.0979 137.515 82.2219 138.054 82.3313L139.914 82.725C141.169 82.9875 142.243 83.3339 143.136 83.7641C144.029 84.1943 144.76 84.7011 145.328 85.2844C145.896 85.8604 146.314 86.5094 146.579 87.2313C146.852 87.9531 146.993 88.7406 147 89.5938C146.993 91.0667 146.62 92.3136 145.882 93.3344C145.144 94.3552 144.088 95.1318 142.715 95.6641C141.349 96.1964 139.707 96.4626 137.788 96.4626C135.817 96.4626 134.097 96.1745 132.628 95.5984C131.167 95.0224 130.03 94.1365 129.218 92.9406C128.413 91.7375 128.007 90.199 128 88.325H133.846C133.883 89.0104 134.057 89.5865 134.367 90.0531C134.677 90.5198 135.112 90.8735 135.673 91.1141C136.241 91.3547 136.917 91.475 137.699 91.475C138.356 91.475 138.906 91.3948 139.349 91.2344C139.792 91.074 140.128 90.8516 140.357 90.5672C140.585 90.2828 140.704 89.9583 140.711 89.5938C140.704 89.251 140.589 88.9521 140.368 88.6969C140.154 88.4344 139.799 88.201 139.305 87.9969C138.81 87.7854 138.142 87.5886 137.301 87.4063L135.042 86.925C133.034 86.4948 131.451 85.7766 130.292 84.7703C129.14 83.7568 128.568 82.375 128.576 80.625C128.568 79.2031 128.952 77.9599 129.727 76.8953C130.51 75.8234 131.591 74.9886 132.971 74.3906C134.359 73.7927 135.95 73.4938 137.744 73.4938C139.574 73.4938 141.158 73.7964 142.494 74.4016C143.83 75.0068 144.859 75.8599 145.583 76.9609C146.314 78.0547 146.683 79.3344 146.69 80.8H140.8Z" fill="#09A1CC"/>
<path d="M189.379 134.47C189.195 133.792 188.934 133.138 188.599 132.52C188.093 131.624 187.414 130.837 186.601 130.206C185.789 129.575 184.858 129.112 183.864 128.844C182.871 128.577 181.834 128.51 180.814 128.647C179.794 128.784 178.812 129.123 177.924 129.645L167.761 135.494C162.283 138.676 156.062 140.358 149.726 140.368C148.804 140.369 147.883 140.295 146.972 140.149C146.66 139.842 146.367 139.516 146.095 139.174L145.315 138.248H156.063C158.299 138.248 160.444 137.359 162.025 135.778C163.607 134.196 164.495 132.052 164.495 129.815C164.495 127.579 163.607 125.434 162.025 123.852C160.444 122.271 158.299 121.383 156.063 121.383H129.766C124.43 117.94 118.202 116.135 111.852 116.191H102.372C101.854 114.592 100.845 113.196 99.489 112.203C98.1326 111.21 96.4976 110.67 94.8165 110.659H85.9696C83.8663 110.665 81.8502 111.5 80.3584 112.983C78.8666 114.466 78.0192 116.477 78 118.58V155.454C78.0064 157.566 78.8481 159.589 80.3413 161.082C81.8345 162.576 83.8579 163.417 85.9696 163.424H94.6946C96.3966 163.439 98.0589 162.911 99.4397 161.916C100.821 160.92 101.848 159.511 102.372 157.891H109.683C115.13 158.215 120.547 158.932 125.89 160.036C129.5 161.108 132.962 162.623 136.2 164.545C141.099 167.356 146.649 168.836 152.297 168.836C157.946 168.836 163.496 167.356 168.395 164.545L196.13 148.533C197.018 148.027 197.795 147.348 198.415 146.536C199.034 145.723 199.484 144.795 199.737 143.805C200.104 142.426 200.087 140.973 199.686 139.604C199.285 138.235 198.516 137.002 197.463 136.039C196.41 135.077 195.113 134.421 193.713 134.145C192.314 133.868 190.865 133.981 189.525 134.47H189.379ZM170.247 139.613L180.361 133.861C180.692 133.671 181.057 133.548 181.435 133.5C181.814 133.453 182.198 133.481 182.565 133.583C182.932 133.685 183.276 133.859 183.575 134.095C183.875 134.331 184.124 134.624 184.31 134.958C184.68 135.571 184.811 136.301 184.675 137.005L177.924 140.88C172.446 144.062 166.225 145.744 159.889 145.754C158.096 145.745 156.315 145.474 154.6 144.95C160.123 144.247 165.446 142.431 170.247 139.613ZM94.6946 158.452H85.9696C85.1653 158.452 84.3924 158.14 83.8147 157.58C83.2369 157.021 82.8997 156.258 82.8743 155.454V118.58C82.8743 117.759 83.2004 116.972 83.7809 116.391C84.3614 115.811 85.1487 115.485 85.9696 115.485H94.6946C95.5155 115.485 96.3028 115.811 96.8833 116.391C97.4638 116.972 97.7899 117.759 97.7899 118.58V155.454C97.7899 156.275 97.4638 157.062 96.8833 157.643C96.3028 158.223 95.5155 158.549 94.6946 158.549V158.452ZM194.984 142.562C194.888 142.928 194.719 143.272 194.489 143.573C194.259 143.874 193.972 144.127 193.644 144.316L165.738 160.329C161.58 162.712 156.871 163.966 152.078 163.966C147.285 163.966 142.576 162.712 138.418 160.329C134.819 158.229 130.971 156.592 126.963 155.454C121.25 154.195 115.449 153.38 109.61 153.017H102.664V121.017H111.852C117.485 120.977 122.993 122.68 127.621 125.891C128.035 126.159 128.517 126.303 129.01 126.306H156.111C157.055 126.306 157.96 126.68 158.627 127.348C159.295 128.015 159.67 128.92 159.67 129.864C159.67 130.808 159.295 131.713 158.627 132.38C157.96 133.047 157.055 133.422 156.111 133.422H129.424C128.778 133.422 128.158 133.679 127.701 134.136C127.244 134.593 126.987 135.213 126.987 135.859C126.987 136.506 127.244 137.126 127.701 137.583C128.158 138.04 128.778 138.296 129.424 138.296H139.173L142.463 142.318C144.594 144.934 147.281 147.041 150.33 148.487C153.378 149.933 156.71 150.682 160.084 150.677C167.213 150.611 174.202 148.687 180.361 145.096L190.524 139.223C191.032 138.88 191.634 138.704 192.246 138.719C192.859 138.734 193.451 138.939 193.942 139.306C194.432 139.673 194.796 140.184 194.983 140.767C195.17 141.351 195.17 141.978 194.984 142.562Z" fill="#09A1CC"/>
<path d="M174.707 47C169.524 47.0303 164.478 48.6594 160.255 51.6647C156.033 54.67 152.841 58.9052 151.115 63.7921C146.748 60.9295 141.598 59.4984 136.38 59.6978C131.162 59.8972 126.136 61.7172 122 64.9048C117.865 68.0925 114.825 72.4893 113.303 77.4843C111.781 82.4793 111.854 87.8243 113.51 92.7763C115.166 97.7283 118.324 102.041 122.544 105.116C126.764 108.191 131.838 109.874 137.059 109.932C142.28 109.991 147.39 108.421 151.678 105.441C155.966 102.462 159.219 98.2201 160.986 93.3063C165.054 95.9999 169.828 97.4327 174.707 97.4251C181.394 97.4251 187.807 94.7688 192.535 90.0405C197.263 85.3123 199.92 78.8994 199.92 72.2126C199.92 65.5258 197.263 59.1129 192.535 54.3846C187.807 49.6563 181.394 47 174.707 47ZM151.603 99.1555C148.843 101.927 145.34 103.842 141.517 104.668C137.694 105.495 133.714 105.198 130.056 103.813C126.398 102.429 123.218 100.016 120.9 96.8654C118.582 93.7148 117.225 89.9611 116.992 86.0567C116.759 82.1523 117.66 78.2638 119.587 74.8599C121.514 71.4561 124.384 68.6821 127.851 66.8724C131.319 65.0627 135.236 64.2945 139.13 64.6604C143.024 65.0263 146.729 66.5106 149.799 68.9346C149.645 70.0165 149.563 71.1075 149.555 72.2004C149.557 78.8332 152.186 85.1952 156.867 89.8943C155.971 93.3963 154.153 96.5942 151.603 99.1555ZM174.707 92.4289C169.331 92.4225 164.177 90.2841 160.376 86.4827C156.575 82.6814 154.436 77.5275 154.43 72.1516C154.436 71.0234 154.542 69.8979 154.747 68.7883C154.843 68.5057 154.892 68.2094 154.893 67.911C155.694 64.1663 157.538 60.7249 160.214 57.9851C162.889 55.2453 166.286 53.3191 170.01 52.4293C173.735 51.5396 177.635 51.7226 181.26 52.9573C184.885 54.1921 188.086 56.428 190.493 59.4063C192.9 62.3846 194.414 65.9836 194.861 69.7868C195.307 73.5901 194.668 77.442 193.016 80.8969C191.365 84.3518 188.769 87.2684 185.528 89.3092C182.288 91.3501 178.536 92.4317 174.707 92.4289Z" fill="#09A1CC"/>
<path d="M174.707 63.6215C173.058 62.656 171.135 62.2638 169.239 62.5063C167.343 62.7488 165.581 63.6123 164.227 64.9619C162.62 66.5824 161.718 68.7724 161.718 71.0549C161.718 73.3373 162.62 75.5273 164.227 77.1478L170.613 83.5576C171.717 84.6469 173.205 85.2595 174.756 85.2636C175.527 85.2636 176.29 85.1107 177.001 84.8137C177.712 84.5166 178.357 84.0814 178.899 83.5332L185.236 77.1965C186.037 76.3973 186.674 75.4477 187.108 74.4022C187.542 73.3566 187.765 72.2357 187.765 71.1036C187.765 69.9715 187.542 68.8506 187.108 67.8051C186.674 66.7595 186.037 65.8099 185.236 65.0107C183.872 63.6637 182.105 62.7992 180.205 62.5484C178.304 62.2976 176.374 62.6744 174.707 63.6215ZM181.751 73.8089L175.487 80.0724C175.394 80.1653 175.284 80.2389 175.163 80.2892C175.042 80.3394 174.912 80.3653 174.78 80.3653C174.649 80.3653 174.519 80.3394 174.398 80.2892C174.276 80.2389 174.166 80.1653 174.073 80.0724L167.664 73.8089C166.964 73.1017 166.572 72.1471 166.572 71.1524C166.572 70.1576 166.964 69.203 167.664 68.4958C168.011 68.1436 168.424 67.8639 168.88 67.673C169.336 67.482 169.826 67.3837 170.32 67.3837C170.815 67.3837 171.304 67.482 171.76 67.673C172.216 67.8639 172.63 68.1436 172.977 68.4958C173.203 68.7243 173.473 68.9056 173.77 69.0293C174.067 69.153 174.385 69.2167 174.707 69.2167C175.029 69.2167 175.347 69.153 175.644 69.0293C175.941 68.9056 176.211 68.7243 176.438 68.4958C176.784 68.1436 177.198 67.8639 177.654 67.673C178.11 67.482 178.6 67.3837 179.094 67.3837C179.588 67.3837 180.078 67.482 180.534 67.673C180.99 67.8639 181.404 68.1436 181.751 68.4958C182.45 69.203 182.842 70.1576 182.842 71.1524C182.842 72.1471 182.45 73.1017 181.751 73.8089Z" fill="#09A1CC"/>
<path d="M46.913 317.775H55.613V320.45H46.913V317.775ZM47.163 325.275H57.038V328H43.913V310.5H56.688V313.225H47.163V325.275ZM60.661 328V310.5H63.911V325.25H73.061V328H60.661ZM75.6269 328V310.5H78.8769V328H75.6269ZM91.7853 328.25C90.4186 328.25 89.1603 328.033 88.0103 327.6C86.8769 327.15 85.8853 326.525 85.0353 325.725C84.1853 324.908 83.5269 323.95 83.0603 322.85C82.5936 321.75 82.3603 320.55 82.3603 319.25C82.3603 317.95 82.5936 316.75 83.0603 315.65C83.5269 314.55 84.1853 313.6 85.0353 312.8C85.9019 311.983 86.9103 311.358 88.0603 310.925C89.2103 310.475 90.4686 310.25 91.8353 310.25C93.3186 310.25 94.6519 310.492 95.8353 310.975C97.0353 311.458 98.0436 312.167 98.8603 313.1L96.8103 315.1C96.1269 314.417 95.3853 313.917 94.5853 313.6C93.8019 313.267 92.9353 313.1 91.9853 313.1C91.0686 313.1 90.2186 313.25 89.4353 313.55C88.6519 313.85 87.9769 314.275 87.4103 314.825C86.8436 315.375 86.4019 316.025 86.0853 316.775C85.7853 317.525 85.6353 318.35 85.6353 319.25C85.6353 320.133 85.7853 320.95 86.0853 321.7C86.4019 322.45 86.8436 323.108 87.4103 323.675C87.9769 324.225 88.6436 324.65 89.4103 324.95C90.1769 325.25 91.0269 325.4 91.9603 325.4C92.8269 325.4 93.6603 325.267 94.4603 325C95.2769 324.717 96.0519 324.25 96.7853 323.6L98.6353 326.025C97.7186 326.758 96.6519 327.317 95.4353 327.7C94.2353 328.067 93.0186 328.25 91.7853 328.25ZM95.5603 325.6V319.05H98.6353V326.025L95.5603 325.6ZM105.922 317.775H114.622V320.45H105.922V317.775ZM106.172 325.275H116.047V328H102.922V310.5H115.697V313.225H106.172V325.275ZM130.129 328V313.25H124.329V310.5H139.179V313.25H133.379V328H130.129ZM148.826 328.25C146.426 328.25 144.542 327.575 143.176 326.225C141.826 324.875 141.151 322.925 141.151 320.375V310.5H144.401V320.25C144.401 322.05 144.784 323.358 145.551 324.175C146.334 324.992 147.434 325.4 148.851 325.4C150.267 325.4 151.359 324.992 152.126 324.175C152.892 323.358 153.276 322.05 153.276 320.25V310.5H156.476V320.375C156.476 322.925 155.792 324.875 154.426 326.225C153.076 327.575 151.209 328.25 148.826 328.25ZM167.936 328V310.5H175.136C176.686 310.5 178.011 310.75 179.111 311.25C180.228 311.75 181.086 312.467 181.686 313.4C182.286 314.333 182.586 315.442 182.586 316.725C182.586 318.008 182.286 319.117 181.686 320.05C181.086 320.983 180.228 321.7 179.111 322.2C178.011 322.7 176.686 322.95 175.136 322.95H169.736L171.186 321.425V328H167.936ZM171.186 321.775L169.736 320.2H174.986C176.42 320.2 177.495 319.9 178.211 319.3C178.945 318.683 179.311 317.825 179.311 316.725C179.311 315.608 178.945 314.75 178.211 314.15C177.495 313.55 176.42 313.25 174.986 313.25H169.736L171.186 311.65V321.775ZM185.832 328V310.5H189.082V325.25H198.232V328H185.832ZM198.347 328L206.222 310.5H209.422L217.322 328H213.922L207.147 312.225H208.447L201.697 328H198.347ZM201.972 323.95L202.847 321.4H212.297L213.172 323.95H201.972ZM219.548 328V310.5H222.223L233.198 323.975H231.873V310.5H235.098V328H232.423L221.448 314.525H222.773V328H219.548ZM66.0565 358V340.5H73.7065C75.6065 340.5 77.2732 340.867 78.7065 341.6C80.1399 342.333 81.2565 343.35 82.0565 344.65C82.8565 345.95 83.2565 347.483 83.2565 349.25C83.2565 351 82.8565 352.533 82.0565 353.85C81.2565 355.15 80.1399 356.167 78.7065 356.9C77.2732 357.633 75.6065 358 73.7065 358H66.0565ZM69.3065 355.25H73.5565C74.8732 355.25 76.0065 355 76.9565 354.5C77.9232 354 78.6649 353.3 79.1815 352.4C79.7149 351.5 79.9815 350.45 79.9815 349.25C79.9815 348.033 79.7149 346.983 79.1815 346.1C78.6649 345.2 77.9232 344.5 76.9565 344C76.0065 343.5 74.8732 343.25 73.5565 343.25H69.3065V355.25ZM89.7108 347.775H98.4108V350.45H89.7108V347.775ZM89.9608 355.275H99.8358V358H86.7108V340.5H99.4858V343.225H89.9608V355.275ZM118.468 358.25C117.135 358.25 115.893 358.033 114.743 357.6C113.61 357.15 112.618 356.525 111.768 355.725C110.935 354.908 110.285 353.95 109.818 352.85C109.351 351.75 109.118 350.55 109.118 349.25C109.118 347.95 109.351 346.75 109.818 345.65C110.285 344.55 110.943 343.6 111.793 342.8C112.643 341.983 113.635 341.358 114.768 340.925C115.901 340.475 117.143 340.25 118.493 340.25C119.926 340.25 121.235 340.5 122.418 341C123.601 341.483 124.601 342.208 125.418 343.175L123.318 345.15C122.685 344.467 121.976 343.958 121.193 343.625C120.41 343.275 119.56 343.1 118.643 343.1C117.726 343.1 116.885 343.25 116.118 343.55C115.368 343.85 114.71 344.275 114.143 344.825C113.593 345.375 113.16 346.025 112.843 346.775C112.543 347.525 112.393 348.35 112.393 349.25C112.393 350.15 112.543 350.975 112.843 351.725C113.16 352.475 113.593 353.125 114.143 353.675C114.71 354.225 115.368 354.65 116.118 354.95C116.885 355.25 117.726 355.4 118.643 355.4C119.56 355.4 120.41 355.233 121.193 354.9C121.976 354.55 122.685 354.025 123.318 353.325L125.418 355.325C124.601 356.275 123.601 357 122.418 357.5C121.235 358 119.918 358.25 118.468 358.25ZM136.033 358.25C133.633 358.25 131.749 357.575 130.383 356.225C129.033 354.875 128.358 352.925 128.358 350.375V340.5H131.608V350.25C131.608 352.05 131.991 353.358 132.758 354.175C133.541 354.992 134.641 355.4 136.058 355.4C137.474 355.4 138.566 354.992 139.333 354.175C140.099 353.358 140.483 352.05 140.483 350.25V340.5H143.683V350.375C143.683 352.925 142.999 354.875 141.633 356.225C140.283 357.575 138.416 358.25 136.033 358.25ZM156.434 358.25C155.068 358.25 153.809 358.025 152.659 357.575C151.509 357.125 150.509 356.5 149.659 355.7C148.809 354.883 148.151 353.933 147.684 352.85C147.218 351.75 146.984 350.55 146.984 349.25C146.984 347.95 147.218 346.758 147.684 345.675C148.151 344.575 148.809 343.625 149.659 342.825C150.509 342.008 151.509 341.375 152.659 340.925C153.809 340.475 155.059 340.25 156.409 340.25C157.776 340.25 159.026 340.475 160.159 340.925C161.309 341.375 162.309 342.008 163.159 342.825C164.009 343.625 164.668 344.575 165.134 345.675C165.601 346.758 165.834 347.95 165.834 349.25C165.834 350.55 165.601 351.75 165.134 352.85C164.668 353.95 164.009 354.9 163.159 355.7C162.309 356.5 161.309 357.125 160.159 357.575C159.026 358.025 157.784 358.25 156.434 358.25ZM156.409 355.4C157.293 355.4 158.109 355.25 158.859 354.95C159.609 354.65 160.259 354.225 160.809 353.675C161.359 353.108 161.784 352.458 162.084 351.725C162.401 350.975 162.559 350.15 162.559 349.25C162.559 348.35 162.401 347.533 162.084 346.8C161.784 346.05 161.359 345.4 160.809 344.85C160.259 344.283 159.609 343.85 158.859 343.55C158.109 343.25 157.293 343.1 156.409 343.1C155.526 343.1 154.709 343.25 153.959 343.55C153.226 343.85 152.576 344.283 152.009 344.85C151.459 345.4 151.026 346.05 150.709 346.8C150.409 347.533 150.259 348.35 150.259 349.25C150.259 350.133 150.409 350.95 150.709 351.7C151.026 352.45 151.459 353.108 152.009 353.675C152.559 354.225 153.209 354.65 153.959 354.95C154.709 355.25 155.526 355.4 156.409 355.4ZM172.585 358V343.25H166.785V340.5H181.635V343.25H175.835V358H172.585ZM180.72 358L188.595 340.5H191.795L199.695 358H196.295L189.52 342.225H190.82L184.07 358H180.72ZM184.345 353.95L185.22 351.4H194.67L195.545 353.95H184.345ZM207.346 358.25C205.979 358.25 204.671 358.058 203.421 357.675C202.171 357.275 201.179 356.767 200.446 356.15L201.571 353.625C202.271 354.175 203.137 354.633 204.171 355C205.204 355.367 206.262 355.55 207.346 355.55C208.262 355.55 209.004 355.45 209.571 355.25C210.137 355.05 210.554 354.783 210.821 354.45C211.087 354.1 211.221 353.708 211.221 353.275C211.221 352.742 211.029 352.317 210.646 352C210.262 351.667 209.762 351.408 209.146 351.225C208.546 351.025 207.871 350.842 207.121 350.675C206.387 350.508 205.646 350.317 204.896 350.1C204.162 349.867 203.487 349.575 202.871 349.225C202.271 348.858 201.779 348.375 201.396 347.775C201.012 347.175 200.821 346.408 200.821 345.475C200.821 344.525 201.071 343.658 201.571 342.875C202.087 342.075 202.862 341.442 203.896 340.975C204.946 340.492 206.271 340.25 207.871 340.25C208.921 340.25 209.962 340.383 210.996 340.65C212.029 340.917 212.929 341.3 213.696 341.8L212.671 344.325C211.887 343.858 211.079 343.517 210.246 343.3C209.412 343.067 208.612 342.95 207.846 342.95C206.946 342.95 206.212 343.058 205.646 343.275C205.096 343.492 204.687 343.775 204.421 344.125C204.171 344.475 204.046 344.875 204.046 345.325C204.046 345.858 204.229 346.292 204.596 346.625C204.979 346.942 205.471 347.192 206.071 347.375C206.687 347.558 207.371 347.742 208.121 347.925C208.871 348.092 209.612 348.283 210.346 348.5C211.096 348.717 211.771 349 212.371 349.35C212.987 349.7 213.479 350.175 213.846 350.775C214.229 351.375 214.421 352.133 214.421 353.05C214.421 353.983 214.162 354.85 213.646 355.65C213.146 356.433 212.371 357.067 211.321 357.55C210.271 358.017 208.946 358.25 207.346 358.25Z" fill="white"/>
<path d="M67.6987 443L74.0388 429H76.0188L82.3788 443H80.2788L74.6188 430.12H75.4188L69.7588 443H67.6987ZM70.3988 439.5L70.9388 437.9H78.8188L79.3988 439.5H70.3988ZM89.8072 443.12C88.9272 443.12 88.1205 442.92 87.3872 442.52C86.6672 442.107 86.0872 441.5 85.6472 440.7C85.2205 439.9 85.0072 438.9 85.0072 437.7C85.0072 436.5 85.2139 435.5 85.6272 434.7C86.0539 433.9 86.6272 433.3 87.3472 432.9C88.0805 432.5 88.9005 432.3 89.8072 432.3C90.8472 432.3 91.7672 432.527 92.5672 432.98C93.3672 433.433 94.0005 434.067 94.4672 434.88C94.9339 435.68 95.1672 436.62 95.1672 437.7C95.1672 438.78 94.9339 439.727 94.4672 440.54C94.0005 441.353 93.3672 441.987 92.5672 442.44C91.7672 442.893 90.8472 443.12 89.8072 443.12ZM84.1872 446.88V432.4H86.0272V435.26L85.9072 437.72L86.1072 440.18V446.88H84.1872ZM89.6472 441.44C90.3272 441.44 90.9339 441.287 91.4672 440.98C92.0139 440.673 92.4405 440.24 92.7472 439.68C93.0672 439.107 93.2272 438.447 93.2272 437.7C93.2272 436.94 93.0672 436.287 92.7472 435.74C92.4405 435.18 92.0139 434.747 91.4672 434.44C90.9339 434.133 90.3272 433.98 89.6472 433.98C88.9805 433.98 88.3739 434.133 87.8272 434.44C87.2939 434.747 86.8672 435.18 86.5472 435.74C86.2405 436.287 86.0872 436.94 86.0872 437.7C86.0872 438.447 86.2405 439.107 86.5472 439.68C86.8672 440.24 87.2939 440.673 87.8272 440.98C88.3739 441.287 88.9805 441.44 89.6472 441.44ZM97.82 443V432.4H99.66V435.28L99.48 434.56C99.7733 433.827 100.267 433.267 100.96 432.88C101.653 432.493 102.507 432.3 103.52 432.3V434.16C103.44 434.147 103.36 434.14 103.28 434.14C103.213 434.14 103.147 434.14 103.08 434.14C102.053 434.14 101.24 434.447 100.64 435.06C100.04 435.673 99.74 436.56 99.74 437.72V443H97.82ZM110.329 443.12C109.262 443.12 108.315 442.887 107.489 442.42C106.662 441.953 106.009 441.313 105.529 440.5C105.049 439.673 104.809 438.74 104.809 437.7C104.809 436.647 105.049 435.713 105.529 434.9C106.009 434.087 106.662 433.453 107.489 433C108.315 432.533 109.262 432.3 110.329 432.3C111.382 432.3 112.322 432.533 113.149 433C113.989 433.453 114.642 434.087 115.109 434.9C115.589 435.7 115.829 436.633 115.829 437.7C115.829 438.753 115.589 439.687 115.109 440.5C114.642 441.313 113.989 441.953 113.149 442.42C112.322 442.887 111.382 443.12 110.329 443.12ZM110.329 441.44C111.009 441.44 111.615 441.287 112.149 440.98C112.695 440.673 113.122 440.24 113.429 439.68C113.735 439.107 113.889 438.447 113.889 437.7C113.889 436.94 113.735 436.287 113.429 435.74C113.122 435.18 112.695 434.747 112.149 434.44C111.615 434.133 111.009 433.98 110.329 433.98C109.649 433.98 109.042 434.133 108.509 434.44C107.975 434.747 107.549 435.18 107.229 435.74C106.909 436.287 106.749 436.94 106.749 437.7C106.749 438.447 106.909 439.107 107.229 439.68C107.549 440.24 107.975 440.673 108.509 440.98C109.042 441.287 109.649 441.44 110.329 441.44ZM120.971 443L116.331 432.4H118.331L122.451 442H121.491L125.691 432.4H127.571L122.931 443H120.971ZM133.79 443.12C132.657 443.12 131.657 442.887 130.79 442.42C129.937 441.953 129.27 441.313 128.79 440.5C128.323 439.687 128.09 438.753 128.09 437.7C128.09 436.647 128.317 435.713 128.77 434.9C129.237 434.087 129.87 433.453 130.67 433C131.483 432.533 132.397 432.3 133.41 432.3C134.437 432.3 135.343 432.527 136.13 432.98C136.917 433.433 137.53 434.073 137.97 434.9C138.423 435.713 138.65 436.667 138.65 437.76C138.65 437.84 138.643 437.933 138.63 438.04C138.63 438.147 138.623 438.247 138.61 438.34H129.59V436.96H137.61L136.83 437.44C136.843 436.76 136.703 436.153 136.41 435.62C136.117 435.087 135.71 434.673 135.19 434.38C134.683 434.073 134.09 433.92 133.41 433.92C132.743 433.92 132.15 434.073 131.63 434.38C131.11 434.673 130.703 435.093 130.41 435.64C130.117 436.173 129.97 436.787 129.97 437.48V437.8C129.97 438.507 130.13 439.14 130.45 439.7C130.783 440.247 131.243 440.673 131.83 440.98C132.417 441.287 133.09 441.44 133.85 441.44C134.477 441.44 135.043 441.333 135.55 441.12C136.07 440.907 136.523 440.587 136.91 440.16L137.97 441.4C137.49 441.96 136.89 442.387 136.17 442.68C135.463 442.973 134.67 443.12 133.79 443.12ZM145.936 443.12C144.856 443.12 143.889 442.887 143.036 442.42C142.196 441.953 141.536 441.313 141.056 440.5C140.576 439.687 140.336 438.753 140.336 437.7C140.336 436.647 140.576 435.713 141.056 434.9C141.536 434.087 142.196 433.453 143.036 433C143.889 432.533 144.856 432.3 145.936 432.3C146.896 432.3 147.749 432.493 148.496 432.88C149.256 433.253 149.843 433.813 150.256 434.56L148.796 435.5C148.449 434.98 148.023 434.6 147.516 434.36C147.023 434.107 146.489 433.98 145.916 433.98C145.223 433.98 144.603 434.133 144.056 434.44C143.509 434.747 143.076 435.18 142.756 435.74C142.436 436.287 142.276 436.94 142.276 437.7C142.276 438.46 142.436 439.12 142.756 439.68C143.076 440.24 143.509 440.673 144.056 440.98C144.603 441.287 145.223 441.44 145.916 441.44C146.489 441.44 147.023 441.32 147.516 441.08C148.023 440.827 148.449 440.44 148.796 439.92L150.256 440.84C149.843 441.573 149.256 442.14 148.496 442.54C147.749 442.927 146.896 443.12 145.936 443.12ZM158.265 432.3C159.132 432.3 159.892 432.467 160.545 432.8C161.212 433.133 161.732 433.64 162.105 434.32C162.478 435 162.665 435.86 162.665 436.9V443H160.745V437.12C160.745 436.093 160.492 435.32 159.985 434.8C159.492 434.28 158.792 434.02 157.885 434.02C157.205 434.02 156.612 434.153 156.105 434.42C155.598 434.687 155.205 435.08 154.925 435.6C154.658 436.12 154.525 436.767 154.525 437.54V443H152.605V428.16H154.525V435.26L154.145 434.5C154.492 433.807 155.025 433.267 155.745 432.88C156.465 432.493 157.305 432.3 158.265 432.3ZM172.798 443V440.76L172.698 440.34V436.52C172.698 435.707 172.458 435.08 171.978 434.64C171.512 434.187 170.805 433.96 169.858 433.96C169.232 433.96 168.618 434.067 168.018 434.28C167.418 434.48 166.912 434.753 166.498 435.1L165.698 433.66C166.245 433.22 166.898 432.887 167.658 432.66C168.432 432.42 169.238 432.3 170.078 432.3C171.532 432.3 172.652 432.653 173.438 433.36C174.225 434.067 174.618 435.147 174.618 436.6V443H172.798ZM169.318 443.12C168.532 443.12 167.838 442.987 167.238 442.72C166.652 442.453 166.198 442.087 165.878 441.62C165.558 441.14 165.398 440.6 165.398 440C165.398 439.427 165.532 438.907 165.798 438.44C166.078 437.973 166.525 437.6 167.138 437.32C167.765 437.04 168.605 436.9 169.658 436.9H173.018V438.28H169.738C168.778 438.28 168.132 438.44 167.798 438.76C167.465 439.08 167.298 439.467 167.298 439.92C167.298 440.44 167.505 440.86 167.918 441.18C168.332 441.487 168.905 441.64 169.638 441.64C170.358 441.64 170.985 441.48 171.518 441.16C172.065 440.84 172.458 440.373 172.698 439.76L173.078 441.08C172.825 441.707 172.378 442.207 171.738 442.58C171.098 442.94 170.292 443.12 169.318 443.12ZM183.543 443V428.16H185.463V443H183.543ZM195.709 443V440.76L195.609 440.34V436.52C195.609 435.707 195.369 435.08 194.889 434.64C194.422 434.187 193.715 433.96 192.769 433.96C192.142 433.96 191.529 434.067 190.929 434.28C190.329 434.48 189.822 434.753 189.409 435.1L188.609 433.66C189.155 433.22 189.809 432.887 190.569 432.66C191.342 432.42 192.149 432.3 192.989 432.3C194.442 432.3 195.562 432.653 196.349 433.36C197.135 434.067 197.529 435.147 197.529 436.6V443H195.709ZM192.229 443.12C191.442 443.12 190.749 442.987 190.149 442.72C189.562 442.453 189.109 442.087 188.789 441.62C188.469 441.14 188.309 440.6 188.309 440C188.309 439.427 188.442 438.907 188.709 438.44C188.989 437.973 189.435 437.6 190.049 437.32C190.675 437.04 191.515 436.9 192.569 436.9H195.929V438.28H192.649C191.689 438.28 191.042 438.44 190.709 438.76C190.375 439.08 190.209 439.467 190.209 439.92C190.209 440.44 190.415 440.86 190.829 441.18C191.242 441.487 191.815 441.64 192.549 441.64C193.269 441.64 193.895 441.48 194.429 441.16C194.975 440.84 195.369 440.373 195.609 439.76L195.989 441.08C195.735 441.707 195.289 442.207 194.649 442.58C194.009 442.94 193.202 443.12 192.229 443.12ZM204.122 443.12C203.242 443.12 202.402 443 201.602 442.76C200.815 442.52 200.195 442.227 199.742 441.88L200.542 440.36C200.995 440.667 201.555 440.927 202.222 441.14C202.888 441.353 203.568 441.46 204.262 441.46C205.155 441.46 205.795 441.333 206.182 441.08C206.582 440.827 206.782 440.473 206.782 440.02C206.782 439.687 206.662 439.427 206.422 439.24C206.182 439.053 205.862 438.913 205.462 438.82C205.075 438.727 204.642 438.647 204.162 438.58C203.682 438.5 203.202 438.407 202.722 438.3C202.242 438.18 201.802 438.02 201.402 437.82C201.002 437.607 200.682 437.32 200.442 436.96C200.202 436.587 200.082 436.093 200.082 435.48C200.082 434.84 200.262 434.28 200.622 433.8C200.982 433.32 201.488 432.953 202.142 432.7C202.808 432.433 203.595 432.3 204.502 432.3C205.195 432.3 205.895 432.387 206.602 432.56C207.322 432.72 207.908 432.953 208.362 433.26L207.542 434.78C207.062 434.46 206.562 434.24 206.042 434.12C205.522 434 205.002 433.94 204.482 433.94C203.642 433.94 203.015 434.08 202.602 434.36C202.188 434.627 201.982 434.973 201.982 435.4C201.982 435.76 202.102 436.04 202.342 436.24C202.595 436.427 202.915 436.573 203.302 436.68C203.702 436.787 204.142 436.88 204.622 436.96C205.102 437.027 205.582 437.12 206.062 437.24C206.542 437.347 206.975 437.5 207.362 437.7C207.762 437.9 208.082 438.18 208.322 438.54C208.575 438.9 208.702 439.38 208.702 439.98C208.702 440.62 208.515 441.173 208.142 441.64C207.768 442.107 207.242 442.473 206.562 442.74C205.882 442.993 205.068 443.12 204.122 443.12ZM84.2523 467V455.46C84.2523 454.42 84.5523 453.593 85.1523 452.98C85.7657 452.353 86.6323 452.04 87.7523 452.04C88.1657 452.04 88.559 452.093 88.9323 452.2C89.319 452.293 89.6457 452.447 89.9123 452.66L89.3323 454.12C89.1323 453.96 88.9057 453.84 88.6523 453.76C88.399 453.667 88.1323 453.62 87.8523 453.62C87.2923 453.62 86.8657 453.78 86.5723 454.1C86.279 454.407 86.1323 454.867 86.1323 455.48V456.9L86.1723 457.78V467H84.2523ZM82.4523 457.98V456.4H89.2123V457.98H82.4523ZM97.4078 467V464.76L97.3078 464.34V460.52C97.3078 459.707 97.0678 459.08 96.5878 458.64C96.1211 458.187 95.4145 457.96 94.4678 457.96C93.8411 457.96 93.2278 458.067 92.6278 458.28C92.0278 458.48 91.5211 458.753 91.1078 459.1L90.3078 457.66C90.8545 457.22 91.5078 456.887 92.2678 456.66C93.0411 456.42 93.8478 456.3 94.6878 456.3C96.1411 456.3 97.2611 456.653 98.0478 457.36C98.8345 458.067 99.2278 459.147 99.2278 460.6V467H97.4078ZM93.9278 467.12C93.1411 467.12 92.4478 466.987 91.8478 466.72C91.2611 466.453 90.8078 466.087 90.4878 465.62C90.1678 465.14 90.0078 464.6 90.0078 464C90.0078 463.427 90.1411 462.907 90.4078 462.44C90.6878 461.973 91.1345 461.6 91.7478 461.32C92.3745 461.04 93.2145 460.9 94.2678 460.9H97.6278V462.28H94.3478C93.3878 462.28 92.7411 462.44 92.4078 462.76C92.0745 463.08 91.9078 463.467 91.9078 463.92C91.9078 464.44 92.1145 464.86 92.5278 465.18C92.9411 465.487 93.5145 465.64 94.2478 465.64C94.9678 465.64 95.5945 465.48 96.1278 465.16C96.6745 464.84 97.0678 464.373 97.3078 463.76L97.6878 465.08C97.4345 465.707 96.9878 466.207 96.3478 466.58C95.7078 466.94 94.9011 467.12 93.9278 467.12ZM107.401 467.12C106.321 467.12 105.354 466.887 104.501 466.42C103.661 465.953 103.001 465.313 102.521 464.5C102.041 463.687 101.801 462.753 101.801 461.7C101.801 460.647 102.041 459.713 102.521 458.9C103.001 458.087 103.661 457.453 104.501 457C105.354 456.533 106.321 456.3 107.401 456.3C108.361 456.3 109.214 456.493 109.961 456.88C110.721 457.253 111.308 457.813 111.721 458.56L110.261 459.5C109.914 458.98 109.488 458.6 108.981 458.36C108.488 458.107 107.954 457.98 107.381 457.98C106.688 457.98 106.068 458.133 105.521 458.44C104.974 458.747 104.541 459.18 104.221 459.74C103.901 460.287 103.741 460.94 103.741 461.7C103.741 462.46 103.901 463.12 104.221 463.68C104.541 464.24 104.974 464.673 105.521 464.98C106.068 465.287 106.688 465.44 107.381 465.44C107.954 465.44 108.488 465.32 108.981 465.08C109.488 464.827 109.914 464.44 110.261 463.92L111.721 464.84C111.308 465.573 110.721 466.14 109.961 466.54C109.214 466.927 108.361 467.12 107.401 467.12ZM117.983 467.12C116.917 467.12 116.09 466.833 115.503 466.26C114.917 465.687 114.623 464.867 114.623 463.8V454.08H116.543V463.72C116.543 464.293 116.683 464.733 116.963 465.04C117.257 465.347 117.67 465.5 118.203 465.5C118.803 465.5 119.303 465.333 119.703 465L120.303 466.38C120.01 466.633 119.657 466.82 119.243 466.94C118.843 467.06 118.423 467.12 117.983 467.12ZM112.823 457.98V456.4H119.583V457.98H112.823ZM127.085 467.12C126.178 467.12 125.378 466.953 124.685 466.62C124.005 466.287 123.471 465.78 123.085 465.1C122.711 464.407 122.525 463.54 122.525 462.5V456.4H124.445V462.28C124.445 463.32 124.691 464.1 125.185 464.62C125.691 465.14 126.398 465.4 127.305 465.4C127.971 465.4 128.551 465.267 129.045 465C129.538 464.72 129.918 464.32 130.185 463.8C130.451 463.267 130.585 462.627 130.585 461.88V456.4H132.505V467H130.685V464.14L130.985 464.9C130.638 465.607 130.118 466.153 129.425 466.54C128.731 466.927 127.951 467.12 127.085 467.12ZM136.16 467V456.4H138V459.28L137.82 458.56C138.113 457.827 138.607 457.267 139.3 456.88C139.993 456.493 140.847 456.3 141.86 456.3V458.16C141.78 458.147 141.7 458.14 141.62 458.14C141.553 458.14 141.487 458.14 141.42 458.14C140.393 458.14 139.58 458.447 138.98 459.06C138.38 459.673 138.08 460.56 138.08 461.72V467H136.16ZM150.025 467V464.76L149.925 464.34V460.52C149.925 459.707 149.685 459.08 149.205 458.64C148.738 458.187 148.032 457.96 147.085 457.96C146.458 457.96 145.845 458.067 145.245 458.28C144.645 458.48 144.138 458.753 143.725 459.1L142.925 457.66C143.472 457.22 144.125 456.887 144.885 456.66C145.658 456.42 146.465 456.3 147.305 456.3C148.758 456.3 149.878 456.653 150.665 457.36C151.452 458.067 151.845 459.147 151.845 460.6V467H150.025ZM146.545 467.12C145.758 467.12 145.065 466.987 144.465 466.72C143.878 466.453 143.425 466.087 143.105 465.62C142.785 465.14 142.625 464.6 142.625 464C142.625 463.427 142.758 462.907 143.025 462.44C143.305 461.973 143.752 461.6 144.365 461.32C144.992 461.04 145.832 460.9 146.885 460.9H150.245V462.28H146.965C146.005 462.28 145.358 462.44 145.025 462.76C144.692 463.08 144.525 463.467 144.525 463.92C144.525 464.44 144.732 464.86 145.145 465.18C145.558 465.487 146.132 465.64 146.865 465.64C147.585 465.64 148.212 465.48 148.745 465.16C149.292 464.84 149.685 464.373 149.925 463.76L150.305 465.08C150.052 465.707 149.605 466.207 148.965 466.58C148.325 466.94 147.518 467.12 146.545 467.12ZM158.438 467.12C157.558 467.12 156.718 467 155.918 466.76C155.131 466.52 154.511 466.227 154.058 465.88L154.858 464.36C155.311 464.667 155.871 464.927 156.538 465.14C157.205 465.353 157.885 465.46 158.578 465.46C159.471 465.46 160.111 465.333 160.498 465.08C160.898 464.827 161.098 464.473 161.098 464.02C161.098 463.687 160.978 463.427 160.738 463.24C160.498 463.053 160.178 462.913 159.778 462.82C159.391 462.727 158.958 462.647 158.478 462.58C157.998 462.5 157.518 462.407 157.038 462.3C156.558 462.18 156.118 462.02 155.718 461.82C155.318 461.607 154.998 461.32 154.758 460.96C154.518 460.587 154.398 460.093 154.398 459.48C154.398 458.84 154.578 458.28 154.938 457.8C155.298 457.32 155.805 456.953 156.458 456.7C157.125 456.433 157.911 456.3 158.818 456.3C159.511 456.3 160.211 456.387 160.918 456.56C161.638 456.72 162.225 456.953 162.678 457.26L161.858 458.78C161.378 458.46 160.878 458.24 160.358 458.12C159.838 458 159.318 457.94 158.798 457.94C157.958 457.94 157.331 458.08 156.918 458.36C156.505 458.627 156.298 458.973 156.298 459.4C156.298 459.76 156.418 460.04 156.658 460.24C156.911 460.427 157.231 460.573 157.618 460.68C158.018 460.787 158.458 460.88 158.938 460.96C159.418 461.027 159.898 461.12 160.378 461.24C160.858 461.347 161.291 461.5 161.678 461.7C162.078 461.9 162.398 462.18 162.638 462.54C162.891 462.9 163.018 463.38 163.018 463.98C163.018 464.62 162.831 465.173 162.458 465.64C162.085 466.107 161.558 466.473 160.878 466.74C160.198 466.993 159.385 467.12 158.438 467.12ZM175.169 467.12C174.142 467.12 173.222 466.893 172.409 466.44C171.609 465.987 170.975 465.353 170.509 464.54C170.042 463.727 169.809 462.78 169.809 461.7C169.809 460.62 170.042 459.68 170.509 458.88C170.975 458.067 171.609 457.433 172.409 456.98C173.222 456.527 174.142 456.3 175.169 456.3C176.062 456.3 176.869 456.5 177.589 456.9C178.309 457.3 178.882 457.9 179.309 458.7C179.749 459.5 179.969 460.5 179.969 461.7C179.969 462.9 179.755 463.9 179.329 464.7C178.915 465.5 178.349 466.107 177.629 466.52C176.909 466.92 176.089 467.12 175.169 467.12ZM175.329 465.44C175.995 465.44 176.595 465.287 177.129 464.98C177.675 464.673 178.102 464.24 178.409 463.68C178.729 463.107 178.889 462.447 178.889 461.7C178.889 460.94 178.729 460.287 178.409 459.74C178.102 459.18 177.675 458.747 177.129 458.44C176.595 458.133 175.995 457.98 175.329 457.98C174.649 457.98 174.042 458.133 173.509 458.44C172.975 458.747 172.549 459.18 172.229 459.74C171.909 460.287 171.749 460.94 171.749 461.7C171.749 462.447 171.909 463.107 172.229 463.68C172.549 464.24 172.975 464.673 173.509 464.98C174.042 465.287 174.649 465.44 175.329 465.44ZM178.949 467V464.14L179.069 461.68L178.869 459.22V452.16H180.789V467H178.949ZM189.142 467.12C188.008 467.12 187.008 466.887 186.142 466.42C185.288 465.953 184.622 465.313 184.142 464.5C183.675 463.687 183.442 462.753 183.442 461.7C183.442 460.647 183.668 459.713 184.122 458.9C184.588 458.087 185.222 457.453 186.022 457C186.835 456.533 187.748 456.3 188.762 456.3C189.788 456.3 190.695 456.527 191.482 456.98C192.268 457.433 192.882 458.073 193.322 458.9C193.775 459.713 194.002 460.667 194.002 461.76C194.002 461.84 193.995 461.933 193.982 462.04C193.982 462.147 193.975 462.247 193.962 462.34H184.942V460.96H192.962L192.182 461.44C192.195 460.76 192.055 460.153 191.762 459.62C191.468 459.087 191.062 458.673 190.542 458.38C190.035 458.073 189.442 457.92 188.762 457.92C188.095 457.92 187.502 458.073 186.982 458.38C186.462 458.673 186.055 459.093 185.762 459.64C185.468 460.173 185.322 460.787 185.322 461.48V461.8C185.322 462.507 185.482 463.14 185.802 463.7C186.135 464.247 186.595 464.673 187.182 464.98C187.768 465.287 188.442 465.44 189.202 465.44C189.828 465.44 190.395 465.333 190.902 465.12C191.422 464.907 191.875 464.587 192.262 464.16L193.322 465.4C192.842 465.96 192.242 466.387 191.522 466.68C190.815 466.973 190.022 467.12 189.142 467.12ZM117.795 491.12C116.915 491.12 116.109 490.92 115.375 490.52C114.655 490.107 114.075 489.5 113.635 488.7C113.209 487.9 112.995 486.9 112.995 485.7C112.995 484.5 113.202 483.5 113.615 482.7C114.042 481.9 114.615 481.3 115.335 480.9C116.069 480.5 116.889 480.3 117.795 480.3C118.835 480.3 119.755 480.527 120.555 480.98C121.355 481.433 121.989 482.067 122.455 482.88C122.922 483.68 123.155 484.62 123.155 485.7C123.155 486.78 122.922 487.727 122.455 488.54C121.989 489.353 121.355 489.987 120.555 490.44C119.755 490.893 118.835 491.12 117.795 491.12ZM112.175 494.88V480.4H114.015V483.26L113.895 485.72L114.095 488.18V494.88H112.175ZM117.635 489.44C118.315 489.44 118.922 489.287 119.455 488.98C120.002 488.673 120.429 488.24 120.735 487.68C121.055 487.107 121.215 486.447 121.215 485.7C121.215 484.94 121.055 484.287 120.735 483.74C120.429 483.18 120.002 482.747 119.455 482.44C118.922 482.133 118.315 481.98 117.635 481.98C116.969 481.98 116.362 482.133 115.815 482.44C115.282 482.747 114.855 483.18 114.535 483.74C114.229 484.287 114.075 484.94 114.075 485.7C114.075 486.447 114.229 487.107 114.535 487.68C114.855 488.24 115.282 488.673 115.815 488.98C116.362 489.287 116.969 489.44 117.635 489.44ZM132.291 491V488.76L132.191 488.34V484.52C132.191 483.707 131.951 483.08 131.471 482.64C131.004 482.187 130.297 481.96 129.351 481.96C128.724 481.96 128.111 482.067 127.511 482.28C126.911 482.48 126.404 482.753 125.991 483.1L125.191 481.66C125.737 481.22 126.391 480.887 127.151 480.66C127.924 480.42 128.731 480.3 129.571 480.3C131.024 480.3 132.144 480.653 132.931 481.36C133.717 482.067 134.111 483.147 134.111 484.6V491H132.291ZM128.811 491.12C128.024 491.12 127.331 490.987 126.731 490.72C126.144 490.453 125.691 490.087 125.371 489.62C125.051 489.14 124.891 488.6 124.891 488C124.891 487.427 125.024 486.907 125.291 486.44C125.571 485.973 126.017 485.6 126.631 485.32C127.257 485.04 128.097 484.9 129.151 484.9H132.511V486.28H129.231C128.271 486.28 127.624 486.44 127.291 486.76C126.957 487.08 126.791 487.467 126.791 487.92C126.791 488.44 126.997 488.86 127.411 489.18C127.824 489.487 128.397 489.64 129.131 489.64C129.851 489.64 130.477 489.48 131.011 489.16C131.557 488.84 131.951 488.373 132.191 487.76L132.571 489.08C132.317 489.707 131.871 490.207 131.231 490.58C130.591 490.94 129.784 491.12 128.811 491.12ZM142.304 495C141.33 495 140.384 494.86 139.464 494.58C138.557 494.313 137.817 493.927 137.244 493.42L138.164 491.94C138.657 492.367 139.264 492.7 139.984 492.94C140.704 493.193 141.457 493.32 142.244 493.32C143.497 493.32 144.417 493.027 145.004 492.44C145.59 491.853 145.884 490.96 145.884 489.76V487.52L146.084 485.42L145.984 483.3V480.4H147.804V489.56C147.804 491.427 147.337 492.8 146.404 493.68C145.47 494.56 144.104 495 142.304 495ZM142.064 490.56C141.037 490.56 140.117 490.347 139.304 489.92C138.504 489.48 137.864 488.873 137.384 488.1C136.917 487.327 136.684 486.433 136.684 485.42C136.684 484.393 136.917 483.5 137.384 482.74C137.864 481.967 138.504 481.367 139.304 480.94C140.117 480.513 141.037 480.3 142.064 480.3C142.97 480.3 143.797 480.487 144.544 480.86C145.29 481.22 145.884 481.78 146.324 482.54C146.777 483.3 147.004 484.26 147.004 485.42C147.004 486.567 146.777 487.52 146.324 488.28C145.884 489.04 145.29 489.613 144.544 490C143.797 490.373 142.97 490.56 142.064 490.56ZM142.284 488.88C142.99 488.88 143.617 488.733 144.164 488.44C144.71 488.147 145.137 487.74 145.444 487.22C145.764 486.7 145.924 486.1 145.924 485.42C145.924 484.74 145.764 484.14 145.444 483.62C145.137 483.1 144.71 482.7 144.164 482.42C143.617 482.127 142.99 481.98 142.284 481.98C141.577 481.98 140.944 482.127 140.384 482.42C139.837 482.7 139.404 483.1 139.084 483.62C138.777 484.14 138.624 484.74 138.624 485.42C138.624 486.1 138.777 486.7 139.084 487.22C139.404 487.74 139.837 488.147 140.384 488.44C140.944 488.733 141.577 488.88 142.284 488.88ZM156.012 491.12C154.946 491.12 153.999 490.887 153.172 490.42C152.346 489.953 151.692 489.313 151.212 488.5C150.732 487.673 150.492 486.74 150.492 485.7C150.492 484.647 150.732 483.713 151.212 482.9C151.692 482.087 152.346 481.453 153.172 481C153.999 480.533 154.946 480.3 156.012 480.3C157.066 480.3 158.006 480.533 158.832 481C159.672 481.453 160.326 482.087 160.792 482.9C161.272 483.7 161.512 484.633 161.512 485.7C161.512 486.753 161.272 487.687 160.792 488.5C160.326 489.313 159.672 489.953 158.832 490.42C158.006 490.887 157.066 491.12 156.012 491.12ZM156.012 489.44C156.692 489.44 157.299 489.287 157.832 488.98C158.379 488.673 158.806 488.24 159.112 487.68C159.419 487.107 159.572 486.447 159.572 485.7C159.572 484.94 159.419 484.287 159.112 483.74C158.806 483.18 158.379 482.747 157.832 482.44C157.299 482.133 156.692 481.98 156.012 481.98C155.332 481.98 154.726 482.133 154.192 482.44C153.659 482.747 153.232 483.18 152.912 483.74C152.592 484.287 152.432 484.94 152.432 485.7C152.432 486.447 152.592 487.107 152.912 487.68C153.232 488.24 153.659 488.673 154.192 488.98C154.726 489.287 155.332 489.44 156.012 489.44ZM164.393 491.12C164.02 491.12 163.7 490.993 163.433 490.74C163.167 490.473 163.033 490.14 163.033 489.74C163.033 489.34 163.167 489.013 163.433 488.76C163.7 488.507 164.02 488.38 164.393 488.38C164.753 488.38 165.06 488.507 165.313 488.76C165.58 489.013 165.713 489.34 165.713 489.74C165.713 490.14 165.58 490.473 165.313 490.74C165.06 490.993 164.753 491.12 164.393 491.12Z" fill="white" fill-opacity="0.9"/>
<defs>
<filter id="filter0_d_5_83" x="0" y="0" width="278" height="579.5" filterUnits="userSpaceOnUse" color-interpolation-filters="sRGB">
<feFlood flood-opacity="0" result="BackgroundImageFix"/>
<feColorMatrix in="SourceAlpha" type="matrix" values="0 0 0 0 0 0 0 0 0 0 0 0 0 0 0 0 0 0 127 0" result="hardAlpha"/>
<feOffset dy="4"/>
<feGaussianBlur stdDeviation="2"/>
<feComposite in2="hardAlpha" operator="out"/>
<feColorMatrix type="matrix" values="0 0 0 0 0 0 0 0 0 0 0 0 0 0 0 0 0 0 0.25 0"/>
<feBlend mode="normal" in2="BackgroundImageFix" result="effect1_dropShadow_5_83"/>
<feBlend mode="normal" in="SourceGraphic" in2="effect1_dropShadow_5_83" result="shape"/>
</filter>
</defs>
</svg>
