<svg width="278" height="580" viewBox="0 0 278 580" fill="none" xmlns="http://www.w3.org/2000/svg">
<g filter="url(#filter0_d_5_61)">
<path d="M4 217.5C4 208.663 11.1634 201.5 20 201.5H25.5378H47.0757H74.1513C82.9879 201.5 89.7108 209.084 93.7004 216.968C108.73 246.671 167.05 246.671 182.079 216.968C186.069 209.084 192.792 201.5 201.628 201.5H229.814H251.907H258C266.837 201.5 274 208.663 274 217.5V555.5C274 564.337 266.837 571.5 258 571.5H20C11.1634 571.5 4 564.337 4 555.5V217.5Z" fill="#09A1CC"/>
<path d="M74.1513 201.5C82.9879 201.5 89.7108 209.084 93.7004 216.968C108.73 246.671 167.05 246.671 182.079 216.968C186.069 209.084 192.792 201.5 201.628 201.5H229.814H251.907V16C251.907 7.16345 244.744 0 235.907 0H41.5378C32.7013 0 25.5378 7.16344 25.5378 16V201.5H47.0757H74.1513Z" fill="#ECECEC"/>
</g>
<path d="M81.5951 157.59L117.321 171.856C117.553 171.951 117.794 171.993 118.03 171.993C118.266 171.993 118.51 171.947 118.739 171.856L156.188 156.9L192.329 170.018C192.962 170.251 193.622 170.361 194.281 170.361C195.44 170.361 196.584 170.011 197.56 169.328C199.085 168.261 200 166.507 200 164.643V85.0478C200 82.6498 198.486 80.492 196.233 79.6723L173.371 71.3728C172.372 71.0259 171.285 71.5253 170.927 72.5165C170.565 73.5039 171.075 74.5981 172.067 74.9602L194.93 83.2598C195.677 83.5305 196.184 84.251 196.184 85.0478V164.646C196.184 165.276 195.886 165.844 195.372 166.21C194.846 166.572 194.217 166.656 193.63 166.438L158.06 153.526V122.432C158.06 121.38 157.206 120.526 156.154 120.526C155.102 120.526 154.248 121.38 154.248 122.432V153.568L119.936 167.269V126.244C119.936 125.192 119.082 124.338 118.03 124.338C116.978 124.338 116.124 125.192 116.124 126.244V167.273L83.0095 154.052C82.2813 153.758 81.8124 153.064 81.8124 152.279V72.7796C81.8124 72.1391 82.1174 71.5634 82.6511 71.2012C83.1848 70.8429 83.8291 70.7704 84.4277 71.0106L96.7798 75.9438C97.7519 76.3403 98.8652 75.8562 99.254 74.8802C99.6467 73.9042 99.1702 72.7948 98.1942 72.4021L85.8421 67.4689C84.0731 66.7598 82.0831 66.9847 80.5085 68.0446C78.9378 69.1121 78 70.881 78 72.7796V152.279C78 154.631 79.4106 156.717 81.5951 157.59Z" fill="#09A1CC" stroke="black" stroke-width="0.00064"/>
<path d="M131.591 135.649C132.468 136.923 133.92 137.681 135.468 137.681C137.027 137.681 138.484 136.911 139.353 135.638L153.443 115.402L161.35 103.37C166.973 96.2485 169.371 87.3314 168.102 78.2617C166.066 63.6641 153.912 51.8686 139.204 50.2102C119.254 47.999 102.296 63.5307 102.296 82.9776C102.296 90.5909 104.767 97.3503 110.287 104.853L131.591 135.649ZM135.365 53.8091C136.49 53.8091 137.63 53.8739 138.781 54.0035C151.781 55.4675 162.528 65.8943 164.328 78.7916C165.448 86.8205 163.325 94.7121 158.258 101.14L150.283 113.263L136.211 133.473C135.742 134.159 135.19 134.155 134.721 133.476L113.387 102.638C108.35 95.7872 106.105 89.7217 106.105 82.9738C106.109 66.8932 119.231 53.8091 135.365 53.8091Z" fill="#09A1CC" stroke="black" stroke-width="0.00064"/>
<path d="M135.193 94.4147C141.499 94.4147 146.63 89.2832 146.63 82.9775C146.63 76.6719 141.499 71.5404 135.193 71.5404C128.888 71.5404 123.756 76.6719 123.756 82.9775C123.756 89.2832 128.888 94.4147 135.193 94.4147ZM135.193 75.3528C139.398 75.3528 142.818 78.7725 142.818 82.9775C142.818 87.1826 139.398 90.6023 135.193 90.6023C130.988 90.6023 127.568 87.1826 127.568 82.9775C127.568 78.7725 130.988 75.3528 135.193 75.3528Z" fill="#09A1CC" stroke="black" stroke-width="0.00064"/>
<path d="M36.1347 318.275H44.8347V320.95H36.1347V318.275ZM36.3847 325.775H46.2597V328.5H33.1347V311H45.9097V313.725H36.3847V325.775ZM49.8827 328.5V311H53.1327V325.75H62.2827V328.5H49.8827ZM64.8485 328.5V311H68.0985V328.5H64.8485ZM81.0069 328.75C79.6403 328.75 78.3819 328.533 77.2319 328.1C76.0986 327.65 75.1069 327.025 74.2569 326.225C73.4069 325.408 72.7486 324.45 72.2819 323.35C71.8153 322.25 71.5819 321.05 71.5819 319.75C71.5819 318.45 71.8153 317.25 72.2819 316.15C72.7486 315.05 73.4069 314.1 74.2569 313.3C75.1236 312.483 76.1319 311.858 77.2819 311.425C78.4319 310.975 79.6903 310.75 81.0569 310.75C82.5403 310.75 83.8736 310.992 85.0569 311.475C86.2569 311.958 87.2653 312.667 88.0819 313.6L86.0319 315.6C85.3486 314.917 84.6069 314.417 83.8069 314.1C83.0236 313.767 82.1569 313.6 81.2069 313.6C80.2903 313.6 79.4403 313.75 78.6569 314.05C77.8736 314.35 77.1986 314.775 76.6319 315.325C76.0653 315.875 75.6236 316.525 75.3069 317.275C75.0069 318.025 74.8569 318.85 74.8569 319.75C74.8569 320.633 75.0069 321.45 75.3069 322.2C75.6236 322.95 76.0653 323.608 76.6319 324.175C77.1986 324.725 77.8653 325.15 78.6319 325.45C79.3986 325.75 80.2486 325.9 81.1819 325.9C82.0486 325.9 82.8819 325.767 83.6819 325.5C84.4986 325.217 85.2736 324.75 86.0069 324.1L87.8569 326.525C86.9403 327.258 85.8736 327.817 84.6569 328.2C83.4569 328.567 82.2403 328.75 81.0069 328.75ZM84.7819 326.1V319.55H87.8569V326.525L84.7819 326.1ZM95.1435 318.275H103.843V320.95H95.1435V318.275ZM95.3935 325.775H105.268V328.5H92.1435V311H104.918V313.725H95.3935V325.775ZM115.801 328.5V311H119.051V325.75H128.201V328.5H115.801ZM128.316 328.5L136.191 311H139.391L147.291 328.5H143.891L137.116 312.725H138.416L131.666 328.5H128.316ZM131.941 324.45L132.816 321.9H142.266L143.141 324.45H131.941ZM156.426 328.5V311H159.101L166.751 323.775H165.351L172.876 311H175.551L175.576 328.5H172.501L172.476 315.825H173.126L166.726 326.5H165.276L158.776 315.825H159.526V328.5H156.426ZM183.303 318.275H192.003V320.95H183.303V318.275ZM183.553 325.775H193.428V328.5H180.303V311H193.078V313.725H183.553V325.775ZM199.776 328.75C198.659 328.75 197.626 328.533 196.676 328.1C195.742 327.667 194.976 327.042 194.376 326.225L196.226 324C196.709 324.667 197.234 325.167 197.801 325.5C198.384 325.833 199.017 326 199.701 326C201.517 326 202.426 324.925 202.426 322.775V313.725H196.201V311H205.676V322.6C205.676 324.667 205.167 326.208 204.151 327.225C203.151 328.242 201.692 328.75 199.776 328.75ZM218.434 328.75C217.068 328.75 215.809 328.525 214.659 328.075C213.509 327.625 212.509 327 211.659 326.2C210.809 325.383 210.151 324.433 209.684 323.35C209.218 322.25 208.984 321.05 208.984 319.75C208.984 318.45 209.218 317.258 209.684 316.175C210.151 315.075 210.809 314.125 211.659 313.325C212.509 312.508 213.509 311.875 214.659 311.425C215.809 310.975 217.059 310.75 218.409 310.75C219.776 310.75 221.026 310.975 222.159 311.425C223.309 311.875 224.309 312.508 225.159 313.325C226.009 314.125 226.668 315.075 227.134 316.175C227.601 317.258 227.834 318.45 227.834 319.75C227.834 321.05 227.601 322.25 227.134 323.35C226.668 324.45 226.009 325.4 225.159 326.2C224.309 327 223.309 327.625 222.159 328.075C221.026 328.525 219.784 328.75 218.434 328.75ZM218.409 325.9C219.293 325.9 220.109 325.75 220.859 325.45C221.609 325.15 222.259 324.725 222.809 324.175C223.359 323.608 223.784 322.958 224.084 322.225C224.401 321.475 224.559 320.65 224.559 319.75C224.559 318.85 224.401 318.033 224.084 317.3C223.784 316.55 223.359 315.9 222.809 315.35C222.259 314.783 221.609 314.35 220.859 314.05C220.109 313.75 219.293 313.6 218.409 313.6C217.526 313.6 216.709 313.75 215.959 314.05C215.226 314.35 214.576 314.783 214.009 315.35C213.459 315.9 213.026 316.55 212.709 317.3C212.409 318.033 212.259 318.85 212.259 319.75C212.259 320.633 212.409 321.45 212.709 322.2C213.026 322.95 213.459 323.608 214.009 324.175C214.559 324.725 215.209 325.15 215.959 325.45C216.709 325.75 217.526 325.9 218.409 325.9ZM231.279 328.5V311H238.479C240.029 311 241.354 311.25 242.454 311.75C243.571 312.25 244.429 312.967 245.029 313.9C245.629 314.833 245.929 315.942 245.929 317.225C245.929 318.508 245.629 319.617 245.029 320.55C244.429 321.467 243.571 322.175 242.454 322.675C241.354 323.158 240.029 323.4 238.479 323.4H233.079L234.529 321.925V328.5H231.279ZM242.729 328.5L238.304 322.15H241.779L246.229 328.5H242.729ZM234.529 322.275L233.079 320.725H238.329C239.763 320.725 240.838 320.417 241.554 319.8C242.288 319.183 242.654 318.325 242.654 317.225C242.654 316.108 242.288 315.25 241.554 314.65C240.838 314.05 239.763 313.75 238.329 313.75H233.079L234.529 312.15V322.275ZM73.6553 358.75C71.2553 358.75 69.3719 358.075 68.0053 356.725C66.6553 355.375 65.9803 353.425 65.9803 350.875V341H69.2303V350.75C69.2303 352.55 69.6136 353.858 70.3803 354.675C71.1636 355.492 72.2636 355.9 73.6803 355.9C75.0969 355.9 76.1886 355.492 76.9553 354.675C77.7219 353.858 78.1053 352.55 78.1053 350.75V341H81.3053V350.875C81.3053 353.425 80.6219 355.375 79.2553 356.725C77.9053 358.075 76.0386 358.75 73.6553 358.75ZM85.8568 358.5V341H94.0568C96.1568 341 97.7568 341.417 98.8568 342.25C99.9568 343.067 100.507 344.167 100.507 345.55C100.507 346.483 100.29 347.283 99.8568 347.95C99.4235 348.6 98.8402 349.108 98.1068 349.475C97.3902 349.825 96.6068 350 95.7568 350L96.2068 349.1C97.1902 349.1 98.0735 349.283 98.8568 349.65C99.6402 350 100.257 350.517 100.707 351.2C101.174 351.883 101.407 352.733 101.407 353.75C101.407 355.25 100.832 356.417 99.6818 357.25C98.5318 358.083 96.8235 358.5 94.5568 358.5H85.8568ZM89.1068 355.95H94.3568C95.5735 355.95 96.5068 355.75 97.1568 355.35C97.8068 354.95 98.1318 354.308 98.1318 353.425C98.1318 352.558 97.8068 351.925 97.1568 351.525C96.5068 351.108 95.5735 350.9 94.3568 350.9H88.8568V348.375H93.7068C94.8402 348.375 95.7068 348.175 96.3068 347.775C96.9235 347.375 97.2318 346.775 97.2318 345.975C97.2318 345.158 96.9235 344.55 96.3068 344.15C95.7068 343.75 94.8402 343.55 93.7068 343.55H89.1068V355.95ZM104.875 358.5V341H108.125V358.5H104.875ZM120.959 358.75C119.625 358.75 118.384 358.533 117.234 358.1C116.1 357.65 115.109 357.025 114.259 356.225C113.425 355.408 112.775 354.45 112.309 353.35C111.842 352.25 111.609 351.05 111.609 349.75C111.609 348.45 111.842 347.25 112.309 346.15C112.775 345.05 113.434 344.1 114.284 343.3C115.134 342.483 116.125 341.858 117.259 341.425C118.392 340.975 119.634 340.75 120.984 340.75C122.417 340.75 123.725 341 124.909 341.5C126.092 341.983 127.092 342.708 127.909 343.675L125.809 345.65C125.175 344.967 124.467 344.458 123.684 344.125C122.9 343.775 122.05 343.6 121.134 343.6C120.217 343.6 119.375 343.75 118.609 344.05C117.859 344.35 117.2 344.775 116.634 345.325C116.084 345.875 115.65 346.525 115.334 347.275C115.034 348.025 114.884 348.85 114.884 349.75C114.884 350.65 115.034 351.475 115.334 352.225C115.65 352.975 116.084 353.625 116.634 354.175C117.2 354.725 117.859 355.15 118.609 355.45C119.375 355.75 120.217 355.9 121.134 355.9C122.05 355.9 122.9 355.733 123.684 355.4C124.467 355.05 125.175 354.525 125.809 353.825L127.909 355.825C127.092 356.775 126.092 357.5 124.909 358C123.725 358.5 122.409 358.75 120.959 358.75ZM128.182 358.5L136.057 341H139.257L147.157 358.5H143.757L136.982 342.725H138.282L131.532 358.5H128.182ZM131.807 354.45L132.682 351.9H142.132L143.007 354.45H131.807ZM157.238 358.75C155.905 358.75 154.663 358.533 153.513 358.1C152.38 357.65 151.388 357.025 150.538 356.225C149.705 355.408 149.055 354.45 148.588 353.35C148.121 352.25 147.888 351.05 147.888 349.75C147.888 348.45 148.121 347.25 148.588 346.15C149.055 345.05 149.713 344.1 150.563 343.3C151.413 342.483 152.405 341.858 153.538 341.425C154.671 340.975 155.913 340.75 157.263 340.75C158.696 340.75 160.005 341 161.188 341.5C162.371 341.983 163.371 342.708 164.188 343.675L162.088 345.65C161.455 344.967 160.746 344.458 159.963 344.125C159.18 343.775 158.33 343.6 157.413 343.6C156.496 343.6 155.655 343.75 154.888 344.05C154.138 344.35 153.48 344.775 152.913 345.325C152.363 345.875 151.93 346.525 151.613 347.275C151.313 348.025 151.163 348.85 151.163 349.75C151.163 350.65 151.313 351.475 151.613 352.225C151.93 352.975 152.363 353.625 152.913 354.175C153.48 354.725 154.138 355.15 154.888 355.45C155.655 355.75 156.496 355.9 157.413 355.9C158.33 355.9 159.18 355.733 159.963 355.4C160.746 355.05 161.455 354.525 162.088 353.825L164.188 355.825C163.371 356.775 162.371 357.5 161.188 358C160.005 358.5 158.688 358.75 157.238 358.75ZM167.302 358.5V341H170.552V358.5H167.302ZM183.486 358.75C182.119 358.75 180.861 358.525 179.711 358.075C178.561 357.625 177.561 357 176.711 356.2C175.861 355.383 175.202 354.433 174.736 353.35C174.269 352.25 174.036 351.05 174.036 349.75C174.036 348.45 174.269 347.258 174.736 346.175C175.202 345.075 175.861 344.125 176.711 343.325C177.561 342.508 178.561 341.875 179.711 341.425C180.861 340.975 182.111 340.75 183.461 340.75C184.827 340.75 186.077 340.975 187.211 341.425C188.361 341.875 189.361 342.508 190.211 343.325C191.061 344.125 191.719 345.075 192.186 346.175C192.652 347.258 192.886 348.45 192.886 349.75C192.886 351.05 192.652 352.25 192.186 353.35C191.719 354.45 191.061 355.4 190.211 356.2C189.361 357 188.361 357.625 187.211 358.075C186.077 358.525 184.836 358.75 183.486 358.75ZM183.461 355.9C184.344 355.9 185.161 355.75 185.911 355.45C186.661 355.15 187.311 354.725 187.861 354.175C188.411 353.608 188.836 352.958 189.136 352.225C189.452 351.475 189.611 350.65 189.611 349.75C189.611 348.85 189.452 348.033 189.136 347.3C188.836 346.55 188.411 345.9 187.861 345.35C187.311 344.783 186.661 344.35 185.911 344.05C185.161 343.75 184.344 343.6 183.461 343.6C182.577 343.6 181.761 343.75 181.011 344.05C180.277 344.35 179.627 344.783 179.061 345.35C178.511 345.9 178.077 346.55 177.761 347.3C177.461 348.033 177.311 348.85 177.311 349.75C177.311 350.633 177.461 351.45 177.761 352.2C178.077 352.95 178.511 353.608 179.061 354.175C179.611 354.725 180.261 355.15 181.011 355.45C181.761 355.75 182.577 355.9 183.461 355.9ZM181.361 339.575L184.736 336.15H188.411L184.061 339.575H181.361ZM196.33 358.5V341H199.005L209.98 354.475H208.655V341H211.88V358.5H209.205L198.23 345.025H199.555V358.5H196.33Z" fill="white"/>
<path d="M69.2394 443V430.74H64.4394V429H76.0194V430.74H71.2194V443H69.2394ZM81.5439 443.12C80.4106 443.12 79.4106 442.887 78.5439 442.42C77.6906 441.953 77.0239 441.313 76.5439 440.5C76.0772 439.687 75.8439 438.753 75.8439 437.7C75.8439 436.647 76.0706 435.713 76.5239 434.9C76.9906 434.087 77.6239 433.453 78.4239 433C79.2372 432.533 80.1506 432.3 81.1639 432.3C82.1906 432.3 83.0972 432.527 83.8839 432.98C84.6706 433.433 85.2839 434.073 85.7239 434.9C86.1772 435.713 86.4039 436.667 86.4039 437.76C86.4039 437.84 86.3972 437.933 86.3839 438.04C86.3839 438.147 86.3772 438.247 86.3639 438.34H77.3439V436.96H85.3639L84.5839 437.44C84.5972 436.76 84.4572 436.153 84.1639 435.62C83.8706 435.087 83.4639 434.673 82.9439 434.38C82.4372 434.073 81.8439 433.92 81.1639 433.92C80.4972 433.92 79.9039 434.073 79.3839 434.38C78.8639 434.673 78.4572 435.093 78.1639 435.64C77.8706 436.173 77.7239 436.787 77.7239 437.48V437.8C77.7239 438.507 77.8839 439.14 78.2039 439.7C78.5372 440.247 78.9972 440.673 79.5839 440.98C80.1706 441.287 80.8439 441.44 81.6039 441.44C82.2306 441.44 82.7972 441.333 83.3039 441.12C83.8239 440.907 84.2772 440.587 84.6639 440.16L85.7239 441.4C85.2439 441.96 84.6439 442.387 83.9239 442.68C83.2172 442.973 82.4239 443.12 81.5439 443.12ZM101.021 443V440.76L100.921 440.34V436.52C100.921 435.707 100.681 435.08 100.201 434.64C99.7344 434.187 99.0278 433.96 98.0811 433.96C97.4544 433.96 96.8411 434.067 96.2411 434.28C95.6411 434.48 95.1344 434.753 94.7211 435.1L93.9211 433.66C94.4678 433.22 95.1211 432.887 95.8811 432.66C96.6544 432.42 97.4611 432.3 98.3011 432.3C99.7544 432.3 100.874 432.653 101.661 433.36C102.448 434.067 102.841 435.147 102.841 436.6V443H101.021ZM97.5411 443.12C96.7544 443.12 96.0611 442.987 95.4611 442.72C94.8744 442.453 94.4211 442.087 94.1011 441.62C93.7811 441.14 93.6211 440.6 93.6211 440C93.6211 439.427 93.7544 438.907 94.0211 438.44C94.3011 437.973 94.7478 437.6 95.3611 437.32C95.9878 437.04 96.8278 436.9 97.8811 436.9H101.241V438.28H97.9611C97.0011 438.28 96.3544 438.44 96.0211 438.76C95.6878 439.08 95.5211 439.467 95.5211 439.92C95.5211 440.44 95.7278 440.86 96.1411 441.18C96.5544 441.487 97.1278 441.64 97.8611 441.64C98.5811 441.64 99.2078 441.48 99.7411 441.16C100.288 440.84 100.681 440.373 100.921 439.76L101.301 441.08C101.048 441.707 100.601 442.207 99.9611 442.58C99.3211 442.94 98.5144 443.12 97.5411 443.12ZM109.434 443.12C108.554 443.12 107.714 443 106.914 442.76C106.128 442.52 105.508 442.227 105.054 441.88L105.854 440.36C106.308 440.667 106.868 440.927 107.534 441.14C108.201 441.353 108.881 441.46 109.574 441.46C110.468 441.46 111.108 441.333 111.494 441.08C111.894 440.827 112.094 440.473 112.094 440.02C112.094 439.687 111.974 439.427 111.734 439.24C111.494 439.053 111.174 438.913 110.774 438.82C110.388 438.727 109.954 438.647 109.474 438.58C108.994 438.5 108.514 438.407 108.034 438.3C107.554 438.18 107.114 438.02 106.714 437.82C106.314 437.607 105.994 437.32 105.754 436.96C105.514 436.587 105.394 436.093 105.394 435.48C105.394 434.84 105.574 434.28 105.934 433.8C106.294 433.32 106.801 432.953 107.454 432.7C108.121 432.433 108.908 432.3 109.814 432.3C110.508 432.3 111.208 432.387 111.914 432.56C112.634 432.72 113.221 432.953 113.674 433.26L112.854 434.78C112.374 434.46 111.874 434.24 111.354 434.12C110.834 434 110.314 433.94 109.794 433.94C108.954 433.94 108.328 434.08 107.914 434.36C107.501 434.627 107.294 434.973 107.294 435.4C107.294 435.76 107.414 436.04 107.654 436.24C107.908 436.427 108.228 436.573 108.614 436.68C109.014 436.787 109.454 436.88 109.934 436.96C110.414 437.027 110.894 437.12 111.374 437.24C111.854 437.347 112.288 437.5 112.674 437.7C113.074 437.9 113.394 438.18 113.634 438.54C113.888 438.9 114.014 439.38 114.014 439.98C114.014 440.62 113.828 441.173 113.454 441.64C113.081 442.107 112.554 442.473 111.874 442.74C111.194 442.993 110.381 443.12 109.434 443.12ZM121.134 443.12C120 443.12 119 442.887 118.134 442.42C117.28 441.953 116.614 441.313 116.134 440.5C115.667 439.687 115.434 438.753 115.434 437.7C115.434 436.647 115.66 435.713 116.114 434.9C116.58 434.087 117.214 433.453 118.014 433C118.827 432.533 119.74 432.3 120.754 432.3C121.78 432.3 122.687 432.527 123.474 432.98C124.26 433.433 124.874 434.073 125.314 434.9C125.767 435.713 125.994 436.667 125.994 437.76C125.994 437.84 125.987 437.933 125.974 438.04C125.974 438.147 125.967 438.247 125.954 438.34H116.934V436.96H124.954L124.174 437.44C124.187 436.76 124.047 436.153 123.754 435.62C123.46 435.087 123.054 434.673 122.534 434.38C122.027 434.073 121.434 433.92 120.754 433.92C120.087 433.92 119.494 434.073 118.974 434.38C118.454 434.673 118.047 435.093 117.754 435.64C117.46 436.173 117.314 436.787 117.314 437.48V437.8C117.314 438.507 117.474 439.14 117.794 439.7C118.127 440.247 118.587 440.673 119.174 440.98C119.76 441.287 120.434 441.44 121.194 441.44C121.82 441.44 122.387 441.333 122.894 441.12C123.414 440.907 123.867 440.587 124.254 440.16L125.314 441.4C124.834 441.96 124.234 442.387 123.514 442.68C122.807 442.973 122.014 443.12 121.134 443.12ZM131.7 443.12C130.82 443.12 129.98 443 129.18 442.76C128.393 442.52 127.773 442.227 127.32 441.88L128.12 440.36C128.573 440.667 129.133 440.927 129.8 441.14C130.467 441.353 131.147 441.46 131.84 441.46C132.733 441.46 133.373 441.333 133.76 441.08C134.16 440.827 134.36 440.473 134.36 440.02C134.36 439.687 134.24 439.427 134 439.24C133.76 439.053 133.44 438.913 133.04 438.82C132.653 438.727 132.22 438.647 131.74 438.58C131.26 438.5 130.78 438.407 130.3 438.3C129.82 438.18 129.38 438.02 128.98 437.82C128.58 437.607 128.26 437.32 128.02 436.96C127.78 436.587 127.66 436.093 127.66 435.48C127.66 434.84 127.84 434.28 128.2 433.8C128.56 433.32 129.067 432.953 129.72 432.7C130.387 432.433 131.173 432.3 132.08 432.3C132.773 432.3 133.473 432.387 134.18 432.56C134.9 432.72 135.487 432.953 135.94 433.26L135.12 434.78C134.64 434.46 134.14 434.24 133.62 434.12C133.1 434 132.58 433.94 132.06 433.94C131.22 433.94 130.593 434.08 130.18 434.36C129.767 434.627 129.56 434.973 129.56 435.4C129.56 435.76 129.68 436.04 129.92 436.24C130.173 436.427 130.493 436.573 130.88 436.68C131.28 436.787 131.72 436.88 132.2 436.96C132.68 437.027 133.16 437.12 133.64 437.24C134.12 437.347 134.553 437.5 134.94 437.7C135.34 437.9 135.66 438.18 135.9 438.54C136.153 438.9 136.28 439.38 136.28 439.98C136.28 440.62 136.093 441.173 135.72 441.64C135.347 442.107 134.82 442.473 134.14 442.74C133.46 442.993 132.647 443.12 131.7 443.12ZM143.219 443.12C142.153 443.12 141.206 442.887 140.379 442.42C139.553 441.953 138.899 441.313 138.419 440.5C137.939 439.673 137.699 438.74 137.699 437.7C137.699 436.647 137.939 435.713 138.419 434.9C138.899 434.087 139.553 433.453 140.379 433C141.206 432.533 142.153 432.3 143.219 432.3C144.273 432.3 145.213 432.533 146.039 433C146.879 433.453 147.533 434.087 147.999 434.9C148.479 435.7 148.719 436.633 148.719 437.7C148.719 438.753 148.479 439.687 147.999 440.5C147.533 441.313 146.879 441.953 146.039 442.42C145.213 442.887 144.273 443.12 143.219 443.12ZM143.219 441.44C143.899 441.44 144.506 441.287 145.039 440.98C145.586 440.673 146.013 440.24 146.319 439.68C146.626 439.107 146.779 438.447 146.779 437.7C146.779 436.94 146.626 436.287 146.319 435.74C146.013 435.18 145.586 434.747 145.039 434.44C144.506 434.133 143.899 433.98 143.219 433.98C142.539 433.98 141.933 434.133 141.399 434.44C140.866 434.747 140.439 435.18 140.119 435.74C139.799 436.287 139.639 436.94 139.639 437.7C139.639 438.447 139.799 439.107 140.119 439.68C140.439 440.24 140.866 440.673 141.399 440.98C141.933 441.287 142.539 441.44 143.219 441.44ZM151.375 443V432.4H153.215V435.28L153.035 434.56C153.328 433.827 153.821 433.267 154.515 432.88C155.208 432.493 156.061 432.3 157.075 432.3V434.16C156.995 434.147 156.915 434.14 156.835 434.14C156.768 434.14 156.701 434.14 156.635 434.14C155.608 434.14 154.795 434.447 154.195 435.06C153.595 435.673 153.295 436.56 153.295 437.72V443H151.375ZM165.24 443V440.76L165.14 440.34V436.52C165.14 435.707 164.9 435.08 164.42 434.64C163.953 434.187 163.247 433.96 162.3 433.96C161.673 433.96 161.06 434.067 160.46 434.28C159.86 434.48 159.353 434.753 158.94 435.1L158.14 433.66C158.687 433.22 159.34 432.887 160.1 432.66C160.873 432.42 161.68 432.3 162.52 432.3C163.973 432.3 165.093 432.653 165.88 433.36C166.667 434.067 167.06 435.147 167.06 436.6V443H165.24ZM161.76 443.12C160.973 443.12 160.28 442.987 159.68 442.72C159.093 442.453 158.64 442.087 158.32 441.62C158 441.14 157.84 440.6 157.84 440C157.84 439.427 157.973 438.907 158.24 438.44C158.52 437.973 158.967 437.6 159.58 437.32C160.207 437.04 161.047 436.9 162.1 436.9H165.46V438.28H162.18C161.22 438.28 160.573 438.44 160.24 438.76C159.907 439.08 159.74 439.467 159.74 439.92C159.74 440.44 159.947 440.86 160.36 441.18C160.773 441.487 161.347 441.64 162.08 441.64C162.8 441.64 163.427 441.48 163.96 441.16C164.507 440.84 164.9 440.373 165.14 439.76L165.52 441.08C165.267 441.707 164.82 442.207 164.18 442.58C163.54 442.94 162.733 443.12 161.76 443.12ZM183.873 432.3C184.726 432.3 185.48 432.467 186.133 432.8C186.786 433.133 187.293 433.64 187.653 434.32C188.026 435 188.213 435.86 188.213 436.9V443H186.293V437.12C186.293 436.093 186.053 435.32 185.573 434.8C185.093 434.28 184.42 434.02 183.553 434.02C182.913 434.02 182.353 434.153 181.873 434.42C181.393 434.687 181.02 435.08 180.753 435.6C180.5 436.12 180.373 436.767 180.373 437.54V443H178.453V437.12C178.453 436.093 178.213 435.32 177.733 434.8C177.266 434.28 176.593 434.02 175.713 434.02C175.086 434.02 174.533 434.153 174.053 434.42C173.573 434.687 173.2 435.08 172.933 435.6C172.666 436.12 172.533 436.767 172.533 437.54V443H170.613V432.4H172.453V435.22L172.153 434.5C172.486 433.807 173 433.267 173.693 432.88C174.386 432.493 175.193 432.3 176.113 432.3C177.126 432.3 178 432.553 178.733 433.06C179.466 433.553 179.946 434.307 180.173 435.32L179.393 435C179.713 434.187 180.273 433.533 181.073 433.04C181.873 432.547 182.806 432.3 183.873 432.3ZM196.286 443.12C195.219 443.12 194.272 442.887 193.446 442.42C192.619 441.953 191.966 441.313 191.486 440.5C191.006 439.673 190.766 438.74 190.766 437.7C190.766 436.647 191.006 435.713 191.486 434.9C191.966 434.087 192.619 433.453 193.446 433C194.272 432.533 195.219 432.3 196.286 432.3C197.339 432.3 198.279 432.533 199.106 433C199.946 433.453 200.599 434.087 201.066 434.9C201.546 435.7 201.786 436.633 201.786 437.7C201.786 438.753 201.546 439.687 201.066 440.5C200.599 441.313 199.946 441.953 199.106 442.42C198.279 442.887 197.339 443.12 196.286 443.12ZM196.286 441.44C196.966 441.44 197.572 441.287 198.106 440.98C198.652 440.673 199.079 440.24 199.386 439.68C199.692 439.107 199.846 438.447 199.846 437.7C199.846 436.94 199.692 436.287 199.386 435.74C199.079 435.18 198.652 434.747 198.106 434.44C197.572 434.133 196.966 433.98 196.286 433.98C195.606 433.98 194.999 434.133 194.466 434.44C193.932 434.747 193.506 435.18 193.186 435.74C192.866 436.287 192.706 436.94 192.706 437.7C192.706 438.447 192.866 439.107 193.186 439.68C193.506 440.24 193.932 440.673 194.466 440.98C194.999 441.287 195.606 441.44 196.286 441.44ZM207.481 443.12C206.601 443.12 205.761 443 204.961 442.76C204.174 442.52 203.554 442.227 203.101 441.88L203.901 440.36C204.354 440.667 204.914 440.927 205.581 441.14C206.248 441.353 206.928 441.46 207.621 441.46C208.514 441.46 209.154 441.333 209.541 441.08C209.941 440.827 210.141 440.473 210.141 440.02C210.141 439.687 210.021 439.427 209.781 439.24C209.541 439.053 209.221 438.913 208.821 438.82C208.434 438.727 208.001 438.647 207.521 438.58C207.041 438.5 206.561 438.407 206.081 438.3C205.601 438.18 205.161 438.02 204.761 437.82C204.361 437.607 204.041 437.32 203.801 436.96C203.561 436.587 203.441 436.093 203.441 435.48C203.441 434.84 203.621 434.28 203.981 433.8C204.341 433.32 204.848 432.953 205.501 432.7C206.168 432.433 206.954 432.3 207.861 432.3C208.554 432.3 209.254 432.387 209.961 432.56C210.681 432.72 211.268 432.953 211.721 433.26L210.901 434.78C210.421 434.46 209.921 434.24 209.401 434.12C208.881 434 208.361 433.94 207.841 433.94C207.001 433.94 206.374 434.08 205.961 434.36C205.548 434.627 205.341 434.973 205.341 435.4C205.341 435.76 205.461 436.04 205.701 436.24C205.954 436.427 206.274 436.573 206.661 436.68C207.061 436.787 207.501 436.88 207.981 436.96C208.461 437.027 208.941 437.12 209.421 437.24C209.901 437.347 210.334 437.5 210.721 437.7C211.121 437.9 211.441 438.18 211.681 438.54C211.934 438.9 212.061 439.38 212.061 439.98C212.061 440.62 211.874 441.173 211.501 441.64C211.128 442.107 210.601 442.473 209.921 442.74C209.241 442.993 208.428 443.12 207.481 443.12ZM71.3111 467.12C70.4311 467.12 69.6244 466.92 68.8911 466.52C68.1711 466.107 67.5911 465.5 67.1511 464.7C66.7244 463.9 66.5111 462.9 66.5111 461.7C66.5111 460.5 66.7178 459.5 67.1311 458.7C67.5578 457.9 68.1311 457.3 68.8511 456.9C69.5844 456.5 70.4044 456.3 71.3111 456.3C72.3511 456.3 73.2711 456.527 74.0711 456.98C74.8711 457.433 75.5044 458.067 75.9711 458.88C76.4378 459.68 76.6711 460.62 76.6711 461.7C76.6711 462.78 76.4378 463.727 75.9711 464.54C75.5044 465.353 74.8711 465.987 74.0711 466.44C73.2711 466.893 72.3511 467.12 71.3111 467.12ZM65.6911 470.88V456.4H67.5311V459.26L67.4111 461.72L67.6111 464.18V470.88H65.6911ZM71.1511 465.44C71.8311 465.44 72.4378 465.287 72.9711 464.98C73.5178 464.673 73.9444 464.24 74.2511 463.68C74.5711 463.107 74.7311 462.447 74.7311 461.7C74.7311 460.94 74.5711 460.287 74.2511 459.74C73.9444 459.18 73.5178 458.747 72.9711 458.44C72.4378 458.133 71.8311 457.98 71.1511 457.98C70.4844 457.98 69.8778 458.133 69.3311 458.44C68.7978 458.747 68.3711 459.18 68.0511 459.74C67.7444 460.287 67.5911 460.94 67.5911 461.7C67.5911 462.447 67.7444 463.107 68.0511 463.68C68.3711 464.24 68.7978 464.673 69.3311 464.98C69.8778 465.287 70.4844 465.44 71.1511 465.44ZM85.8063 467V464.76L85.7063 464.34V460.52C85.7063 459.707 85.4663 459.08 84.9863 458.64C84.5196 458.187 83.8129 457.96 82.8663 457.96C82.2396 457.96 81.6263 458.067 81.0263 458.28C80.4263 458.48 79.9196 458.753 79.5063 459.1L78.7063 457.66C79.2529 457.22 79.9063 456.887 80.6663 456.66C81.4396 456.42 82.2463 456.3 83.0863 456.3C84.5396 456.3 85.6596 456.653 86.4463 457.36C87.2329 458.067 87.6263 459.147 87.6263 460.6V467H85.8063ZM82.3263 467.12C81.5396 467.12 80.8463 466.987 80.2463 466.72C79.6596 466.453 79.2063 466.087 78.8863 465.62C78.5663 465.14 78.4063 464.6 78.4063 464C78.4063 463.427 78.5396 462.907 78.8063 462.44C79.0863 461.973 79.5329 461.6 80.1463 461.32C80.7729 461.04 81.6129 460.9 82.6663 460.9H86.0263V462.28H82.7463C81.7863 462.28 81.1396 462.44 80.8063 462.76C80.4729 463.08 80.3063 463.467 80.3063 463.92C80.3063 464.44 80.5129 464.86 80.9263 465.18C81.3396 465.487 81.9129 465.64 82.6463 465.64C83.3663 465.64 83.9929 465.48 84.5263 465.16C85.0729 464.84 85.4663 464.373 85.7063 463.76L86.0863 465.08C85.8329 465.707 85.3863 466.207 84.7463 466.58C84.1063 466.94 83.2996 467.12 82.3263 467.12ZM91.1794 467V456.4H93.0194V459.28L92.8394 458.56C93.1327 457.827 93.626 457.267 94.3194 456.88C95.0127 456.493 95.866 456.3 96.8794 456.3V458.16C96.7994 458.147 96.7194 458.14 96.6394 458.14C96.5727 458.14 96.506 458.14 96.4394 458.14C95.4127 458.14 94.5994 458.447 93.9994 459.06C93.3994 459.673 93.0994 460.56 93.0994 461.72V467H91.1794ZM105.045 467V464.76L104.945 464.34V460.52C104.945 459.707 104.705 459.08 104.225 458.64C103.758 458.187 103.051 457.96 102.105 457.96C101.478 457.96 100.865 458.067 100.265 458.28C99.6645 458.48 99.1579 458.753 98.7445 459.1L97.9445 457.66C98.4912 457.22 99.1445 456.887 99.9045 456.66C100.678 456.42 101.485 456.3 102.325 456.3C103.778 456.3 104.898 456.653 105.685 457.36C106.471 458.067 106.865 459.147 106.865 460.6V467H105.045ZM101.565 467.12C100.778 467.12 100.085 466.987 99.4845 466.72C98.8979 466.453 98.4445 466.087 98.1245 465.62C97.8045 465.14 97.6445 464.6 97.6445 464C97.6445 463.427 97.7779 462.907 98.0445 462.44C98.3245 461.973 98.7712 461.6 99.3845 461.32C100.011 461.04 100.851 460.9 101.905 460.9H105.265V462.28H101.985C101.025 462.28 100.378 462.44 100.045 462.76C99.7112 463.08 99.5445 463.467 99.5445 463.92C99.5445 464.44 99.7512 464.86 100.165 465.18C100.578 465.487 101.151 465.64 101.885 465.64C102.605 465.64 103.231 465.48 103.765 465.16C104.311 464.84 104.705 464.373 104.945 463.76L105.325 465.08C105.071 465.707 104.625 466.207 103.985 466.58C103.345 466.94 102.538 467.12 101.565 467.12ZM120.509 467.12C119.375 467.12 118.375 466.887 117.509 466.42C116.655 465.953 115.989 465.313 115.509 464.5C115.042 463.687 114.809 462.753 114.809 461.7C114.809 460.647 115.035 459.713 115.489 458.9C115.955 458.087 116.589 457.453 117.389 457C118.202 456.533 119.115 456.3 120.129 456.3C121.155 456.3 122.062 456.527 122.849 456.98C123.635 457.433 124.249 458.073 124.689 458.9C125.142 459.713 125.369 460.667 125.369 461.76C125.369 461.84 125.362 461.933 125.349 462.04C125.349 462.147 125.342 462.247 125.329 462.34H116.309V460.96H124.329L123.549 461.44C123.562 460.76 123.422 460.153 123.129 459.62C122.835 459.087 122.429 458.673 121.909 458.38C121.402 458.073 120.809 457.92 120.129 457.92C119.462 457.92 118.869 458.073 118.349 458.38C117.829 458.673 117.422 459.093 117.129 459.64C116.835 460.173 116.689 460.787 116.689 461.48V461.8C116.689 462.507 116.849 463.14 117.169 463.7C117.502 464.247 117.962 464.673 118.549 464.98C119.135 465.287 119.809 465.44 120.569 465.44C121.195 465.44 121.762 465.333 122.269 465.12C122.789 464.907 123.242 464.587 123.629 464.16L124.689 465.4C124.209 465.96 123.609 466.387 122.889 466.68C122.182 466.973 121.389 467.12 120.509 467.12ZM133.695 456.3C134.562 456.3 135.322 456.467 135.975 456.8C136.642 457.133 137.162 457.64 137.535 458.32C137.908 459 138.095 459.86 138.095 460.9V467H136.175V461.12C136.175 460.093 135.922 459.32 135.415 458.8C134.922 458.28 134.222 458.02 133.315 458.02C132.635 458.02 132.042 458.153 131.535 458.42C131.028 458.687 130.635 459.08 130.355 459.6C130.088 460.12 129.955 460.767 129.955 461.54V467H128.035V456.4H129.875V459.26L129.575 458.5C129.922 457.807 130.455 457.267 131.175 456.88C131.895 456.493 132.735 456.3 133.695 456.3ZM146.268 467.12C145.188 467.12 144.221 466.887 143.368 466.42C142.528 465.953 141.868 465.313 141.388 464.5C140.908 463.687 140.668 462.753 140.668 461.7C140.668 460.647 140.908 459.713 141.388 458.9C141.868 458.087 142.528 457.453 143.368 457C144.221 456.533 145.188 456.3 146.268 456.3C147.228 456.3 148.081 456.493 148.828 456.88C149.588 457.253 150.175 457.813 150.588 458.56L149.128 459.5C148.781 458.98 148.355 458.6 147.848 458.36C147.355 458.107 146.821 457.98 146.248 457.98C145.555 457.98 144.935 458.133 144.388 458.44C143.841 458.747 143.408 459.18 143.088 459.74C142.768 460.287 142.608 460.94 142.608 461.7C142.608 462.46 142.768 463.12 143.088 463.68C143.408 464.24 143.841 464.673 144.388 464.98C144.935 465.287 145.555 465.44 146.248 465.44C146.821 465.44 147.355 465.32 147.848 465.08C148.355 464.827 148.781 464.44 149.128 463.92L150.588 464.84C150.175 465.573 149.588 466.14 148.828 466.54C148.081 466.927 147.228 467.12 146.268 467.12ZM157.458 467.12C156.391 467.12 155.444 466.887 154.618 466.42C153.791 465.953 153.138 465.313 152.658 464.5C152.178 463.673 151.938 462.74 151.938 461.7C151.938 460.647 152.178 459.713 152.658 458.9C153.138 458.087 153.791 457.453 154.618 457C155.444 456.533 156.391 456.3 157.458 456.3C158.511 456.3 159.451 456.533 160.278 457C161.118 457.453 161.771 458.087 162.238 458.9C162.718 459.7 162.958 460.633 162.958 461.7C162.958 462.753 162.718 463.687 162.238 464.5C161.771 465.313 161.118 465.953 160.278 466.42C159.451 466.887 158.511 467.12 157.458 467.12ZM157.458 465.44C158.138 465.44 158.744 465.287 159.278 464.98C159.824 464.673 160.251 464.24 160.558 463.68C160.864 463.107 161.018 462.447 161.018 461.7C161.018 460.94 160.864 460.287 160.558 459.74C160.251 459.18 159.824 458.747 159.278 458.44C158.744 458.133 158.138 457.98 157.458 457.98C156.778 457.98 156.171 458.133 155.638 458.44C155.104 458.747 154.678 459.18 154.358 459.74C154.038 460.287 153.878 460.94 153.878 461.7C153.878 462.447 154.038 463.107 154.358 463.68C154.678 464.24 155.104 464.673 155.638 464.98C156.171 465.287 156.778 465.44 157.458 465.44ZM171.273 456.3C172.14 456.3 172.9 456.467 173.553 456.8C174.22 457.133 174.74 457.64 175.113 458.32C175.486 459 175.673 459.86 175.673 460.9V467H173.753V461.12C173.753 460.093 173.5 459.32 172.993 458.8C172.5 458.28 171.8 458.02 170.893 458.02C170.213 458.02 169.62 458.153 169.113 458.42C168.606 458.687 168.213 459.08 167.933 459.6C167.666 460.12 167.533 460.767 167.533 461.54V467H165.613V456.4H167.453V459.26L167.153 458.5C167.5 457.807 168.033 457.267 168.753 456.88C169.473 456.493 170.313 456.3 171.273 456.3ZM182.866 467.12C181.8 467.12 180.973 466.833 180.386 466.26C179.8 465.687 179.506 464.867 179.506 463.8V454.08H181.426V463.72C181.426 464.293 181.566 464.733 181.846 465.04C182.14 465.347 182.553 465.5 183.086 465.5C183.686 465.5 184.186 465.333 184.586 465L185.186 466.38C184.893 466.633 184.54 466.82 184.126 466.94C183.726 467.06 183.306 467.12 182.866 467.12ZM177.706 457.98V456.4H184.466V457.98H177.706ZM187.508 467V456.4H189.348V459.28L189.168 458.56C189.461 457.827 189.954 457.267 190.648 456.88C191.341 456.493 192.194 456.3 193.208 456.3V458.16C193.128 458.147 193.048 458.14 192.968 458.14C192.901 458.14 192.834 458.14 192.768 458.14C191.741 458.14 190.928 458.447 190.328 459.06C189.728 459.673 189.428 460.56 189.428 461.72V467H187.508ZM201.373 467V464.76L201.273 464.34V460.52C201.273 459.707 201.033 459.08 200.553 458.64C200.086 458.187 199.379 457.96 198.433 457.96C197.806 457.96 197.193 458.067 196.593 458.28C195.993 458.48 195.486 458.753 195.073 459.1L194.273 457.66C194.819 457.22 195.473 456.887 196.233 456.66C197.006 456.42 197.813 456.3 198.653 456.3C200.106 456.3 201.226 456.653 202.013 457.36C202.799 458.067 203.193 459.147 203.193 460.6V467H201.373ZM197.893 467.12C197.106 467.12 196.413 466.987 195.813 466.72C195.226 466.453 194.773 466.087 194.453 465.62C194.133 465.14 193.973 464.6 193.973 464C193.973 463.427 194.106 462.907 194.373 462.44C194.653 461.973 195.099 461.6 195.713 461.32C196.339 461.04 197.179 460.9 198.233 460.9H201.593V462.28H198.313C197.353 462.28 196.706 462.44 196.373 462.76C196.039 463.08 195.873 463.467 195.873 463.92C195.873 464.44 196.079 464.86 196.493 465.18C196.906 465.487 197.479 465.64 198.213 465.64C198.933 465.64 199.559 465.48 200.093 465.16C200.639 464.84 201.033 464.373 201.273 463.76L201.653 465.08C201.399 465.707 200.953 466.207 200.313 466.58C199.673 466.94 198.866 467.12 197.893 467.12ZM206.746 467V456.4H208.586V459.28L208.406 458.56C208.699 457.827 209.192 457.267 209.886 456.88C210.579 456.493 211.432 456.3 212.446 456.3V458.16C212.366 458.147 212.286 458.14 212.206 458.14C212.139 458.14 212.072 458.14 212.006 458.14C210.979 458.14 210.166 458.447 209.566 459.06C208.966 459.673 208.666 460.56 208.666 461.72V467H206.746ZM108.872 491.12C107.805 491.12 106.979 490.833 106.392 490.26C105.805 489.687 105.512 488.867 105.512 487.8V478.08H107.432V487.72C107.432 488.293 107.572 488.733 107.852 489.04C108.145 489.347 108.559 489.5 109.092 489.5C109.692 489.5 110.192 489.333 110.592 489L111.192 490.38C110.899 490.633 110.545 490.82 110.132 490.94C109.732 491.06 109.312 491.12 108.872 491.12ZM103.712 481.98V480.4H110.472V481.98H103.712ZM117.973 491.12C117.067 491.12 116.267 490.953 115.573 490.62C114.893 490.287 114.36 489.78 113.973 489.1C113.6 488.407 113.413 487.54 113.413 486.5V480.4H115.333V486.28C115.333 487.32 115.58 488.1 116.073 488.62C116.58 489.14 117.287 489.4 118.193 489.4C118.86 489.4 119.44 489.267 119.933 489C120.427 488.72 120.807 488.32 121.073 487.8C121.34 487.267 121.473 486.627 121.473 485.88V480.4H123.393V491H121.573V488.14L121.873 488.9C121.527 489.607 121.007 490.153 120.313 490.54C119.62 490.927 118.84 491.12 117.973 491.12ZM132.42 491V476.16H134.34V491H132.42ZM142.546 491.12C141.479 491.12 140.532 490.887 139.706 490.42C138.879 489.953 138.226 489.313 137.746 488.5C137.266 487.673 137.026 486.74 137.026 485.7C137.026 484.647 137.266 483.713 137.746 482.9C138.226 482.087 138.879 481.453 139.706 481C140.532 480.533 141.479 480.3 142.546 480.3C143.599 480.3 144.539 480.533 145.366 481C146.206 481.453 146.859 482.087 147.326 482.9C147.806 483.7 148.046 484.633 148.046 485.7C148.046 486.753 147.806 487.687 147.326 488.5C146.859 489.313 146.206 489.953 145.366 490.42C144.539 490.887 143.599 491.12 142.546 491.12ZM142.546 489.44C143.226 489.44 143.832 489.287 144.366 488.98C144.912 488.673 145.339 488.24 145.646 487.68C145.952 487.107 146.106 486.447 146.106 485.7C146.106 484.94 145.952 484.287 145.646 483.74C145.339 483.18 144.912 482.747 144.366 482.44C143.832 482.133 143.226 481.98 142.546 481.98C141.866 481.98 141.259 482.133 140.726 482.44C140.192 482.747 139.766 483.18 139.446 483.74C139.126 484.287 138.966 484.94 138.966 485.7C138.966 486.447 139.126 487.107 139.446 487.68C139.766 488.24 140.192 488.673 140.726 488.98C141.259 489.287 141.866 489.44 142.546 489.44ZM154.341 491.12C153.274 491.12 152.448 490.833 151.861 490.26C151.274 489.687 150.981 488.867 150.981 487.8V478.08H152.901V487.72C152.901 488.293 153.041 488.733 153.321 489.04C153.614 489.347 154.028 489.5 154.561 489.5C155.161 489.5 155.661 489.333 156.061 489L156.661 490.38C156.368 490.633 156.014 490.82 155.601 490.94C155.201 491.06 154.781 491.12 154.341 491.12ZM149.181 481.98V480.4H155.941V481.98H149.181ZM163.351 491.12C162.217 491.12 161.217 490.887 160.351 490.42C159.497 489.953 158.831 489.313 158.351 488.5C157.884 487.687 157.651 486.753 157.651 485.7C157.651 484.647 157.877 483.713 158.331 482.9C158.797 482.087 159.431 481.453 160.231 481C161.044 480.533 161.957 480.3 162.971 480.3C163.997 480.3 164.904 480.527 165.691 480.98C166.477 481.433 167.091 482.073 167.531 482.9C167.984 483.713 168.211 484.667 168.211 485.76C168.211 485.84 168.204 485.933 168.191 486.04C168.191 486.147 168.184 486.247 168.171 486.34H159.151V484.96H167.171L166.391 485.44C166.404 484.76 166.264 484.153 165.971 483.62C165.677 483.087 165.271 482.673 164.751 482.38C164.244 482.073 163.651 481.92 162.971 481.92C162.304 481.92 161.711 482.073 161.191 482.38C160.671 482.673 160.264 483.093 159.971 483.64C159.677 484.173 159.531 484.787 159.531 485.48V485.8C159.531 486.507 159.691 487.14 160.011 487.7C160.344 488.247 160.804 488.673 161.391 488.98C161.977 489.287 162.651 489.44 163.411 489.44C164.037 489.44 164.604 489.333 165.111 489.12C165.631 488.907 166.084 488.587 166.471 488.16L167.531 489.4C167.051 489.96 166.451 490.387 165.731 490.68C165.024 490.973 164.231 491.12 163.351 491.12ZM171.337 491.12C170.963 491.12 170.643 490.993 170.377 490.74C170.11 490.473 169.977 490.14 169.977 489.74C169.977 489.34 170.11 489.013 170.377 488.76C170.643 488.507 170.963 488.38 171.337 488.38C171.697 488.38 172.003 488.507 172.257 488.76C172.523 489.013 172.657 489.34 172.657 489.74C172.657 490.14 172.523 490.473 172.257 490.74C172.003 490.993 171.697 491.12 171.337 491.12Z" fill="white" fill-opacity="0.9"/>
<defs>
<filter id="filter0_d_5_61" x="0" y="0" width="278" height="579.5" filterUnits="userSpaceOnUse" color-interpolation-filters="sRGB">
<feFlood flood-opacity="0" result="BackgroundImageFix"/>
<feColorMatrix in="SourceAlpha" type="matrix" values="0 0 0 0 0 0 0 0 0 0 0 0 0 0 0 0 0 0 127 0" result="hardAlpha"/>
<feOffset dy="4"/>
<feGaussianBlur stdDeviation="2"/>
<feComposite in2="hardAlpha" operator="out"/>
<feColorMatrix type="matrix" values="0 0 0 0 0 0 0 0 0 0 0 0 0 0 0 0 0 0 0.25 0"/>
<feBlend mode="normal" in2="BackgroundImageFix" result="effect1_dropShadow_5_61"/>
<feBlend mode="normal" in="SourceGraphic" in2="effect1_dropShadow_5_61" result="shape"/>
</filter>
</defs>
</svg>
