<svg width="534" height="459" viewBox="0 0 534 459" fill="none" xmlns="http://www.w3.org/2000/svg">
<path d="M31 50C14.4315 50 1 63.4315 1 80V428C1 444.569 14.4315 458 31 458H502.5C519.069 458 532.5 444.569 532.5 428V80C532.5 63.4315 519.069 50 502.5 50H31Z" fill="white" stroke="#053661" stroke-width="2"/>
<path d="M267 100C294.614 100 317 77.6142 317 50C317 22.3858 294.614 0 267 0C239.386 0 217 22.3858 217 50C217 77.6142 239.386 100 267 100Z" fill="#00498C"/>
<path d="M264.609 75.7C261.156 75.7 257.772 75.21 254.459 74.23C251.192 73.2033 248.439 71.8033 246.199 70.03L250.119 62.96C251.892 64.4067 254.039 65.5733 256.559 66.46C259.079 67.3467 261.716 67.79 264.469 67.79C267.736 67.79 270.279 67.1367 272.099 65.83C273.919 64.4767 274.829 62.6567 274.829 60.37C274.829 58.13 273.989 56.3567 272.309 55.05C270.629 53.7433 267.922 53.09 264.189 53.09H259.709V46.86L273.709 30.2L274.899 33.63H248.579V26H281.969V32.09L267.969 48.75L263.209 45.95H265.939C271.959 45.95 276.462 47.3033 279.449 50.01C282.482 52.67 283.999 56.1 283.999 60.3C283.999 63.0533 283.299 65.5967 281.899 67.93C280.499 70.2633 278.352 72.1533 275.459 73.6C272.612 75 268.996 75.7 264.609 75.7Z" fill="white"/>
<path d="M181.919 166L166.819 131H175.569L188.769 162H183.619L197.019 131H205.069L189.919 166H181.919ZM218.789 166.4C215.722 166.4 213.022 165.8 210.689 164.6C208.389 163.4 206.606 161.767 205.339 159.7C204.072 157.6 203.439 155.217 203.439 152.55C203.439 149.85 204.056 147.467 205.289 145.4C206.556 143.3 208.272 141.667 210.439 140.5C212.606 139.3 215.056 138.7 217.789 138.7C220.422 138.7 222.789 139.267 224.889 140.4C227.022 141.5 228.706 143.1 229.939 145.2C231.172 147.267 231.789 149.75 231.789 152.65C231.789 152.95 231.772 153.3 231.739 153.7C231.706 154.067 231.672 154.417 231.639 154.75H209.789V150.2H227.539L224.539 151.55C224.539 150.15 224.256 148.933 223.689 147.9C223.122 146.867 222.339 146.067 221.339 145.5C220.339 144.9 219.172 144.6 217.839 144.6C216.506 144.6 215.322 144.9 214.289 145.5C213.289 146.067 212.506 146.883 211.939 147.95C211.372 148.983 211.089 150.217 211.089 151.65V152.85C211.089 154.317 211.406 155.617 212.039 156.75C212.706 157.85 213.622 158.7 214.789 159.3C215.989 159.867 217.389 160.15 218.989 160.15C220.422 160.15 221.672 159.933 222.739 159.5C223.839 159.067 224.839 158.417 225.739 157.55L229.889 162.05C228.656 163.45 227.106 164.533 225.239 165.3C223.372 166.033 221.222 166.4 218.789 166.4ZM253.332 138.7C255.465 138.7 257.365 139.133 259.032 140C260.732 140.833 262.065 142.133 263.032 143.9C263.999 145.633 264.482 147.867 264.482 150.6V166H256.682V151.8C256.682 149.633 256.199 148.033 255.232 147C254.299 145.967 252.965 145.45 251.232 145.45C249.999 145.45 248.882 145.717 247.882 146.25C246.915 146.75 246.149 147.533 245.582 148.6C245.049 149.667 244.782 151.033 244.782 152.7V166H236.982V139.1H244.432V146.55L243.032 144.3C243.999 142.5 245.382 141.117 247.182 140.15C248.982 139.183 251.032 138.7 253.332 138.7ZM282.552 166.4C279.385 166.4 276.919 165.6 275.152 164C273.385 162.367 272.502 159.95 272.502 156.75V133.15H280.302V156.65C280.302 157.783 280.602 158.667 281.202 159.3C281.802 159.9 282.619 160.2 283.652 160.2C284.885 160.2 285.935 159.867 286.802 159.2L288.902 164.7C288.102 165.267 287.135 165.7 286.002 166C284.902 166.267 283.752 166.4 282.552 166.4ZM268.352 145.7V139.7H287.002V145.7H268.352ZM309.781 166V160.75L309.281 159.6V150.2C309.281 148.533 308.764 147.233 307.731 146.3C306.731 145.367 305.181 144.9 303.081 144.9C301.647 144.9 300.231 145.133 298.831 145.6C297.464 146.033 296.297 146.633 295.331 147.4L292.531 141.95C293.997 140.917 295.764 140.117 297.831 139.55C299.897 138.983 301.997 138.7 304.131 138.7C308.231 138.7 311.414 139.667 313.681 141.6C315.947 143.533 317.081 146.55 317.081 150.65V166H309.781ZM301.581 166.4C299.481 166.4 297.681 166.05 296.181 165.35C294.681 164.617 293.531 163.633 292.731 162.4C291.931 161.167 291.531 159.783 291.531 158.25C291.531 156.65 291.914 155.25 292.681 154.05C293.481 152.85 294.731 151.917 296.431 151.25C298.131 150.55 300.347 150.2 303.081 150.2H310.231V154.75H303.931C302.097 154.75 300.831 155.05 300.131 155.65C299.464 156.25 299.131 157 299.131 157.9C299.131 158.9 299.514 159.7 300.281 160.3C301.081 160.867 302.164 161.15 303.531 161.15C304.831 161.15 305.997 160.85 307.031 160.25C308.064 159.617 308.814 158.7 309.281 157.5L310.481 161.1C309.914 162.833 308.881 164.15 307.381 165.05C305.881 165.95 303.947 166.4 301.581 166.4ZM322.14 176.1C320.94 176.1 319.79 175.967 318.69 175.7C317.59 175.467 316.657 175.1 315.89 174.6L317.99 168.95C318.89 169.583 319.99 169.9 321.29 169.9C322.257 169.9 323.023 169.567 323.59 168.9C324.19 168.267 324.49 167.3 324.49 166V139.1H332.29V165.95C332.29 169.05 331.407 171.517 329.64 173.35C327.873 175.183 325.373 176.1 322.14 176.1ZM328.39 135.35C326.957 135.35 325.79 134.933 324.89 134.1C323.99 133.267 323.54 132.233 323.54 131C323.54 129.767 323.99 128.733 324.89 127.9C325.79 127.067 326.957 126.65 328.39 126.65C329.823 126.65 330.99 127.05 331.89 127.85C332.79 128.617 333.24 129.617 333.24 130.85C333.24 132.15 332.79 133.233 331.89 134.1C331.023 134.933 329.857 135.35 328.39 135.35ZM355.972 166V160.75L355.472 159.6V150.2C355.472 148.533 354.955 147.233 353.922 146.3C352.922 145.367 351.372 144.9 349.272 144.9C347.839 144.9 346.422 145.133 345.022 145.6C343.655 146.033 342.489 146.633 341.522 147.4L338.722 141.95C340.189 140.917 341.955 140.117 344.022 139.55C346.089 138.983 348.189 138.7 350.322 138.7C354.422 138.7 357.605 139.667 359.872 141.6C362.139 143.533 363.272 146.55 363.272 150.65V166H355.972ZM347.772 166.4C345.672 166.4 343.872 166.05 342.372 165.35C340.872 164.617 339.722 163.633 338.922 162.4C338.122 161.167 337.722 159.783 337.722 158.25C337.722 156.65 338.105 155.25 338.872 154.05C339.672 152.85 340.922 151.917 342.622 151.25C344.322 150.55 346.539 150.2 349.272 150.2H356.422V154.75H350.122C348.289 154.75 347.022 155.05 346.322 155.65C345.655 156.25 345.322 157 345.322 157.9C345.322 158.9 345.705 159.7 346.472 160.3C347.272 160.867 348.355 161.15 349.722 161.15C351.022 161.15 352.189 160.85 353.222 160.25C354.255 159.617 355.005 158.7 355.472 157.5L356.672 161.1C356.105 162.833 355.072 164.15 353.572 165.05C352.072 165.95 350.139 166.4 347.772 166.4Z" fill="#00498C"/>
<path d="M222.391 231.975H231.641L231.316 233.575H222.041L222.391 231.975ZM220.766 241H218.941L222.441 223.5H234.441L234.116 225.1H223.941L220.766 241ZM239.547 241.125C238.43 241.125 237.439 240.9 236.572 240.45C235.705 240 235.03 239.358 234.547 238.525C234.064 237.692 233.822 236.7 233.822 235.55C233.822 234.433 234.005 233.4 234.372 232.45C234.739 231.5 235.255 230.675 235.922 229.975C236.589 229.258 237.372 228.708 238.272 228.325C239.189 227.942 240.18 227.75 241.247 227.75C242.397 227.75 243.372 227.958 244.172 228.375C244.972 228.775 245.589 229.367 246.022 230.15C246.455 230.917 246.672 231.85 246.672 232.95C246.672 234.533 246.38 235.942 245.797 237.175C245.214 238.408 244.389 239.375 243.322 240.075C242.255 240.775 240.997 241.125 239.547 241.125ZM239.922 239.55C241.022 239.55 241.997 239.292 242.847 238.775C243.714 238.242 244.389 237.508 244.872 236.575C245.372 235.642 245.622 234.583 245.622 233.4C245.622 232.1 245.239 231.092 244.472 230.375C243.722 229.658 242.664 229.3 241.297 229.3C240.214 229.3 239.239 229.567 238.372 230.1C237.505 230.633 236.822 231.367 236.322 232.3C235.839 233.217 235.597 234.275 235.597 235.475C235.597 236.758 235.972 237.758 236.722 238.475C237.489 239.192 238.555 239.55 239.922 239.55ZM244.247 241L244.997 237.225L245.747 234.575L245.997 231.825L246.797 227.875H248.572L245.947 241H244.247ZM256.84 241.125C255.59 241.125 254.507 240.9 253.59 240.45C252.69 239.983 251.99 239.333 251.49 238.5C251.007 237.667 250.765 236.683 250.765 235.55C250.765 234.05 251.09 232.717 251.74 231.55C252.39 230.367 253.29 229.442 254.44 228.775C255.607 228.092 256.932 227.75 258.415 227.75C259.632 227.75 260.674 227.975 261.54 228.425C262.424 228.858 263.107 229.508 263.59 230.375L262.09 231.25C261.724 230.583 261.215 230.092 260.565 229.775C259.932 229.458 259.165 229.3 258.265 229.3C257.165 229.3 256.182 229.567 255.315 230.1C254.449 230.633 253.765 231.367 253.265 232.3C252.782 233.217 252.54 234.275 252.54 235.475C252.54 236.758 252.915 237.758 253.665 238.475C254.432 239.192 255.515 239.55 256.915 239.55C257.765 239.55 258.549 239.392 259.265 239.075C259.999 238.742 260.599 238.267 261.065 237.65L262.34 238.625C261.774 239.408 260.999 240.025 260.015 240.475C259.032 240.908 257.974 241.125 256.84 241.125ZM264.782 241L267.382 227.875H269.157L266.557 241H264.782ZM269.032 224.975C268.682 224.975 268.39 224.858 268.157 224.625C267.94 224.392 267.832 224.117 267.832 223.8C267.832 223.433 267.957 223.117 268.207 222.85C268.474 222.583 268.807 222.45 269.207 222.45C269.557 222.45 269.849 222.558 270.082 222.775C270.315 222.992 270.432 223.267 270.432 223.6C270.432 224 270.299 224.333 270.032 224.6C269.765 224.85 269.432 224.975 269.032 224.975ZM271.496 241L275.196 222.45H276.971L273.271 241H271.496ZM290.353 241.125C289.236 241.125 288.244 240.9 287.378 240.45C286.511 240 285.836 239.358 285.353 238.525C284.869 237.692 284.628 236.7 284.628 235.55C284.628 234.433 284.811 233.4 285.178 232.45C285.544 231.5 286.061 230.675 286.728 229.975C287.394 229.258 288.178 228.708 289.078 228.325C289.994 227.942 290.986 227.75 292.053 227.75C293.203 227.75 294.178 227.958 294.978 228.375C295.778 228.775 296.394 229.367 296.828 230.15C297.261 230.917 297.478 231.85 297.478 232.95C297.478 234.133 297.311 235.225 296.978 236.225C296.661 237.225 296.186 238.092 295.553 238.825C294.919 239.558 294.161 240.125 293.278 240.525C292.411 240.925 291.436 241.125 290.353 241.125ZM290.728 239.55C291.828 239.55 292.803 239.292 293.653 238.775C294.519 238.242 295.194 237.508 295.678 236.575C296.178 235.642 296.428 234.583 296.428 233.4C296.428 232.1 296.044 231.092 295.278 230.375C294.528 229.658 293.469 229.3 292.103 229.3C291.019 229.3 290.044 229.567 289.178 230.1C288.311 230.633 287.628 231.367 287.128 232.3C286.644 233.217 286.403 234.275 286.403 235.475C286.403 236.758 286.778 237.758 287.528 238.475C288.294 239.192 289.361 239.55 290.728 239.55ZM295.053 241L295.803 237.225L296.553 234.575L296.803 231.825L298.678 222.45H300.453L296.753 241H295.053ZM307.696 241.125C306.446 241.125 305.354 240.9 304.421 240.45C303.504 239.983 302.796 239.333 302.296 238.5C301.813 237.667 301.571 236.675 301.571 235.525C301.571 234.025 301.888 232.692 302.521 231.525C303.154 230.358 304.021 229.442 305.121 228.775C306.221 228.092 307.463 227.75 308.846 227.75C310.013 227.75 311.021 227.975 311.871 228.425C312.721 228.858 313.379 229.492 313.846 230.325C314.329 231.158 314.571 232.158 314.571 233.325C314.571 233.592 314.554 233.867 314.521 234.15C314.488 234.417 314.446 234.675 314.396 234.925H302.871L303.096 233.6H313.571L312.846 234.1C313.013 233.05 312.938 232.167 312.621 231.45C312.304 230.733 311.813 230.192 311.146 229.825C310.496 229.442 309.713 229.25 308.796 229.25C307.729 229.25 306.779 229.517 305.946 230.05C305.113 230.567 304.463 231.292 303.996 232.225C303.529 233.142 303.296 234.217 303.296 235.45C303.296 236.767 303.671 237.783 304.421 238.5C305.188 239.2 306.329 239.55 307.846 239.55C308.729 239.55 309.546 239.408 310.296 239.125C311.046 238.825 311.663 238.417 312.146 237.9L312.946 239.175C312.329 239.792 311.554 240.275 310.621 240.625C309.704 240.958 308.729 241.125 307.696 241.125ZM220.274 257.75C221.457 257.75 222.416 257.983 223.149 258.45C223.899 258.9 224.416 259.558 224.699 260.425C224.982 261.292 224.999 262.325 224.749 263.525L223.249 271H221.474L222.974 263.5C223.241 262.2 223.116 261.183 222.599 260.45C222.099 259.717 221.182 259.35 219.849 259.35C218.532 259.35 217.424 259.717 216.524 260.45C215.641 261.183 215.049 262.283 214.749 263.75L213.299 271H211.524L213.024 263.5C213.291 262.2 213.166 261.183 212.649 260.45C212.132 259.717 211.216 259.35 209.899 259.35C208.549 259.35 207.432 259.733 206.549 260.5C205.666 261.267 205.066 262.417 204.749 263.95L203.349 271H201.574L204.174 257.875H205.874L205.124 261.65L204.749 261C205.382 259.867 206.182 259.042 207.149 258.525C208.116 258.008 209.207 257.75 210.424 257.75C211.341 257.75 212.124 257.908 212.774 258.225C213.441 258.525 213.957 258.975 214.324 259.575C214.707 260.158 214.916 260.858 214.949 261.675L214.024 261.475C214.674 260.225 215.532 259.292 216.599 258.675C217.682 258.058 218.907 257.75 220.274 257.75ZM233.688 271.125C232.571 271.125 231.579 270.9 230.713 270.45C229.846 270 229.171 269.358 228.688 268.525C228.204 267.692 227.963 266.7 227.963 265.55C227.963 264.433 228.146 263.4 228.513 262.45C228.879 261.5 229.396 260.675 230.063 259.975C230.729 259.258 231.513 258.708 232.413 258.325C233.329 257.942 234.321 257.75 235.388 257.75C236.538 257.75 237.513 257.958 238.313 258.375C239.113 258.775 239.729 259.367 240.163 260.15C240.596 260.917 240.813 261.85 240.813 262.95C240.813 264.533 240.521 265.942 239.938 267.175C239.354 268.408 238.529 269.375 237.463 270.075C236.396 270.775 235.138 271.125 233.688 271.125ZM234.063 269.55C235.163 269.55 236.138 269.292 236.988 268.775C237.854 268.242 238.529 267.508 239.013 266.575C239.513 265.642 239.763 264.583 239.763 263.4C239.763 262.1 239.379 261.092 238.613 260.375C237.863 259.658 236.804 259.3 235.438 259.3C234.354 259.3 233.379 259.567 232.513 260.1C231.646 260.633 230.963 261.367 230.463 262.3C229.979 263.217 229.738 264.275 229.738 265.475C229.738 266.758 230.113 267.758 230.863 268.475C231.629 269.192 232.696 269.55 234.063 269.55ZM238.388 271L239.138 267.225L239.888 264.575L240.138 261.825L240.938 257.875H242.713L240.088 271H238.388ZM254.056 257.75C255.239 257.75 256.206 257.983 256.956 258.45C257.723 258.9 258.248 259.558 258.531 260.425C258.831 261.292 258.856 262.325 258.606 263.525L257.106 271H255.331L256.831 263.5C257.098 262.2 256.956 261.183 256.406 260.45C255.873 259.717 254.923 259.35 253.556 259.35C252.156 259.35 250.989 259.733 250.056 260.5C249.139 261.267 248.523 262.417 248.206 263.95L246.806 271H245.031L247.631 257.875H249.331L248.581 261.65L248.206 261C248.839 259.867 249.656 259.042 250.656 258.525C251.673 258.008 252.806 257.75 254.056 257.75ZM266.1 271.125C265.35 271.125 264.709 270.967 264.175 270.65C263.642 270.317 263.267 269.85 263.05 269.25C262.85 268.65 262.834 267.933 263 267.1L265.4 254.975H267.175L264.775 267.025C264.609 267.842 264.667 268.475 264.95 268.925C265.25 269.375 265.792 269.6 266.575 269.6C266.942 269.6 267.3 269.55 267.65 269.45C268 269.333 268.317 269.158 268.6 268.925L269.025 270.275C268.609 270.592 268.142 270.817 267.625 270.95C267.109 271.067 266.6 271.125 266.1 271.125ZM262.2 259.35L262.475 257.875H270.6L270.3 259.35H262.2ZM277.618 271.125C276.368 271.125 275.276 270.9 274.343 270.45C273.426 269.983 272.718 269.333 272.218 268.5C271.735 267.667 271.493 266.675 271.493 265.525C271.493 264.025 271.81 262.692 272.443 261.525C273.076 260.358 273.943 259.442 275.043 258.775C276.143 258.092 277.385 257.75 278.768 257.75C279.935 257.75 280.943 257.975 281.793 258.425C282.643 258.858 283.301 259.492 283.768 260.325C284.251 261.158 284.493 262.158 284.493 263.325C284.493 263.592 284.476 263.867 284.443 264.15C284.41 264.417 284.368 264.675 284.318 264.925H272.793L273.018 263.6H283.493L282.768 264.1C282.935 263.05 282.86 262.167 282.543 261.45C282.226 260.733 281.735 260.192 281.068 259.825C280.418 259.442 279.635 259.25 278.718 259.25C277.651 259.25 276.701 259.517 275.868 260.05C275.035 260.567 274.385 261.292 273.918 262.225C273.451 263.142 273.218 264.217 273.218 265.45C273.218 266.767 273.593 267.783 274.343 268.5C275.11 269.2 276.251 269.55 277.768 269.55C278.651 269.55 279.468 269.408 280.218 269.125C280.968 268.825 281.585 268.417 282.068 267.9L282.868 269.175C282.251 269.792 281.476 270.275 280.543 270.625C279.626 270.958 278.651 271.125 277.618 271.125ZM295.731 257.75C296.914 257.75 297.881 257.983 298.631 258.45C299.397 258.9 299.922 259.558 300.206 260.425C300.506 261.292 300.531 262.325 300.281 263.525L298.781 271H297.006L298.506 263.5C298.772 262.2 298.631 261.183 298.081 260.45C297.547 259.717 296.597 259.35 295.231 259.35C293.831 259.35 292.664 259.733 291.731 260.5C290.814 261.267 290.197 262.417 289.881 263.95L288.481 271H286.706L289.306 257.875H291.006L290.256 261.65L289.881 261C290.514 259.867 291.331 259.042 292.331 258.525C293.347 258.008 294.481 257.75 295.731 257.75ZM309.6 271.125C308.35 271.125 307.259 270.9 306.325 270.45C305.409 269.983 304.7 269.333 304.2 268.5C303.717 267.667 303.475 266.675 303.475 265.525C303.475 264.025 303.792 262.692 304.425 261.525C305.059 260.358 305.925 259.442 307.025 258.775C308.125 258.092 309.367 257.75 310.75 257.75C311.917 257.75 312.925 257.975 313.775 258.425C314.625 258.858 315.284 259.492 315.75 260.325C316.234 261.158 316.475 262.158 316.475 263.325C316.475 263.592 316.459 263.867 316.425 264.15C316.392 264.417 316.35 264.675 316.3 264.925H304.775L305 263.6H315.475L314.75 264.1C314.917 263.05 314.842 262.167 314.525 261.45C314.209 260.733 313.717 260.192 313.05 259.825C312.4 259.442 311.617 259.25 310.7 259.25C309.634 259.25 308.684 259.517 307.85 260.05C307.017 260.567 306.367 261.292 305.9 262.225C305.434 263.142 305.2 264.217 305.2 265.45C305.2 266.767 305.575 267.783 306.325 268.5C307.092 269.2 308.234 269.55 309.75 269.55C310.634 269.55 311.45 269.408 312.2 269.125C312.95 268.825 313.567 268.417 314.05 267.9L314.85 269.175C314.234 269.792 313.459 270.275 312.525 270.625C311.609 270.958 310.634 271.125 309.6 271.125ZM318.688 271L321.288 257.875H322.988L322.238 261.75L322.038 261.075C322.622 259.925 323.388 259.083 324.338 258.55C325.305 258.017 326.505 257.75 327.938 257.75L327.613 259.475C327.53 259.475 327.447 259.475 327.363 259.475C327.297 259.458 327.213 259.45 327.113 259.45C325.713 259.45 324.555 259.858 323.638 260.675C322.738 261.475 322.122 262.692 321.788 264.325L320.463 271H318.688ZM328.853 271.125C328.487 271.125 328.178 271 327.928 270.75C327.678 270.5 327.553 270.192 327.553 269.825C327.553 269.408 327.695 269.067 327.978 268.8C328.262 268.533 328.587 268.4 328.953 268.4C329.32 268.4 329.62 268.525 329.853 268.775C330.103 269.008 330.228 269.317 330.228 269.7C330.228 269.983 330.162 270.233 330.028 270.45C329.912 270.65 329.745 270.817 329.528 270.95C329.312 271.067 329.087 271.125 328.853 271.125Z" fill="#09A1CC"/>
<path d="M257.758 406.668C257.758 410.123 254.957 412.924 251.502 412.924H243.256C239.801 412.924 237 410.123 237 406.668V386.69C237 383.236 239.801 380.434 243.256 380.434H251.502C254.957 380.434 257.758 383.236 257.758 386.69V406.668ZM254.148 386.69C254.148 385.229 252.963 384.044 251.502 384.044H243.256C241.795 384.044 240.61 385.229 240.61 386.69V406.669C240.61 408.13 241.795 409.315 243.256 409.315H251.502C252.963 409.315 254.148 408.13 254.148 406.669V386.69Z" fill="#00498C"/>
<path d="M248.734 405.027C248.734 405.9 248.026 406.607 247.154 406.607H246.703C245.831 406.607 245.124 405.9 245.124 405.027V404.576C245.124 403.703 245.831 402.997 246.703 402.997H247.154C248.026 402.997 248.734 403.703 248.734 404.576V405.027Z" fill="#00498C"/>
<path d="M271.363 412.956C266.871 412.956 262.047 412.385 260.41 405.578C260.378 405.441 260.466 405.298 260.466 405.156V382.343C260.466 382.091 260.414 381.841 260.517 381.611L260.822 380.803C261.326 379.245 262.792 376.869 265.16 373.191C266.779 370.675 268.442 368.072 268.959 366.763C269.839 364.537 269.835 361.535 269.762 360.568C269.711 359.887 270.045 359.236 270.629 358.884C270.779 358.793 272.149 358 273.921 358C275.05 358 276.091 358.313 277.018 358.929C279.528 360.597 282.339 363.205 281.786 368.6C281.614 370.301 280.901 371.897 280.212 373.441C279.76 374.455 279.333 375.414 279.094 376.319C279.045 376.503 279.04 377.003 279.037 377.422C281.005 377.591 282.986 377.741 284.769 377.741C285.892 377.741 286.807 377.732 287.545 377.724C288.501 377.714 289.164 377.709 289.63 377.726C289.97 377.733 290.289 377.744 290.584 377.783C292.54 378.044 294.279 379.052 295.479 380.62C296.678 382.189 297.194 384.131 296.934 386.088C296.681 387.993 295.689 389.724 294.189 390.909C294.849 392.124 295.111 393.522 294.926 394.903C294.713 396.506 293.94 397.935 292.732 398.983C292.732 399.008 292.734 399.031 292.736 399.051C293.141 399.996 293.283 401.037 293.146 402.073C292.948 403.555 292.165 404.906 290.998 405.827C291.308 406.585 291.411 407.431 291.293 408.31C291.053 410.102 289.78 411.615 288.028 412.211C286.967 412.746 285.628 412.858 283.843 412.858C283.241 412.858 282.569 412.846 281.824 412.832C280.915 412.815 279.892 412.796 278.743 412.796C277.311 412.796 275.964 412.84 274.662 412.883C273.493 412.921 272.393 412.956 271.363 412.956ZM264.075 404.936C264.978 408.728 267.005 409.347 271.467 409.347C272.461 409.347 273.469 409.312 274.595 409.275C275.928 409.232 277.278 409.187 278.769 409.187C279.943 409.187 280.975 409.206 281.903 409.224C282.625 409.237 283.268 409.249 283.849 409.249C284.37 409.249 285.953 409.249 286.427 408.977C286.549 408.907 286.676 408.851 286.81 408.811C287.199 408.697 287.648 408.341 287.715 407.83C287.743 407.62 287.745 407.319 287.595 407.072C287.207 406.438 287.104 405.581 287.314 404.777C287.501 404.065 287.915 403.498 288.483 403.181C289.082 402.844 289.477 402.266 289.567 401.595C289.62 401.195 289.563 400.795 289.402 400.441C288.992 399.536 288.889 397.355 290.158 396.421C290.818 395.938 291.238 395.232 291.345 394.427C291.439 393.725 291.277 393.014 290.889 392.422C290.094 391.211 290.53 389.058 291.735 388.233C292.623 387.627 293.213 386.672 293.353 385.612C293.487 384.61 293.223 383.616 292.609 382.813C291.995 382.011 291.105 381.496 290.103 381.362C289.941 381.34 289.781 381.336 289.622 381.336C289.601 381.336 289.517 381.336 289.494 381.335C289.072 381.318 288.445 381.325 287.58 381.335C286.832 381.342 285.907 381.352 284.768 381.352C282.474 381.352 279.972 381.13 277.552 380.916L277.005 380.867C276.521 380.825 276.074 380.589 275.766 380.213C275.459 379.837 275.315 379.353 275.369 378.87C275.421 378.414 275.423 377.923 275.426 377.447C275.432 376.718 275.436 376.031 275.603 375.397C275.917 374.21 276.423 373.072 276.914 371.971C277.513 370.628 278.079 369.359 278.193 368.232C278.564 364.614 276.828 363.137 275.017 361.933C274.542 361.618 273.923 361.557 273.39 361.662C273.378 363.211 273.204 365.809 272.302 368.091C271.653 369.728 269.961 372.359 268.168 375.144C266.552 377.654 264.541 380.779 264.192 381.954C264.17 382.027 264.247 382.099 264.215 382.17L264.075 382.726V404.936Z" fill="#00498C"/>
<path d="M279.358 406.607C279.352 406.607 279.346 406.607 279.341 406.607C279.238 406.607 279.145 406.774 279.06 406.759C278.568 406.751 278.173 406.44 278.173 405.946C278.173 405.447 278.576 405.088 279.075 405.088C279.37 405.088 280.264 405.109 280.282 405.996C280.285 406.125 280.256 406.08 280.201 406.191C280.072 406.533 279.742 406.607 279.358 406.607Z" fill="#00498C"/>
<path d="M272.756 407.224C270.564 407.224 268.686 406.786 266.951 404.788C266.625 404.412 266.665 403.842 267.042 403.516C267.418 403.187 267.987 403.229 268.314 403.606C270.096 405.657 271.904 405.532 275.186 405.302C275.601 405.273 276.033 405.243 276.485 405.216C276.969 405.184 277.409 405.566 277.44 406.063C277.469 406.561 277.09 406.987 276.593 407.017C276.148 407.043 275.721 407.074 275.311 407.102C274.412 407.164 273.562 407.224 272.756 407.224Z" fill="#00498C"/>
</svg>
