<svg width="532" height="451" viewBox="0 0 532 451" fill="none" xmlns="http://www.w3.org/2000/svg">
<path d="M30.5 43C13.9315 43 0.5 56.4315 0.5 73V421C0.5 437.569 13.9315 451 30.5 451H502C518.569 451 532 437.569 532 421V73C532 56.4315 518.569 43 502 43H30.5Z" fill="#053661"/>
<path d="M266.5 100C294.114 100 316.5 77.6142 316.5 50C316.5 22.3858 294.114 0 266.5 0C238.886 0 216.5 22.3858 216.5 50C216.5 77.6142 238.886 100 266.5 100Z" fill="#00A3CE"/>
<path d="M245.125 64.87V58.57L269.275 27H279.005L255.205 58.57L250.655 57.17H289.505V64.87H245.125ZM272.005 76V64.87L272.285 57.17V47.3H280.825V76H272.005Z" fill="white"/>
<path d="M105.95 159V124H121.1C124.233 124 126.933 124.517 129.2 125.55C131.466 126.55 133.216 128 134.45 129.9C135.683 131.8 136.3 134.067 136.3 136.7C136.3 139.3 135.683 141.55 134.45 143.45C133.216 145.317 131.466 146.75 129.2 147.75C126.933 148.75 124.233 149.25 121.1 149.25H110.45L114.05 145.7V159H105.95ZM128.2 159L119.45 146.3H128.1L136.95 159H128.2ZM114.05 146.6L110.45 142.8H120.65C123.15 142.8 125.016 142.267 126.25 141.2C127.483 140.1 128.1 138.6 128.1 136.7C128.1 134.767 127.483 133.267 126.25 132.2C125.016 131.133 123.15 130.6 120.65 130.6H110.45L114.05 126.75V146.6ZM155.517 159.4C152.451 159.4 149.751 158.8 147.417 157.6C145.117 156.4 143.334 154.767 142.067 152.7C140.801 150.6 140.167 148.217 140.167 145.55C140.167 142.85 140.784 140.467 142.017 138.4C143.284 136.3 145.001 134.667 147.167 133.5C149.334 132.3 151.784 131.7 154.517 131.7C157.151 131.7 159.517 132.267 161.617 133.4C163.751 134.5 165.434 136.1 166.667 138.2C167.901 140.267 168.517 142.75 168.517 145.65C168.517 145.95 168.501 146.3 168.467 146.7C168.434 147.067 168.401 147.417 168.367 147.75H146.517V143.2H164.267L161.267 144.55C161.267 143.15 160.984 141.933 160.417 140.9C159.851 139.867 159.067 139.067 158.067 138.5C157.067 137.9 155.901 137.6 154.567 137.6C153.234 137.6 152.051 137.9 151.017 138.5C150.017 139.067 149.234 139.883 148.667 140.95C148.101 141.983 147.817 143.217 147.817 144.65V145.85C147.817 147.317 148.134 148.617 148.767 149.75C149.434 150.85 150.351 151.7 151.517 152.3C152.717 152.867 154.117 153.15 155.717 153.15C157.151 153.15 158.401 152.933 159.467 152.5C160.567 152.067 161.567 151.417 162.467 150.55L166.617 155.05C165.384 156.45 163.834 157.533 161.967 158.3C160.101 159.033 157.951 159.4 155.517 159.4ZM190.06 131.7C192.194 131.7 194.094 132.133 195.76 133C197.46 133.833 198.794 135.133 199.76 136.9C200.727 138.633 201.21 140.867 201.21 143.6V159H193.41V144.8C193.41 142.633 192.927 141.033 191.96 140C191.027 138.967 189.694 138.45 187.96 138.45C186.727 138.45 185.61 138.717 184.61 139.25C183.644 139.75 182.877 140.533 182.31 141.6C181.777 142.667 181.51 144.033 181.51 145.7V159H173.71V132.1H181.16V139.55L179.76 137.3C180.727 135.5 182.11 134.117 183.91 133.15C185.71 132.183 187.76 131.7 190.06 131.7ZM219.281 159.4C216.114 159.4 213.647 158.6 211.881 157C210.114 155.367 209.231 152.95 209.231 149.75V126.15H217.031V149.65C217.031 150.783 217.331 151.667 217.931 152.3C218.531 152.9 219.347 153.2 220.381 153.2C221.614 153.2 222.664 152.867 223.531 152.2L225.631 157.7C224.831 158.267 223.864 158.7 222.731 159C221.631 159.267 220.481 159.4 219.281 159.4ZM205.081 138.7V132.7H223.731V138.7H205.081ZM246.509 159V153.75L246.009 152.6V143.2C246.009 141.533 245.493 140.233 244.459 139.3C243.459 138.367 241.909 137.9 239.809 137.9C238.376 137.9 236.959 138.133 235.559 138.6C234.193 139.033 233.026 139.633 232.059 140.4L229.259 134.95C230.726 133.917 232.493 133.117 234.559 132.55C236.626 131.983 238.726 131.7 240.859 131.7C244.959 131.7 248.143 132.667 250.409 134.6C252.676 136.533 253.809 139.55 253.809 143.65V159H246.509ZM238.309 159.4C236.209 159.4 234.409 159.05 232.909 158.35C231.409 157.617 230.259 156.633 229.459 155.4C228.659 154.167 228.259 152.783 228.259 151.25C228.259 149.65 228.643 148.25 229.409 147.05C230.209 145.85 231.459 144.917 233.159 144.25C234.859 143.55 237.076 143.2 239.809 143.2H246.959V147.75H240.659C238.826 147.75 237.559 148.05 236.859 148.65C236.193 149.25 235.859 150 235.859 150.9C235.859 151.9 236.243 152.7 237.009 153.3C237.809 153.867 238.893 154.15 240.259 154.15C241.559 154.15 242.726 153.85 243.759 153.25C244.793 152.617 245.543 151.7 246.009 150.5L247.209 154.1C246.643 155.833 245.609 157.15 244.109 158.05C242.609 158.95 240.676 159.4 238.309 159.4ZM276.769 159.4C274.402 159.4 272.369 158.9 270.669 157.9C268.969 156.9 267.669 155.383 266.769 153.35C265.869 151.283 265.419 148.683 265.419 145.55C265.419 142.383 265.885 139.783 266.819 137.75C267.785 135.717 269.119 134.2 270.819 133.2C272.519 132.2 274.502 131.7 276.769 131.7C279.302 131.7 281.569 132.267 283.569 133.4C285.602 134.533 287.202 136.133 288.369 138.2C289.569 140.267 290.169 142.717 290.169 145.55C290.169 148.35 289.569 150.783 288.369 152.85C287.202 154.917 285.602 156.533 283.569 157.7C281.569 158.833 279.302 159.4 276.769 159.4ZM260.869 159V121.9H268.669V137.55L268.169 145.5L268.319 153.5V159H260.869ZM275.419 153C276.719 153 277.869 152.7 278.869 152.1C279.902 151.5 280.719 150.65 281.319 149.55C281.952 148.417 282.269 147.083 282.269 145.55C282.269 143.983 281.952 142.65 281.319 141.55C280.719 140.45 279.902 139.6 278.869 139C277.869 138.4 276.719 138.1 275.419 138.1C274.119 138.1 272.952 138.4 271.919 139C270.885 139.6 270.069 140.45 269.469 141.55C268.869 142.65 268.569 143.983 268.569 145.55C268.569 147.083 268.869 148.417 269.469 149.55C270.069 150.65 270.885 151.5 271.919 152.1C272.952 152.7 274.119 153 275.419 153ZM295.39 159V132.1H303.19V159H295.39ZM299.29 128.35C297.857 128.35 296.69 127.933 295.79 127.1C294.89 126.267 294.44 125.233 294.44 124C294.44 122.767 294.89 121.733 295.79 120.9C296.69 120.067 297.857 119.65 299.29 119.65C300.723 119.65 301.89 120.05 302.79 120.85C303.69 121.617 304.14 122.617 304.14 123.85C304.14 125.15 303.69 126.233 302.79 127.1C301.923 127.933 300.757 128.35 299.29 128.35ZM310.429 159V121.9H318.229V159H310.429ZM325.468 159V132.1H333.268V159H325.468ZM329.368 128.35C327.935 128.35 326.768 127.933 325.868 127.1C324.968 126.267 324.518 125.233 324.518 124C324.518 122.767 324.968 121.733 325.868 120.9C326.768 120.067 327.935 119.65 329.368 119.65C330.801 119.65 331.968 120.05 332.868 120.85C333.768 121.617 334.218 122.617 334.218 123.85C334.218 125.15 333.768 126.233 332.868 127.1C332.001 127.933 330.835 128.35 329.368 128.35ZM352.057 159.4C349.524 159.4 347.241 158.833 345.207 157.7C343.174 156.533 341.557 154.917 340.357 152.85C339.191 150.783 338.607 148.35 338.607 145.55C338.607 142.717 339.191 140.267 340.357 138.2C341.557 136.133 343.174 134.533 345.207 133.4C347.241 132.267 349.524 131.7 352.057 131.7C354.324 131.7 356.307 132.2 358.007 133.2C359.707 134.2 361.024 135.717 361.957 137.75C362.891 139.783 363.357 142.383 363.357 145.55C363.357 148.683 362.907 151.283 362.007 153.35C361.107 155.383 359.807 156.9 358.107 157.9C356.441 158.9 354.424 159.4 352.057 159.4ZM353.407 153C354.674 153 355.824 152.7 356.857 152.1C357.891 151.5 358.707 150.65 359.307 149.55C359.941 148.417 360.257 147.083 360.257 145.55C360.257 143.983 359.941 142.65 359.307 141.55C358.707 140.45 357.891 139.6 356.857 139C355.824 138.4 354.674 138.1 353.407 138.1C352.107 138.1 350.941 138.4 349.907 139C348.874 139.6 348.041 140.45 347.407 141.55C346.807 142.65 346.507 143.983 346.507 145.55C346.507 147.083 346.807 148.417 347.407 149.55C348.041 150.65 348.874 151.5 349.907 152.1C350.941 152.7 352.107 153 353.407 153ZM360.457 159V153.5L360.607 145.5L360.107 137.55V121.9H367.907V159H360.457ZM391.626 159V153.75L391.126 152.6V143.2C391.126 141.533 390.61 140.233 389.576 139.3C388.576 138.367 387.026 137.9 384.926 137.9C383.493 137.9 382.076 138.133 380.676 138.6C379.31 139.033 378.143 139.633 377.176 140.4L374.376 134.95C375.843 133.917 377.61 133.117 379.676 132.55C381.743 131.983 383.843 131.7 385.976 131.7C390.076 131.7 393.26 132.667 395.526 134.6C397.793 136.533 398.926 139.55 398.926 143.65V159H391.626ZM383.426 159.4C381.326 159.4 379.526 159.05 378.026 158.35C376.526 157.617 375.376 156.633 374.576 155.4C373.776 154.167 373.376 152.783 373.376 151.25C373.376 149.65 373.76 148.25 374.526 147.05C375.326 145.85 376.576 144.917 378.276 144.25C379.976 143.55 382.193 143.2 384.926 143.2H392.076V147.75H385.776C383.943 147.75 382.676 148.05 381.976 148.65C381.31 149.25 380.976 150 380.976 150.9C380.976 151.9 381.36 152.7 382.126 153.3C382.926 153.867 384.01 154.15 385.376 154.15C386.676 154.15 387.843 153.85 388.876 153.25C389.91 152.617 390.66 151.7 391.126 150.5L392.326 154.1C391.76 155.833 390.726 157.15 389.226 158.05C387.726 158.95 385.793 159.4 383.426 159.4ZM417.731 159.4C415.198 159.4 412.914 158.833 410.881 157.7C408.848 156.533 407.231 154.917 406.031 152.85C404.864 150.783 404.281 148.35 404.281 145.55C404.281 142.717 404.864 140.267 406.031 138.2C407.231 136.133 408.848 134.533 410.881 133.4C412.914 132.267 415.198 131.7 417.731 131.7C419.998 131.7 421.981 132.2 423.681 133.2C425.381 134.2 426.698 135.717 427.631 137.75C428.564 139.783 429.031 142.383 429.031 145.55C429.031 148.683 428.581 151.283 427.681 153.35C426.781 155.383 425.481 156.9 423.781 157.9C422.114 158.9 420.098 159.4 417.731 159.4ZM419.081 153C420.348 153 421.498 152.7 422.531 152.1C423.564 151.5 424.381 150.65 424.981 149.55C425.614 148.417 425.931 147.083 425.931 145.55C425.931 143.983 425.614 142.65 424.981 141.55C424.381 140.45 423.564 139.6 422.531 139C421.498 138.4 420.348 138.1 419.081 138.1C417.781 138.1 416.614 138.4 415.581 139C414.548 139.6 413.714 140.45 413.081 141.55C412.481 142.65 412.181 143.983 412.181 145.55C412.181 147.083 412.481 148.417 413.081 149.55C413.714 150.65 414.548 151.5 415.581 152.1C416.614 152.7 417.781 153 419.081 153ZM426.131 159V153.5L426.281 145.5L425.781 137.55V121.9H433.581V159H426.131Z" fill="#00A3CE"/>
<path d="M204.987 247.2C204.104 247.2 203.237 247.108 202.387 246.925C201.554 246.725 200.787 246.467 200.087 246.15C199.404 245.833 198.854 245.475 198.437 245.075L199.537 243.075C199.987 243.475 200.512 243.825 201.112 244.125C201.729 244.425 202.379 244.658 203.062 244.825C203.762 244.992 204.479 245.075 205.212 245.075C206.145 245.075 206.97 244.958 207.687 244.725C208.404 244.492 208.954 244.158 209.337 243.725C209.737 243.275 209.937 242.733 209.937 242.1C209.937 241.583 209.77 241.158 209.437 240.825C209.104 240.492 208.67 240.225 208.137 240.025C207.62 239.808 207.037 239.617 206.387 239.45C205.754 239.267 205.112 239.067 204.462 238.85C203.829 238.617 203.245 238.333 202.712 238C202.195 237.667 201.77 237.242 201.437 236.725C201.12 236.192 200.962 235.525 200.962 234.725C200.962 233.608 201.27 232.65 201.887 231.85C202.504 231.033 203.354 230.408 204.437 229.975C205.537 229.525 206.804 229.3 208.237 229.3C209.32 229.3 210.354 229.425 211.337 229.675C212.32 229.925 213.162 230.292 213.862 230.775L212.862 232.825C212.212 232.358 211.479 232.008 210.662 231.775C209.845 231.542 208.995 231.425 208.112 231.425C207.162 231.425 206.337 231.55 205.637 231.8C204.937 232.05 204.395 232.408 204.012 232.875C203.629 233.325 203.429 233.858 203.412 234.475C203.412 235.008 203.57 235.442 203.887 235.775C204.204 236.108 204.629 236.383 205.162 236.6C205.695 236.817 206.279 237.025 206.912 237.225C207.562 237.408 208.204 237.608 208.837 237.825C209.47 238.025 210.054 238.292 210.587 238.625C211.137 238.942 211.57 239.35 211.887 239.85C212.22 240.35 212.387 240.983 212.387 241.75C212.387 242.867 212.07 243.842 211.437 244.675C210.82 245.492 209.954 246.117 208.837 246.55C207.737 246.983 206.454 247.2 204.987 247.2ZM221.114 247.15C219.814 247.15 218.689 246.917 217.739 246.45C216.789 245.967 216.056 245.3 215.539 244.45C215.023 243.583 214.764 242.567 214.764 241.4C214.764 239.9 215.089 238.567 215.739 237.4C216.389 236.233 217.273 235.317 218.389 234.65C219.523 233.967 220.806 233.625 222.239 233.625C223.439 233.625 224.481 233.858 225.364 234.325C226.248 234.775 226.931 235.425 227.414 236.275C227.914 237.125 228.164 238.15 228.164 239.35C228.164 239.65 228.148 239.958 228.114 240.275C228.081 240.575 228.039 240.858 227.989 241.125H216.514L216.814 239.375H226.839L225.864 239.975C226.014 239.042 225.948 238.258 225.664 237.625C225.381 236.975 224.931 236.483 224.314 236.15C223.714 235.8 222.989 235.625 222.139 235.625C221.139 235.625 220.256 235.867 219.489 236.35C218.739 236.817 218.156 237.475 217.739 238.325C217.323 239.158 217.114 240.142 217.114 241.275C217.114 242.475 217.456 243.408 218.139 244.075C218.839 244.725 219.898 245.05 221.314 245.05C222.148 245.05 222.923 244.917 223.639 244.65C224.356 244.367 224.948 243.992 225.414 243.525L226.439 245.25C225.806 245.867 225.014 246.342 224.064 246.675C223.114 246.992 222.131 247.15 221.114 247.15ZM235.173 252C233.923 252 232.781 251.833 231.748 251.5C230.714 251.183 229.839 250.725 229.123 250.125L230.448 248.275C230.964 248.758 231.648 249.142 232.498 249.425C233.364 249.725 234.314 249.875 235.348 249.875C236.914 249.875 238.114 249.517 238.948 248.8C239.781 248.1 240.339 247.025 240.623 245.575L241.248 242.5L241.998 240.025L242.373 237.375L243.098 233.75H245.373L243.098 245.2C242.614 247.6 241.723 249.333 240.423 250.4C239.123 251.467 237.373 252 235.173 252ZM236.023 246.45C234.873 246.45 233.848 246.233 232.948 245.8C232.064 245.367 231.373 244.75 230.873 243.95C230.373 243.133 230.123 242.167 230.123 241.05C230.123 239.983 230.306 239.008 230.673 238.125C231.056 237.225 231.581 236.442 232.248 235.775C232.914 235.092 233.706 234.567 234.623 234.2C235.556 233.817 236.573 233.625 237.673 233.625C238.673 233.625 239.581 233.8 240.398 234.15C241.231 234.5 241.889 235.042 242.373 235.775C242.873 236.492 243.123 237.425 243.123 238.575C243.139 240.042 242.864 241.375 242.298 242.575C241.731 243.758 240.914 244.7 239.848 245.4C238.798 246.1 237.523 246.45 236.023 246.45ZM236.498 244.35C237.514 244.35 238.406 244.125 239.173 243.675C239.956 243.225 240.573 242.608 241.023 241.825C241.473 241.042 241.698 240.15 241.698 239.15C241.698 238.083 241.348 237.25 240.648 236.65C239.964 236.033 238.998 235.725 237.748 235.725C236.731 235.725 235.831 235.95 235.048 236.4C234.281 236.833 233.673 237.442 233.223 238.225C232.773 239.008 232.548 239.9 232.548 240.9C232.548 241.983 232.898 242.833 233.598 243.45C234.298 244.05 235.264 244.35 236.498 244.35ZM252.958 247.15C251.825 247.15 250.867 246.917 250.083 246.45C249.317 245.983 248.775 245.308 248.458 244.425C248.142 243.525 248.108 242.442 248.358 241.175L249.833 233.75H252.233L250.758 241.2C250.525 242.383 250.642 243.317 251.108 244C251.592 244.667 252.442 245 253.658 245C254.908 245 255.958 244.65 256.808 243.95C257.658 243.25 258.225 242.192 258.508 240.775L259.908 233.75H262.308L259.683 247H257.383L258.133 243.2L258.558 244.225C257.942 245.225 257.142 245.967 256.158 246.45C255.192 246.917 254.125 247.15 252.958 247.15ZM264.252 247L266.877 233.75H269.177L268.427 237.6L268.177 236.65C268.794 235.533 269.577 234.75 270.527 234.3C271.477 233.85 272.652 233.625 274.052 233.625L273.602 235.95C273.502 235.933 273.402 235.925 273.302 235.925C273.202 235.925 273.094 235.925 272.977 235.925C271.661 235.925 270.569 236.283 269.702 237C268.852 237.717 268.277 238.842 267.977 240.375L266.652 247H264.252ZM280.038 247.15C278.922 247.15 277.922 246.925 277.038 246.475C276.155 246.008 275.455 245.35 274.938 244.5C274.438 243.65 274.188 242.625 274.188 241.425C274.188 240.292 274.372 239.25 274.738 238.3C275.122 237.35 275.647 236.525 276.313 235.825C276.997 235.125 277.797 234.583 278.713 234.2C279.63 233.817 280.622 233.625 281.688 233.625C282.838 233.625 283.813 233.825 284.613 234.225C285.413 234.625 286.03 235.217 286.463 236C286.897 236.767 287.113 237.708 287.113 238.825C287.113 240.458 286.83 241.908 286.263 243.175C285.697 244.425 284.88 245.4 283.813 246.1C282.763 246.8 281.505 247.15 280.038 247.15ZM280.563 245.05C281.563 245.05 282.455 244.808 283.238 244.325C284.022 243.842 284.63 243.183 285.063 242.35C285.513 241.5 285.738 240.533 285.738 239.45C285.738 238.283 285.397 237.375 284.713 236.725C284.03 236.058 283.055 235.725 281.788 235.725C280.805 235.725 279.922 235.967 279.138 236.45C278.355 236.917 277.738 237.575 277.288 238.425C276.838 239.258 276.613 240.225 276.613 241.325C276.613 242.475 276.955 243.383 277.638 244.05C278.322 244.717 279.297 245.05 280.563 245.05ZM284.388 247L285.088 243.575L285.888 240.5L286.213 237.35L286.913 233.75H289.313L286.688 247H284.388ZM297.768 252C297.135 252 296.51 251.892 295.893 251.675C295.276 251.475 294.793 251.192 294.443 250.825L295.693 249.05C295.976 249.333 296.31 249.55 296.693 249.7C297.06 249.867 297.476 249.95 297.943 249.95C298.493 249.95 298.985 249.8 299.418 249.5C299.868 249.217 300.326 248.708 300.793 247.975L302.043 246.05L302.318 245.775L309.893 233.75H312.318L302.918 248.45C302.335 249.35 301.785 250.058 301.268 250.575C300.751 251.092 300.21 251.458 299.643 251.675C299.093 251.892 298.468 252 297.768 252ZM301.593 247.425L298.268 233.75H300.668L303.493 245.55L301.593 247.425ZM324.472 247.15C323.355 247.15 322.355 246.925 321.472 246.475C320.589 246.008 319.889 245.35 319.372 244.5C318.872 243.65 318.622 242.625 318.622 241.425C318.622 240.292 318.805 239.25 319.172 238.3C319.555 237.35 320.08 236.525 320.747 235.825C321.43 235.125 322.23 234.583 323.147 234.2C324.064 233.817 325.055 233.625 326.122 233.625C327.272 233.625 328.247 233.825 329.047 234.225C329.847 234.625 330.464 235.217 330.897 236C331.33 236.767 331.547 237.708 331.547 238.825C331.547 240.458 331.264 241.908 330.697 243.175C330.13 244.425 329.314 245.4 328.247 246.1C327.197 246.8 325.939 247.15 324.472 247.15ZM324.997 245.05C325.997 245.05 326.889 244.808 327.672 244.325C328.455 243.842 329.064 243.183 329.497 242.35C329.947 241.5 330.172 240.533 330.172 239.45C330.172 238.283 329.83 237.375 329.147 236.725C328.464 236.058 327.489 235.725 326.222 235.725C325.239 235.725 324.355 235.967 323.572 236.45C322.789 236.917 322.172 237.575 321.722 238.425C321.272 239.258 321.047 240.225 321.047 241.325C321.047 242.475 321.389 243.383 322.072 244.05C322.755 244.717 323.73 245.05 324.997 245.05ZM328.822 247L329.522 243.575L330.322 240.5L330.647 237.35L331.347 233.75H333.747L331.122 247H328.822ZM192.988 277L196.688 258.45H199.088L195.388 277H192.988ZM205.795 277.15C204.678 277.15 203.678 276.925 202.795 276.475C201.912 276.008 201.212 275.35 200.695 274.5C200.195 273.65 199.945 272.625 199.945 271.425C199.945 270.292 200.128 269.25 200.495 268.3C200.878 267.35 201.403 266.525 202.07 265.825C202.753 265.125 203.553 264.583 204.47 264.2C205.387 263.817 206.378 263.625 207.445 263.625C208.595 263.625 209.57 263.825 210.37 264.225C211.17 264.625 211.787 265.217 212.22 266C212.653 266.767 212.87 267.708 212.87 268.825C212.87 270.458 212.587 271.908 212.02 273.175C211.453 274.425 210.637 275.4 209.57 276.1C208.52 276.8 207.262 277.15 205.795 277.15ZM206.32 275.05C207.32 275.05 208.212 274.808 208.995 274.325C209.778 273.842 210.387 273.183 210.82 272.35C211.27 271.5 211.495 270.533 211.495 269.45C211.495 268.283 211.153 267.375 210.47 266.725C209.787 266.058 208.812 265.725 207.545 265.725C206.562 265.725 205.678 265.967 204.895 266.45C204.112 266.917 203.495 267.575 203.045 268.425C202.595 269.258 202.37 270.225 202.37 271.325C202.37 272.475 202.712 273.383 203.395 274.05C204.078 274.717 205.053 275.05 206.32 275.05ZM210.145 277L210.845 273.575L211.645 270.5L211.97 267.35L212.67 263.75H215.07L212.445 277H210.145ZM217.011 277L219.636 263.75H221.936L221.186 267.6L220.936 266.65C221.553 265.533 222.336 264.75 223.286 264.3C224.236 263.85 225.411 263.625 226.811 263.625L226.361 265.95C226.261 265.933 226.161 265.925 226.061 265.925C225.961 265.925 225.853 265.925 225.736 265.925C224.419 265.925 223.328 266.283 222.461 267C221.611 267.717 221.036 268.842 220.736 270.375L219.411 277H217.011ZM232.072 282C230.822 282 229.68 281.833 228.647 281.5C227.614 281.183 226.739 280.725 226.022 280.125L227.347 278.275C227.864 278.758 228.547 279.142 229.397 279.425C230.264 279.725 231.214 279.875 232.247 279.875C233.814 279.875 235.014 279.517 235.847 278.8C236.68 278.1 237.239 277.025 237.522 275.575L238.147 272.5L238.897 270.025L239.272 267.375L239.997 263.75H242.272L239.997 275.2C239.514 277.6 238.622 279.333 237.322 280.4C236.022 281.467 234.272 282 232.072 282ZM232.922 276.45C231.772 276.45 230.747 276.233 229.847 275.8C228.964 275.367 228.272 274.75 227.772 273.95C227.272 273.133 227.022 272.167 227.022 271.05C227.022 269.983 227.205 269.008 227.572 268.125C227.955 267.225 228.48 266.442 229.147 265.775C229.814 265.092 230.605 264.567 231.522 264.2C232.455 263.817 233.472 263.625 234.572 263.625C235.572 263.625 236.48 263.8 237.297 264.15C238.13 264.5 238.789 265.042 239.272 265.775C239.772 266.492 240.022 267.425 240.022 268.575C240.039 270.042 239.764 271.375 239.197 272.575C238.63 273.758 237.814 274.7 236.747 275.4C235.697 276.1 234.422 276.45 232.922 276.45ZM233.397 274.35C234.414 274.35 235.305 274.125 236.072 273.675C236.855 273.225 237.472 272.608 237.922 271.825C238.372 271.042 238.597 270.15 238.597 269.15C238.597 268.083 238.247 267.25 237.547 266.65C236.864 266.033 235.897 265.725 234.647 265.725C233.63 265.725 232.73 265.95 231.947 266.4C231.18 266.833 230.572 267.442 230.122 268.225C229.672 269.008 229.447 269.9 229.447 270.9C229.447 271.983 229.797 272.833 230.497 273.45C231.197 274.05 232.164 274.35 233.397 274.35ZM250.433 277.15C249.166 277.15 248.066 276.917 247.133 276.45C246.216 275.967 245.499 275.3 244.983 274.45C244.466 273.583 244.208 272.575 244.208 271.425C244.208 269.925 244.541 268.592 245.208 267.425C245.874 266.242 246.791 265.317 247.958 264.65C249.141 263.967 250.483 263.625 251.983 263.625C253.233 263.625 254.324 263.858 255.258 264.325C256.191 264.792 256.908 265.45 257.408 266.3C257.924 267.15 258.183 268.158 258.183 269.325C258.183 270.825 257.849 272.167 257.183 273.35C256.516 274.517 255.599 275.442 254.433 276.125C253.283 276.808 251.949 277.15 250.433 277.15ZM250.583 275.05C251.583 275.05 252.474 274.808 253.258 274.325C254.041 273.842 254.649 273.183 255.083 272.35C255.533 271.5 255.758 270.533 255.758 269.45C255.758 268.283 255.416 267.375 254.733 266.725C254.049 266.058 253.074 265.725 251.808 265.725C250.824 265.725 249.941 265.967 249.158 266.45C248.374 266.917 247.758 267.575 247.308 268.425C246.858 269.258 246.633 270.225 246.633 271.325C246.633 272.475 246.974 273.383 247.658 274.05C248.341 274.717 249.316 275.05 250.583 275.05ZM274.441 277.15C273.307 277.15 272.332 276.95 271.516 276.55C270.716 276.133 270.099 275.542 269.666 274.775C269.232 273.992 269.016 273.05 269.016 271.95C269.016 270.283 269.299 268.833 269.866 267.6C270.432 266.35 271.241 265.375 272.291 264.675C273.357 263.975 274.624 263.625 276.091 263.625C277.224 263.625 278.224 263.85 279.091 264.3C279.974 264.75 280.666 265.408 281.166 266.275C281.682 267.125 281.941 268.142 281.941 269.325C281.941 270.458 281.749 271.5 281.366 272.45C280.999 273.4 280.474 274.225 279.791 274.925C279.124 275.625 278.332 276.175 277.416 276.575C276.499 276.958 275.507 277.15 274.441 277.15ZM265.841 281.85L269.441 263.75H271.741L271.041 267.175L270.266 270.25L269.916 273.4L268.241 281.85H265.841ZM274.341 275.05C275.341 275.05 276.224 274.808 276.991 274.325C277.774 273.842 278.391 273.183 278.841 272.35C279.291 271.5 279.516 270.533 279.516 269.45C279.516 268.283 279.174 267.375 278.491 266.725C277.807 266.058 276.832 265.725 275.566 265.725C274.582 265.725 273.691 265.967 272.891 266.45C272.107 266.917 271.491 267.575 271.041 268.425C270.607 269.258 270.391 270.225 270.391 271.325C270.391 272.475 270.732 273.383 271.416 274.05C272.099 274.717 273.074 275.05 274.341 275.05ZM283.857 277L287.557 258.45H289.957L286.257 277H283.857ZM296.664 277.15C295.548 277.15 294.548 276.925 293.664 276.475C292.781 276.008 292.081 275.35 291.564 274.5C291.064 273.65 290.814 272.625 290.814 271.425C290.814 270.292 290.998 269.25 291.364 268.3C291.748 267.35 292.273 266.525 292.939 265.825C293.623 265.125 294.423 264.583 295.339 264.2C296.256 263.817 297.248 263.625 298.314 263.625C299.464 263.625 300.439 263.825 301.239 264.225C302.039 264.625 302.656 265.217 303.089 266C303.523 266.767 303.739 267.708 303.739 268.825C303.739 270.458 303.456 271.908 302.889 273.175C302.323 274.425 301.506 275.4 300.439 276.1C299.389 276.8 298.131 277.15 296.664 277.15ZM297.189 275.05C298.189 275.05 299.081 274.808 299.864 274.325C300.648 273.842 301.256 273.183 301.689 272.35C302.139 271.5 302.364 270.533 302.364 269.45C302.364 268.283 302.023 267.375 301.339 266.725C300.656 266.058 299.681 265.725 298.414 265.725C297.431 265.725 296.548 265.967 295.764 266.45C294.981 266.917 294.364 267.575 293.914 268.425C293.464 269.258 293.239 270.225 293.239 271.325C293.239 272.475 293.581 273.383 294.264 274.05C294.948 274.717 295.923 275.05 297.189 275.05ZM301.014 277L301.714 273.575L302.514 270.5L302.839 267.35L303.539 263.75H305.939L303.314 277H301.014ZM306.555 277L306.88 275.45L317.355 264.9L317.83 265.725H309.03L309.405 263.75H320.13L319.805 265.325L309.33 275.85L308.83 275.025H318.055L317.655 277H306.555ZM326.922 277.15C325.655 277.15 324.555 276.917 323.622 276.45C322.705 275.967 321.989 275.3 321.472 274.45C320.955 273.583 320.697 272.575 320.697 271.425C320.697 269.925 321.03 268.592 321.697 267.425C322.364 266.242 323.28 265.317 324.447 264.65C325.63 263.967 326.972 263.625 328.472 263.625C329.722 263.625 330.814 263.858 331.747 264.325C332.68 264.792 333.397 265.45 333.897 266.3C334.414 267.15 334.672 268.158 334.672 269.325C334.672 270.825 334.339 272.167 333.672 273.35C333.005 274.517 332.089 275.442 330.922 276.125C329.772 276.808 328.439 277.15 326.922 277.15ZM327.072 275.05C328.072 275.05 328.964 274.808 329.747 274.325C330.53 273.842 331.139 273.183 331.572 272.35C332.022 271.5 332.247 270.533 332.247 269.45C332.247 268.283 331.905 267.375 331.222 266.725C330.539 266.058 329.564 265.725 328.297 265.725C327.314 265.725 326.43 265.967 325.647 266.45C324.864 266.917 324.247 267.575 323.797 268.425C323.347 269.258 323.122 270.225 323.122 271.325C323.122 272.475 323.464 273.383 324.147 274.05C324.83 274.717 325.805 275.05 327.072 275.05ZM337.073 277.15C336.623 277.15 336.24 277 335.923 276.7C335.623 276.383 335.473 276 335.473 275.55C335.473 275 335.648 274.558 335.998 274.225C336.348 273.892 336.765 273.725 337.248 273.725C337.698 273.725 338.073 273.875 338.373 274.175C338.673 274.475 338.823 274.867 338.823 275.35C338.823 275.7 338.74 276.017 338.573 276.3C338.407 276.567 338.19 276.775 337.923 276.925C337.673 277.075 337.39 277.15 337.073 277.15Z" fill="white"/>
<path d="M265.761 365.151C233.008 365.151 206.5 391.656 206.5 424.412C206.5 425.835 207.654 426.989 209.077 426.989C210.22 426.989 254.625 426.989 255.491 426.989C256.645 431.585 260.811 435 265.761 435C270.711 435 274.876 431.585 276.03 426.989C276.89 426.989 321.269 426.989 322.445 426.989C323.868 426.989 325.022 425.835 325.022 424.412C325.022 391.659 298.517 365.151 265.761 365.151ZM268.337 370.364C280.967 370.952 292.809 375.857 302.156 384.372C297.578 388.951 297.642 388.887 293.1 393.429C286.219 387.337 277.56 383.74 268.337 383.172V370.364ZM263.184 370.364V383.172H263.184C254.107 383.731 245.438 387.225 238.422 393.429C233.886 388.893 233.947 388.954 229.365 384.372C238.712 375.857 250.554 370.952 263.184 370.364ZM211.713 421.835C212.301 409.205 217.206 397.363 225.721 388.016L234.778 397.073C228.863 403.758 225.102 412.343 224.521 421.835H211.713ZM265.761 429.847C262.764 429.847 260.326 427.409 260.326 424.412C260.326 421.415 262.764 418.977 265.761 418.977C268.714 418.977 271.196 421.422 271.196 424.412C271.196 427.409 268.758 429.847 265.761 429.847ZM274.185 418.006C273.577 417.209 272.937 416.585 272.167 415.989L278.78 411.393L274.185 418.006ZM277.799 421.835L291.18 402.579C292.813 400.23 289.939 397.362 287.594 398.993L266.236 413.835C261.109 413.608 256.691 417.063 255.49 421.835H229.687C231.017 402.93 246.726 388.247 265.761 388.247C284.865 388.247 300.512 403.03 301.835 421.835H277.799ZM307.001 421.835C306.439 412.635 302.854 403.984 296.744 397.073L305.8 388.016C314.315 397.363 319.221 409.205 319.808 421.835H307.001Z" fill="white"/>
<path d="M309.224 355.518C309.224 356.932 310.31 358.072 311.658 358.072H314.41C315.583 358.072 316.537 357.074 316.537 355.846C316.537 354.509 315.956 354.037 315.09 353.731L310.672 352.196C309.806 351.889 309.224 351.417 309.224 350.08C309.224 348.852 310.178 347.854 311.351 347.854H314.103C315.452 347.854 316.537 348.994 316.537 350.409" stroke="white" stroke-width="2" stroke-linecap="round" stroke-linejoin="round"/>
<path d="M312.873 346.385V359.541" stroke="white" stroke-width="2" stroke-linecap="round" stroke-linejoin="round"/>
<path d="M312.873 363.926C318.928 363.926 323.836 359.018 323.836 352.963C323.836 346.908 318.928 342 312.873 342C306.818 342 301.91 346.908 301.91 352.963C301.91 359.018 306.818 363.926 312.873 363.926Z" stroke="white" stroke-width="2" stroke-linecap="round" stroke-linejoin="round"/>
</svg>
