<svg width="532" height="458" viewBox="0 0 532 458" fill="none" xmlns="http://www.w3.org/2000/svg">
<path d="M30.5 50C13.9315 50 0.5 63.4315 0.5 80V428C0.5 444.569 13.9315 458 30.5 458H502C518.569 458 532 444.569 532 428V80C532 63.4315 518.569 50 502 50H30.5Z" fill="#053661"/>
<path d="M266.5 100C294.114 100 316.5 77.6142 316.5 50C316.5 22.3858 294.114 0 266.5 0C238.886 0 216.5 22.3858 216.5 50C216.5 77.6142 238.886 100 266.5 100Z" fill="#00A3CE"/>
<path d="M248.079 75V68.91L267.539 50.43C269.172 48.89 270.386 47.5367 271.179 46.37C271.972 45.2033 272.486 44.13 272.719 43.15C272.999 42.1233 273.139 41.1667 273.139 40.28C273.139 38.04 272.369 36.3133 270.829 35.1C269.289 33.84 267.026 33.21 264.039 33.21C261.659 33.21 259.489 33.63 257.529 34.47C255.616 35.31 253.959 36.5933 252.559 38.32L246.189 33.42C248.102 30.8533 250.669 28.87 253.889 27.47C257.156 26.0233 260.796 25.3 264.809 25.3C268.356 25.3 271.436 25.8833 274.049 27.05C276.709 28.17 278.739 29.78 280.139 31.88C281.586 33.98 282.309 36.4767 282.309 39.37C282.309 40.9567 282.099 42.5433 281.679 44.13C281.259 45.67 280.466 47.3033 279.299 49.03C278.132 50.7567 276.429 52.6933 274.189 54.84L257.459 70.73L255.569 67.3H284.199V75H248.079Z" fill="white"/>
<path d="M172.026 166V131H187.176C190.309 131 193.009 131.517 195.276 132.55C197.543 133.55 199.293 135 200.526 136.9C201.759 138.8 202.376 141.067 202.376 143.7C202.376 146.3 201.759 148.55 200.526 150.45C199.293 152.317 197.543 153.75 195.276 154.75C193.009 155.75 190.309 156.25 187.176 156.25H176.526L180.126 152.7V166H172.026ZM194.276 166L185.526 153.3H194.176L203.026 166H194.276ZM180.126 153.6L176.526 149.8H186.726C189.226 149.8 191.093 149.267 192.326 148.2C193.559 147.1 194.176 145.6 194.176 143.7C194.176 141.767 193.559 140.267 192.326 139.2C191.093 138.133 189.226 137.6 186.726 137.6H176.526L180.126 133.75V153.6ZM208.244 166V139.1H216.044V166H208.244ZM212.144 135.35C210.71 135.35 209.544 134.933 208.644 134.1C207.744 133.267 207.294 132.233 207.294 131C207.294 129.767 207.744 128.733 208.644 127.9C209.544 127.067 210.71 126.65 212.144 126.65C213.577 126.65 214.744 127.05 215.644 127.85C216.544 128.617 216.994 129.617 216.994 130.85C216.994 132.15 216.544 133.233 215.644 134.1C214.777 134.933 213.61 135.35 212.144 135.35ZM236.633 166.4C233.566 166.4 230.866 165.8 228.533 164.6C226.233 163.4 224.449 161.767 223.183 159.7C221.916 157.6 221.283 155.217 221.283 152.55C221.283 149.85 221.899 147.467 223.133 145.4C224.399 143.3 226.116 141.667 228.283 140.5C230.449 139.3 232.899 138.7 235.633 138.7C238.266 138.7 240.633 139.267 242.733 140.4C244.866 141.5 246.549 143.1 247.783 145.2C249.016 147.267 249.633 149.75 249.633 152.65C249.633 152.95 249.616 153.3 249.583 153.7C249.549 154.067 249.516 154.417 249.483 154.75H227.633V150.2H245.383L242.383 151.55C242.383 150.15 242.099 148.933 241.533 147.9C240.966 146.867 240.183 146.067 239.183 145.5C238.183 144.9 237.016 144.6 235.683 144.6C234.349 144.6 233.166 144.9 232.133 145.5C231.133 146.067 230.349 146.883 229.783 147.95C229.216 148.983 228.933 150.217 228.933 151.65V152.85C228.933 154.317 229.249 155.617 229.883 156.75C230.549 157.85 231.466 158.7 232.633 159.3C233.833 159.867 235.233 160.15 236.833 160.15C238.266 160.15 239.516 159.933 240.583 159.5C241.683 159.067 242.683 158.417 243.583 157.55L247.733 162.05C246.499 163.45 244.949 164.533 243.083 165.3C241.216 166.033 239.066 166.4 236.633 166.4ZM263.876 166.4C261.576 166.4 259.359 166.133 257.226 165.6C255.126 165.033 253.459 164.333 252.226 163.5L254.826 157.9C256.059 158.667 257.509 159.3 259.176 159.8C260.876 160.267 262.542 160.5 264.176 160.5C265.976 160.5 267.242 160.283 267.976 159.85C268.742 159.417 269.126 158.817 269.126 158.05C269.126 157.417 268.826 156.95 268.226 156.65C267.659 156.317 266.892 156.067 265.926 155.9C264.959 155.733 263.892 155.567 262.726 155.4C261.592 155.233 260.442 155.017 259.276 154.75C258.109 154.45 257.042 154.017 256.076 153.45C255.109 152.883 254.326 152.117 253.726 151.15C253.159 150.183 252.876 148.933 252.876 147.4C252.876 145.7 253.359 144.2 254.326 142.9C255.326 141.6 256.759 140.583 258.626 139.85C260.492 139.083 262.726 138.7 265.326 138.7C267.159 138.7 269.026 138.9 270.926 139.3C272.826 139.7 274.409 140.283 275.676 141.05L273.076 146.6C271.776 145.833 270.459 145.317 269.126 145.05C267.826 144.75 266.559 144.6 265.326 144.6C263.592 144.6 262.326 144.833 261.526 145.3C260.726 145.767 260.326 146.367 260.326 147.1C260.326 147.767 260.609 148.267 261.176 148.6C261.776 148.933 262.559 149.2 263.526 149.4C264.492 149.6 265.542 149.783 266.676 149.95C267.842 150.083 269.009 150.3 270.176 150.6C271.342 150.9 272.392 151.333 273.326 151.9C274.292 152.433 275.076 153.183 275.676 154.15C276.276 155.083 276.576 156.317 276.576 157.85C276.576 159.517 276.076 161 275.076 162.3C274.076 163.567 272.626 164.567 270.726 165.3C268.859 166.033 266.576 166.4 263.876 166.4ZM294.038 176.1C291.505 176.1 289.055 175.783 286.688 175.15C284.355 174.55 282.405 173.633 280.838 172.4L283.938 166.8C285.071 167.733 286.505 168.467 288.238 169C290.005 169.567 291.738 169.85 293.438 169.85C296.205 169.85 298.205 169.233 299.438 168C300.705 166.767 301.338 164.933 301.338 162.5V158.45L301.838 151.7L301.738 144.9V139.1H309.138V161.5C309.138 166.5 307.838 170.183 305.238 172.55C302.638 174.917 298.905 176.1 294.038 176.1ZM292.838 164.7C290.338 164.7 288.071 164.167 286.038 163.1C284.038 162 282.421 160.483 281.188 158.55C279.988 156.583 279.388 154.3 279.388 151.7C279.388 149.067 279.988 146.783 281.188 144.85C282.421 142.883 284.038 141.367 286.038 140.3C288.071 139.233 290.338 138.7 292.838 138.7C295.105 138.7 297.105 139.167 298.838 140.1C300.571 141 301.921 142.417 302.888 144.35C303.855 146.25 304.338 148.7 304.338 151.7C304.338 154.667 303.855 157.117 302.888 159.05C301.921 160.95 300.571 162.367 298.838 163.3C297.105 164.233 295.105 164.7 292.838 164.7ZM294.388 158.3C295.755 158.3 296.971 158.033 298.038 157.5C299.105 156.933 299.938 156.15 300.538 155.15C301.138 154.15 301.438 153 301.438 151.7C301.438 150.367 301.138 149.217 300.538 148.25C299.938 147.25 299.105 146.483 298.038 145.95C296.971 145.383 295.755 145.1 294.388 145.1C293.021 145.1 291.805 145.383 290.738 145.95C289.671 146.483 288.821 147.25 288.188 148.25C287.588 149.217 287.288 150.367 287.288 151.7C287.288 153 287.588 154.15 288.188 155.15C288.821 156.15 289.671 156.933 290.738 157.5C291.805 158.033 293.021 158.3 294.388 158.3ZM329.198 166.4C326.331 166.4 323.781 165.8 321.548 164.6C319.348 163.4 317.598 161.767 316.298 159.7C315.031 157.6 314.398 155.217 314.398 152.55C314.398 149.85 315.031 147.467 316.298 145.4C317.598 143.3 319.348 141.667 321.548 140.5C323.781 139.3 326.331 138.7 329.198 138.7C332.031 138.7 334.565 139.3 336.798 140.5C339.031 141.667 340.781 143.283 342.048 145.35C343.315 147.417 343.948 149.817 343.948 152.55C343.948 155.217 343.315 157.6 342.048 159.7C340.781 161.767 339.031 163.4 336.798 164.6C334.565 165.8 332.031 166.4 329.198 166.4ZM329.198 160C330.498 160 331.665 159.7 332.698 159.1C333.731 158.5 334.548 157.65 335.148 156.55C335.748 155.417 336.048 154.083 336.048 152.55C336.048 150.983 335.748 149.65 335.148 148.55C334.548 147.45 333.731 146.6 332.698 146C331.665 145.4 330.498 145.1 329.198 145.1C327.898 145.1 326.731 145.4 325.698 146C324.665 146.6 323.831 147.45 323.198 148.55C322.598 149.65 322.298 150.983 322.298 152.55C322.298 154.083 322.598 155.417 323.198 156.55C323.831 157.65 324.665 158.5 325.698 159.1C326.731 159.7 327.898 160 329.198 160ZM358.212 166.4C355.912 166.4 353.695 166.133 351.562 165.6C349.462 165.033 347.795 164.333 346.562 163.5L349.162 157.9C350.395 158.667 351.845 159.3 353.512 159.8C355.212 160.267 356.878 160.5 358.512 160.5C360.312 160.5 361.578 160.283 362.312 159.85C363.078 159.417 363.462 158.817 363.462 158.05C363.462 157.417 363.162 156.95 362.562 156.65C361.995 156.317 361.228 156.067 360.262 155.9C359.295 155.733 358.228 155.567 357.062 155.4C355.928 155.233 354.778 155.017 353.612 154.75C352.445 154.45 351.378 154.017 350.412 153.45C349.445 152.883 348.662 152.117 348.062 151.15C347.495 150.183 347.212 148.933 347.212 147.4C347.212 145.7 347.695 144.2 348.662 142.9C349.662 141.6 351.095 140.583 352.962 139.85C354.828 139.083 357.062 138.7 359.662 138.7C361.495 138.7 363.362 138.9 365.262 139.3C367.162 139.7 368.745 140.283 370.012 141.05L367.412 146.6C366.112 145.833 364.795 145.317 363.462 145.05C362.162 144.75 360.895 144.6 359.662 144.6C357.928 144.6 356.662 144.833 355.862 145.3C355.062 145.767 354.662 146.367 354.662 147.1C354.662 147.767 354.945 148.267 355.512 148.6C356.112 148.933 356.895 149.2 357.862 149.4C358.828 149.6 359.878 149.783 361.012 149.95C362.178 150.083 363.345 150.3 364.512 150.6C365.678 150.9 366.728 151.333 367.662 151.9C368.628 152.433 369.412 153.183 370.012 154.15C370.612 155.083 370.912 156.317 370.912 157.85C370.912 159.517 370.412 161 369.412 162.3C368.412 163.567 366.962 164.567 365.062 165.3C363.195 166.033 360.912 166.4 358.212 166.4Z" fill="#00A3CE"/>
<path d="M156.95 203L160.45 185.5H162.275L159.1 201.4H168.9L168.575 203H156.95ZM176.702 203.125C175.585 203.125 174.593 202.9 173.727 202.45C172.86 202 172.185 201.358 171.702 200.525C171.218 199.692 170.977 198.7 170.977 197.55C170.977 196.433 171.16 195.4 171.527 194.45C171.893 193.5 172.41 192.675 173.077 191.975C173.743 191.258 174.527 190.708 175.427 190.325C176.343 189.942 177.335 189.75 178.402 189.75C179.552 189.75 180.527 189.958 181.327 190.375C182.127 190.775 182.743 191.367 183.177 192.15C183.61 192.917 183.827 193.85 183.827 194.95C183.827 196.533 183.535 197.942 182.952 199.175C182.368 200.408 181.543 201.375 180.477 202.075C179.41 202.775 178.152 203.125 176.702 203.125ZM177.077 201.55C178.177 201.55 179.152 201.292 180.002 200.775C180.868 200.242 181.543 199.508 182.027 198.575C182.527 197.642 182.777 196.583 182.777 195.4C182.777 194.1 182.393 193.092 181.627 192.375C180.877 191.658 179.818 191.3 178.452 191.3C177.368 191.3 176.393 191.567 175.527 192.1C174.66 192.633 173.977 193.367 173.477 194.3C172.993 195.217 172.752 196.275 172.752 197.475C172.752 198.758 173.127 199.758 173.877 200.475C174.643 201.192 175.71 201.55 177.077 201.55ZM181.402 203L182.152 199.225L182.902 196.575L183.152 193.825L183.952 189.875H185.727L183.102 203H181.402ZM191.87 203.125C190.803 203.125 189.795 202.975 188.845 202.675C187.895 202.375 187.162 201.992 186.645 201.525L187.495 200.125C187.995 200.575 188.653 200.933 189.47 201.2C190.287 201.45 191.145 201.575 192.045 201.575C193.295 201.575 194.253 201.367 194.92 200.95C195.603 200.533 195.945 199.958 195.945 199.225C195.945 198.725 195.762 198.35 195.395 198.1C195.045 197.833 194.587 197.633 194.02 197.5C193.453 197.35 192.853 197.208 192.22 197.075C191.587 196.942 190.987 196.775 190.42 196.575C189.853 196.358 189.387 196.033 189.02 195.6C188.67 195.167 188.495 194.583 188.495 193.85C188.495 193.017 188.728 192.292 189.195 191.675C189.678 191.058 190.345 190.583 191.195 190.25C192.045 189.917 193.045 189.75 194.195 189.75C195.028 189.75 195.853 189.858 196.67 190.075C197.487 190.292 198.145 190.592 198.645 190.975L197.895 192.4C197.378 192 196.778 191.717 196.095 191.55C195.412 191.367 194.728 191.275 194.045 191.275C192.828 191.275 191.887 191.5 191.22 191.95C190.57 192.383 190.245 192.958 190.245 193.675C190.245 194.175 190.42 194.558 190.77 194.825C191.137 195.092 191.603 195.3 192.17 195.45C192.737 195.6 193.337 195.742 193.97 195.875C194.62 195.992 195.22 196.158 195.77 196.375C196.337 196.592 196.795 196.908 197.145 197.325C197.512 197.725 197.695 198.292 197.695 199.025C197.695 199.892 197.453 200.633 196.97 201.25C196.487 201.85 195.803 202.317 194.92 202.65C194.053 202.967 193.037 203.125 191.87 203.125ZM206.795 203L209.395 189.875H211.17L208.57 203H206.795ZM211.045 186.975C210.695 186.975 210.403 186.858 210.17 186.625C209.953 186.392 209.845 186.117 209.845 185.8C209.845 185.433 209.97 185.117 210.22 184.85C210.487 184.583 210.82 184.45 211.22 184.45C211.57 184.45 211.862 184.558 212.095 184.775C212.328 184.992 212.445 185.267 212.445 185.6C212.445 186 212.312 186.333 212.045 186.6C211.778 186.85 211.445 186.975 211.045 186.975ZM222.534 189.75C223.717 189.75 224.684 189.983 225.434 190.45C226.201 190.9 226.726 191.558 227.009 192.425C227.309 193.292 227.334 194.325 227.084 195.525L225.584 203H223.809L225.309 195.5C225.576 194.2 225.434 193.183 224.884 192.45C224.351 191.717 223.401 191.35 222.034 191.35C220.634 191.35 219.467 191.733 218.534 192.5C217.617 193.267 217.001 194.417 216.684 195.95L215.284 203H213.509L216.109 189.875H217.809L217.059 193.65L216.684 193C217.317 191.867 218.134 191.042 219.134 190.525C220.151 190.008 221.284 189.75 222.534 189.75ZM233.559 203L230.309 189.875H232.084L235.034 202.05H234.184L241.984 189.875H243.834L235.359 203H233.559ZM249.343 203.125C248.093 203.125 247.001 202.9 246.068 202.45C245.151 201.983 244.443 201.333 243.943 200.5C243.46 199.667 243.218 198.675 243.218 197.525C243.218 196.025 243.535 194.692 244.168 193.525C244.801 192.358 245.668 191.442 246.768 190.775C247.868 190.092 249.11 189.75 250.493 189.75C251.66 189.75 252.668 189.975 253.518 190.425C254.368 190.858 255.026 191.492 255.493 192.325C255.976 193.158 256.218 194.158 256.218 195.325C256.218 195.592 256.201 195.867 256.168 196.15C256.135 196.417 256.093 196.675 256.043 196.925H244.518L244.743 195.6H255.218L254.493 196.1C254.66 195.05 254.585 194.167 254.268 193.45C253.951 192.733 253.46 192.192 252.793 191.825C252.143 191.442 251.36 191.25 250.443 191.25C249.376 191.25 248.426 191.517 247.593 192.05C246.76 192.567 246.11 193.292 245.643 194.225C245.176 195.142 244.943 196.217 244.943 197.45C244.943 198.767 245.318 199.783 246.068 200.5C246.835 201.2 247.976 201.55 249.493 201.55C250.376 201.55 251.193 201.408 251.943 201.125C252.693 200.825 253.31 200.417 253.793 199.9L254.593 201.175C253.976 201.792 253.201 202.275 252.268 202.625C251.351 202.958 250.376 203.125 249.343 203.125ZM258.431 203L261.031 189.875H262.731L261.981 193.75L261.781 193.075C262.364 191.925 263.131 191.083 264.081 190.55C265.048 190.017 266.248 189.75 267.681 189.75L267.356 191.475C267.273 191.475 267.189 191.475 267.106 191.475C267.039 191.458 266.956 191.45 266.856 191.45C265.456 191.45 264.298 191.858 263.381 192.675C262.481 193.475 261.864 194.692 261.531 196.325L260.206 203H258.431ZM272.241 203.125C271.175 203.125 270.166 202.975 269.216 202.675C268.266 202.375 267.533 201.992 267.016 201.525L267.866 200.125C268.366 200.575 269.025 200.933 269.841 201.2C270.658 201.45 271.516 201.575 272.416 201.575C273.666 201.575 274.625 201.367 275.291 200.95C275.975 200.533 276.316 199.958 276.316 199.225C276.316 198.725 276.133 198.35 275.766 198.1C275.416 197.833 274.958 197.633 274.391 197.5C273.825 197.35 273.225 197.208 272.591 197.075C271.958 196.942 271.358 196.775 270.791 196.575C270.225 196.358 269.758 196.033 269.391 195.6C269.041 195.167 268.866 194.583 268.866 193.85C268.866 193.017 269.1 192.292 269.566 191.675C270.05 191.058 270.716 190.583 271.566 190.25C272.416 189.917 273.416 189.75 274.566 189.75C275.4 189.75 276.225 189.858 277.041 190.075C277.858 190.292 278.516 190.592 279.016 190.975L278.266 192.4C277.75 192 277.15 191.717 276.466 191.55C275.783 191.367 275.1 191.275 274.416 191.275C273.2 191.275 272.258 191.5 271.591 191.95C270.941 192.383 270.616 192.958 270.616 193.675C270.616 194.175 270.791 194.558 271.141 194.825C271.508 195.092 271.975 195.3 272.541 195.45C273.108 195.6 273.708 195.742 274.341 195.875C274.991 195.992 275.591 196.158 276.141 196.375C276.708 196.592 277.166 196.908 277.516 197.325C277.883 197.725 278.066 198.292 278.066 199.025C278.066 199.892 277.825 200.633 277.341 201.25C276.858 201.85 276.175 202.317 275.291 202.65C274.425 202.967 273.408 203.125 272.241 203.125ZM280.623 203L283.223 189.875H284.998L282.398 203H280.623ZM284.873 186.975C284.523 186.975 284.232 186.858 283.998 186.625C283.782 186.392 283.673 186.117 283.673 185.8C283.673 185.433 283.798 185.117 284.048 184.85C284.315 184.583 284.648 184.45 285.048 184.45C285.398 184.45 285.69 184.558 285.923 184.775C286.157 184.992 286.273 185.267 286.273 185.6C286.273 186 286.14 186.333 285.873 186.6C285.607 186.85 285.273 186.975 284.873 186.975ZM293.187 203.125C291.97 203.125 290.912 202.9 290.012 202.45C289.129 201.983 288.437 201.333 287.937 200.5C287.454 199.667 287.212 198.683 287.212 197.55C287.212 196.05 287.537 194.717 288.187 193.55C288.837 192.367 289.737 191.442 290.887 190.775C292.037 190.092 293.345 189.75 294.812 189.75C296.029 189.75 297.079 189.975 297.962 190.425C298.862 190.875 299.554 191.517 300.037 192.35C300.537 193.183 300.787 194.167 300.787 195.3C300.787 196.8 300.462 198.142 299.812 199.325C299.162 200.492 298.262 201.417 297.112 202.1C295.979 202.783 294.67 203.125 293.187 203.125ZM293.312 201.55C294.412 201.55 295.387 201.292 296.237 200.775C297.104 200.242 297.779 199.508 298.262 198.575C298.762 197.642 299.012 196.583 299.012 195.4C299.012 194.1 298.629 193.092 297.862 192.375C297.112 191.658 296.054 191.3 294.687 191.3C293.604 191.3 292.629 191.567 291.762 192.1C290.895 192.633 290.212 193.367 289.712 194.3C289.229 195.217 288.987 196.275 288.987 197.475C288.987 198.758 289.362 199.758 290.112 200.475C290.879 201.192 291.945 201.55 293.312 201.55ZM312.036 189.75C313.219 189.75 314.186 189.983 314.936 190.45C315.703 190.9 316.228 191.558 316.511 192.425C316.811 193.292 316.836 194.325 316.586 195.525L315.086 203H313.311L314.811 195.5C315.078 194.2 314.936 193.183 314.386 192.45C313.853 191.717 312.903 191.35 311.536 191.35C310.136 191.35 308.969 191.733 308.036 192.5C307.119 193.267 306.503 194.417 306.186 195.95L304.786 203H303.011L305.611 189.875H307.311L306.561 193.65L306.186 193C306.819 191.867 307.636 191.042 308.636 190.525C309.653 190.008 310.786 189.75 312.036 189.75ZM325.905 203.125C324.655 203.125 323.564 202.9 322.63 202.45C321.714 201.983 321.005 201.333 320.505 200.5C320.022 199.667 319.78 198.675 319.78 197.525C319.78 196.025 320.097 194.692 320.73 193.525C321.364 192.358 322.23 191.442 323.33 190.775C324.43 190.092 325.672 189.75 327.055 189.75C328.222 189.75 329.23 189.975 330.08 190.425C330.93 190.858 331.589 191.492 332.055 192.325C332.539 193.158 332.78 194.158 332.78 195.325C332.78 195.592 332.764 195.867 332.73 196.15C332.697 196.417 332.655 196.675 332.605 196.925H321.08L321.305 195.6H331.78L331.055 196.1C331.222 195.05 331.147 194.167 330.83 193.45C330.514 192.733 330.022 192.192 329.355 191.825C328.705 191.442 327.922 191.25 327.005 191.25C325.939 191.25 324.989 191.517 324.155 192.05C323.322 192.567 322.672 193.292 322.205 194.225C321.739 195.142 321.505 196.217 321.505 197.45C321.505 198.767 321.88 199.783 322.63 200.5C323.397 201.2 324.539 201.55 326.055 201.55C326.939 201.55 327.755 201.408 328.505 201.125C329.255 200.825 329.872 200.417 330.355 199.9L331.155 201.175C330.539 201.792 329.764 202.275 328.83 202.625C327.914 202.958 326.939 203.125 325.905 203.125ZM338.818 203.125C337.752 203.125 336.743 202.975 335.793 202.675C334.843 202.375 334.11 201.992 333.593 201.525L334.443 200.125C334.943 200.575 335.602 200.933 336.418 201.2C337.235 201.45 338.093 201.575 338.993 201.575C340.243 201.575 341.202 201.367 341.868 200.95C342.552 200.533 342.893 199.958 342.893 199.225C342.893 198.725 342.71 198.35 342.343 198.1C341.993 197.833 341.535 197.633 340.968 197.5C340.402 197.35 339.802 197.208 339.168 197.075C338.535 196.942 337.935 196.775 337.368 196.575C336.802 196.358 336.335 196.033 335.968 195.6C335.618 195.167 335.443 194.583 335.443 193.85C335.443 193.017 335.677 192.292 336.143 191.675C336.627 191.058 337.293 190.583 338.143 190.25C338.993 189.917 339.993 189.75 341.143 189.75C341.977 189.75 342.802 189.858 343.618 190.075C344.435 190.292 345.093 190.592 345.593 190.975L344.843 192.4C344.327 192 343.727 191.717 343.043 191.55C342.36 191.367 341.677 191.275 340.993 191.275C339.777 191.275 338.835 191.5 338.168 191.95C337.518 192.383 337.193 192.958 337.193 193.675C337.193 194.175 337.368 194.558 337.718 194.825C338.085 195.092 338.552 195.3 339.118 195.45C339.685 195.6 340.285 195.742 340.918 195.875C341.568 195.992 342.168 196.158 342.718 196.375C343.285 196.592 343.743 196.908 344.093 197.325C344.46 197.725 344.643 198.292 344.643 199.025C344.643 199.892 344.402 200.633 343.918 201.25C343.435 201.85 342.752 202.317 341.868 202.65C341.002 202.967 339.985 203.125 338.818 203.125ZM359.343 203.125C358.227 203.125 357.235 202.9 356.368 202.45C355.502 202 354.827 201.358 354.343 200.525C353.86 199.692 353.618 198.7 353.618 197.55C353.618 196.433 353.802 195.4 354.168 194.45C354.535 193.5 355.052 192.675 355.718 191.975C356.385 191.258 357.168 190.708 358.068 190.325C358.985 189.942 359.977 189.75 361.043 189.75C362.193 189.75 363.168 189.958 363.968 190.375C364.768 190.775 365.385 191.367 365.818 192.15C366.252 192.917 366.468 193.85 366.468 194.95C366.468 196.133 366.302 197.225 365.968 198.225C365.652 199.225 365.177 200.092 364.543 200.825C363.91 201.558 363.152 202.125 362.268 202.525C361.402 202.925 360.427 203.125 359.343 203.125ZM359.718 201.55C360.818 201.55 361.793 201.292 362.643 200.775C363.51 200.242 364.185 199.508 364.668 198.575C365.168 197.642 365.418 196.583 365.418 195.4C365.418 194.1 365.035 193.092 364.268 192.375C363.518 191.658 362.46 191.3 361.093 191.3C360.01 191.3 359.035 191.567 358.168 192.1C357.302 192.633 356.618 193.367 356.118 194.3C355.635 195.217 355.393 196.275 355.393 197.475C355.393 198.758 355.768 199.758 356.518 200.475C357.285 201.192 358.352 201.55 359.718 201.55ZM364.043 203L364.793 199.225L365.543 196.575L365.793 193.825L367.668 184.45H369.443L365.743 203H364.043ZM376.687 203.125C375.437 203.125 374.345 202.9 373.412 202.45C372.495 201.983 371.787 201.333 371.287 200.5C370.803 199.667 370.562 198.675 370.562 197.525C370.562 196.025 370.878 194.692 371.512 193.525C372.145 192.358 373.012 191.442 374.112 190.775C375.212 190.092 376.453 189.75 377.837 189.75C379.003 189.75 380.012 189.975 380.862 190.425C381.712 190.858 382.37 191.492 382.837 192.325C383.32 193.158 383.562 194.158 383.562 195.325C383.562 195.592 383.545 195.867 383.512 196.15C383.478 196.417 383.437 196.675 383.387 196.925H371.862L372.087 195.6H382.562L381.837 196.1C382.003 195.05 381.928 194.167 381.612 193.45C381.295 192.733 380.803 192.192 380.137 191.825C379.487 191.442 378.703 191.25 377.787 191.25C376.72 191.25 375.77 191.517 374.937 192.05C374.103 192.567 373.453 193.292 372.987 194.225C372.52 195.142 372.287 196.217 372.287 197.45C372.287 198.767 372.662 199.783 373.412 200.5C374.178 201.2 375.32 201.55 376.837 201.55C377.72 201.55 378.537 201.408 379.287 201.125C380.037 200.825 380.653 200.417 381.137 199.9L381.937 201.175C381.32 201.792 380.545 202.275 379.612 202.625C378.695 202.958 377.72 203.125 376.687 203.125ZM156.673 233.125C155.923 233.125 155.282 232.967 154.748 232.65C154.215 232.317 153.84 231.85 153.623 231.25C153.423 230.65 153.407 229.933 153.573 229.1L155.973 216.975H157.748L155.348 229.025C155.182 229.842 155.24 230.475 155.523 230.925C155.823 231.375 156.365 231.6 157.148 231.6C157.515 231.6 157.873 231.55 158.223 231.45C158.573 231.333 158.89 231.158 159.173 230.925L159.598 232.275C159.182 232.592 158.715 232.817 158.198 232.95C157.682 233.067 157.173 233.125 156.673 233.125ZM152.773 221.35L153.048 219.875H161.173L160.873 221.35H152.773ZM168.191 233.125C166.941 233.125 165.849 232.9 164.916 232.45C163.999 231.983 163.291 231.333 162.791 230.5C162.307 229.667 162.066 228.675 162.066 227.525C162.066 226.025 162.382 224.692 163.016 223.525C163.649 222.358 164.516 221.442 165.616 220.775C166.716 220.092 167.957 219.75 169.341 219.75C170.507 219.75 171.516 219.975 172.366 220.425C173.216 220.858 173.874 221.492 174.341 222.325C174.824 223.158 175.066 224.158 175.066 225.325C175.066 225.592 175.049 225.867 175.016 226.15C174.982 226.417 174.941 226.675 174.891 226.925H163.366L163.591 225.6H174.066L173.341 226.1C173.507 225.05 173.432 224.167 173.116 223.45C172.799 222.733 172.307 222.192 171.641 221.825C170.991 221.442 170.207 221.25 169.291 221.25C168.224 221.25 167.274 221.517 166.441 222.05C165.607 222.567 164.957 223.292 164.491 224.225C164.024 225.142 163.791 226.217 163.791 227.45C163.791 228.767 164.166 229.783 164.916 230.5C165.682 231.2 166.824 231.55 168.341 231.55C169.224 231.55 170.041 231.408 170.791 231.125C171.541 230.825 172.157 230.417 172.641 229.9L173.441 231.175C172.824 231.792 172.049 232.275 171.116 232.625C170.199 232.958 169.224 233.125 168.191 233.125ZM177.279 233L179.879 219.875H181.579L180.829 223.75L180.629 223.075C181.212 221.925 181.979 221.083 182.929 220.55C183.895 220.017 185.095 219.75 186.529 219.75L186.204 221.475C186.12 221.475 186.037 221.475 185.954 221.475C185.887 221.458 185.804 221.45 185.704 221.45C184.304 221.45 183.145 221.858 182.229 222.675C181.329 223.475 180.712 224.692 180.379 226.325L179.054 233H177.279ZM187.069 233L189.669 219.875H191.369L190.619 223.75L190.419 223.075C191.002 221.925 191.769 221.083 192.719 220.55C193.685 220.017 194.885 219.75 196.319 219.75L195.994 221.475C195.91 221.475 195.827 221.475 195.744 221.475C195.677 221.458 195.594 221.45 195.494 221.45C194.094 221.45 192.935 221.858 192.019 222.675C191.119 223.475 190.502 224.692 190.169 226.325L188.844 233H187.069ZM202.785 233.125C201.535 233.125 200.444 232.9 199.51 232.45C198.594 231.983 197.885 231.333 197.385 230.5C196.902 229.667 196.66 228.675 196.66 227.525C196.66 226.025 196.977 224.692 197.61 223.525C198.244 222.358 199.11 221.442 200.21 220.775C201.31 220.092 202.552 219.75 203.935 219.75C205.102 219.75 206.11 219.975 206.96 220.425C207.81 220.858 208.469 221.492 208.935 222.325C209.419 223.158 209.66 224.158 209.66 225.325C209.66 225.592 209.644 225.867 209.61 226.15C209.577 226.417 209.535 226.675 209.485 226.925H197.96L198.185 225.6H208.66L207.935 226.1C208.102 225.05 208.027 224.167 207.71 223.45C207.394 222.733 206.902 222.192 206.235 221.825C205.585 221.442 204.802 221.25 203.885 221.25C202.819 221.25 201.869 221.517 201.035 222.05C200.202 222.567 199.552 223.292 199.085 224.225C198.619 225.142 198.385 226.217 198.385 227.45C198.385 228.767 198.76 229.783 199.51 230.5C200.277 231.2 201.419 231.55 202.935 231.55C203.819 231.55 204.635 231.408 205.385 231.125C206.135 230.825 206.752 230.417 207.235 229.9L208.035 231.175C207.419 231.792 206.644 232.275 205.71 232.625C204.794 232.958 203.819 233.125 202.785 233.125ZM220.898 219.75C222.082 219.75 223.048 219.983 223.798 220.45C224.565 220.9 225.09 221.558 225.373 222.425C225.673 223.292 225.698 224.325 225.448 225.525L223.948 233H222.173L223.673 225.5C223.94 224.2 223.798 223.183 223.248 222.45C222.715 221.717 221.765 221.35 220.398 221.35C218.998 221.35 217.832 221.733 216.898 222.5C215.982 223.267 215.365 224.417 215.048 225.95L213.648 233H211.873L214.473 219.875H216.173L215.423 223.65L215.048 223C215.682 221.867 216.498 221.042 217.498 220.525C218.515 220.008 219.648 219.75 220.898 219.75ZM234.618 233.125C233.401 233.125 232.343 232.9 231.443 232.45C230.559 231.983 229.868 231.333 229.368 230.5C228.884 229.667 228.643 228.683 228.643 227.55C228.643 226.05 228.968 224.717 229.618 223.55C230.268 222.367 231.168 221.442 232.318 220.775C233.468 220.092 234.776 219.75 236.243 219.75C237.459 219.75 238.509 219.975 239.393 220.425C240.293 220.875 240.984 221.517 241.468 222.35C241.968 223.183 242.218 224.167 242.218 225.3C242.218 226.8 241.893 228.142 241.243 229.325C240.593 230.492 239.693 231.417 238.543 232.1C237.409 232.783 236.101 233.125 234.618 233.125ZM234.743 231.55C235.843 231.55 236.818 231.292 237.668 230.775C238.534 230.242 239.209 229.508 239.693 228.575C240.193 227.642 240.443 226.583 240.443 225.4C240.443 224.1 240.059 223.092 239.293 222.375C238.543 221.658 237.484 221.3 236.118 221.3C235.034 221.3 234.059 221.567 233.193 222.1C232.326 222.633 231.643 223.367 231.143 224.3C230.659 225.217 230.418 226.275 230.418 227.475C230.418 228.758 230.793 229.758 231.543 230.475C232.309 231.192 233.376 231.55 234.743 231.55ZM248.267 233.125C247.2 233.125 246.192 232.975 245.242 232.675C244.292 232.375 243.558 231.992 243.042 231.525L243.892 230.125C244.392 230.575 245.05 230.933 245.867 231.2C246.683 231.45 247.542 231.575 248.442 231.575C249.692 231.575 250.65 231.367 251.317 230.95C252 230.533 252.342 229.958 252.342 229.225C252.342 228.725 252.158 228.35 251.792 228.1C251.442 227.833 250.983 227.633 250.417 227.5C249.85 227.35 249.25 227.208 248.617 227.075C247.983 226.942 247.383 226.775 246.817 226.575C246.25 226.358 245.783 226.033 245.417 225.6C245.067 225.167 244.892 224.583 244.892 223.85C244.892 223.017 245.125 222.292 245.592 221.675C246.075 221.058 246.742 220.583 247.592 220.25C248.442 219.917 249.442 219.75 250.592 219.75C251.425 219.75 252.25 219.858 253.067 220.075C253.883 220.292 254.542 220.592 255.042 220.975L254.292 222.4C253.775 222 253.175 221.717 252.492 221.55C251.808 221.367 251.125 221.275 250.442 221.275C249.225 221.275 248.283 221.5 247.617 221.95C246.967 222.383 246.642 222.958 246.642 223.675C246.642 224.175 246.817 224.558 247.167 224.825C247.533 225.092 248 225.3 248.567 225.45C249.133 225.6 249.733 225.742 250.367 225.875C251.017 225.992 251.617 226.158 252.167 226.375C252.733 226.592 253.192 226.908 253.542 227.325C253.908 227.725 254.092 228.292 254.092 229.025C254.092 229.892 253.85 230.633 253.367 231.25C252.883 231.85 252.2 232.317 251.317 232.65C250.45 232.967 249.433 233.125 248.267 233.125ZM267.017 233.125C265.95 233.125 264.942 232.975 263.992 232.675C263.042 232.375 262.308 231.992 261.792 231.525L262.642 230.125C263.142 230.575 263.8 230.933 264.617 231.2C265.433 231.45 266.292 231.575 267.192 231.575C268.442 231.575 269.4 231.367 270.067 230.95C270.75 230.533 271.092 229.958 271.092 229.225C271.092 228.725 270.908 228.35 270.542 228.1C270.192 227.833 269.733 227.633 269.167 227.5C268.6 227.35 268 227.208 267.367 227.075C266.733 226.942 266.133 226.775 265.567 226.575C265 226.358 264.533 226.033 264.167 225.6C263.817 225.167 263.642 224.583 263.642 223.85C263.642 223.017 263.875 222.292 264.342 221.675C264.825 221.058 265.492 220.583 266.342 220.25C267.192 219.917 268.192 219.75 269.342 219.75C270.175 219.75 271 219.858 271.817 220.075C272.633 220.292 273.292 220.592 273.792 220.975L273.042 222.4C272.525 222 271.925 221.717 271.242 221.55C270.558 221.367 269.875 221.275 269.192 221.275C267.975 221.275 267.033 221.5 266.367 221.95C265.717 222.383 265.392 222.958 265.392 223.675C265.392 224.175 265.567 224.558 265.917 224.825C266.283 225.092 266.75 225.3 267.317 225.45C267.883 225.6 268.483 225.742 269.117 225.875C269.767 225.992 270.367 226.158 270.917 226.375C271.483 226.592 271.942 226.908 272.292 227.325C272.658 227.725 272.842 228.292 272.842 229.025C272.842 229.892 272.6 230.633 272.117 231.25C271.633 231.85 270.95 232.317 270.067 232.65C269.2 232.967 268.183 233.125 267.017 233.125ZM280.899 233.125C279.749 233.125 278.79 232.892 278.024 232.425C277.274 231.958 276.757 231.292 276.474 230.425C276.19 229.558 276.157 228.533 276.374 227.35L277.874 219.875H279.649L278.149 227.35C277.899 228.65 278.04 229.675 278.574 230.425C279.107 231.158 280.04 231.525 281.374 231.525C282.757 231.525 283.907 231.142 284.824 230.375C285.757 229.608 286.382 228.458 286.699 226.925L288.099 219.875H289.874L287.249 233H285.549L286.299 229.225L286.674 229.85C286.057 230.983 285.24 231.817 284.224 232.35C283.224 232.867 282.115 233.125 280.899 233.125ZM298.196 233.125C296.946 233.125 295.854 232.9 294.921 232.45C294.004 231.983 293.296 231.333 292.796 230.5C292.312 229.667 292.071 228.675 292.071 227.525C292.071 226.025 292.387 224.692 293.021 223.525C293.654 222.358 294.521 221.442 295.621 220.775C296.721 220.092 297.962 219.75 299.346 219.75C300.512 219.75 301.521 219.975 302.371 220.425C303.221 220.858 303.879 221.492 304.346 222.325C304.829 223.158 305.071 224.158 305.071 225.325C305.071 225.592 305.054 225.867 305.021 226.15C304.987 226.417 304.946 226.675 304.896 226.925H293.371L293.596 225.6H304.071L303.346 226.1C303.512 225.05 303.437 224.167 303.121 223.45C302.804 222.733 302.312 222.192 301.646 221.825C300.996 221.442 300.212 221.25 299.296 221.25C298.229 221.25 297.279 221.517 296.446 222.05C295.612 222.567 294.962 223.292 294.496 224.225C294.029 225.142 293.796 226.217 293.796 227.45C293.796 228.767 294.171 229.783 294.921 230.5C295.687 231.2 296.829 231.55 298.346 231.55C299.229 231.55 300.046 231.408 300.796 231.125C301.546 230.825 302.162 230.417 302.646 229.9L303.446 231.175C302.829 231.792 302.054 232.275 301.121 232.625C300.204 232.958 299.229 233.125 298.196 233.125ZM307.283 233L310.983 214.45H312.758L309.058 233H307.283ZM319.997 233.125C318.747 233.125 317.656 232.9 316.722 232.45C315.806 231.983 315.097 231.333 314.597 230.5C314.114 229.667 313.872 228.675 313.872 227.525C313.872 226.025 314.189 224.692 314.822 223.525C315.456 222.358 316.322 221.442 317.422 220.775C318.522 220.092 319.764 219.75 321.147 219.75C322.314 219.75 323.322 219.975 324.172 220.425C325.022 220.858 325.681 221.492 326.147 222.325C326.631 223.158 326.872 224.158 326.872 225.325C326.872 225.592 326.856 225.867 326.822 226.15C326.789 226.417 326.747 226.675 326.697 226.925H315.172L315.397 225.6H325.872L325.147 226.1C325.314 225.05 325.239 224.167 324.922 223.45C324.606 222.733 324.114 222.192 323.447 221.825C322.797 221.442 322.014 221.25 321.097 221.25C320.031 221.25 319.081 221.517 318.247 222.05C317.414 222.567 316.764 223.292 316.297 224.225C315.831 225.142 315.597 226.217 315.597 227.45C315.597 228.767 315.972 229.783 316.722 230.5C317.489 231.2 318.631 231.55 320.147 231.55C321.031 231.55 321.847 231.408 322.597 231.125C323.347 230.825 323.964 230.417 324.447 229.9L325.247 231.175C324.631 231.792 323.856 232.275 322.922 232.625C322.006 232.958 321.031 233.125 319.997 233.125ZM338.11 219.75C339.293 219.75 340.26 219.983 341.01 220.45C341.777 220.9 342.302 221.558 342.585 222.425C342.885 223.292 342.91 224.325 342.66 225.525L341.16 233H339.385L340.885 225.5C341.152 224.2 341.01 223.183 340.46 222.45C339.927 221.717 338.977 221.35 337.61 221.35C336.21 221.35 335.043 221.733 334.11 222.5C333.193 223.267 332.577 224.417 332.26 225.95L330.86 233H329.085L331.685 219.875H333.385L332.635 223.65L332.26 223C332.893 221.867 333.71 221.042 334.71 220.525C335.727 220.008 336.86 219.75 338.11 219.75ZM356.348 233.125C355.281 233.125 354.273 232.975 353.323 232.675C352.373 232.375 351.639 231.992 351.123 231.525L351.973 230.125C352.473 230.575 353.131 230.933 353.948 231.2C354.764 231.45 355.623 231.575 356.523 231.575C357.773 231.575 358.731 231.367 359.398 230.95C360.081 230.533 360.423 229.958 360.423 229.225C360.423 228.725 360.239 228.35 359.873 228.1C359.523 227.833 359.064 227.633 358.498 227.5C357.931 227.35 357.331 227.208 356.698 227.075C356.064 226.942 355.464 226.775 354.898 226.575C354.331 226.358 353.864 226.033 353.498 225.6C353.148 225.167 352.973 224.583 352.973 223.85C352.973 223.017 353.206 222.292 353.673 221.675C354.156 221.058 354.823 220.583 355.673 220.25C356.523 219.917 357.523 219.75 358.673 219.75C359.506 219.75 360.331 219.858 361.148 220.075C361.964 220.292 362.623 220.592 363.123 220.975L362.373 222.4C361.856 222 361.256 221.717 360.573 221.55C359.889 221.367 359.206 221.275 358.523 221.275C357.306 221.275 356.364 221.5 355.698 221.95C355.048 222.383 354.723 222.958 354.723 223.675C354.723 224.175 354.898 224.558 355.248 224.825C355.614 225.092 356.081 225.3 356.648 225.45C357.214 225.6 357.814 225.742 358.448 225.875C359.098 225.992 359.698 226.158 360.248 226.375C360.814 226.592 361.273 226.908 361.623 227.325C361.989 227.725 362.173 228.292 362.173 229.025C362.173 229.892 361.931 230.633 361.448 231.25C360.964 231.85 360.281 232.317 359.398 232.65C358.531 232.967 357.514 233.125 356.348 233.125ZM370.73 233.125C369.48 233.125 368.388 232.9 367.455 232.45C366.538 231.983 365.83 231.333 365.33 230.5C364.846 229.667 364.605 228.675 364.605 227.525C364.605 226.025 364.921 224.692 365.555 223.525C366.188 222.358 367.055 221.442 368.155 220.775C369.255 220.092 370.496 219.75 371.88 219.75C373.046 219.75 374.055 219.975 374.905 220.425C375.755 220.858 376.413 221.492 376.88 222.325C377.363 223.158 377.605 224.158 377.605 225.325C377.605 225.592 377.588 225.867 377.555 226.15C377.521 226.417 377.48 226.675 377.43 226.925H365.905L366.13 225.6H376.605L375.88 226.1C376.046 225.05 375.971 224.167 375.655 223.45C375.338 222.733 374.846 222.192 374.18 221.825C373.53 221.442 372.746 221.25 371.83 221.25C370.763 221.25 369.813 221.517 368.98 222.05C368.146 222.567 367.496 223.292 367.03 224.225C366.563 225.142 366.33 226.217 366.33 227.45C366.33 228.767 366.705 229.783 367.455 230.5C368.221 231.2 369.363 231.55 370.88 231.55C371.763 231.55 372.58 231.408 373.33 231.125C374.08 230.825 374.696 230.417 375.18 229.9L375.98 231.175C375.363 231.792 374.588 232.275 373.655 232.625C372.738 232.958 371.763 233.125 370.73 233.125ZM379.818 233L382.418 219.875H384.118L383.368 223.75L383.168 223.075C383.751 221.925 384.518 221.083 385.468 220.55C386.434 220.017 387.634 219.75 389.068 219.75L388.743 221.475C388.659 221.475 388.576 221.475 388.493 221.475C388.426 221.458 388.343 221.45 388.243 221.45C386.843 221.45 385.684 221.858 384.768 222.675C383.868 223.475 383.251 224.692 382.918 226.325L381.593 233H379.818ZM137.029 263.125C135.912 263.125 134.921 262.9 134.054 262.45C133.187 262 132.512 261.358 132.029 260.525C131.546 259.692 131.304 258.7 131.304 257.55C131.304 256.433 131.487 255.4 131.854 254.45C132.221 253.5 132.737 252.675 133.404 251.975C134.071 251.258 134.854 250.708 135.754 250.325C136.671 249.942 137.662 249.75 138.729 249.75C139.879 249.75 140.854 249.958 141.654 250.375C142.454 250.775 143.071 251.367 143.504 252.15C143.937 252.917 144.154 253.85 144.154 254.95C144.154 256.533 143.862 257.942 143.279 259.175C142.696 260.408 141.871 261.375 140.804 262.075C139.737 262.775 138.479 263.125 137.029 263.125ZM137.404 261.55C138.504 261.55 139.479 261.292 140.329 260.775C141.196 260.242 141.871 259.508 142.354 258.575C142.854 257.642 143.104 256.583 143.104 255.4C143.104 254.1 142.721 253.092 141.954 252.375C141.204 251.658 140.146 251.3 138.779 251.3C137.696 251.3 136.721 251.567 135.854 252.1C134.987 252.633 134.304 253.367 133.804 254.3C133.321 255.217 133.079 256.275 133.079 257.475C133.079 258.758 133.454 259.758 134.204 260.475C134.971 261.192 136.037 261.55 137.404 261.55ZM141.729 263L142.479 259.225L143.229 256.575L143.479 253.825L144.279 249.875H146.054L143.429 263H141.729ZM148.372 263L152.072 244.45H153.847L150.147 263H148.372ZM159.261 263.125C158.511 263.125 157.869 262.967 157.336 262.65C156.803 262.317 156.428 261.85 156.211 261.25C156.011 260.65 155.994 259.933 156.161 259.1L158.561 246.975H160.336L157.936 259.025C157.769 259.842 157.828 260.475 158.111 260.925C158.411 261.375 158.953 261.6 159.736 261.6C160.103 261.6 160.461 261.55 160.811 261.45C161.161 261.333 161.478 261.158 161.761 260.925L162.186 262.275C161.769 262.592 161.303 262.817 160.786 262.95C160.269 263.067 159.761 263.125 159.261 263.125ZM155.361 251.35L155.636 249.875H163.761L163.461 251.35H155.361ZM170.379 263.125C169.262 263.125 168.27 262.9 167.404 262.45C166.537 262 165.862 261.358 165.379 260.525C164.895 259.692 164.654 258.7 164.654 257.55C164.654 256.433 164.837 255.4 165.204 254.45C165.57 253.5 166.087 252.675 166.754 251.975C167.42 251.258 168.204 250.708 169.104 250.325C170.02 249.942 171.012 249.75 172.079 249.75C173.229 249.75 174.204 249.958 175.004 250.375C175.804 250.775 176.42 251.367 176.854 252.15C177.287 252.917 177.504 253.85 177.504 254.95C177.504 256.533 177.212 257.942 176.629 259.175C176.045 260.408 175.22 261.375 174.154 262.075C173.087 262.775 171.829 263.125 170.379 263.125ZM170.754 261.55C171.854 261.55 172.829 261.292 173.679 260.775C174.545 260.242 175.22 259.508 175.704 258.575C176.204 257.642 176.454 256.583 176.454 255.4C176.454 254.1 176.07 253.092 175.304 252.375C174.554 251.658 173.495 251.3 172.129 251.3C171.045 251.3 170.07 251.567 169.204 252.1C168.337 252.633 167.654 253.367 167.154 254.3C166.67 255.217 166.429 256.275 166.429 257.475C166.429 258.758 166.804 259.758 167.554 260.475C168.32 261.192 169.387 261.55 170.754 261.55ZM175.079 263L175.829 259.225L176.579 256.575L176.829 253.825L177.629 249.875H179.404L176.779 263H175.079ZM200.422 249.75C201.605 249.75 202.564 249.983 203.297 250.45C204.047 250.9 204.564 251.558 204.847 252.425C205.13 253.292 205.147 254.325 204.897 255.525L203.397 263H201.622L203.122 255.5C203.389 254.2 203.264 253.183 202.747 252.45C202.247 251.717 201.33 251.35 199.997 251.35C198.68 251.35 197.572 251.717 196.672 252.45C195.789 253.183 195.197 254.283 194.897 255.75L193.447 263H191.672L193.172 255.5C193.439 254.2 193.314 253.183 192.797 252.45C192.28 251.717 191.364 251.35 190.047 251.35C188.697 251.35 187.58 251.733 186.697 252.5C185.814 253.267 185.214 254.417 184.897 255.95L183.497 263H181.722L184.322 249.875H186.022L185.272 253.65L184.897 253C185.53 251.867 186.33 251.042 187.297 250.525C188.264 250.008 189.355 249.75 190.572 249.75C191.489 249.75 192.272 249.908 192.922 250.225C193.589 250.525 194.105 250.975 194.472 251.575C194.855 252.158 195.064 252.858 195.097 253.675L194.172 253.475C194.822 252.225 195.68 251.292 196.747 250.675C197.83 250.058 199.055 249.75 200.422 249.75ZM214.236 263.125C212.986 263.125 211.894 262.9 210.961 262.45C210.044 261.983 209.336 261.333 208.836 260.5C208.352 259.667 208.111 258.675 208.111 257.525C208.111 256.025 208.427 254.692 209.061 253.525C209.694 252.358 210.561 251.442 211.661 250.775C212.761 250.092 214.002 249.75 215.386 249.75C216.552 249.75 217.561 249.975 218.411 250.425C219.261 250.858 219.919 251.492 220.386 252.325C220.869 253.158 221.111 254.158 221.111 255.325C221.111 255.592 221.094 255.867 221.061 256.15C221.027 256.417 220.986 256.675 220.936 256.925H209.411L209.636 255.6H220.111L219.386 256.1C219.552 255.05 219.477 254.167 219.161 253.45C218.844 252.733 218.352 252.192 217.686 251.825C217.036 251.442 216.252 251.25 215.336 251.25C214.269 251.25 213.319 251.517 212.486 252.05C211.652 252.567 211.002 253.292 210.536 254.225C210.069 255.142 209.836 256.217 209.836 257.45C209.836 258.767 210.211 259.783 210.961 260.5C211.727 261.2 212.869 261.55 214.386 261.55C215.269 261.55 216.086 261.408 216.836 261.125C217.586 260.825 218.202 260.417 218.686 259.9L219.486 261.175C218.869 261.792 218.094 262.275 217.161 262.625C216.244 262.958 215.269 263.125 214.236 263.125ZM232.348 249.75C233.532 249.75 234.498 249.983 235.248 250.45C236.015 250.9 236.54 251.558 236.823 252.425C237.123 253.292 237.148 254.325 236.898 255.525L235.398 263H233.623L235.123 255.5C235.39 254.2 235.248 253.183 234.698 252.45C234.165 251.717 233.215 251.35 231.848 251.35C230.448 251.35 229.282 251.733 228.348 252.5C227.432 253.267 226.815 254.417 226.498 255.95L225.098 263H223.323L225.923 249.875H227.623L226.873 253.65L226.498 253C227.132 251.867 227.948 251.042 228.948 250.525C229.965 250.008 231.098 249.75 232.348 249.75ZM244.393 263.125C243.643 263.125 243.001 262.967 242.468 262.65C241.935 262.317 241.56 261.85 241.343 261.25C241.143 260.65 241.126 259.933 241.293 259.1L243.693 246.975H245.468L243.068 259.025C242.901 259.842 242.96 260.475 243.243 260.925C243.543 261.375 244.085 261.6 244.868 261.6C245.235 261.6 245.593 261.55 245.943 261.45C246.293 261.333 246.61 261.158 246.893 260.925L247.318 262.275C246.901 262.592 246.435 262.817 245.918 262.95C245.401 263.067 244.893 263.125 244.393 263.125ZM240.493 251.35L240.768 249.875H248.893L248.593 251.35H240.493ZM255.91 263.125C254.66 263.125 253.569 262.9 252.635 262.45C251.719 261.983 251.01 261.333 250.51 260.5C250.027 259.667 249.785 258.675 249.785 257.525C249.785 256.025 250.102 254.692 250.735 253.525C251.369 252.358 252.235 251.442 253.335 250.775C254.435 250.092 255.677 249.75 257.06 249.75C258.227 249.75 259.235 249.975 260.085 250.425C260.935 250.858 261.594 251.492 262.06 252.325C262.544 253.158 262.785 254.158 262.785 255.325C262.785 255.592 262.769 255.867 262.735 256.15C262.702 256.417 262.66 256.675 262.61 256.925H251.085L251.31 255.6H261.785L261.06 256.1C261.227 255.05 261.152 254.167 260.835 253.45C260.519 252.733 260.027 252.192 259.36 251.825C258.71 251.442 257.927 251.25 257.01 251.25C255.944 251.25 254.994 251.517 254.16 252.05C253.327 252.567 252.677 253.292 252.21 254.225C251.744 255.142 251.51 256.217 251.51 257.45C251.51 258.767 251.885 259.783 252.635 260.5C253.402 261.2 254.544 261.55 256.06 261.55C256.944 261.55 257.76 261.408 258.51 261.125C259.26 260.825 259.877 260.417 260.36 259.9L261.16 261.175C260.544 261.792 259.769 262.275 258.835 262.625C257.919 262.958 256.944 263.125 255.91 263.125ZM271.541 263L274.141 249.875H275.841L275.091 253.75L274.891 253.075C275.475 251.925 276.241 251.083 277.191 250.55C278.158 250.017 279.358 249.75 280.791 249.75L280.466 251.475C280.383 251.475 280.3 251.475 280.216 251.475C280.15 251.458 280.066 251.45 279.966 251.45C278.566 251.45 277.408 251.858 276.491 252.675C275.591 253.475 274.975 254.692 274.641 256.325L273.316 263H271.541ZM287.258 263.125C286.008 263.125 284.916 262.9 283.983 262.45C283.066 261.983 282.358 261.333 281.858 260.5C281.375 259.667 281.133 258.675 281.133 257.525C281.133 256.025 281.45 254.692 282.083 253.525C282.716 252.358 283.583 251.442 284.683 250.775C285.783 250.092 287.025 249.75 288.408 249.75C289.575 249.75 290.583 249.975 291.433 250.425C292.283 250.858 292.941 251.492 293.408 252.325C293.891 253.158 294.133 254.158 294.133 255.325C294.133 255.592 294.116 255.867 294.083 256.15C294.05 256.417 294.008 256.675 293.958 256.925H282.433L282.658 255.6H293.133L292.408 256.1C292.575 255.05 292.5 254.167 292.183 253.45C291.866 252.733 291.375 252.192 290.708 251.825C290.058 251.442 289.275 251.25 288.358 251.25C287.291 251.25 286.341 251.517 285.508 252.05C284.675 252.567 284.025 253.292 283.558 254.225C283.091 255.142 282.858 256.217 282.858 257.45C282.858 258.767 283.233 259.783 283.983 260.5C284.75 261.2 285.891 261.55 287.408 261.55C288.291 261.55 289.108 261.408 289.858 261.125C290.608 260.825 291.225 260.417 291.708 259.9L292.508 261.175C291.891 261.792 291.116 262.275 290.183 262.625C289.266 262.958 288.291 263.125 287.258 263.125ZM305.371 249.75C306.554 249.75 307.521 249.983 308.271 250.45C309.038 250.9 309.563 251.558 309.846 252.425C310.146 253.292 310.171 254.325 309.921 255.525L308.421 263H306.646L308.146 255.5C308.413 254.2 308.271 253.183 307.721 252.45C307.188 251.717 306.238 251.35 304.871 251.35C303.471 251.35 302.304 251.733 301.371 252.5C300.454 253.267 299.838 254.417 299.521 255.95L298.121 263H296.346L298.946 249.875H300.646L299.896 253.65L299.521 253C300.154 251.867 300.971 251.042 301.971 250.525C302.988 250.008 304.121 249.75 305.371 249.75ZM317.415 263.125C316.665 263.125 316.024 262.967 315.49 262.65C314.957 262.317 314.582 261.85 314.365 261.25C314.165 260.65 314.149 259.933 314.315 259.1L316.715 246.975H318.49L316.09 259.025C315.924 259.842 315.982 260.475 316.265 260.925C316.565 261.375 317.107 261.6 317.89 261.6C318.257 261.6 318.615 261.55 318.965 261.45C319.315 261.333 319.632 261.158 319.915 260.925L320.34 262.275C319.924 262.592 319.457 262.817 318.94 262.95C318.424 263.067 317.915 263.125 317.415 263.125ZM313.515 251.35L313.79 249.875H321.915L321.615 251.35H313.515ZM328.533 263.125C327.416 263.125 326.424 262.9 325.558 262.45C324.691 262 324.016 261.358 323.533 260.525C323.049 259.692 322.808 258.7 322.808 257.55C322.808 256.433 322.991 255.4 323.358 254.45C323.724 253.5 324.241 252.675 324.908 251.975C325.574 251.258 326.358 250.708 327.258 250.325C328.174 249.942 329.166 249.75 330.233 249.75C331.383 249.75 332.358 249.958 333.158 250.375C333.958 250.775 334.574 251.367 335.008 252.15C335.441 252.917 335.658 253.85 335.658 254.95C335.658 256.533 335.366 257.942 334.783 259.175C334.199 260.408 333.374 261.375 332.308 262.075C331.241 262.775 329.983 263.125 328.533 263.125ZM328.908 261.55C330.008 261.55 330.983 261.292 331.833 260.775C332.699 260.242 333.374 259.508 333.858 258.575C334.358 257.642 334.608 256.583 334.608 255.4C334.608 254.1 334.224 253.092 333.458 252.375C332.708 251.658 331.649 251.3 330.283 251.3C329.199 251.3 328.224 251.567 327.358 252.1C326.491 252.633 325.808 253.367 325.308 254.3C324.824 255.217 324.583 256.275 324.583 257.475C324.583 258.758 324.958 259.758 325.708 260.475C326.474 261.192 327.541 261.55 328.908 261.55ZM333.233 263L333.983 259.225L334.733 256.575L334.983 253.825L335.783 249.875H337.558L334.933 263H333.233ZM339.876 263L343.576 244.45H345.351L343.501 253.675L342.701 256.275L342.401 258.825L341.576 263H339.876ZM347.176 263.125C346.043 263.125 345.068 262.925 344.251 262.525C343.451 262.108 342.835 261.517 342.401 260.75C341.985 259.967 341.768 259.025 341.751 257.925C341.751 256.725 341.918 255.625 342.251 254.625C342.585 253.625 343.06 252.767 343.676 252.05C344.31 251.317 345.06 250.75 345.926 250.35C346.81 249.95 347.793 249.75 348.876 249.75C350.01 249.75 351.001 249.975 351.851 250.425C352.718 250.858 353.393 251.492 353.876 252.325C354.376 253.158 354.626 254.15 354.626 255.3C354.626 256.433 354.443 257.475 354.076 258.425C353.71 259.375 353.185 260.2 352.501 260.9C351.835 261.6 351.051 262.15 350.151 262.55C349.251 262.933 348.26 263.125 347.176 263.125ZM347.151 261.55C348.251 261.55 349.226 261.292 350.076 260.775C350.926 260.242 351.593 259.508 352.076 258.575C352.576 257.642 352.826 256.583 352.826 255.4C352.826 254.1 352.451 253.092 351.701 252.375C350.951 251.658 349.885 251.3 348.501 251.3C347.418 251.3 346.443 251.567 345.576 252.1C344.726 252.633 344.051 253.367 343.551 254.3C343.068 255.217 342.826 256.275 342.826 257.475C342.826 258.758 343.201 259.758 343.951 260.475C344.701 261.192 345.768 261.55 347.151 261.55ZM356.82 263L360.52 244.45H362.295L358.595 263H356.82ZM369.533 263.125C368.283 263.125 367.192 262.9 366.258 262.45C365.342 261.983 364.633 261.333 364.133 260.5C363.65 259.667 363.408 258.675 363.408 257.525C363.408 256.025 363.725 254.692 364.358 253.525C364.992 252.358 365.858 251.442 366.958 250.775C368.058 250.092 369.3 249.75 370.683 249.75C371.85 249.75 372.858 249.975 373.708 250.425C374.558 250.858 375.217 251.492 375.683 252.325C376.167 253.158 376.408 254.158 376.408 255.325C376.408 255.592 376.392 255.867 376.358 256.15C376.325 256.417 376.283 256.675 376.233 256.925H364.708L364.933 255.6H375.408L374.683 256.1C374.85 255.05 374.775 254.167 374.458 253.45C374.142 252.733 373.65 252.192 372.983 251.825C372.333 251.442 371.55 251.25 370.633 251.25C369.567 251.25 368.617 251.517 367.783 252.05C366.95 252.567 366.3 253.292 365.833 254.225C365.367 255.142 365.133 256.217 365.133 257.45C365.133 258.767 365.508 259.783 366.258 260.5C367.025 261.2 368.167 261.55 369.683 261.55C370.567 261.55 371.383 261.408 372.133 261.125C372.883 260.825 373.5 260.417 373.983 259.9L374.783 261.175C374.167 261.792 373.392 262.275 372.458 262.625C371.542 262.958 370.567 263.125 369.533 263.125ZM382.446 263.125C381.38 263.125 380.371 262.975 379.421 262.675C378.471 262.375 377.738 261.992 377.221 261.525L378.071 260.125C378.571 260.575 379.23 260.933 380.046 261.2C380.863 261.45 381.721 261.575 382.621 261.575C383.871 261.575 384.83 261.367 385.496 260.95C386.18 260.533 386.521 259.958 386.521 259.225C386.521 258.725 386.338 258.35 385.971 258.1C385.621 257.833 385.163 257.633 384.596 257.5C384.03 257.35 383.43 257.208 382.796 257.075C382.163 256.942 381.563 256.775 380.996 256.575C380.43 256.358 379.963 256.033 379.596 255.6C379.246 255.167 379.071 254.583 379.071 253.85C379.071 253.017 379.305 252.292 379.771 251.675C380.255 251.058 380.921 250.583 381.771 250.25C382.621 249.917 383.621 249.75 384.771 249.75C385.605 249.75 386.43 249.858 387.246 250.075C388.063 250.292 388.721 250.592 389.221 250.975L388.471 252.4C387.955 252 387.355 251.717 386.671 251.55C385.988 251.367 385.305 251.275 384.621 251.275C383.405 251.275 382.463 251.5 381.796 251.95C381.146 252.383 380.821 252.958 380.821 253.675C380.821 254.175 380.996 254.558 381.346 254.825C381.713 255.092 382.18 255.3 382.746 255.45C383.313 255.6 383.913 255.742 384.546 255.875C385.196 255.992 385.796 256.158 386.346 256.375C386.913 256.592 387.371 256.908 387.721 257.325C388.088 257.725 388.271 258.292 388.271 259.025C388.271 259.892 388.03 260.633 387.546 261.25C387.063 261.85 386.38 262.317 385.496 262.65C384.63 262.967 383.613 263.125 382.446 263.125ZM396.696 267.975C396.08 267.975 395.488 267.867 394.921 267.65C394.355 267.45 393.905 267.167 393.571 266.8L394.521 265.5C394.805 265.8 395.138 266.033 395.521 266.2C395.905 266.367 396.338 266.45 396.821 266.45C397.388 266.45 397.905 266.292 398.371 265.975C398.855 265.675 399.355 265.125 399.871 264.325L401.196 262.3L401.421 262.05L409.221 249.875H411.046L401.446 264.7C400.896 265.533 400.38 266.183 399.896 266.65C399.413 267.133 398.913 267.475 398.396 267.675C397.896 267.875 397.33 267.975 396.696 267.975ZM400.896 263.375L397.521 249.875H399.321L402.271 261.925L400.896 263.375ZM136.712 293.125C135.595 293.125 134.603 292.9 133.737 292.45C132.87 292 132.195 291.358 131.712 290.525C131.228 289.692 130.987 288.7 130.987 287.55C130.987 286.433 131.17 285.4 131.537 284.45C131.903 283.5 132.42 282.675 133.087 281.975C133.753 281.258 134.537 280.708 135.437 280.325C136.353 279.942 137.345 279.75 138.412 279.75C139.562 279.75 140.537 279.958 141.337 280.375C142.137 280.775 142.753 281.367 143.187 282.15C143.62 282.917 143.837 283.85 143.837 284.95C143.837 286.533 143.545 287.942 142.962 289.175C142.378 290.408 141.553 291.375 140.487 292.075C139.42 292.775 138.162 293.125 136.712 293.125ZM137.087 291.55C138.187 291.55 139.162 291.292 140.012 290.775C140.878 290.242 141.553 289.508 142.037 288.575C142.537 287.642 142.787 286.583 142.787 285.4C142.787 284.1 142.403 283.092 141.637 282.375C140.887 281.658 139.828 281.3 138.462 281.3C137.378 281.3 136.403 281.567 135.537 282.1C134.67 282.633 133.987 283.367 133.487 284.3C133.003 285.217 132.762 286.275 132.762 287.475C132.762 288.758 133.137 289.758 133.887 290.475C134.653 291.192 135.72 291.55 137.087 291.55ZM141.412 293L142.162 289.225L142.912 286.575L143.162 283.825L143.962 279.875H145.737L143.112 293H141.412ZM153.555 293.125C152.405 293.125 151.447 292.892 150.68 292.425C149.93 291.958 149.413 291.292 149.13 290.425C148.847 289.558 148.813 288.533 149.03 287.35L150.53 279.875H152.305L150.805 287.35C150.555 288.65 150.697 289.675 151.23 290.425C151.763 291.158 152.697 291.525 154.03 291.525C155.413 291.525 156.563 291.142 157.48 290.375C158.413 289.608 159.038 288.458 159.355 286.925L160.755 279.875H162.53L159.905 293H158.205L158.955 289.225L159.33 289.85C158.713 290.983 157.897 291.817 156.88 292.35C155.88 292.867 154.772 293.125 153.555 293.125ZM183.552 279.75C184.735 279.75 185.693 279.983 186.427 280.45C187.177 280.9 187.693 281.558 187.977 282.425C188.26 283.292 188.277 284.325 188.027 285.525L186.527 293H184.752L186.252 285.5C186.518 284.2 186.393 283.183 185.877 282.45C185.377 281.717 184.46 281.35 183.127 281.35C181.81 281.35 180.702 281.717 179.802 282.45C178.918 283.183 178.327 284.283 178.027 285.75L176.577 293H174.802L176.302 285.5C176.568 284.2 176.443 283.183 175.927 282.45C175.41 281.717 174.493 281.35 173.177 281.35C171.827 281.35 170.71 281.733 169.827 282.5C168.943 283.267 168.343 284.417 168.027 285.95L166.627 293H164.852L167.452 279.875H169.152L168.402 283.65L168.027 283C168.66 281.867 169.46 281.042 170.427 280.525C171.393 280.008 172.485 279.75 173.702 279.75C174.618 279.75 175.402 279.908 176.052 280.225C176.718 280.525 177.235 280.975 177.602 281.575C177.985 282.158 178.193 282.858 178.227 283.675L177.302 283.475C177.952 282.225 178.81 281.292 179.877 280.675C180.96 280.058 182.185 279.75 183.552 279.75ZM197.365 293.125C196.115 293.125 195.024 292.9 194.09 292.45C193.174 291.983 192.465 291.333 191.965 290.5C191.482 289.667 191.24 288.675 191.24 287.525C191.24 286.025 191.557 284.692 192.19 283.525C192.824 282.358 193.69 281.442 194.79 280.775C195.89 280.092 197.132 279.75 198.515 279.75C199.682 279.75 200.69 279.975 201.54 280.425C202.39 280.858 203.049 281.492 203.515 282.325C203.999 283.158 204.24 284.158 204.24 285.325C204.24 285.592 204.224 285.867 204.19 286.15C204.157 286.417 204.115 286.675 204.065 286.925H192.54L192.765 285.6H203.24L202.515 286.1C202.682 285.05 202.607 284.167 202.29 283.45C201.974 282.733 201.482 282.192 200.815 281.825C200.165 281.442 199.382 281.25 198.465 281.25C197.399 281.25 196.449 281.517 195.615 282.05C194.782 282.567 194.132 283.292 193.665 284.225C193.199 285.142 192.965 286.217 192.965 287.45C192.965 288.767 193.34 289.783 194.09 290.5C194.857 291.2 195.999 291.55 197.515 291.55C198.399 291.55 199.215 291.408 199.965 291.125C200.715 290.825 201.332 290.417 201.815 289.9L202.615 291.175C201.999 291.792 201.224 292.275 200.29 292.625C199.374 292.958 198.399 293.125 197.365 293.125ZM215.478 279.75C216.662 279.75 217.628 279.983 218.378 280.45C219.145 280.9 219.67 281.558 219.953 282.425C220.253 283.292 220.278 284.325 220.028 285.525L218.528 293H216.753L218.253 285.5C218.52 284.2 218.378 283.183 217.828 282.45C217.295 281.717 216.345 281.35 214.978 281.35C213.578 281.35 212.412 281.733 211.478 282.5C210.562 283.267 209.945 284.417 209.628 285.95L208.228 293H206.453L209.053 279.875H210.753L210.003 283.65L209.628 283C210.262 281.867 211.078 281.042 212.078 280.525C213.095 280.008 214.228 279.75 215.478 279.75ZM227.523 293.125C226.773 293.125 226.131 292.967 225.598 292.65C225.065 292.317 224.69 291.85 224.473 291.25C224.273 290.65 224.256 289.933 224.423 289.1L226.823 276.975H228.598L226.198 289.025C226.031 289.842 226.09 290.475 226.373 290.925C226.673 291.375 227.215 291.6 227.998 291.6C228.365 291.6 228.723 291.55 229.073 291.45C229.423 291.333 229.74 291.158 230.023 290.925L230.448 292.275C230.031 292.592 229.565 292.817 229.048 292.95C228.531 293.067 228.023 293.125 227.523 293.125ZM223.623 281.35L223.898 279.875H232.023L231.723 281.35H223.623ZM238.64 293.125C237.524 293.125 236.532 292.9 235.665 292.45C234.799 292 234.124 291.358 233.64 290.525C233.157 289.692 232.915 288.7 232.915 287.55C232.915 286.433 233.099 285.4 233.465 284.45C233.832 283.5 234.349 282.675 235.015 281.975C235.682 281.258 236.465 280.708 237.365 280.325C238.282 279.942 239.274 279.75 240.34 279.75C241.49 279.75 242.465 279.958 243.265 280.375C244.065 280.775 244.682 281.367 245.115 282.15C245.549 282.917 245.765 283.85 245.765 284.95C245.765 286.533 245.474 287.942 244.89 289.175C244.307 290.408 243.482 291.375 242.415 292.075C241.349 292.775 240.09 293.125 238.64 293.125ZM239.015 291.55C240.115 291.55 241.09 291.292 241.94 290.775C242.807 290.242 243.482 289.508 243.965 288.575C244.465 287.642 244.715 286.583 244.715 285.4C244.715 284.1 244.332 283.092 243.565 282.375C242.815 281.658 241.757 281.3 240.39 281.3C239.307 281.3 238.332 281.567 237.465 282.1C236.599 282.633 235.915 283.367 235.415 284.3C234.932 285.217 234.69 286.275 234.69 287.475C234.69 288.758 235.065 289.758 235.815 290.475C236.582 291.192 237.649 291.55 239.015 291.55ZM243.34 293L244.09 289.225L244.84 286.575L245.09 283.825L245.89 279.875H247.665L245.04 293H243.34ZM259.009 279.75C260.192 279.75 261.159 279.983 261.909 280.45C262.675 280.9 263.2 281.558 263.484 282.425C263.784 283.292 263.809 284.325 263.559 285.525L262.059 293H260.284L261.784 285.5C262.05 284.2 261.909 283.183 261.359 282.45C260.825 281.717 259.875 281.35 258.509 281.35C257.109 281.35 255.942 281.733 255.009 282.5C254.092 283.267 253.475 284.417 253.159 285.95L251.759 293H249.984L252.584 279.875H254.284L253.534 283.65L253.159 283C253.792 281.867 254.609 281.042 255.609 280.525C256.625 280.008 257.759 279.75 259.009 279.75ZM277.246 293.125C276.179 293.125 275.171 292.975 274.221 292.675C273.271 292.375 272.538 291.992 272.021 291.525L272.871 290.125C273.371 290.575 274.029 290.933 274.846 291.2C275.663 291.45 276.521 291.575 277.421 291.575C278.671 291.575 279.629 291.367 280.296 290.95C280.979 290.533 281.321 289.958 281.321 289.225C281.321 288.725 281.138 288.35 280.771 288.1C280.421 287.833 279.963 287.633 279.396 287.5C278.829 287.35 278.229 287.208 277.596 287.075C276.963 286.942 276.363 286.775 275.796 286.575C275.229 286.358 274.763 286.033 274.396 285.6C274.046 285.167 273.871 284.583 273.871 283.85C273.871 283.017 274.104 282.292 274.571 281.675C275.054 281.058 275.721 280.583 276.571 280.25C277.421 279.917 278.421 279.75 279.571 279.75C280.404 279.75 281.229 279.858 282.046 280.075C282.863 280.292 283.521 280.592 284.021 280.975L283.271 282.4C282.754 282 282.154 281.717 281.471 281.55C280.788 281.367 280.104 281.275 279.421 281.275C278.204 281.275 277.263 281.5 276.596 281.95C275.946 282.383 275.621 282.958 275.621 283.675C275.621 284.175 275.796 284.558 276.146 284.825C276.513 285.092 276.979 285.3 277.546 285.45C278.113 285.6 278.713 285.742 279.346 285.875C279.996 285.992 280.596 286.158 281.146 286.375C281.713 286.592 282.171 286.908 282.521 287.325C282.888 287.725 283.071 288.292 283.071 289.025C283.071 289.892 282.829 290.633 282.346 291.25C281.863 291.85 281.179 292.317 280.296 292.65C279.429 292.967 278.413 293.125 277.246 293.125ZM285.628 293L288.228 279.875H290.003L287.403 293H285.628ZM289.878 276.975C289.528 276.975 289.236 276.858 289.003 276.625C288.786 276.392 288.678 276.117 288.678 275.8C288.678 275.433 288.803 275.117 289.053 274.85C289.32 274.583 289.653 274.45 290.053 274.45C290.403 274.45 290.695 274.558 290.928 274.775C291.161 274.992 291.278 275.267 291.278 275.6C291.278 276 291.145 276.333 290.878 276.6C290.611 276.85 290.278 276.975 289.878 276.975ZM298.342 293.125C297.092 293.125 296 292.9 295.067 292.45C294.15 291.983 293.442 291.333 292.942 290.5C292.459 289.667 292.217 288.675 292.217 287.525C292.217 286.025 292.534 284.692 293.167 283.525C293.8 282.358 294.667 281.442 295.767 280.775C296.867 280.092 298.109 279.75 299.492 279.75C300.659 279.75 301.667 279.975 302.517 280.425C303.367 280.858 304.025 281.492 304.492 282.325C304.975 283.158 305.217 284.158 305.217 285.325C305.217 285.592 305.2 285.867 305.167 286.15C305.134 286.417 305.092 286.675 305.042 286.925H293.517L293.742 285.6H304.217L303.492 286.1C303.659 285.05 303.584 284.167 303.267 283.45C302.95 282.733 302.459 282.192 301.792 281.825C301.142 281.442 300.359 281.25 299.442 281.25C298.375 281.25 297.425 281.517 296.592 282.05C295.759 282.567 295.109 283.292 294.642 284.225C294.175 285.142 293.942 286.217 293.942 287.45C293.942 288.767 294.317 289.783 295.067 290.5C295.834 291.2 296.975 291.55 298.492 291.55C299.375 291.55 300.192 291.408 300.942 291.125C301.692 290.825 302.309 290.417 302.792 289.9L303.592 291.175C302.975 291.792 302.2 292.275 301.267 292.625C300.35 292.958 299.375 293.125 298.342 293.125ZM326.13 279.75C327.313 279.75 328.272 279.983 329.005 280.45C329.755 280.9 330.272 281.558 330.555 282.425C330.838 283.292 330.855 284.325 330.605 285.525L329.105 293H327.33L328.83 285.5C329.097 284.2 328.972 283.183 328.455 282.45C327.955 281.717 327.038 281.35 325.705 281.35C324.388 281.35 323.28 281.717 322.38 282.45C321.497 283.183 320.905 284.283 320.605 285.75L319.155 293H317.38L318.88 285.5C319.147 284.2 319.022 283.183 318.505 282.45C317.988 281.717 317.072 281.35 315.755 281.35C314.405 281.35 313.288 281.733 312.405 282.5C311.522 283.267 310.922 284.417 310.605 285.95L309.205 293H307.43L310.03 279.875H311.73L310.98 283.65L310.605 283C311.238 281.867 312.038 281.042 313.005 280.525C313.972 280.008 315.063 279.75 316.28 279.75C317.197 279.75 317.98 279.908 318.63 280.225C319.297 280.525 319.813 280.975 320.18 281.575C320.563 282.158 320.772 282.858 320.805 283.675L319.88 283.475C320.53 282.225 321.388 281.292 322.455 280.675C323.538 280.058 324.763 279.75 326.13 279.75ZM341.244 293.125C340.11 293.125 339.135 292.925 338.319 292.525C337.519 292.108 336.902 291.517 336.469 290.75C336.052 289.967 335.835 289.025 335.819 287.925C335.819 286.308 336.11 284.892 336.694 283.675C337.277 282.442 338.102 281.483 339.169 280.8C340.235 280.1 341.494 279.75 342.944 279.75C344.077 279.75 345.069 279.975 345.919 280.425C346.785 280.858 347.46 281.492 347.944 282.325C348.444 283.158 348.694 284.15 348.694 285.3C348.694 286.433 348.51 287.475 348.144 288.425C347.777 289.375 347.252 290.2 346.569 290.9C345.902 291.6 345.119 292.15 344.219 292.55C343.319 292.933 342.327 293.125 341.244 293.125ZM332.969 297.85L336.544 279.875H338.244L337.494 283.65L336.769 286.275L336.494 289.025L334.744 297.85H332.969ZM341.219 291.55C342.319 291.55 343.294 291.292 344.144 290.775C344.994 290.242 345.66 289.508 346.144 288.575C346.644 287.642 346.894 286.583 346.894 285.4C346.894 284.1 346.519 283.092 345.769 282.375C345.019 281.658 343.952 281.3 342.569 281.3C341.485 281.3 340.51 281.567 339.644 282.1C338.794 282.633 338.119 283.367 337.619 284.3C337.135 285.217 336.894 286.275 336.894 287.475C336.894 288.758 337.269 289.758 338.019 290.475C338.769 291.192 339.835 291.55 341.219 291.55ZM350.887 293L353.487 279.875H355.187L354.437 283.75L354.237 283.075C354.82 281.925 355.587 281.083 356.537 280.55C357.504 280.017 358.704 279.75 360.137 279.75L359.812 281.475C359.729 281.475 359.645 281.475 359.562 281.475C359.495 281.458 359.412 281.45 359.312 281.45C357.912 281.45 356.754 281.858 355.837 282.675C354.937 283.475 354.32 284.692 353.987 286.325L352.662 293H350.887ZM366.604 293.125C365.354 293.125 364.262 292.9 363.329 292.45C362.412 291.983 361.704 291.333 361.204 290.5C360.72 289.667 360.479 288.675 360.479 287.525C360.479 286.025 360.795 284.692 361.429 283.525C362.062 282.358 362.929 281.442 364.029 280.775C365.129 280.092 366.37 279.75 367.754 279.75C368.92 279.75 369.929 279.975 370.779 280.425C371.629 280.858 372.287 281.492 372.754 282.325C373.237 283.158 373.479 284.158 373.479 285.325C373.479 285.592 373.462 285.867 373.429 286.15C373.395 286.417 373.354 286.675 373.304 286.925H361.779L362.004 285.6H372.479L371.754 286.1C371.92 285.05 371.845 284.167 371.529 283.45C371.212 282.733 370.72 282.192 370.054 281.825C369.404 281.442 368.62 281.25 367.704 281.25C366.637 281.25 365.687 281.517 364.854 282.05C364.02 282.567 363.37 283.292 362.904 284.225C362.437 285.142 362.204 286.217 362.204 287.45C362.204 288.767 362.579 289.783 363.329 290.5C364.095 291.2 365.237 291.55 366.754 291.55C367.637 291.55 368.454 291.408 369.204 291.125C369.954 290.825 370.57 290.417 371.054 289.9L371.854 291.175C371.237 291.792 370.462 292.275 369.529 292.625C368.612 292.958 367.637 293.125 366.604 293.125ZM386.06 293.125C384.993 293.125 383.985 292.975 383.035 292.675C382.085 292.375 381.351 291.992 380.835 291.525L381.685 290.125C382.185 290.575 382.843 290.933 383.66 291.2C384.476 291.45 385.335 291.575 386.235 291.575C387.485 291.575 388.443 291.367 389.11 290.95C389.793 290.533 390.135 289.958 390.135 289.225C390.135 288.725 389.951 288.35 389.585 288.1C389.235 287.833 388.776 287.633 388.21 287.5C387.643 287.35 387.043 287.208 386.41 287.075C385.776 286.942 385.176 286.775 384.61 286.575C384.043 286.358 383.576 286.033 383.21 285.6C382.86 285.167 382.685 284.583 382.685 283.85C382.685 283.017 382.918 282.292 383.385 281.675C383.868 281.058 384.535 280.583 385.385 280.25C386.235 279.917 387.235 279.75 388.385 279.75C389.218 279.75 390.043 279.858 390.86 280.075C391.676 280.292 392.335 280.592 392.835 280.975L392.085 282.4C391.568 282 390.968 281.717 390.285 281.55C389.601 281.367 388.918 281.275 388.235 281.275C387.018 281.275 386.076 281.5 385.41 281.95C384.76 282.383 384.435 282.958 384.435 283.675C384.435 284.175 384.61 284.558 384.96 284.825C385.326 285.092 385.793 285.3 386.36 285.45C386.926 285.6 387.526 285.742 388.16 285.875C388.81 285.992 389.41 286.158 389.96 286.375C390.526 286.592 390.985 286.908 391.335 287.325C391.701 287.725 391.885 288.292 391.885 289.025C391.885 289.892 391.643 290.633 391.16 291.25C390.676 291.85 389.993 292.317 389.11 292.65C388.243 292.967 387.226 293.125 386.06 293.125ZM399.942 293.125C398.792 293.125 397.833 292.892 397.067 292.425C396.317 291.958 395.8 291.292 395.517 290.425C395.233 289.558 395.2 288.533 395.417 287.35L396.917 279.875H398.692L397.192 287.35C396.942 288.65 397.083 289.675 397.617 290.425C398.15 291.158 399.083 291.525 400.417 291.525C401.8 291.525 402.95 291.142 403.867 290.375C404.8 289.608 405.425 288.458 405.742 286.925L407.142 279.875H408.917L406.292 293H404.592L405.342 289.225L405.717 289.85C405.1 290.983 404.283 291.817 403.267 292.35C402.267 292.867 401.158 293.125 399.942 293.125ZM151.357 323L148.107 309.875H149.882L152.832 322.05H151.982L159.782 309.875H161.632L153.157 323H151.357ZM166.741 323.125C165.624 323.125 164.632 322.9 163.766 322.45C162.899 322 162.224 321.358 161.741 320.525C161.257 319.692 161.016 318.7 161.016 317.55C161.016 316.433 161.199 315.4 161.566 314.45C161.932 313.5 162.449 312.675 163.116 311.975C163.782 311.258 164.566 310.708 165.466 310.325C166.382 309.942 167.374 309.75 168.441 309.75C169.591 309.75 170.566 309.958 171.366 310.375C172.166 310.775 172.782 311.367 173.216 312.15C173.649 312.917 173.866 313.85 173.866 314.95C173.866 316.533 173.574 317.942 172.991 319.175C172.407 320.408 171.582 321.375 170.516 322.075C169.449 322.775 168.191 323.125 166.741 323.125ZM167.116 321.55C168.216 321.55 169.191 321.292 170.041 320.775C170.907 320.242 171.582 319.508 172.066 318.575C172.566 317.642 172.816 316.583 172.816 315.4C172.816 314.1 172.432 313.092 171.666 312.375C170.916 311.658 169.857 311.3 168.491 311.3C167.407 311.3 166.432 311.567 165.566 312.1C164.699 312.633 164.016 313.367 163.516 314.3C163.032 315.217 162.791 316.275 162.791 317.475C162.791 318.758 163.166 319.758 163.916 320.475C164.682 321.192 165.749 321.55 167.116 321.55ZM171.441 323L172.191 319.225L172.941 316.575L173.191 313.825L173.991 309.875H175.766L173.141 323H171.441ZM178.084 323L181.784 304.45H183.559L179.859 323H178.084ZM190.648 323.125C189.431 323.125 188.373 322.9 187.473 322.45C186.59 321.983 185.898 321.333 185.398 320.5C184.915 319.667 184.673 318.683 184.673 317.55C184.673 316.05 184.998 314.717 185.648 313.55C186.298 312.367 187.198 311.442 188.348 310.775C189.498 310.092 190.806 309.75 192.273 309.75C193.49 309.75 194.54 309.975 195.423 310.425C196.323 310.875 197.015 311.517 197.498 312.35C197.998 313.183 198.248 314.167 198.248 315.3C198.248 316.8 197.923 318.142 197.273 319.325C196.623 320.492 195.723 321.417 194.573 322.1C193.44 322.783 192.131 323.125 190.648 323.125ZM190.773 321.55C191.873 321.55 192.848 321.292 193.698 320.775C194.565 320.242 195.24 319.508 195.723 318.575C196.223 317.642 196.473 316.583 196.473 315.4C196.473 314.1 196.09 313.092 195.323 312.375C194.573 311.658 193.515 311.3 192.148 311.3C191.065 311.3 190.09 311.567 189.223 312.1C188.356 312.633 187.673 313.367 187.173 314.3C186.69 315.217 186.448 316.275 186.448 317.475C186.448 318.758 186.823 319.758 187.573 320.475C188.34 321.192 189.406 321.55 190.773 321.55ZM200.472 323L203.072 309.875H204.772L204.022 313.75L203.822 313.075C204.405 311.925 205.172 311.083 206.122 310.55C207.089 310.017 208.289 309.75 209.722 309.75L209.397 311.475C209.314 311.475 209.23 311.475 209.147 311.475C209.08 311.458 208.997 311.45 208.897 311.45C207.497 311.45 206.339 311.858 205.422 312.675C204.522 313.475 203.905 314.692 203.572 316.325L202.247 323H200.472ZM222.999 323.125C221.749 323.125 220.666 322.9 219.749 322.45C218.849 321.983 218.149 321.333 217.649 320.5C217.166 319.667 216.924 318.683 216.924 317.55C216.924 316.05 217.249 314.717 217.899 313.55C218.549 312.367 219.449 311.442 220.599 310.775C221.766 310.092 223.091 309.75 224.574 309.75C225.791 309.75 226.832 309.975 227.699 310.425C228.582 310.858 229.266 311.508 229.749 312.375L228.249 313.25C227.882 312.583 227.374 312.092 226.724 311.775C226.091 311.458 225.324 311.3 224.424 311.3C223.324 311.3 222.341 311.567 221.474 312.1C220.607 312.633 219.924 313.367 219.424 314.3C218.941 315.217 218.699 316.275 218.699 317.475C218.699 318.758 219.074 319.758 219.824 320.475C220.591 321.192 221.674 321.55 223.074 321.55C223.924 321.55 224.707 321.392 225.424 321.075C226.157 320.742 226.757 320.267 227.224 319.65L228.499 320.625C227.932 321.408 227.157 322.025 226.174 322.475C225.191 322.908 224.132 323.125 222.999 323.125ZM236.766 323.125C235.55 323.125 234.491 322.9 233.591 322.45C232.708 321.983 232.016 321.333 231.516 320.5C231.033 319.667 230.791 318.683 230.791 317.55C230.791 316.05 231.116 314.717 231.766 313.55C232.416 312.367 233.316 311.442 234.466 310.775C235.616 310.092 236.925 309.75 238.391 309.75C239.608 309.75 240.658 309.975 241.541 310.425C242.441 310.875 243.133 311.517 243.616 312.35C244.116 313.183 244.366 314.167 244.366 315.3C244.366 316.8 244.041 318.142 243.391 319.325C242.741 320.492 241.841 321.417 240.691 322.1C239.558 322.783 238.25 323.125 236.766 323.125ZM236.891 321.55C237.991 321.55 238.966 321.292 239.816 320.775C240.683 320.242 241.358 319.508 241.841 318.575C242.341 317.642 242.591 316.583 242.591 315.4C242.591 314.1 242.208 313.092 241.441 312.375C240.691 311.658 239.633 311.3 238.266 311.3C237.183 311.3 236.208 311.567 235.341 312.1C234.475 312.633 233.791 313.367 233.291 314.3C232.808 315.217 232.566 316.275 232.566 317.475C232.566 318.758 232.941 319.758 233.691 320.475C234.458 321.192 235.525 321.55 236.891 321.55ZM255.615 309.75C256.798 309.75 257.765 309.983 258.515 310.45C259.282 310.9 259.807 311.558 260.09 312.425C260.39 313.292 260.415 314.325 260.165 315.525L258.665 323H256.89L258.39 315.5C258.657 314.2 258.515 313.183 257.965 312.45C257.432 311.717 256.482 311.35 255.115 311.35C253.715 311.35 252.548 311.733 251.615 312.5C250.698 313.267 250.082 314.417 249.765 315.95L248.365 323H246.59L249.19 309.875H250.89L250.14 313.65L249.765 313C250.398 311.867 251.215 311.042 252.215 310.525C253.232 310.008 254.365 309.75 255.615 309.75ZM276.028 323.125C274.778 323.125 273.686 322.9 272.753 322.45C271.836 321.983 271.128 321.333 270.628 320.5C270.144 319.667 269.903 318.675 269.903 317.525C269.903 316.025 270.219 314.692 270.853 313.525C271.486 312.358 272.353 311.442 273.453 310.775C274.553 310.092 275.794 309.75 277.178 309.75C278.344 309.75 279.353 309.975 280.203 310.425C281.053 310.858 281.711 311.492 282.178 312.325C282.661 313.158 282.903 314.158 282.903 315.325C282.903 315.592 282.886 315.867 282.853 316.15C282.819 316.417 282.778 316.675 282.728 316.925H271.203L271.428 315.6H281.903L281.178 316.1C281.344 315.05 281.269 314.167 280.953 313.45C280.636 312.733 280.144 312.192 279.478 311.825C278.828 311.442 278.044 311.25 277.128 311.25C276.061 311.25 275.111 311.517 274.278 312.05C273.444 312.567 272.794 313.292 272.328 314.225C271.861 315.142 271.628 316.217 271.628 317.45C271.628 318.767 272.003 319.783 272.753 320.5C273.519 321.2 274.661 321.55 276.178 321.55C277.061 321.55 277.878 321.408 278.628 321.125C279.378 320.825 279.994 320.417 280.478 319.9L281.278 321.175C280.661 321.792 279.886 322.275 278.953 322.625C278.036 322.958 277.061 323.125 276.028 323.125ZM285.115 323L288.815 304.45H290.59L286.89 323H285.115ZM302.547 323.125C301.797 323.125 301.156 322.967 300.622 322.65C300.089 322.317 299.714 321.85 299.497 321.25C299.297 320.65 299.281 319.933 299.447 319.1L301.847 306.975H303.622L301.222 319.025C301.056 319.842 301.114 320.475 301.397 320.925C301.697 321.375 302.239 321.6 303.022 321.6C303.389 321.6 303.747 321.55 304.097 321.45C304.447 321.333 304.764 321.158 305.047 320.925L305.472 322.275C305.056 322.592 304.589 322.817 304.072 322.95C303.556 323.067 303.047 323.125 302.547 323.125ZM298.647 311.35L298.922 309.875H307.047L306.747 311.35H298.647ZM308.529 323L311.129 309.875H312.904L310.304 323H308.529ZM312.779 306.975C312.429 306.975 312.137 306.858 311.904 306.625C311.687 306.392 311.579 306.117 311.579 305.8C311.579 305.433 311.704 305.117 311.954 304.85C312.22 304.583 312.554 304.45 312.954 304.45C313.304 304.45 313.595 304.558 313.829 304.775C314.062 304.992 314.179 305.267 314.179 305.6C314.179 306 314.045 306.333 313.779 306.6C313.512 306.85 313.179 306.975 312.779 306.975ZM321.242 323.125C319.992 323.125 318.901 322.9 317.967 322.45C317.051 321.983 316.342 321.333 315.842 320.5C315.359 319.667 315.117 318.675 315.117 317.525C315.117 316.025 315.434 314.692 316.067 313.525C316.701 312.358 317.567 311.442 318.667 310.775C319.767 310.092 321.009 309.75 322.392 309.75C323.559 309.75 324.567 309.975 325.417 310.425C326.267 310.858 326.926 311.492 327.392 312.325C327.876 313.158 328.117 314.158 328.117 315.325C328.117 315.592 328.101 315.867 328.067 316.15C328.034 316.417 327.992 316.675 327.942 316.925H316.417L316.642 315.6H327.117L326.392 316.1C326.559 315.05 326.484 314.167 326.167 313.45C325.851 312.733 325.359 312.192 324.692 311.825C324.042 311.442 323.259 311.25 322.342 311.25C321.276 311.25 320.326 311.517 319.492 312.05C318.659 312.567 318.009 313.292 317.542 314.225C317.076 315.142 316.842 316.217 316.842 317.45C316.842 318.767 317.217 319.783 317.967 320.5C318.734 321.2 319.876 321.55 321.392 321.55C322.276 321.55 323.092 321.408 323.842 321.125C324.592 320.825 325.209 320.417 325.692 319.9L326.492 321.175C325.876 321.792 325.101 322.275 324.167 322.625C323.251 322.958 322.276 323.125 321.242 323.125ZM349.03 309.75C350.214 309.75 351.172 309.983 351.905 310.45C352.655 310.9 353.172 311.558 353.455 312.425C353.739 313.292 353.755 314.325 353.505 315.525L352.005 323H350.23L351.73 315.5C351.997 314.2 351.872 313.183 351.355 312.45C350.855 311.717 349.939 311.35 348.605 311.35C347.289 311.35 346.18 311.717 345.28 312.45C344.397 313.183 343.805 314.283 343.505 315.75L342.055 323H340.28L341.78 315.5C342.047 314.2 341.922 313.183 341.405 312.45C340.889 311.717 339.972 311.35 338.655 311.35C337.305 311.35 336.189 311.733 335.305 312.5C334.422 313.267 333.822 314.417 333.505 315.95L332.105 323H330.33L332.93 309.875H334.63L333.88 313.65L333.505 313C334.139 311.867 334.939 311.042 335.905 310.525C336.872 310.008 337.964 309.75 339.18 309.75C340.097 309.75 340.88 309.908 341.53 310.225C342.197 310.525 342.714 310.975 343.08 311.575C343.464 312.158 343.672 312.858 343.705 313.675L342.78 313.475C343.43 312.225 344.289 311.292 345.355 310.675C346.439 310.058 347.664 309.75 349.03 309.75ZM364.144 323.125C363.011 323.125 362.036 322.925 361.219 322.525C360.419 322.108 359.802 321.517 359.369 320.75C358.952 319.967 358.736 319.025 358.719 317.925C358.719 316.308 359.011 314.892 359.594 313.675C360.177 312.442 361.002 311.483 362.069 310.8C363.136 310.1 364.394 309.75 365.844 309.75C366.977 309.75 367.969 309.975 368.819 310.425C369.686 310.858 370.361 311.492 370.844 312.325C371.344 313.158 371.594 314.15 371.594 315.3C371.594 316.433 371.411 317.475 371.044 318.425C370.677 319.375 370.152 320.2 369.469 320.9C368.802 321.6 368.019 322.15 367.119 322.55C366.219 322.933 365.227 323.125 364.144 323.125ZM355.869 327.85L359.444 309.875H361.144L360.394 313.65L359.669 316.275L359.394 319.025L357.644 327.85H355.869ZM364.119 321.55C365.219 321.55 366.194 321.292 367.044 320.775C367.894 320.242 368.561 319.508 369.044 318.575C369.544 317.642 369.794 316.583 369.794 315.4C369.794 314.1 369.419 313.092 368.669 312.375C367.919 311.658 366.852 311.3 365.469 311.3C364.386 311.3 363.411 311.567 362.544 312.1C361.694 312.633 361.019 313.367 360.519 314.3C360.036 315.217 359.794 316.275 359.794 317.475C359.794 318.758 360.169 319.758 360.919 320.475C361.669 321.192 362.736 321.55 364.119 321.55ZM379.637 323.125C378.421 323.125 377.362 322.9 376.462 322.45C375.579 321.983 374.887 321.333 374.387 320.5C373.904 319.667 373.662 318.683 373.662 317.55C373.662 316.05 373.987 314.717 374.637 313.55C375.287 312.367 376.187 311.442 377.337 310.775C378.487 310.092 379.796 309.75 381.262 309.75C382.479 309.75 383.529 309.975 384.412 310.425C385.312 310.875 386.004 311.517 386.487 312.35C386.987 313.183 387.237 314.167 387.237 315.3C387.237 316.8 386.912 318.142 386.262 319.325C385.612 320.492 384.712 321.417 383.562 322.1C382.429 322.783 381.121 323.125 379.637 323.125ZM379.762 321.55C380.862 321.55 381.837 321.292 382.687 320.775C383.554 320.242 384.229 319.508 384.712 318.575C385.212 317.642 385.462 316.583 385.462 315.4C385.462 314.1 385.079 313.092 384.312 312.375C383.562 311.658 382.504 311.3 381.137 311.3C380.054 311.3 379.079 311.567 378.212 312.1C377.346 312.633 376.662 313.367 376.162 314.3C375.679 315.217 375.437 316.275 375.437 317.475C375.437 318.758 375.812 319.758 376.562 320.475C377.329 321.192 378.396 321.55 379.762 321.55ZM389.47 323.125C389.103 323.125 388.795 323 388.545 322.75C388.295 322.5 388.17 322.192 388.17 321.825C388.17 321.408 388.312 321.067 388.595 320.8C388.878 320.533 389.203 320.4 389.57 320.4C389.937 320.4 390.237 320.525 390.47 320.775C390.72 321.008 390.845 321.317 390.845 321.7C390.845 321.983 390.778 322.233 390.645 322.45C390.528 322.65 390.362 322.817 390.145 322.95C389.928 323.067 389.703 323.125 389.47 323.125Z" fill="white"/>
<path d="M266.761 372.151C234.008 372.151 207.5 398.656 207.5 431.412C207.5 432.835 208.654 433.989 210.077 433.989C211.22 433.989 255.625 433.989 256.491 433.989C257.645 438.585 261.811 442 266.761 442C271.711 442 275.876 438.585 277.03 433.989C277.89 433.989 322.269 433.989 323.445 433.989C324.868 433.989 326.022 432.835 326.022 431.412C326.022 398.659 299.517 372.151 266.761 372.151ZM269.337 377.364C281.967 377.952 293.809 382.857 303.156 391.372C298.578 395.951 298.642 395.887 294.1 400.429C287.219 394.337 278.56 390.74 269.337 390.172V377.364ZM264.184 377.364V390.172H264.184C255.107 390.731 246.438 394.225 239.422 400.429C234.886 395.893 234.947 395.954 230.365 391.372C239.712 382.857 251.554 377.952 264.184 377.364ZM212.713 428.835C213.301 416.205 218.206 404.363 226.721 395.016L235.778 404.073C229.863 410.758 226.102 419.343 225.521 428.835H212.713ZM266.761 436.847C263.764 436.847 261.326 434.409 261.326 431.412C261.326 428.415 263.764 425.977 266.761 425.977C269.714 425.977 272.196 428.422 272.196 431.412C272.196 434.409 269.758 436.847 266.761 436.847ZM275.185 425.006C274.577 424.209 273.937 423.585 273.167 422.989L279.78 418.393L275.185 425.006ZM278.799 428.835L292.18 409.579C293.813 407.23 290.939 404.362 288.594 405.993L267.236 420.835C262.109 420.608 257.691 424.063 256.49 428.835H230.687C232.017 409.93 247.726 395.247 266.761 395.247C285.865 395.247 301.512 410.03 302.835 428.835H278.799ZM308.001 428.835C307.439 419.635 303.854 410.984 297.744 404.073L306.8 395.016C315.315 404.363 320.221 416.205 320.808 428.835H308.001Z" fill="white"/>
<path d="M310.224 362.518C310.224 363.932 311.31 365.072 312.658 365.072H315.41C316.583 365.072 317.537 364.074 317.537 362.846C317.537 361.509 316.956 361.037 316.09 360.731L311.672 359.196C310.805 358.889 310.224 358.417 310.224 357.08C310.224 355.852 311.178 354.854 312.351 354.854H315.103C316.452 354.854 317.537 355.994 317.537 357.409" stroke="white" stroke-width="2" stroke-linecap="round" stroke-linejoin="round"/>
<path d="M313.873 353.385V366.541" stroke="white" stroke-width="2" stroke-linecap="round" stroke-linejoin="round"/>
<path d="M313.873 370.926C319.928 370.926 324.836 366.018 324.836 359.963C324.836 353.908 319.928 349 313.873 349C307.818 349 302.91 353.908 302.91 359.963C302.91 366.018 307.818 370.926 313.873 370.926Z" stroke="white" stroke-width="2" stroke-linecap="round" stroke-linejoin="round"/>
</svg>
