<svg width="534" height="459" viewBox="0 0 534 459" fill="none" xmlns="http://www.w3.org/2000/svg">
<path d="M31 50C14.4315 50 1 63.4315 1 80V428C1 444.569 14.4315 458 31 458H502.5C519.069 458 532.5 444.569 532.5 428V80C532.5 63.4315 519.069 50 502.5 50H31Z" fill="white" stroke="#053661" stroke-width="2"/>
<path d="M267 100C294.614 100 317 77.6142 317 50C317 22.3858 294.614 0 267 0C239.386 0 217 22.3858 217 50C217 77.6142 239.386 100 267 100Z" fill="#00498C"/>
<path d="M264.09 75V29.5L268.08 33.63H253.73V26H273.19V75H264.09Z" fill="white"/>
<path d="M158.219 166V131H173.369C176.503 131 179.203 131.517 181.469 132.55C183.736 133.55 185.486 135 186.719 136.9C187.953 138.8 188.569 141.067 188.569 143.7C188.569 146.3 187.953 148.55 186.719 150.45C185.486 152.35 183.736 153.817 181.469 154.85C179.203 155.85 176.503 156.35 173.369 156.35H162.719L166.319 152.7V166H158.219ZM166.319 153.6L162.719 149.75H172.919C175.419 149.75 177.286 149.217 178.519 148.15C179.753 147.083 180.369 145.6 180.369 143.7C180.369 141.767 179.753 140.267 178.519 139.2C177.286 138.133 175.419 137.6 172.919 137.6H162.719L166.319 133.75V153.6ZM194.29 166V128.9H202.09V166H194.29ZM220.679 166.4C218.446 166.4 216.446 165.967 214.679 165.1C212.946 164.233 211.596 162.917 210.629 161.15C209.663 159.35 209.179 157.067 209.179 154.3V139.1H216.979V153.15C216.979 155.383 217.446 157.033 218.379 158.1C219.346 159.133 220.696 159.65 222.429 159.65C223.629 159.65 224.696 159.4 225.629 158.9C226.563 158.367 227.296 157.567 227.829 156.5C228.363 155.4 228.629 154.033 228.629 152.4V139.1H236.429V166H229.029V158.6L230.379 160.75C229.479 162.617 228.146 164.033 226.379 165C224.646 165.933 222.746 166.4 220.679 166.4ZM252.706 166.4C250.406 166.4 248.189 166.133 246.056 165.6C243.956 165.033 242.289 164.333 241.056 163.5L243.656 157.9C244.889 158.667 246.339 159.3 248.006 159.8C249.706 160.267 251.372 160.5 253.006 160.5C254.806 160.5 256.072 160.283 256.806 159.85C257.572 159.417 257.956 158.817 257.956 158.05C257.956 157.417 257.656 156.95 257.056 156.65C256.489 156.317 255.722 156.067 254.756 155.9C253.789 155.733 252.722 155.567 251.556 155.4C250.422 155.233 249.272 155.017 248.106 154.75C246.939 154.45 245.872 154.017 244.906 153.45C243.939 152.883 243.156 152.117 242.556 151.15C241.989 150.183 241.706 148.933 241.706 147.4C241.706 145.7 242.189 144.2 243.156 142.9C244.156 141.6 245.589 140.583 247.456 139.85C249.322 139.083 251.556 138.7 254.156 138.7C255.989 138.7 257.856 138.9 259.756 139.3C261.656 139.7 263.239 140.283 264.506 141.05L261.906 146.6C260.606 145.833 259.289 145.317 257.956 145.05C256.656 144.75 255.389 144.6 254.156 144.6C252.422 144.6 251.156 144.833 250.356 145.3C249.556 145.767 249.156 146.367 249.156 147.1C249.156 147.767 249.439 148.267 250.006 148.6C250.606 148.933 251.389 149.2 252.356 149.4C253.322 149.6 254.372 149.783 255.506 149.95C256.672 150.083 257.839 150.3 259.006 150.6C260.172 150.9 261.222 151.333 262.156 151.9C263.122 152.433 263.906 153.183 264.506 154.15C265.106 155.083 265.406 156.317 265.406 157.85C265.406 159.517 264.906 161 263.906 162.3C262.906 163.567 261.456 164.567 259.556 165.3C257.689 166.033 255.406 166.4 252.706 166.4ZM277.03 166L265.73 139.1H273.78L283.18 162.25H279.18L288.93 139.1H296.43L285.08 166H277.03ZM315.234 166V160.75L314.734 159.6V150.2C314.734 148.533 314.217 147.233 313.184 146.3C312.184 145.367 310.634 144.9 308.534 144.9C307.1 144.9 305.684 145.133 304.284 145.6C302.917 146.033 301.75 146.633 300.784 147.4L297.984 141.95C299.45 140.917 301.217 140.117 303.284 139.55C305.35 138.983 307.45 138.7 309.584 138.7C313.684 138.7 316.867 139.667 319.134 141.6C321.4 143.533 322.534 146.55 322.534 150.65V166H315.234ZM307.034 166.4C304.934 166.4 303.134 166.05 301.634 165.35C300.134 164.617 298.984 163.633 298.184 162.4C297.384 161.167 296.984 159.783 296.984 158.25C296.984 156.65 297.367 155.25 298.134 154.05C298.934 152.85 300.184 151.917 301.884 151.25C303.584 150.55 305.8 150.2 308.534 150.2H315.684V154.75H309.384C307.55 154.75 306.284 155.05 305.584 155.65C304.917 156.25 304.584 157 304.584 157.9C304.584 158.9 304.967 159.7 305.734 160.3C306.534 160.867 307.617 161.15 308.984 161.15C310.284 161.15 311.45 160.85 312.484 160.25C313.517 159.617 314.267 158.7 314.734 157.5L315.934 161.1C315.367 162.833 314.334 164.15 312.834 165.05C311.334 165.95 309.4 166.4 307.034 166.4ZM329.593 166V128.9H337.393V166H329.593ZM344.632 166V139.1H352.432V166H344.632ZM343.982 135.65L350.732 128.45H359.132L350.082 135.65H343.982ZM376.171 166V160.75L375.671 159.6V150.2C375.671 148.533 375.155 147.233 374.121 146.3C373.121 145.367 371.571 144.9 369.471 144.9C368.038 144.9 366.621 145.133 365.221 145.6C363.855 146.033 362.688 146.633 361.721 147.4L358.921 141.95C360.388 140.917 362.155 140.117 364.221 139.55C366.288 138.983 368.388 138.7 370.521 138.7C374.621 138.7 377.805 139.667 380.071 141.6C382.338 143.533 383.471 146.55 383.471 150.65V166H376.171ZM367.971 166.4C365.871 166.4 364.071 166.05 362.571 165.35C361.071 164.617 359.921 163.633 359.121 162.4C358.321 161.167 357.921 159.783 357.921 158.25C357.921 156.65 358.305 155.25 359.071 154.05C359.871 152.85 361.121 151.917 362.821 151.25C364.521 150.55 366.738 150.2 369.471 150.2H376.621V154.75H370.321C368.488 154.75 367.221 155.05 366.521 155.65C365.855 156.25 365.521 157 365.521 157.9C365.521 158.9 365.905 159.7 366.671 160.3C367.471 160.867 368.555 161.15 369.921 161.15C371.221 161.15 372.388 160.85 373.421 160.25C374.455 159.617 375.205 158.7 375.671 157.5L376.871 161.1C376.305 162.833 375.271 164.15 373.771 165.05C372.271 165.95 370.338 166.4 367.971 166.4Z" fill="#00498C"/>
<path d="M157.45 203L160.95 185.5H162.775L159.6 201.4H169.4L169.075 203H157.45ZM177.202 203.125C176.085 203.125 175.093 202.9 174.227 202.45C173.36 202 172.685 201.358 172.202 200.525C171.718 199.692 171.477 198.7 171.477 197.55C171.477 196.433 171.66 195.4 172.027 194.45C172.393 193.5 172.91 192.675 173.577 191.975C174.243 191.258 175.027 190.708 175.927 190.325C176.843 189.942 177.835 189.75 178.902 189.75C180.052 189.75 181.027 189.958 181.827 190.375C182.627 190.775 183.243 191.367 183.677 192.15C184.11 192.917 184.327 193.85 184.327 194.95C184.327 196.533 184.035 197.942 183.452 199.175C182.868 200.408 182.043 201.375 180.977 202.075C179.91 202.775 178.652 203.125 177.202 203.125ZM177.577 201.55C178.677 201.55 179.652 201.292 180.502 200.775C181.368 200.242 182.043 199.508 182.527 198.575C183.027 197.642 183.277 196.583 183.277 195.4C183.277 194.1 182.893 193.092 182.127 192.375C181.377 191.658 180.318 191.3 178.952 191.3C177.868 191.3 176.893 191.567 176.027 192.1C175.16 192.633 174.477 193.367 173.977 194.3C173.493 195.217 173.252 196.275 173.252 197.475C173.252 198.758 173.627 199.758 174.377 200.475C175.143 201.192 176.21 201.55 177.577 201.55ZM181.902 203L182.652 199.225L183.402 196.575L183.652 193.825L184.452 189.875H186.227L183.602 203H181.902ZM192.37 203.125C191.303 203.125 190.295 202.975 189.345 202.675C188.395 202.375 187.662 201.992 187.145 201.525L187.995 200.125C188.495 200.575 189.153 200.933 189.97 201.2C190.787 201.45 191.645 201.575 192.545 201.575C193.795 201.575 194.753 201.367 195.42 200.95C196.103 200.533 196.445 199.958 196.445 199.225C196.445 198.725 196.262 198.35 195.895 198.1C195.545 197.833 195.087 197.633 194.52 197.5C193.953 197.35 193.353 197.208 192.72 197.075C192.087 196.942 191.487 196.775 190.92 196.575C190.353 196.358 189.887 196.033 189.52 195.6C189.17 195.167 188.995 194.583 188.995 193.85C188.995 193.017 189.228 192.292 189.695 191.675C190.178 191.058 190.845 190.583 191.695 190.25C192.545 189.917 193.545 189.75 194.695 189.75C195.528 189.75 196.353 189.858 197.17 190.075C197.987 190.292 198.645 190.592 199.145 190.975L198.395 192.4C197.878 192 197.278 191.717 196.595 191.55C195.912 191.367 195.228 191.275 194.545 191.275C193.328 191.275 192.387 191.5 191.72 191.95C191.07 192.383 190.745 192.958 190.745 193.675C190.745 194.175 190.92 194.558 191.27 194.825C191.637 195.092 192.103 195.3 192.67 195.45C193.237 195.6 193.837 195.742 194.47 195.875C195.12 195.992 195.72 196.158 196.27 196.375C196.837 196.592 197.295 196.908 197.645 197.325C198.012 197.725 198.195 198.292 198.195 199.025C198.195 199.892 197.953 200.633 197.47 201.25C196.987 201.85 196.303 202.317 195.42 202.65C194.553 202.967 193.537 203.125 192.37 203.125ZM207.295 203L209.895 189.875H211.67L209.07 203H207.295ZM211.545 186.975C211.195 186.975 210.903 186.858 210.67 186.625C210.453 186.392 210.345 186.117 210.345 185.8C210.345 185.433 210.47 185.117 210.72 184.85C210.987 184.583 211.32 184.45 211.72 184.45C212.07 184.45 212.362 184.558 212.595 184.775C212.828 184.992 212.945 185.267 212.945 185.6C212.945 186 212.812 186.333 212.545 186.6C212.278 186.85 211.945 186.975 211.545 186.975ZM223.034 189.75C224.217 189.75 225.184 189.983 225.934 190.45C226.701 190.9 227.226 191.558 227.509 192.425C227.809 193.292 227.834 194.325 227.584 195.525L226.084 203H224.309L225.809 195.5C226.076 194.2 225.934 193.183 225.384 192.45C224.851 191.717 223.901 191.35 222.534 191.35C221.134 191.35 219.967 191.733 219.034 192.5C218.117 193.267 217.501 194.417 217.184 195.95L215.784 203H214.009L216.609 189.875H218.309L217.559 193.65L217.184 193C217.817 191.867 218.634 191.042 219.634 190.525C220.651 190.008 221.784 189.75 223.034 189.75ZM234.059 203L230.809 189.875H232.584L235.534 202.05H234.684L242.484 189.875H244.334L235.859 203H234.059ZM249.843 203.125C248.593 203.125 247.501 202.9 246.568 202.45C245.651 201.983 244.943 201.333 244.443 200.5C243.96 199.667 243.718 198.675 243.718 197.525C243.718 196.025 244.035 194.692 244.668 193.525C245.301 192.358 246.168 191.442 247.268 190.775C248.368 190.092 249.61 189.75 250.993 189.75C252.16 189.75 253.168 189.975 254.018 190.425C254.868 190.858 255.526 191.492 255.993 192.325C256.476 193.158 256.718 194.158 256.718 195.325C256.718 195.592 256.701 195.867 256.668 196.15C256.635 196.417 256.593 196.675 256.543 196.925H245.018L245.243 195.6H255.718L254.993 196.1C255.16 195.05 255.085 194.167 254.768 193.45C254.451 192.733 253.96 192.192 253.293 191.825C252.643 191.442 251.86 191.25 250.943 191.25C249.876 191.25 248.926 191.517 248.093 192.05C247.26 192.567 246.61 193.292 246.143 194.225C245.676 195.142 245.443 196.217 245.443 197.45C245.443 198.767 245.818 199.783 246.568 200.5C247.335 201.2 248.476 201.55 249.993 201.55C250.876 201.55 251.693 201.408 252.443 201.125C253.193 200.825 253.81 200.417 254.293 199.9L255.093 201.175C254.476 201.792 253.701 202.275 252.768 202.625C251.851 202.958 250.876 203.125 249.843 203.125ZM258.931 203L261.531 189.875H263.231L262.481 193.75L262.281 193.075C262.864 191.925 263.631 191.083 264.581 190.55C265.548 190.017 266.748 189.75 268.181 189.75L267.856 191.475C267.773 191.475 267.689 191.475 267.606 191.475C267.539 191.458 267.456 191.45 267.356 191.45C265.956 191.45 264.798 191.858 263.881 192.675C262.981 193.475 262.364 194.692 262.031 196.325L260.706 203H258.931ZM272.741 203.125C271.675 203.125 270.666 202.975 269.716 202.675C268.766 202.375 268.033 201.992 267.516 201.525L268.366 200.125C268.866 200.575 269.525 200.933 270.341 201.2C271.158 201.45 272.016 201.575 272.916 201.575C274.166 201.575 275.125 201.367 275.791 200.95C276.475 200.533 276.816 199.958 276.816 199.225C276.816 198.725 276.633 198.35 276.266 198.1C275.916 197.833 275.458 197.633 274.891 197.5C274.325 197.35 273.725 197.208 273.091 197.075C272.458 196.942 271.858 196.775 271.291 196.575C270.725 196.358 270.258 196.033 269.891 195.6C269.541 195.167 269.366 194.583 269.366 193.85C269.366 193.017 269.6 192.292 270.066 191.675C270.55 191.058 271.216 190.583 272.066 190.25C272.916 189.917 273.916 189.75 275.066 189.75C275.9 189.75 276.725 189.858 277.541 190.075C278.358 190.292 279.016 190.592 279.516 190.975L278.766 192.4C278.25 192 277.65 191.717 276.966 191.55C276.283 191.367 275.6 191.275 274.916 191.275C273.7 191.275 272.758 191.5 272.091 191.95C271.441 192.383 271.116 192.958 271.116 193.675C271.116 194.175 271.291 194.558 271.641 194.825C272.008 195.092 272.475 195.3 273.041 195.45C273.608 195.6 274.208 195.742 274.841 195.875C275.491 195.992 276.091 196.158 276.641 196.375C277.208 196.592 277.666 196.908 278.016 197.325C278.383 197.725 278.566 198.292 278.566 199.025C278.566 199.892 278.325 200.633 277.841 201.25C277.358 201.85 276.675 202.317 275.791 202.65C274.925 202.967 273.908 203.125 272.741 203.125ZM281.123 203L283.723 189.875H285.498L282.898 203H281.123ZM285.373 186.975C285.023 186.975 284.732 186.858 284.498 186.625C284.282 186.392 284.173 186.117 284.173 185.8C284.173 185.433 284.298 185.117 284.548 184.85C284.815 184.583 285.148 184.45 285.548 184.45C285.898 184.45 286.19 184.558 286.423 184.775C286.657 184.992 286.773 185.267 286.773 185.6C286.773 186 286.64 186.333 286.373 186.6C286.107 186.85 285.773 186.975 285.373 186.975ZM293.687 203.125C292.47 203.125 291.412 202.9 290.512 202.45C289.629 201.983 288.937 201.333 288.437 200.5C287.954 199.667 287.712 198.683 287.712 197.55C287.712 196.05 288.037 194.717 288.687 193.55C289.337 192.367 290.237 191.442 291.387 190.775C292.537 190.092 293.845 189.75 295.312 189.75C296.529 189.75 297.579 189.975 298.462 190.425C299.362 190.875 300.054 191.517 300.537 192.35C301.037 193.183 301.287 194.167 301.287 195.3C301.287 196.8 300.962 198.142 300.312 199.325C299.662 200.492 298.762 201.417 297.612 202.1C296.479 202.783 295.17 203.125 293.687 203.125ZM293.812 201.55C294.912 201.55 295.887 201.292 296.737 200.775C297.604 200.242 298.279 199.508 298.762 198.575C299.262 197.642 299.512 196.583 299.512 195.4C299.512 194.1 299.129 193.092 298.362 192.375C297.612 191.658 296.554 191.3 295.187 191.3C294.104 191.3 293.129 191.567 292.262 192.1C291.395 192.633 290.712 193.367 290.212 194.3C289.729 195.217 289.487 196.275 289.487 197.475C289.487 198.758 289.862 199.758 290.612 200.475C291.379 201.192 292.445 201.55 293.812 201.55ZM312.536 189.75C313.719 189.75 314.686 189.983 315.436 190.45C316.203 190.9 316.728 191.558 317.011 192.425C317.311 193.292 317.336 194.325 317.086 195.525L315.586 203H313.811L315.311 195.5C315.578 194.2 315.436 193.183 314.886 192.45C314.353 191.717 313.403 191.35 312.036 191.35C310.636 191.35 309.469 191.733 308.536 192.5C307.619 193.267 307.003 194.417 306.686 195.95L305.286 203H303.511L306.111 189.875H307.811L307.061 193.65L306.686 193C307.319 191.867 308.136 191.042 309.136 190.525C310.153 190.008 311.286 189.75 312.536 189.75ZM326.405 203.125C325.155 203.125 324.064 202.9 323.13 202.45C322.214 201.983 321.505 201.333 321.005 200.5C320.522 199.667 320.28 198.675 320.28 197.525C320.28 196.025 320.597 194.692 321.23 193.525C321.864 192.358 322.73 191.442 323.83 190.775C324.93 190.092 326.172 189.75 327.555 189.75C328.722 189.75 329.73 189.975 330.58 190.425C331.43 190.858 332.089 191.492 332.555 192.325C333.039 193.158 333.28 194.158 333.28 195.325C333.28 195.592 333.264 195.867 333.23 196.15C333.197 196.417 333.155 196.675 333.105 196.925H321.58L321.805 195.6H332.28L331.555 196.1C331.722 195.05 331.647 194.167 331.33 193.45C331.014 192.733 330.522 192.192 329.855 191.825C329.205 191.442 328.422 191.25 327.505 191.25C326.439 191.25 325.489 191.517 324.655 192.05C323.822 192.567 323.172 193.292 322.705 194.225C322.239 195.142 322.005 196.217 322.005 197.45C322.005 198.767 322.38 199.783 323.13 200.5C323.897 201.2 325.039 201.55 326.555 201.55C327.439 201.55 328.255 201.408 329.005 201.125C329.755 200.825 330.372 200.417 330.855 199.9L331.655 201.175C331.039 201.792 330.264 202.275 329.33 202.625C328.414 202.958 327.439 203.125 326.405 203.125ZM339.318 203.125C338.252 203.125 337.243 202.975 336.293 202.675C335.343 202.375 334.61 201.992 334.093 201.525L334.943 200.125C335.443 200.575 336.102 200.933 336.918 201.2C337.735 201.45 338.593 201.575 339.493 201.575C340.743 201.575 341.702 201.367 342.368 200.95C343.052 200.533 343.393 199.958 343.393 199.225C343.393 198.725 343.21 198.35 342.843 198.1C342.493 197.833 342.035 197.633 341.468 197.5C340.902 197.35 340.302 197.208 339.668 197.075C339.035 196.942 338.435 196.775 337.868 196.575C337.302 196.358 336.835 196.033 336.468 195.6C336.118 195.167 335.943 194.583 335.943 193.85C335.943 193.017 336.177 192.292 336.643 191.675C337.127 191.058 337.793 190.583 338.643 190.25C339.493 189.917 340.493 189.75 341.643 189.75C342.477 189.75 343.302 189.858 344.118 190.075C344.935 190.292 345.593 190.592 346.093 190.975L345.343 192.4C344.827 192 344.227 191.717 343.543 191.55C342.86 191.367 342.177 191.275 341.493 191.275C340.277 191.275 339.335 191.5 338.668 191.95C338.018 192.383 337.693 192.958 337.693 193.675C337.693 194.175 337.868 194.558 338.218 194.825C338.585 195.092 339.052 195.3 339.618 195.45C340.185 195.6 340.785 195.742 341.418 195.875C342.068 195.992 342.668 196.158 343.218 196.375C343.785 196.592 344.243 196.908 344.593 197.325C344.96 197.725 345.143 198.292 345.143 199.025C345.143 199.892 344.902 200.633 344.418 201.25C343.935 201.85 343.252 202.317 342.368 202.65C341.502 202.967 340.485 203.125 339.318 203.125ZM359.843 203.125C358.727 203.125 357.735 202.9 356.868 202.45C356.002 202 355.327 201.358 354.843 200.525C354.36 199.692 354.118 198.7 354.118 197.55C354.118 196.433 354.302 195.4 354.668 194.45C355.035 193.5 355.552 192.675 356.218 191.975C356.885 191.258 357.668 190.708 358.568 190.325C359.485 189.942 360.477 189.75 361.543 189.75C362.693 189.75 363.668 189.958 364.468 190.375C365.268 190.775 365.885 191.367 366.318 192.15C366.752 192.917 366.968 193.85 366.968 194.95C366.968 196.133 366.802 197.225 366.468 198.225C366.152 199.225 365.677 200.092 365.043 200.825C364.41 201.558 363.652 202.125 362.768 202.525C361.902 202.925 360.927 203.125 359.843 203.125ZM360.218 201.55C361.318 201.55 362.293 201.292 363.143 200.775C364.01 200.242 364.685 199.508 365.168 198.575C365.668 197.642 365.918 196.583 365.918 195.4C365.918 194.1 365.535 193.092 364.768 192.375C364.018 191.658 362.96 191.3 361.593 191.3C360.51 191.3 359.535 191.567 358.668 192.1C357.802 192.633 357.118 193.367 356.618 194.3C356.135 195.217 355.893 196.275 355.893 197.475C355.893 198.758 356.268 199.758 357.018 200.475C357.785 201.192 358.852 201.55 360.218 201.55ZM364.543 203L365.293 199.225L366.043 196.575L366.293 193.825L368.168 184.45H369.943L366.243 203H364.543ZM377.187 203.125C375.937 203.125 374.845 202.9 373.912 202.45C372.995 201.983 372.287 201.333 371.787 200.5C371.303 199.667 371.062 198.675 371.062 197.525C371.062 196.025 371.378 194.692 372.012 193.525C372.645 192.358 373.512 191.442 374.612 190.775C375.712 190.092 376.953 189.75 378.337 189.75C379.503 189.75 380.512 189.975 381.362 190.425C382.212 190.858 382.87 191.492 383.337 192.325C383.82 193.158 384.062 194.158 384.062 195.325C384.062 195.592 384.045 195.867 384.012 196.15C383.978 196.417 383.937 196.675 383.887 196.925H372.362L372.587 195.6H383.062L382.337 196.1C382.503 195.05 382.428 194.167 382.112 193.45C381.795 192.733 381.303 192.192 380.637 191.825C379.987 191.442 379.203 191.25 378.287 191.25C377.22 191.25 376.27 191.517 375.437 192.05C374.603 192.567 373.953 193.292 373.487 194.225C373.02 195.142 372.787 196.217 372.787 197.45C372.787 198.767 373.162 199.783 373.912 200.5C374.678 201.2 375.82 201.55 377.337 201.55C378.22 201.55 379.037 201.408 379.787 201.125C380.537 200.825 381.153 200.417 381.637 199.9L382.437 201.175C381.82 201.792 381.045 202.275 380.112 202.625C379.195 202.958 378.22 203.125 377.187 203.125ZM157.173 233.125C156.423 233.125 155.782 232.967 155.248 232.65C154.715 232.317 154.34 231.85 154.123 231.25C153.923 230.65 153.907 229.933 154.073 229.1L156.473 216.975H158.248L155.848 229.025C155.682 229.842 155.74 230.475 156.023 230.925C156.323 231.375 156.865 231.6 157.648 231.6C158.015 231.6 158.373 231.55 158.723 231.45C159.073 231.333 159.39 231.158 159.673 230.925L160.098 232.275C159.682 232.592 159.215 232.817 158.698 232.95C158.182 233.067 157.673 233.125 157.173 233.125ZM153.273 221.35L153.548 219.875H161.673L161.373 221.35H153.273ZM168.691 233.125C167.441 233.125 166.349 232.9 165.416 232.45C164.499 231.983 163.791 231.333 163.291 230.5C162.807 229.667 162.566 228.675 162.566 227.525C162.566 226.025 162.882 224.692 163.516 223.525C164.149 222.358 165.016 221.442 166.116 220.775C167.216 220.092 168.457 219.75 169.841 219.75C171.007 219.75 172.016 219.975 172.866 220.425C173.716 220.858 174.374 221.492 174.841 222.325C175.324 223.158 175.566 224.158 175.566 225.325C175.566 225.592 175.549 225.867 175.516 226.15C175.482 226.417 175.441 226.675 175.391 226.925H163.866L164.091 225.6H174.566L173.841 226.1C174.007 225.05 173.932 224.167 173.616 223.45C173.299 222.733 172.807 222.192 172.141 221.825C171.491 221.442 170.707 221.25 169.791 221.25C168.724 221.25 167.774 221.517 166.941 222.05C166.107 222.567 165.457 223.292 164.991 224.225C164.524 225.142 164.291 226.217 164.291 227.45C164.291 228.767 164.666 229.783 165.416 230.5C166.182 231.2 167.324 231.55 168.841 231.55C169.724 231.55 170.541 231.408 171.291 231.125C172.041 230.825 172.657 230.417 173.141 229.9L173.941 231.175C173.324 231.792 172.549 232.275 171.616 232.625C170.699 232.958 169.724 233.125 168.691 233.125ZM177.779 233L180.379 219.875H182.079L181.329 223.75L181.129 223.075C181.712 221.925 182.479 221.083 183.429 220.55C184.395 220.017 185.595 219.75 187.029 219.75L186.704 221.475C186.62 221.475 186.537 221.475 186.454 221.475C186.387 221.458 186.304 221.45 186.204 221.45C184.804 221.45 183.645 221.858 182.729 222.675C181.829 223.475 181.212 224.692 180.879 226.325L179.554 233H177.779ZM187.569 233L190.169 219.875H191.869L191.119 223.75L190.919 223.075C191.502 221.925 192.269 221.083 193.219 220.55C194.185 220.017 195.385 219.75 196.819 219.75L196.494 221.475C196.41 221.475 196.327 221.475 196.244 221.475C196.177 221.458 196.094 221.45 195.994 221.45C194.594 221.45 193.435 221.858 192.519 222.675C191.619 223.475 191.002 224.692 190.669 226.325L189.344 233H187.569ZM203.285 233.125C202.035 233.125 200.944 232.9 200.01 232.45C199.094 231.983 198.385 231.333 197.885 230.5C197.402 229.667 197.16 228.675 197.16 227.525C197.16 226.025 197.477 224.692 198.11 223.525C198.744 222.358 199.61 221.442 200.71 220.775C201.81 220.092 203.052 219.75 204.435 219.75C205.602 219.75 206.61 219.975 207.46 220.425C208.31 220.858 208.969 221.492 209.435 222.325C209.919 223.158 210.16 224.158 210.16 225.325C210.16 225.592 210.144 225.867 210.11 226.15C210.077 226.417 210.035 226.675 209.985 226.925H198.46L198.685 225.6H209.16L208.435 226.1C208.602 225.05 208.527 224.167 208.21 223.45C207.894 222.733 207.402 222.192 206.735 221.825C206.085 221.442 205.302 221.25 204.385 221.25C203.319 221.25 202.369 221.517 201.535 222.05C200.702 222.567 200.052 223.292 199.585 224.225C199.119 225.142 198.885 226.217 198.885 227.45C198.885 228.767 199.26 229.783 200.01 230.5C200.777 231.2 201.919 231.55 203.435 231.55C204.319 231.55 205.135 231.408 205.885 231.125C206.635 230.825 207.252 230.417 207.735 229.9L208.535 231.175C207.919 231.792 207.144 232.275 206.21 232.625C205.294 232.958 204.319 233.125 203.285 233.125ZM221.398 219.75C222.582 219.75 223.548 219.983 224.298 220.45C225.065 220.9 225.59 221.558 225.873 222.425C226.173 223.292 226.198 224.325 225.948 225.525L224.448 233H222.673L224.173 225.5C224.44 224.2 224.298 223.183 223.748 222.45C223.215 221.717 222.265 221.35 220.898 221.35C219.498 221.35 218.332 221.733 217.398 222.5C216.482 223.267 215.865 224.417 215.548 225.95L214.148 233H212.373L214.973 219.875H216.673L215.923 223.65L215.548 223C216.182 221.867 216.998 221.042 217.998 220.525C219.015 220.008 220.148 219.75 221.398 219.75ZM235.118 233.125C233.901 233.125 232.843 232.9 231.943 232.45C231.059 231.983 230.368 231.333 229.868 230.5C229.384 229.667 229.143 228.683 229.143 227.55C229.143 226.05 229.468 224.717 230.118 223.55C230.768 222.367 231.668 221.442 232.818 220.775C233.968 220.092 235.276 219.75 236.743 219.75C237.959 219.75 239.009 219.975 239.893 220.425C240.793 220.875 241.484 221.517 241.968 222.35C242.468 223.183 242.718 224.167 242.718 225.3C242.718 226.8 242.393 228.142 241.743 229.325C241.093 230.492 240.193 231.417 239.043 232.1C237.909 232.783 236.601 233.125 235.118 233.125ZM235.243 231.55C236.343 231.55 237.318 231.292 238.168 230.775C239.034 230.242 239.709 229.508 240.193 228.575C240.693 227.642 240.943 226.583 240.943 225.4C240.943 224.1 240.559 223.092 239.793 222.375C239.043 221.658 237.984 221.3 236.618 221.3C235.534 221.3 234.559 221.567 233.693 222.1C232.826 222.633 232.143 223.367 231.643 224.3C231.159 225.217 230.918 226.275 230.918 227.475C230.918 228.758 231.293 229.758 232.043 230.475C232.809 231.192 233.876 231.55 235.243 231.55ZM248.767 233.125C247.7 233.125 246.692 232.975 245.742 232.675C244.792 232.375 244.058 231.992 243.542 231.525L244.392 230.125C244.892 230.575 245.55 230.933 246.367 231.2C247.183 231.45 248.042 231.575 248.942 231.575C250.192 231.575 251.15 231.367 251.817 230.95C252.5 230.533 252.842 229.958 252.842 229.225C252.842 228.725 252.658 228.35 252.292 228.1C251.942 227.833 251.483 227.633 250.917 227.5C250.35 227.35 249.75 227.208 249.117 227.075C248.483 226.942 247.883 226.775 247.317 226.575C246.75 226.358 246.283 226.033 245.917 225.6C245.567 225.167 245.392 224.583 245.392 223.85C245.392 223.017 245.625 222.292 246.092 221.675C246.575 221.058 247.242 220.583 248.092 220.25C248.942 219.917 249.942 219.75 251.092 219.75C251.925 219.75 252.75 219.858 253.567 220.075C254.383 220.292 255.042 220.592 255.542 220.975L254.792 222.4C254.275 222 253.675 221.717 252.992 221.55C252.308 221.367 251.625 221.275 250.942 221.275C249.725 221.275 248.783 221.5 248.117 221.95C247.467 222.383 247.142 222.958 247.142 223.675C247.142 224.175 247.317 224.558 247.667 224.825C248.033 225.092 248.5 225.3 249.067 225.45C249.633 225.6 250.233 225.742 250.867 225.875C251.517 225.992 252.117 226.158 252.667 226.375C253.233 226.592 253.692 226.908 254.042 227.325C254.408 227.725 254.592 228.292 254.592 229.025C254.592 229.892 254.35 230.633 253.867 231.25C253.383 231.85 252.7 232.317 251.817 232.65C250.95 232.967 249.933 233.125 248.767 233.125ZM267.517 233.125C266.45 233.125 265.442 232.975 264.492 232.675C263.542 232.375 262.808 231.992 262.292 231.525L263.142 230.125C263.642 230.575 264.3 230.933 265.117 231.2C265.933 231.45 266.792 231.575 267.692 231.575C268.942 231.575 269.9 231.367 270.567 230.95C271.25 230.533 271.592 229.958 271.592 229.225C271.592 228.725 271.408 228.35 271.042 228.1C270.692 227.833 270.233 227.633 269.667 227.5C269.1 227.35 268.5 227.208 267.867 227.075C267.233 226.942 266.633 226.775 266.067 226.575C265.5 226.358 265.033 226.033 264.667 225.6C264.317 225.167 264.142 224.583 264.142 223.85C264.142 223.017 264.375 222.292 264.842 221.675C265.325 221.058 265.992 220.583 266.842 220.25C267.692 219.917 268.692 219.75 269.842 219.75C270.675 219.75 271.5 219.858 272.317 220.075C273.133 220.292 273.792 220.592 274.292 220.975L273.542 222.4C273.025 222 272.425 221.717 271.742 221.55C271.058 221.367 270.375 221.275 269.692 221.275C268.475 221.275 267.533 221.5 266.867 221.95C266.217 222.383 265.892 222.958 265.892 223.675C265.892 224.175 266.067 224.558 266.417 224.825C266.783 225.092 267.25 225.3 267.817 225.45C268.383 225.6 268.983 225.742 269.617 225.875C270.267 225.992 270.867 226.158 271.417 226.375C271.983 226.592 272.442 226.908 272.792 227.325C273.158 227.725 273.342 228.292 273.342 229.025C273.342 229.892 273.1 230.633 272.617 231.25C272.133 231.85 271.45 232.317 270.567 232.65C269.7 232.967 268.683 233.125 267.517 233.125ZM281.399 233.125C280.249 233.125 279.29 232.892 278.524 232.425C277.774 231.958 277.257 231.292 276.974 230.425C276.69 229.558 276.657 228.533 276.874 227.35L278.374 219.875H280.149L278.649 227.35C278.399 228.65 278.54 229.675 279.074 230.425C279.607 231.158 280.54 231.525 281.874 231.525C283.257 231.525 284.407 231.142 285.324 230.375C286.257 229.608 286.882 228.458 287.199 226.925L288.599 219.875H290.374L287.749 233H286.049L286.799 229.225L287.174 229.85C286.557 230.983 285.74 231.817 284.724 232.35C283.724 232.867 282.615 233.125 281.399 233.125ZM298.696 233.125C297.446 233.125 296.354 232.9 295.421 232.45C294.504 231.983 293.796 231.333 293.296 230.5C292.812 229.667 292.571 228.675 292.571 227.525C292.571 226.025 292.887 224.692 293.521 223.525C294.154 222.358 295.021 221.442 296.121 220.775C297.221 220.092 298.462 219.75 299.846 219.75C301.012 219.75 302.021 219.975 302.871 220.425C303.721 220.858 304.379 221.492 304.846 222.325C305.329 223.158 305.571 224.158 305.571 225.325C305.571 225.592 305.554 225.867 305.521 226.15C305.487 226.417 305.446 226.675 305.396 226.925H293.871L294.096 225.6H304.571L303.846 226.1C304.012 225.05 303.937 224.167 303.621 223.45C303.304 222.733 302.812 222.192 302.146 221.825C301.496 221.442 300.712 221.25 299.796 221.25C298.729 221.25 297.779 221.517 296.946 222.05C296.112 222.567 295.462 223.292 294.996 224.225C294.529 225.142 294.296 226.217 294.296 227.45C294.296 228.767 294.671 229.783 295.421 230.5C296.187 231.2 297.329 231.55 298.846 231.55C299.729 231.55 300.546 231.408 301.296 231.125C302.046 230.825 302.662 230.417 303.146 229.9L303.946 231.175C303.329 231.792 302.554 232.275 301.621 232.625C300.704 232.958 299.729 233.125 298.696 233.125ZM307.783 233L311.483 214.45H313.258L309.558 233H307.783ZM320.497 233.125C319.247 233.125 318.156 232.9 317.222 232.45C316.306 231.983 315.597 231.333 315.097 230.5C314.614 229.667 314.372 228.675 314.372 227.525C314.372 226.025 314.689 224.692 315.322 223.525C315.956 222.358 316.822 221.442 317.922 220.775C319.022 220.092 320.264 219.75 321.647 219.75C322.814 219.75 323.822 219.975 324.672 220.425C325.522 220.858 326.181 221.492 326.647 222.325C327.131 223.158 327.372 224.158 327.372 225.325C327.372 225.592 327.356 225.867 327.322 226.15C327.289 226.417 327.247 226.675 327.197 226.925H315.672L315.897 225.6H326.372L325.647 226.1C325.814 225.05 325.739 224.167 325.422 223.45C325.106 222.733 324.614 222.192 323.947 221.825C323.297 221.442 322.514 221.25 321.597 221.25C320.531 221.25 319.581 221.517 318.747 222.05C317.914 222.567 317.264 223.292 316.797 224.225C316.331 225.142 316.097 226.217 316.097 227.45C316.097 228.767 316.472 229.783 317.222 230.5C317.989 231.2 319.131 231.55 320.647 231.55C321.531 231.55 322.347 231.408 323.097 231.125C323.847 230.825 324.464 230.417 324.947 229.9L325.747 231.175C325.131 231.792 324.356 232.275 323.422 232.625C322.506 232.958 321.531 233.125 320.497 233.125ZM338.61 219.75C339.793 219.75 340.76 219.983 341.51 220.45C342.277 220.9 342.802 221.558 343.085 222.425C343.385 223.292 343.41 224.325 343.16 225.525L341.66 233H339.885L341.385 225.5C341.652 224.2 341.51 223.183 340.96 222.45C340.427 221.717 339.477 221.35 338.11 221.35C336.71 221.35 335.543 221.733 334.61 222.5C333.693 223.267 333.077 224.417 332.76 225.95L331.36 233H329.585L332.185 219.875H333.885L333.135 223.65L332.76 223C333.393 221.867 334.21 221.042 335.21 220.525C336.227 220.008 337.36 219.75 338.61 219.75ZM356.848 233.125C355.781 233.125 354.773 232.975 353.823 232.675C352.873 232.375 352.139 231.992 351.623 231.525L352.473 230.125C352.973 230.575 353.631 230.933 354.448 231.2C355.264 231.45 356.123 231.575 357.023 231.575C358.273 231.575 359.231 231.367 359.898 230.95C360.581 230.533 360.923 229.958 360.923 229.225C360.923 228.725 360.739 228.35 360.373 228.1C360.023 227.833 359.564 227.633 358.998 227.5C358.431 227.35 357.831 227.208 357.198 227.075C356.564 226.942 355.964 226.775 355.398 226.575C354.831 226.358 354.364 226.033 353.998 225.6C353.648 225.167 353.473 224.583 353.473 223.85C353.473 223.017 353.706 222.292 354.173 221.675C354.656 221.058 355.323 220.583 356.173 220.25C357.023 219.917 358.023 219.75 359.173 219.75C360.006 219.75 360.831 219.858 361.648 220.075C362.464 220.292 363.123 220.592 363.623 220.975L362.873 222.4C362.356 222 361.756 221.717 361.073 221.55C360.389 221.367 359.706 221.275 359.023 221.275C357.806 221.275 356.864 221.5 356.198 221.95C355.548 222.383 355.223 222.958 355.223 223.675C355.223 224.175 355.398 224.558 355.748 224.825C356.114 225.092 356.581 225.3 357.148 225.45C357.714 225.6 358.314 225.742 358.948 225.875C359.598 225.992 360.198 226.158 360.748 226.375C361.314 226.592 361.773 226.908 362.123 227.325C362.489 227.725 362.673 228.292 362.673 229.025C362.673 229.892 362.431 230.633 361.948 231.25C361.464 231.85 360.781 232.317 359.898 232.65C359.031 232.967 358.014 233.125 356.848 233.125ZM371.23 233.125C369.98 233.125 368.888 232.9 367.955 232.45C367.038 231.983 366.33 231.333 365.83 230.5C365.346 229.667 365.105 228.675 365.105 227.525C365.105 226.025 365.421 224.692 366.055 223.525C366.688 222.358 367.555 221.442 368.655 220.775C369.755 220.092 370.996 219.75 372.38 219.75C373.546 219.75 374.555 219.975 375.405 220.425C376.255 220.858 376.913 221.492 377.38 222.325C377.863 223.158 378.105 224.158 378.105 225.325C378.105 225.592 378.088 225.867 378.055 226.15C378.021 226.417 377.98 226.675 377.93 226.925H366.405L366.63 225.6H377.105L376.38 226.1C376.546 225.05 376.471 224.167 376.155 223.45C375.838 222.733 375.346 222.192 374.68 221.825C374.03 221.442 373.246 221.25 372.33 221.25C371.263 221.25 370.313 221.517 369.48 222.05C368.646 222.567 367.996 223.292 367.53 224.225C367.063 225.142 366.83 226.217 366.83 227.45C366.83 228.767 367.205 229.783 367.955 230.5C368.721 231.2 369.863 231.55 371.38 231.55C372.263 231.55 373.08 231.408 373.83 231.125C374.58 230.825 375.196 230.417 375.68 229.9L376.48 231.175C375.863 231.792 375.088 232.275 374.155 232.625C373.238 232.958 372.263 233.125 371.23 233.125ZM380.318 233L382.918 219.875H384.618L383.868 223.75L383.668 223.075C384.251 221.925 385.018 221.083 385.968 220.55C386.934 220.017 388.134 219.75 389.568 219.75L389.243 221.475C389.159 221.475 389.076 221.475 388.993 221.475C388.926 221.458 388.843 221.45 388.743 221.45C387.343 221.45 386.184 221.858 385.268 222.675C384.368 223.475 383.751 224.692 383.418 226.325L382.093 233H380.318ZM137.529 263.125C136.412 263.125 135.421 262.9 134.554 262.45C133.687 262 133.012 261.358 132.529 260.525C132.046 259.692 131.804 258.7 131.804 257.55C131.804 256.433 131.987 255.4 132.354 254.45C132.721 253.5 133.237 252.675 133.904 251.975C134.571 251.258 135.354 250.708 136.254 250.325C137.171 249.942 138.162 249.75 139.229 249.75C140.379 249.75 141.354 249.958 142.154 250.375C142.954 250.775 143.571 251.367 144.004 252.15C144.437 252.917 144.654 253.85 144.654 254.95C144.654 256.533 144.362 257.942 143.779 259.175C143.196 260.408 142.371 261.375 141.304 262.075C140.237 262.775 138.979 263.125 137.529 263.125ZM137.904 261.55C139.004 261.55 139.979 261.292 140.829 260.775C141.696 260.242 142.371 259.508 142.854 258.575C143.354 257.642 143.604 256.583 143.604 255.4C143.604 254.1 143.221 253.092 142.454 252.375C141.704 251.658 140.646 251.3 139.279 251.3C138.196 251.3 137.221 251.567 136.354 252.1C135.487 252.633 134.804 253.367 134.304 254.3C133.821 255.217 133.579 256.275 133.579 257.475C133.579 258.758 133.954 259.758 134.704 260.475C135.471 261.192 136.537 261.55 137.904 261.55ZM142.229 263L142.979 259.225L143.729 256.575L143.979 253.825L144.779 249.875H146.554L143.929 263H142.229ZM148.872 263L152.572 244.45H154.347L150.647 263H148.872ZM159.761 263.125C159.011 263.125 158.369 262.967 157.836 262.65C157.303 262.317 156.928 261.85 156.711 261.25C156.511 260.65 156.494 259.933 156.661 259.1L159.061 246.975H160.836L158.436 259.025C158.269 259.842 158.328 260.475 158.611 260.925C158.911 261.375 159.453 261.6 160.236 261.6C160.603 261.6 160.961 261.55 161.311 261.45C161.661 261.333 161.978 261.158 162.261 260.925L162.686 262.275C162.269 262.592 161.803 262.817 161.286 262.95C160.769 263.067 160.261 263.125 159.761 263.125ZM155.861 251.35L156.136 249.875H164.261L163.961 251.35H155.861ZM170.879 263.125C169.762 263.125 168.77 262.9 167.904 262.45C167.037 262 166.362 261.358 165.879 260.525C165.395 259.692 165.154 258.7 165.154 257.55C165.154 256.433 165.337 255.4 165.704 254.45C166.07 253.5 166.587 252.675 167.254 251.975C167.92 251.258 168.704 250.708 169.604 250.325C170.52 249.942 171.512 249.75 172.579 249.75C173.729 249.75 174.704 249.958 175.504 250.375C176.304 250.775 176.92 251.367 177.354 252.15C177.787 252.917 178.004 253.85 178.004 254.95C178.004 256.533 177.712 257.942 177.129 259.175C176.545 260.408 175.72 261.375 174.654 262.075C173.587 262.775 172.329 263.125 170.879 263.125ZM171.254 261.55C172.354 261.55 173.329 261.292 174.179 260.775C175.045 260.242 175.72 259.508 176.204 258.575C176.704 257.642 176.954 256.583 176.954 255.4C176.954 254.1 176.57 253.092 175.804 252.375C175.054 251.658 173.995 251.3 172.629 251.3C171.545 251.3 170.57 251.567 169.704 252.1C168.837 252.633 168.154 253.367 167.654 254.3C167.17 255.217 166.929 256.275 166.929 257.475C166.929 258.758 167.304 259.758 168.054 260.475C168.82 261.192 169.887 261.55 171.254 261.55ZM175.579 263L176.329 259.225L177.079 256.575L177.329 253.825L178.129 249.875H179.904L177.279 263H175.579ZM200.922 249.75C202.105 249.75 203.064 249.983 203.797 250.45C204.547 250.9 205.064 251.558 205.347 252.425C205.63 253.292 205.647 254.325 205.397 255.525L203.897 263H202.122L203.622 255.5C203.889 254.2 203.764 253.183 203.247 252.45C202.747 251.717 201.83 251.35 200.497 251.35C199.18 251.35 198.072 251.717 197.172 252.45C196.289 253.183 195.697 254.283 195.397 255.75L193.947 263H192.172L193.672 255.5C193.939 254.2 193.814 253.183 193.297 252.45C192.78 251.717 191.864 251.35 190.547 251.35C189.197 251.35 188.08 251.733 187.197 252.5C186.314 253.267 185.714 254.417 185.397 255.95L183.997 263H182.222L184.822 249.875H186.522L185.772 253.65L185.397 253C186.03 251.867 186.83 251.042 187.797 250.525C188.764 250.008 189.855 249.75 191.072 249.75C191.989 249.75 192.772 249.908 193.422 250.225C194.089 250.525 194.605 250.975 194.972 251.575C195.355 252.158 195.564 252.858 195.597 253.675L194.672 253.475C195.322 252.225 196.18 251.292 197.247 250.675C198.33 250.058 199.555 249.75 200.922 249.75ZM214.736 263.125C213.486 263.125 212.394 262.9 211.461 262.45C210.544 261.983 209.836 261.333 209.336 260.5C208.852 259.667 208.611 258.675 208.611 257.525C208.611 256.025 208.927 254.692 209.561 253.525C210.194 252.358 211.061 251.442 212.161 250.775C213.261 250.092 214.502 249.75 215.886 249.75C217.052 249.75 218.061 249.975 218.911 250.425C219.761 250.858 220.419 251.492 220.886 252.325C221.369 253.158 221.611 254.158 221.611 255.325C221.611 255.592 221.594 255.867 221.561 256.15C221.527 256.417 221.486 256.675 221.436 256.925H209.911L210.136 255.6H220.611L219.886 256.1C220.052 255.05 219.977 254.167 219.661 253.45C219.344 252.733 218.852 252.192 218.186 251.825C217.536 251.442 216.752 251.25 215.836 251.25C214.769 251.25 213.819 251.517 212.986 252.05C212.152 252.567 211.502 253.292 211.036 254.225C210.569 255.142 210.336 256.217 210.336 257.45C210.336 258.767 210.711 259.783 211.461 260.5C212.227 261.2 213.369 261.55 214.886 261.55C215.769 261.55 216.586 261.408 217.336 261.125C218.086 260.825 218.702 260.417 219.186 259.9L219.986 261.175C219.369 261.792 218.594 262.275 217.661 262.625C216.744 262.958 215.769 263.125 214.736 263.125ZM232.848 249.75C234.032 249.75 234.998 249.983 235.748 250.45C236.515 250.9 237.04 251.558 237.323 252.425C237.623 253.292 237.648 254.325 237.398 255.525L235.898 263H234.123L235.623 255.5C235.89 254.2 235.748 253.183 235.198 252.45C234.665 251.717 233.715 251.35 232.348 251.35C230.948 251.35 229.782 251.733 228.848 252.5C227.932 253.267 227.315 254.417 226.998 255.95L225.598 263H223.823L226.423 249.875H228.123L227.373 253.65L226.998 253C227.632 251.867 228.448 251.042 229.448 250.525C230.465 250.008 231.598 249.75 232.848 249.75ZM244.893 263.125C244.143 263.125 243.501 262.967 242.968 262.65C242.435 262.317 242.06 261.85 241.843 261.25C241.643 260.65 241.626 259.933 241.793 259.1L244.193 246.975H245.968L243.568 259.025C243.401 259.842 243.46 260.475 243.743 260.925C244.043 261.375 244.585 261.6 245.368 261.6C245.735 261.6 246.093 261.55 246.443 261.45C246.793 261.333 247.11 261.158 247.393 260.925L247.818 262.275C247.401 262.592 246.935 262.817 246.418 262.95C245.901 263.067 245.393 263.125 244.893 263.125ZM240.993 251.35L241.268 249.875H249.393L249.093 251.35H240.993ZM256.41 263.125C255.16 263.125 254.069 262.9 253.135 262.45C252.219 261.983 251.51 261.333 251.01 260.5C250.527 259.667 250.285 258.675 250.285 257.525C250.285 256.025 250.602 254.692 251.235 253.525C251.869 252.358 252.735 251.442 253.835 250.775C254.935 250.092 256.177 249.75 257.56 249.75C258.727 249.75 259.735 249.975 260.585 250.425C261.435 250.858 262.094 251.492 262.56 252.325C263.044 253.158 263.285 254.158 263.285 255.325C263.285 255.592 263.269 255.867 263.235 256.15C263.202 256.417 263.16 256.675 263.11 256.925H251.585L251.81 255.6H262.285L261.56 256.1C261.727 255.05 261.652 254.167 261.335 253.45C261.019 252.733 260.527 252.192 259.86 251.825C259.21 251.442 258.427 251.25 257.51 251.25C256.444 251.25 255.494 251.517 254.66 252.05C253.827 252.567 253.177 253.292 252.71 254.225C252.244 255.142 252.01 256.217 252.01 257.45C252.01 258.767 252.385 259.783 253.135 260.5C253.902 261.2 255.044 261.55 256.56 261.55C257.444 261.55 258.26 261.408 259.01 261.125C259.76 260.825 260.377 260.417 260.86 259.9L261.66 261.175C261.044 261.792 260.269 262.275 259.335 262.625C258.419 262.958 257.444 263.125 256.41 263.125ZM272.041 263L274.641 249.875H276.341L275.591 253.75L275.391 253.075C275.975 251.925 276.741 251.083 277.691 250.55C278.658 250.017 279.858 249.75 281.291 249.75L280.966 251.475C280.883 251.475 280.8 251.475 280.716 251.475C280.65 251.458 280.566 251.45 280.466 251.45C279.066 251.45 277.908 251.858 276.991 252.675C276.091 253.475 275.475 254.692 275.141 256.325L273.816 263H272.041ZM287.758 263.125C286.508 263.125 285.416 262.9 284.483 262.45C283.566 261.983 282.858 261.333 282.358 260.5C281.875 259.667 281.633 258.675 281.633 257.525C281.633 256.025 281.95 254.692 282.583 253.525C283.216 252.358 284.083 251.442 285.183 250.775C286.283 250.092 287.525 249.75 288.908 249.75C290.075 249.75 291.083 249.975 291.933 250.425C292.783 250.858 293.441 251.492 293.908 252.325C294.391 253.158 294.633 254.158 294.633 255.325C294.633 255.592 294.616 255.867 294.583 256.15C294.55 256.417 294.508 256.675 294.458 256.925H282.933L283.158 255.6H293.633L292.908 256.1C293.075 255.05 293 254.167 292.683 253.45C292.366 252.733 291.875 252.192 291.208 251.825C290.558 251.442 289.775 251.25 288.858 251.25C287.791 251.25 286.841 251.517 286.008 252.05C285.175 252.567 284.525 253.292 284.058 254.225C283.591 255.142 283.358 256.217 283.358 257.45C283.358 258.767 283.733 259.783 284.483 260.5C285.25 261.2 286.391 261.55 287.908 261.55C288.791 261.55 289.608 261.408 290.358 261.125C291.108 260.825 291.725 260.417 292.208 259.9L293.008 261.175C292.391 261.792 291.616 262.275 290.683 262.625C289.766 262.958 288.791 263.125 287.758 263.125ZM305.871 249.75C307.054 249.75 308.021 249.983 308.771 250.45C309.538 250.9 310.063 251.558 310.346 252.425C310.646 253.292 310.671 254.325 310.421 255.525L308.921 263H307.146L308.646 255.5C308.913 254.2 308.771 253.183 308.221 252.45C307.688 251.717 306.738 251.35 305.371 251.35C303.971 251.35 302.804 251.733 301.871 252.5C300.954 253.267 300.338 254.417 300.021 255.95L298.621 263H296.846L299.446 249.875H301.146L300.396 253.65L300.021 253C300.654 251.867 301.471 251.042 302.471 250.525C303.488 250.008 304.621 249.75 305.871 249.75ZM317.915 263.125C317.165 263.125 316.524 262.967 315.99 262.65C315.457 262.317 315.082 261.85 314.865 261.25C314.665 260.65 314.649 259.933 314.815 259.1L317.215 246.975H318.99L316.59 259.025C316.424 259.842 316.482 260.475 316.765 260.925C317.065 261.375 317.607 261.6 318.39 261.6C318.757 261.6 319.115 261.55 319.465 261.45C319.815 261.333 320.132 261.158 320.415 260.925L320.84 262.275C320.424 262.592 319.957 262.817 319.44 262.95C318.924 263.067 318.415 263.125 317.915 263.125ZM314.015 251.35L314.29 249.875H322.415L322.115 251.35H314.015ZM329.033 263.125C327.916 263.125 326.924 262.9 326.058 262.45C325.191 262 324.516 261.358 324.033 260.525C323.549 259.692 323.308 258.7 323.308 257.55C323.308 256.433 323.491 255.4 323.858 254.45C324.224 253.5 324.741 252.675 325.408 251.975C326.074 251.258 326.858 250.708 327.758 250.325C328.674 249.942 329.666 249.75 330.733 249.75C331.883 249.75 332.858 249.958 333.658 250.375C334.458 250.775 335.074 251.367 335.508 252.15C335.941 252.917 336.158 253.85 336.158 254.95C336.158 256.533 335.866 257.942 335.283 259.175C334.699 260.408 333.874 261.375 332.808 262.075C331.741 262.775 330.483 263.125 329.033 263.125ZM329.408 261.55C330.508 261.55 331.483 261.292 332.333 260.775C333.199 260.242 333.874 259.508 334.358 258.575C334.858 257.642 335.108 256.583 335.108 255.4C335.108 254.1 334.724 253.092 333.958 252.375C333.208 251.658 332.149 251.3 330.783 251.3C329.699 251.3 328.724 251.567 327.858 252.1C326.991 252.633 326.308 253.367 325.808 254.3C325.324 255.217 325.083 256.275 325.083 257.475C325.083 258.758 325.458 259.758 326.208 260.475C326.974 261.192 328.041 261.55 329.408 261.55ZM333.733 263L334.483 259.225L335.233 256.575L335.483 253.825L336.283 249.875H338.058L335.433 263H333.733ZM340.376 263L344.076 244.45H345.851L344.001 253.675L343.201 256.275L342.901 258.825L342.076 263H340.376ZM347.676 263.125C346.543 263.125 345.568 262.925 344.751 262.525C343.951 262.108 343.335 261.517 342.901 260.75C342.485 259.967 342.268 259.025 342.251 257.925C342.251 256.725 342.418 255.625 342.751 254.625C343.085 253.625 343.56 252.767 344.176 252.05C344.81 251.317 345.56 250.75 346.426 250.35C347.31 249.95 348.293 249.75 349.376 249.75C350.51 249.75 351.501 249.975 352.351 250.425C353.218 250.858 353.893 251.492 354.376 252.325C354.876 253.158 355.126 254.15 355.126 255.3C355.126 256.433 354.943 257.475 354.576 258.425C354.21 259.375 353.685 260.2 353.001 260.9C352.335 261.6 351.551 262.15 350.651 262.55C349.751 262.933 348.76 263.125 347.676 263.125ZM347.651 261.55C348.751 261.55 349.726 261.292 350.576 260.775C351.426 260.242 352.093 259.508 352.576 258.575C353.076 257.642 353.326 256.583 353.326 255.4C353.326 254.1 352.951 253.092 352.201 252.375C351.451 251.658 350.385 251.3 349.001 251.3C347.918 251.3 346.943 251.567 346.076 252.1C345.226 252.633 344.551 253.367 344.051 254.3C343.568 255.217 343.326 256.275 343.326 257.475C343.326 258.758 343.701 259.758 344.451 260.475C345.201 261.192 346.268 261.55 347.651 261.55ZM357.32 263L361.02 244.45H362.795L359.095 263H357.32ZM370.033 263.125C368.783 263.125 367.692 262.9 366.758 262.45C365.842 261.983 365.133 261.333 364.633 260.5C364.15 259.667 363.908 258.675 363.908 257.525C363.908 256.025 364.225 254.692 364.858 253.525C365.492 252.358 366.358 251.442 367.458 250.775C368.558 250.092 369.8 249.75 371.183 249.75C372.35 249.75 373.358 249.975 374.208 250.425C375.058 250.858 375.717 251.492 376.183 252.325C376.667 253.158 376.908 254.158 376.908 255.325C376.908 255.592 376.892 255.867 376.858 256.15C376.825 256.417 376.783 256.675 376.733 256.925H365.208L365.433 255.6H375.908L375.183 256.1C375.35 255.05 375.275 254.167 374.958 253.45C374.642 252.733 374.15 252.192 373.483 251.825C372.833 251.442 372.05 251.25 371.133 251.25C370.067 251.25 369.117 251.517 368.283 252.05C367.45 252.567 366.8 253.292 366.333 254.225C365.867 255.142 365.633 256.217 365.633 257.45C365.633 258.767 366.008 259.783 366.758 260.5C367.525 261.2 368.667 261.55 370.183 261.55C371.067 261.55 371.883 261.408 372.633 261.125C373.383 260.825 374 260.417 374.483 259.9L375.283 261.175C374.667 261.792 373.892 262.275 372.958 262.625C372.042 262.958 371.067 263.125 370.033 263.125ZM382.946 263.125C381.88 263.125 380.871 262.975 379.921 262.675C378.971 262.375 378.238 261.992 377.721 261.525L378.571 260.125C379.071 260.575 379.73 260.933 380.546 261.2C381.363 261.45 382.221 261.575 383.121 261.575C384.371 261.575 385.33 261.367 385.996 260.95C386.68 260.533 387.021 259.958 387.021 259.225C387.021 258.725 386.838 258.35 386.471 258.1C386.121 257.833 385.663 257.633 385.096 257.5C384.53 257.35 383.93 257.208 383.296 257.075C382.663 256.942 382.063 256.775 381.496 256.575C380.93 256.358 380.463 256.033 380.096 255.6C379.746 255.167 379.571 254.583 379.571 253.85C379.571 253.017 379.805 252.292 380.271 251.675C380.755 251.058 381.421 250.583 382.271 250.25C383.121 249.917 384.121 249.75 385.271 249.75C386.105 249.75 386.93 249.858 387.746 250.075C388.563 250.292 389.221 250.592 389.721 250.975L388.971 252.4C388.455 252 387.855 251.717 387.171 251.55C386.488 251.367 385.805 251.275 385.121 251.275C383.905 251.275 382.963 251.5 382.296 251.95C381.646 252.383 381.321 252.958 381.321 253.675C381.321 254.175 381.496 254.558 381.846 254.825C382.213 255.092 382.68 255.3 383.246 255.45C383.813 255.6 384.413 255.742 385.046 255.875C385.696 255.992 386.296 256.158 386.846 256.375C387.413 256.592 387.871 256.908 388.221 257.325C388.588 257.725 388.771 258.292 388.771 259.025C388.771 259.892 388.53 260.633 388.046 261.25C387.563 261.85 386.88 262.317 385.996 262.65C385.13 262.967 384.113 263.125 382.946 263.125ZM397.196 267.975C396.58 267.975 395.988 267.867 395.421 267.65C394.855 267.45 394.405 267.167 394.071 266.8L395.021 265.5C395.305 265.8 395.638 266.033 396.021 266.2C396.405 266.367 396.838 266.45 397.321 266.45C397.888 266.45 398.405 266.292 398.871 265.975C399.355 265.675 399.855 265.125 400.371 264.325L401.696 262.3L401.921 262.05L409.721 249.875H411.546L401.946 264.7C401.396 265.533 400.88 266.183 400.396 266.65C399.913 267.133 399.413 267.475 398.896 267.675C398.396 267.875 397.83 267.975 397.196 267.975ZM401.396 263.375L398.021 249.875H399.821L402.771 261.925L401.396 263.375ZM137.212 293.125C136.095 293.125 135.103 292.9 134.237 292.45C133.37 292 132.695 291.358 132.212 290.525C131.728 289.692 131.487 288.7 131.487 287.55C131.487 286.433 131.67 285.4 132.037 284.45C132.403 283.5 132.92 282.675 133.587 281.975C134.253 281.258 135.037 280.708 135.937 280.325C136.853 279.942 137.845 279.75 138.912 279.75C140.062 279.75 141.037 279.958 141.837 280.375C142.637 280.775 143.253 281.367 143.687 282.15C144.12 282.917 144.337 283.85 144.337 284.95C144.337 286.533 144.045 287.942 143.462 289.175C142.878 290.408 142.053 291.375 140.987 292.075C139.92 292.775 138.662 293.125 137.212 293.125ZM137.587 291.55C138.687 291.55 139.662 291.292 140.512 290.775C141.378 290.242 142.053 289.508 142.537 288.575C143.037 287.642 143.287 286.583 143.287 285.4C143.287 284.1 142.903 283.092 142.137 282.375C141.387 281.658 140.328 281.3 138.962 281.3C137.878 281.3 136.903 281.567 136.037 282.1C135.17 282.633 134.487 283.367 133.987 284.3C133.503 285.217 133.262 286.275 133.262 287.475C133.262 288.758 133.637 289.758 134.387 290.475C135.153 291.192 136.22 291.55 137.587 291.55ZM141.912 293L142.662 289.225L143.412 286.575L143.662 283.825L144.462 279.875H146.237L143.612 293H141.912ZM154.055 293.125C152.905 293.125 151.947 292.892 151.18 292.425C150.43 291.958 149.913 291.292 149.63 290.425C149.347 289.558 149.313 288.533 149.53 287.35L151.03 279.875H152.805L151.305 287.35C151.055 288.65 151.197 289.675 151.73 290.425C152.263 291.158 153.197 291.525 154.53 291.525C155.913 291.525 157.063 291.142 157.98 290.375C158.913 289.608 159.538 288.458 159.855 286.925L161.255 279.875H163.03L160.405 293H158.705L159.455 289.225L159.83 289.85C159.213 290.983 158.397 291.817 157.38 292.35C156.38 292.867 155.272 293.125 154.055 293.125ZM184.052 279.75C185.235 279.75 186.193 279.983 186.927 280.45C187.677 280.9 188.193 281.558 188.477 282.425C188.76 283.292 188.777 284.325 188.527 285.525L187.027 293H185.252L186.752 285.5C187.018 284.2 186.893 283.183 186.377 282.45C185.877 281.717 184.96 281.35 183.627 281.35C182.31 281.35 181.202 281.717 180.302 282.45C179.418 283.183 178.827 284.283 178.527 285.75L177.077 293H175.302L176.802 285.5C177.068 284.2 176.943 283.183 176.427 282.45C175.91 281.717 174.993 281.35 173.677 281.35C172.327 281.35 171.21 281.733 170.327 282.5C169.443 283.267 168.843 284.417 168.527 285.95L167.127 293H165.352L167.952 279.875H169.652L168.902 283.65L168.527 283C169.16 281.867 169.96 281.042 170.927 280.525C171.893 280.008 172.985 279.75 174.202 279.75C175.118 279.75 175.902 279.908 176.552 280.225C177.218 280.525 177.735 280.975 178.102 281.575C178.485 282.158 178.693 282.858 178.727 283.675L177.802 283.475C178.452 282.225 179.31 281.292 180.377 280.675C181.46 280.058 182.685 279.75 184.052 279.75ZM197.865 293.125C196.615 293.125 195.524 292.9 194.59 292.45C193.674 291.983 192.965 291.333 192.465 290.5C191.982 289.667 191.74 288.675 191.74 287.525C191.74 286.025 192.057 284.692 192.69 283.525C193.324 282.358 194.19 281.442 195.29 280.775C196.39 280.092 197.632 279.75 199.015 279.75C200.182 279.75 201.19 279.975 202.04 280.425C202.89 280.858 203.549 281.492 204.015 282.325C204.499 283.158 204.74 284.158 204.74 285.325C204.74 285.592 204.724 285.867 204.69 286.15C204.657 286.417 204.615 286.675 204.565 286.925H193.04L193.265 285.6H203.74L203.015 286.1C203.182 285.05 203.107 284.167 202.79 283.45C202.474 282.733 201.982 282.192 201.315 281.825C200.665 281.442 199.882 281.25 198.965 281.25C197.899 281.25 196.949 281.517 196.115 282.05C195.282 282.567 194.632 283.292 194.165 284.225C193.699 285.142 193.465 286.217 193.465 287.45C193.465 288.767 193.84 289.783 194.59 290.5C195.357 291.2 196.499 291.55 198.015 291.55C198.899 291.55 199.715 291.408 200.465 291.125C201.215 290.825 201.832 290.417 202.315 289.9L203.115 291.175C202.499 291.792 201.724 292.275 200.79 292.625C199.874 292.958 198.899 293.125 197.865 293.125ZM215.978 279.75C217.162 279.75 218.128 279.983 218.878 280.45C219.645 280.9 220.17 281.558 220.453 282.425C220.753 283.292 220.778 284.325 220.528 285.525L219.028 293H217.253L218.753 285.5C219.02 284.2 218.878 283.183 218.328 282.45C217.795 281.717 216.845 281.35 215.478 281.35C214.078 281.35 212.912 281.733 211.978 282.5C211.062 283.267 210.445 284.417 210.128 285.95L208.728 293H206.953L209.553 279.875H211.253L210.503 283.65L210.128 283C210.762 281.867 211.578 281.042 212.578 280.525C213.595 280.008 214.728 279.75 215.978 279.75ZM228.023 293.125C227.273 293.125 226.631 292.967 226.098 292.65C225.565 292.317 225.19 291.85 224.973 291.25C224.773 290.65 224.756 289.933 224.923 289.1L227.323 276.975H229.098L226.698 289.025C226.531 289.842 226.59 290.475 226.873 290.925C227.173 291.375 227.715 291.6 228.498 291.6C228.865 291.6 229.223 291.55 229.573 291.45C229.923 291.333 230.24 291.158 230.523 290.925L230.948 292.275C230.531 292.592 230.065 292.817 229.548 292.95C229.031 293.067 228.523 293.125 228.023 293.125ZM224.123 281.35L224.398 279.875H232.523L232.223 281.35H224.123ZM239.14 293.125C238.024 293.125 237.032 292.9 236.165 292.45C235.299 292 234.624 291.358 234.14 290.525C233.657 289.692 233.415 288.7 233.415 287.55C233.415 286.433 233.599 285.4 233.965 284.45C234.332 283.5 234.849 282.675 235.515 281.975C236.182 281.258 236.965 280.708 237.865 280.325C238.782 279.942 239.774 279.75 240.84 279.75C241.99 279.75 242.965 279.958 243.765 280.375C244.565 280.775 245.182 281.367 245.615 282.15C246.049 282.917 246.265 283.85 246.265 284.95C246.265 286.533 245.974 287.942 245.39 289.175C244.807 290.408 243.982 291.375 242.915 292.075C241.849 292.775 240.59 293.125 239.14 293.125ZM239.515 291.55C240.615 291.55 241.59 291.292 242.44 290.775C243.307 290.242 243.982 289.508 244.465 288.575C244.965 287.642 245.215 286.583 245.215 285.4C245.215 284.1 244.832 283.092 244.065 282.375C243.315 281.658 242.257 281.3 240.89 281.3C239.807 281.3 238.832 281.567 237.965 282.1C237.099 282.633 236.415 283.367 235.915 284.3C235.432 285.217 235.19 286.275 235.19 287.475C235.19 288.758 235.565 289.758 236.315 290.475C237.082 291.192 238.149 291.55 239.515 291.55ZM243.84 293L244.59 289.225L245.34 286.575L245.59 283.825L246.39 279.875H248.165L245.54 293H243.84ZM259.509 279.75C260.692 279.75 261.659 279.983 262.409 280.45C263.175 280.9 263.7 281.558 263.984 282.425C264.284 283.292 264.309 284.325 264.059 285.525L262.559 293H260.784L262.284 285.5C262.55 284.2 262.409 283.183 261.859 282.45C261.325 281.717 260.375 281.35 259.009 281.35C257.609 281.35 256.442 281.733 255.509 282.5C254.592 283.267 253.975 284.417 253.659 285.95L252.259 293H250.484L253.084 279.875H254.784L254.034 283.65L253.659 283C254.292 281.867 255.109 281.042 256.109 280.525C257.125 280.008 258.259 279.75 259.509 279.75ZM277.746 293.125C276.679 293.125 275.671 292.975 274.721 292.675C273.771 292.375 273.038 291.992 272.521 291.525L273.371 290.125C273.871 290.575 274.529 290.933 275.346 291.2C276.163 291.45 277.021 291.575 277.921 291.575C279.171 291.575 280.129 291.367 280.796 290.95C281.479 290.533 281.821 289.958 281.821 289.225C281.821 288.725 281.638 288.35 281.271 288.1C280.921 287.833 280.463 287.633 279.896 287.5C279.329 287.35 278.729 287.208 278.096 287.075C277.463 286.942 276.863 286.775 276.296 286.575C275.729 286.358 275.263 286.033 274.896 285.6C274.546 285.167 274.371 284.583 274.371 283.85C274.371 283.017 274.604 282.292 275.071 281.675C275.554 281.058 276.221 280.583 277.071 280.25C277.921 279.917 278.921 279.75 280.071 279.75C280.904 279.75 281.729 279.858 282.546 280.075C283.363 280.292 284.021 280.592 284.521 280.975L283.771 282.4C283.254 282 282.654 281.717 281.971 281.55C281.288 281.367 280.604 281.275 279.921 281.275C278.704 281.275 277.763 281.5 277.096 281.95C276.446 282.383 276.121 282.958 276.121 283.675C276.121 284.175 276.296 284.558 276.646 284.825C277.013 285.092 277.479 285.3 278.046 285.45C278.613 285.6 279.213 285.742 279.846 285.875C280.496 285.992 281.096 286.158 281.646 286.375C282.213 286.592 282.671 286.908 283.021 287.325C283.388 287.725 283.571 288.292 283.571 289.025C283.571 289.892 283.329 290.633 282.846 291.25C282.363 291.85 281.679 292.317 280.796 292.65C279.929 292.967 278.913 293.125 277.746 293.125ZM286.128 293L288.728 279.875H290.503L287.903 293H286.128ZM290.378 276.975C290.028 276.975 289.736 276.858 289.503 276.625C289.286 276.392 289.178 276.117 289.178 275.8C289.178 275.433 289.303 275.117 289.553 274.85C289.82 274.583 290.153 274.45 290.553 274.45C290.903 274.45 291.195 274.558 291.428 274.775C291.661 274.992 291.778 275.267 291.778 275.6C291.778 276 291.645 276.333 291.378 276.6C291.111 276.85 290.778 276.975 290.378 276.975ZM298.842 293.125C297.592 293.125 296.5 292.9 295.567 292.45C294.65 291.983 293.942 291.333 293.442 290.5C292.959 289.667 292.717 288.675 292.717 287.525C292.717 286.025 293.034 284.692 293.667 283.525C294.3 282.358 295.167 281.442 296.267 280.775C297.367 280.092 298.609 279.75 299.992 279.75C301.159 279.75 302.167 279.975 303.017 280.425C303.867 280.858 304.525 281.492 304.992 282.325C305.475 283.158 305.717 284.158 305.717 285.325C305.717 285.592 305.7 285.867 305.667 286.15C305.634 286.417 305.592 286.675 305.542 286.925H294.017L294.242 285.6H304.717L303.992 286.1C304.159 285.05 304.084 284.167 303.767 283.45C303.45 282.733 302.959 282.192 302.292 281.825C301.642 281.442 300.859 281.25 299.942 281.25C298.875 281.25 297.925 281.517 297.092 282.05C296.259 282.567 295.609 283.292 295.142 284.225C294.675 285.142 294.442 286.217 294.442 287.45C294.442 288.767 294.817 289.783 295.567 290.5C296.334 291.2 297.475 291.55 298.992 291.55C299.875 291.55 300.692 291.408 301.442 291.125C302.192 290.825 302.809 290.417 303.292 289.9L304.092 291.175C303.475 291.792 302.7 292.275 301.767 292.625C300.85 292.958 299.875 293.125 298.842 293.125ZM326.63 279.75C327.813 279.75 328.772 279.983 329.505 280.45C330.255 280.9 330.772 281.558 331.055 282.425C331.338 283.292 331.355 284.325 331.105 285.525L329.605 293H327.83L329.33 285.5C329.597 284.2 329.472 283.183 328.955 282.45C328.455 281.717 327.538 281.35 326.205 281.35C324.888 281.35 323.78 281.717 322.88 282.45C321.997 283.183 321.405 284.283 321.105 285.75L319.655 293H317.88L319.38 285.5C319.647 284.2 319.522 283.183 319.005 282.45C318.488 281.717 317.572 281.35 316.255 281.35C314.905 281.35 313.788 281.733 312.905 282.5C312.022 283.267 311.422 284.417 311.105 285.95L309.705 293H307.93L310.53 279.875H312.23L311.48 283.65L311.105 283C311.738 281.867 312.538 281.042 313.505 280.525C314.472 280.008 315.563 279.75 316.78 279.75C317.697 279.75 318.48 279.908 319.13 280.225C319.797 280.525 320.313 280.975 320.68 281.575C321.063 282.158 321.272 282.858 321.305 283.675L320.38 283.475C321.03 282.225 321.888 281.292 322.955 280.675C324.038 280.058 325.263 279.75 326.63 279.75ZM341.744 293.125C340.61 293.125 339.635 292.925 338.819 292.525C338.019 292.108 337.402 291.517 336.969 290.75C336.552 289.967 336.335 289.025 336.319 287.925C336.319 286.308 336.61 284.892 337.194 283.675C337.777 282.442 338.602 281.483 339.669 280.8C340.735 280.1 341.994 279.75 343.444 279.75C344.577 279.75 345.569 279.975 346.419 280.425C347.285 280.858 347.96 281.492 348.444 282.325C348.944 283.158 349.194 284.15 349.194 285.3C349.194 286.433 349.01 287.475 348.644 288.425C348.277 289.375 347.752 290.2 347.069 290.9C346.402 291.6 345.619 292.15 344.719 292.55C343.819 292.933 342.827 293.125 341.744 293.125ZM333.469 297.85L337.044 279.875H338.744L337.994 283.65L337.269 286.275L336.994 289.025L335.244 297.85H333.469ZM341.719 291.55C342.819 291.55 343.794 291.292 344.644 290.775C345.494 290.242 346.16 289.508 346.644 288.575C347.144 287.642 347.394 286.583 347.394 285.4C347.394 284.1 347.019 283.092 346.269 282.375C345.519 281.658 344.452 281.3 343.069 281.3C341.985 281.3 341.01 281.567 340.144 282.1C339.294 282.633 338.619 283.367 338.119 284.3C337.635 285.217 337.394 286.275 337.394 287.475C337.394 288.758 337.769 289.758 338.519 290.475C339.269 291.192 340.335 291.55 341.719 291.55ZM351.387 293L353.987 279.875H355.687L354.937 283.75L354.737 283.075C355.32 281.925 356.087 281.083 357.037 280.55C358.004 280.017 359.204 279.75 360.637 279.75L360.312 281.475C360.229 281.475 360.145 281.475 360.062 281.475C359.995 281.458 359.912 281.45 359.812 281.45C358.412 281.45 357.254 281.858 356.337 282.675C355.437 283.475 354.82 284.692 354.487 286.325L353.162 293H351.387ZM367.104 293.125C365.854 293.125 364.762 292.9 363.829 292.45C362.912 291.983 362.204 291.333 361.704 290.5C361.22 289.667 360.979 288.675 360.979 287.525C360.979 286.025 361.295 284.692 361.929 283.525C362.562 282.358 363.429 281.442 364.529 280.775C365.629 280.092 366.87 279.75 368.254 279.75C369.42 279.75 370.429 279.975 371.279 280.425C372.129 280.858 372.787 281.492 373.254 282.325C373.737 283.158 373.979 284.158 373.979 285.325C373.979 285.592 373.962 285.867 373.929 286.15C373.895 286.417 373.854 286.675 373.804 286.925H362.279L362.504 285.6H372.979L372.254 286.1C372.42 285.05 372.345 284.167 372.029 283.45C371.712 282.733 371.22 282.192 370.554 281.825C369.904 281.442 369.12 281.25 368.204 281.25C367.137 281.25 366.187 281.517 365.354 282.05C364.52 282.567 363.87 283.292 363.404 284.225C362.937 285.142 362.704 286.217 362.704 287.45C362.704 288.767 363.079 289.783 363.829 290.5C364.595 291.2 365.737 291.55 367.254 291.55C368.137 291.55 368.954 291.408 369.704 291.125C370.454 290.825 371.07 290.417 371.554 289.9L372.354 291.175C371.737 291.792 370.962 292.275 370.029 292.625C369.112 292.958 368.137 293.125 367.104 293.125ZM386.56 293.125C385.493 293.125 384.485 292.975 383.535 292.675C382.585 292.375 381.851 291.992 381.335 291.525L382.185 290.125C382.685 290.575 383.343 290.933 384.16 291.2C384.976 291.45 385.835 291.575 386.735 291.575C387.985 291.575 388.943 291.367 389.61 290.95C390.293 290.533 390.635 289.958 390.635 289.225C390.635 288.725 390.451 288.35 390.085 288.1C389.735 287.833 389.276 287.633 388.71 287.5C388.143 287.35 387.543 287.208 386.91 287.075C386.276 286.942 385.676 286.775 385.11 286.575C384.543 286.358 384.076 286.033 383.71 285.6C383.36 285.167 383.185 284.583 383.185 283.85C383.185 283.017 383.418 282.292 383.885 281.675C384.368 281.058 385.035 280.583 385.885 280.25C386.735 279.917 387.735 279.75 388.885 279.75C389.718 279.75 390.543 279.858 391.36 280.075C392.176 280.292 392.835 280.592 393.335 280.975L392.585 282.4C392.068 282 391.468 281.717 390.785 281.55C390.101 281.367 389.418 281.275 388.735 281.275C387.518 281.275 386.576 281.5 385.91 281.95C385.26 282.383 384.935 282.958 384.935 283.675C384.935 284.175 385.11 284.558 385.46 284.825C385.826 285.092 386.293 285.3 386.86 285.45C387.426 285.6 388.026 285.742 388.66 285.875C389.31 285.992 389.91 286.158 390.46 286.375C391.026 286.592 391.485 286.908 391.835 287.325C392.201 287.725 392.385 288.292 392.385 289.025C392.385 289.892 392.143 290.633 391.66 291.25C391.176 291.85 390.493 292.317 389.61 292.65C388.743 292.967 387.726 293.125 386.56 293.125ZM400.442 293.125C399.292 293.125 398.333 292.892 397.567 292.425C396.817 291.958 396.3 291.292 396.017 290.425C395.733 289.558 395.7 288.533 395.917 287.35L397.417 279.875H399.192L397.692 287.35C397.442 288.65 397.583 289.675 398.117 290.425C398.65 291.158 399.583 291.525 400.917 291.525C402.3 291.525 403.45 291.142 404.367 290.375C405.3 289.608 405.925 288.458 406.242 286.925L407.642 279.875H409.417L406.792 293H405.092L405.842 289.225L406.217 289.85C405.6 290.983 404.783 291.817 403.767 292.35C402.767 292.867 401.658 293.125 400.442 293.125ZM151.857 323L148.607 309.875H150.382L153.332 322.05H152.482L160.282 309.875H162.132L153.657 323H151.857ZM167.241 323.125C166.124 323.125 165.132 322.9 164.266 322.45C163.399 322 162.724 321.358 162.241 320.525C161.757 319.692 161.516 318.7 161.516 317.55C161.516 316.433 161.699 315.4 162.066 314.45C162.432 313.5 162.949 312.675 163.616 311.975C164.282 311.258 165.066 310.708 165.966 310.325C166.882 309.942 167.874 309.75 168.941 309.75C170.091 309.75 171.066 309.958 171.866 310.375C172.666 310.775 173.282 311.367 173.716 312.15C174.149 312.917 174.366 313.85 174.366 314.95C174.366 316.533 174.074 317.942 173.491 319.175C172.907 320.408 172.082 321.375 171.016 322.075C169.949 322.775 168.691 323.125 167.241 323.125ZM167.616 321.55C168.716 321.55 169.691 321.292 170.541 320.775C171.407 320.242 172.082 319.508 172.566 318.575C173.066 317.642 173.316 316.583 173.316 315.4C173.316 314.1 172.932 313.092 172.166 312.375C171.416 311.658 170.357 311.3 168.991 311.3C167.907 311.3 166.932 311.567 166.066 312.1C165.199 312.633 164.516 313.367 164.016 314.3C163.532 315.217 163.291 316.275 163.291 317.475C163.291 318.758 163.666 319.758 164.416 320.475C165.182 321.192 166.249 321.55 167.616 321.55ZM171.941 323L172.691 319.225L173.441 316.575L173.691 313.825L174.491 309.875H176.266L173.641 323H171.941ZM178.584 323L182.284 304.45H184.059L180.359 323H178.584ZM191.148 323.125C189.931 323.125 188.873 322.9 187.973 322.45C187.09 321.983 186.398 321.333 185.898 320.5C185.415 319.667 185.173 318.683 185.173 317.55C185.173 316.05 185.498 314.717 186.148 313.55C186.798 312.367 187.698 311.442 188.848 310.775C189.998 310.092 191.306 309.75 192.773 309.75C193.99 309.75 195.04 309.975 195.923 310.425C196.823 310.875 197.515 311.517 197.998 312.35C198.498 313.183 198.748 314.167 198.748 315.3C198.748 316.8 198.423 318.142 197.773 319.325C197.123 320.492 196.223 321.417 195.073 322.1C193.94 322.783 192.631 323.125 191.148 323.125ZM191.273 321.55C192.373 321.55 193.348 321.292 194.198 320.775C195.065 320.242 195.74 319.508 196.223 318.575C196.723 317.642 196.973 316.583 196.973 315.4C196.973 314.1 196.59 313.092 195.823 312.375C195.073 311.658 194.015 311.3 192.648 311.3C191.565 311.3 190.59 311.567 189.723 312.1C188.856 312.633 188.173 313.367 187.673 314.3C187.19 315.217 186.948 316.275 186.948 317.475C186.948 318.758 187.323 319.758 188.073 320.475C188.84 321.192 189.906 321.55 191.273 321.55ZM200.972 323L203.572 309.875H205.272L204.522 313.75L204.322 313.075C204.905 311.925 205.672 311.083 206.622 310.55C207.589 310.017 208.789 309.75 210.222 309.75L209.897 311.475C209.814 311.475 209.73 311.475 209.647 311.475C209.58 311.458 209.497 311.45 209.397 311.45C207.997 311.45 206.839 311.858 205.922 312.675C205.022 313.475 204.405 314.692 204.072 316.325L202.747 323H200.972ZM223.499 323.125C222.249 323.125 221.166 322.9 220.249 322.45C219.349 321.983 218.649 321.333 218.149 320.5C217.666 319.667 217.424 318.683 217.424 317.55C217.424 316.05 217.749 314.717 218.399 313.55C219.049 312.367 219.949 311.442 221.099 310.775C222.266 310.092 223.591 309.75 225.074 309.75C226.291 309.75 227.332 309.975 228.199 310.425C229.082 310.858 229.766 311.508 230.249 312.375L228.749 313.25C228.382 312.583 227.874 312.092 227.224 311.775C226.591 311.458 225.824 311.3 224.924 311.3C223.824 311.3 222.841 311.567 221.974 312.1C221.107 312.633 220.424 313.367 219.924 314.3C219.441 315.217 219.199 316.275 219.199 317.475C219.199 318.758 219.574 319.758 220.324 320.475C221.091 321.192 222.174 321.55 223.574 321.55C224.424 321.55 225.207 321.392 225.924 321.075C226.657 320.742 227.257 320.267 227.724 319.65L228.999 320.625C228.432 321.408 227.657 322.025 226.674 322.475C225.691 322.908 224.632 323.125 223.499 323.125ZM237.266 323.125C236.05 323.125 234.991 322.9 234.091 322.45C233.208 321.983 232.516 321.333 232.016 320.5C231.533 319.667 231.291 318.683 231.291 317.55C231.291 316.05 231.616 314.717 232.266 313.55C232.916 312.367 233.816 311.442 234.966 310.775C236.116 310.092 237.425 309.75 238.891 309.75C240.108 309.75 241.158 309.975 242.041 310.425C242.941 310.875 243.633 311.517 244.116 312.35C244.616 313.183 244.866 314.167 244.866 315.3C244.866 316.8 244.541 318.142 243.891 319.325C243.241 320.492 242.341 321.417 241.191 322.1C240.058 322.783 238.75 323.125 237.266 323.125ZM237.391 321.55C238.491 321.55 239.466 321.292 240.316 320.775C241.183 320.242 241.858 319.508 242.341 318.575C242.841 317.642 243.091 316.583 243.091 315.4C243.091 314.1 242.708 313.092 241.941 312.375C241.191 311.658 240.133 311.3 238.766 311.3C237.683 311.3 236.708 311.567 235.841 312.1C234.975 312.633 234.291 313.367 233.791 314.3C233.308 315.217 233.066 316.275 233.066 317.475C233.066 318.758 233.441 319.758 234.191 320.475C234.958 321.192 236.025 321.55 237.391 321.55ZM256.115 309.75C257.298 309.75 258.265 309.983 259.015 310.45C259.782 310.9 260.307 311.558 260.59 312.425C260.89 313.292 260.915 314.325 260.665 315.525L259.165 323H257.39L258.89 315.5C259.157 314.2 259.015 313.183 258.465 312.45C257.932 311.717 256.982 311.35 255.615 311.35C254.215 311.35 253.048 311.733 252.115 312.5C251.198 313.267 250.582 314.417 250.265 315.95L248.865 323H247.09L249.69 309.875H251.39L250.64 313.65L250.265 313C250.898 311.867 251.715 311.042 252.715 310.525C253.732 310.008 254.865 309.75 256.115 309.75ZM276.528 323.125C275.278 323.125 274.186 322.9 273.253 322.45C272.336 321.983 271.628 321.333 271.128 320.5C270.644 319.667 270.403 318.675 270.403 317.525C270.403 316.025 270.719 314.692 271.353 313.525C271.986 312.358 272.853 311.442 273.953 310.775C275.053 310.092 276.294 309.75 277.678 309.75C278.844 309.75 279.853 309.975 280.703 310.425C281.553 310.858 282.211 311.492 282.678 312.325C283.161 313.158 283.403 314.158 283.403 315.325C283.403 315.592 283.386 315.867 283.353 316.15C283.319 316.417 283.278 316.675 283.228 316.925H271.703L271.928 315.6H282.403L281.678 316.1C281.844 315.05 281.769 314.167 281.453 313.45C281.136 312.733 280.644 312.192 279.978 311.825C279.328 311.442 278.544 311.25 277.628 311.25C276.561 311.25 275.611 311.517 274.778 312.05C273.944 312.567 273.294 313.292 272.828 314.225C272.361 315.142 272.128 316.217 272.128 317.45C272.128 318.767 272.503 319.783 273.253 320.5C274.019 321.2 275.161 321.55 276.678 321.55C277.561 321.55 278.378 321.408 279.128 321.125C279.878 320.825 280.494 320.417 280.978 319.9L281.778 321.175C281.161 321.792 280.386 322.275 279.453 322.625C278.536 322.958 277.561 323.125 276.528 323.125ZM285.615 323L289.315 304.45H291.09L287.39 323H285.615ZM303.047 323.125C302.297 323.125 301.656 322.967 301.122 322.65C300.589 322.317 300.214 321.85 299.997 321.25C299.797 320.65 299.781 319.933 299.947 319.1L302.347 306.975H304.122L301.722 319.025C301.556 319.842 301.614 320.475 301.897 320.925C302.197 321.375 302.739 321.6 303.522 321.6C303.889 321.6 304.247 321.55 304.597 321.45C304.947 321.333 305.264 321.158 305.547 320.925L305.972 322.275C305.556 322.592 305.089 322.817 304.572 322.95C304.056 323.067 303.547 323.125 303.047 323.125ZM299.147 311.35L299.422 309.875H307.547L307.247 311.35H299.147ZM309.029 323L311.629 309.875H313.404L310.804 323H309.029ZM313.279 306.975C312.929 306.975 312.637 306.858 312.404 306.625C312.187 306.392 312.079 306.117 312.079 305.8C312.079 305.433 312.204 305.117 312.454 304.85C312.72 304.583 313.054 304.45 313.454 304.45C313.804 304.45 314.095 304.558 314.329 304.775C314.562 304.992 314.679 305.267 314.679 305.6C314.679 306 314.545 306.333 314.279 306.6C314.012 306.85 313.679 306.975 313.279 306.975ZM321.742 323.125C320.492 323.125 319.401 322.9 318.467 322.45C317.551 321.983 316.842 321.333 316.342 320.5C315.859 319.667 315.617 318.675 315.617 317.525C315.617 316.025 315.934 314.692 316.567 313.525C317.201 312.358 318.067 311.442 319.167 310.775C320.267 310.092 321.509 309.75 322.892 309.75C324.059 309.75 325.067 309.975 325.917 310.425C326.767 310.858 327.426 311.492 327.892 312.325C328.376 313.158 328.617 314.158 328.617 315.325C328.617 315.592 328.601 315.867 328.567 316.15C328.534 316.417 328.492 316.675 328.442 316.925H316.917L317.142 315.6H327.617L326.892 316.1C327.059 315.05 326.984 314.167 326.667 313.45C326.351 312.733 325.859 312.192 325.192 311.825C324.542 311.442 323.759 311.25 322.842 311.25C321.776 311.25 320.826 311.517 319.992 312.05C319.159 312.567 318.509 313.292 318.042 314.225C317.576 315.142 317.342 316.217 317.342 317.45C317.342 318.767 317.717 319.783 318.467 320.5C319.234 321.2 320.376 321.55 321.892 321.55C322.776 321.55 323.592 321.408 324.342 321.125C325.092 320.825 325.709 320.417 326.192 319.9L326.992 321.175C326.376 321.792 325.601 322.275 324.667 322.625C323.751 322.958 322.776 323.125 321.742 323.125ZM349.53 309.75C350.714 309.75 351.672 309.983 352.405 310.45C353.155 310.9 353.672 311.558 353.955 312.425C354.239 313.292 354.255 314.325 354.005 315.525L352.505 323H350.73L352.23 315.5C352.497 314.2 352.372 313.183 351.855 312.45C351.355 311.717 350.439 311.35 349.105 311.35C347.789 311.35 346.68 311.717 345.78 312.45C344.897 313.183 344.305 314.283 344.005 315.75L342.555 323H340.78L342.28 315.5C342.547 314.2 342.422 313.183 341.905 312.45C341.389 311.717 340.472 311.35 339.155 311.35C337.805 311.35 336.689 311.733 335.805 312.5C334.922 313.267 334.322 314.417 334.005 315.95L332.605 323H330.83L333.43 309.875H335.13L334.38 313.65L334.005 313C334.639 311.867 335.439 311.042 336.405 310.525C337.372 310.008 338.464 309.75 339.68 309.75C340.597 309.75 341.38 309.908 342.03 310.225C342.697 310.525 343.214 310.975 343.58 311.575C343.964 312.158 344.172 312.858 344.205 313.675L343.28 313.475C343.93 312.225 344.789 311.292 345.855 310.675C346.939 310.058 348.164 309.75 349.53 309.75ZM364.644 323.125C363.511 323.125 362.536 322.925 361.719 322.525C360.919 322.108 360.302 321.517 359.869 320.75C359.452 319.967 359.236 319.025 359.219 317.925C359.219 316.308 359.511 314.892 360.094 313.675C360.677 312.442 361.502 311.483 362.569 310.8C363.636 310.1 364.894 309.75 366.344 309.75C367.477 309.75 368.469 309.975 369.319 310.425C370.186 310.858 370.861 311.492 371.344 312.325C371.844 313.158 372.094 314.15 372.094 315.3C372.094 316.433 371.911 317.475 371.544 318.425C371.177 319.375 370.652 320.2 369.969 320.9C369.302 321.6 368.519 322.15 367.619 322.55C366.719 322.933 365.727 323.125 364.644 323.125ZM356.369 327.85L359.944 309.875H361.644L360.894 313.65L360.169 316.275L359.894 319.025L358.144 327.85H356.369ZM364.619 321.55C365.719 321.55 366.694 321.292 367.544 320.775C368.394 320.242 369.061 319.508 369.544 318.575C370.044 317.642 370.294 316.583 370.294 315.4C370.294 314.1 369.919 313.092 369.169 312.375C368.419 311.658 367.352 311.3 365.969 311.3C364.886 311.3 363.911 311.567 363.044 312.1C362.194 312.633 361.519 313.367 361.019 314.3C360.536 315.217 360.294 316.275 360.294 317.475C360.294 318.758 360.669 319.758 361.419 320.475C362.169 321.192 363.236 321.55 364.619 321.55ZM380.137 323.125C378.921 323.125 377.862 322.9 376.962 322.45C376.079 321.983 375.387 321.333 374.887 320.5C374.404 319.667 374.162 318.683 374.162 317.55C374.162 316.05 374.487 314.717 375.137 313.55C375.787 312.367 376.687 311.442 377.837 310.775C378.987 310.092 380.296 309.75 381.762 309.75C382.979 309.75 384.029 309.975 384.912 310.425C385.812 310.875 386.504 311.517 386.987 312.35C387.487 313.183 387.737 314.167 387.737 315.3C387.737 316.8 387.412 318.142 386.762 319.325C386.112 320.492 385.212 321.417 384.062 322.1C382.929 322.783 381.621 323.125 380.137 323.125ZM380.262 321.55C381.362 321.55 382.337 321.292 383.187 320.775C384.054 320.242 384.729 319.508 385.212 318.575C385.712 317.642 385.962 316.583 385.962 315.4C385.962 314.1 385.579 313.092 384.812 312.375C384.062 311.658 383.004 311.3 381.637 311.3C380.554 311.3 379.579 311.567 378.712 312.1C377.846 312.633 377.162 313.367 376.662 314.3C376.179 315.217 375.937 316.275 375.937 317.475C375.937 318.758 376.312 319.758 377.062 320.475C377.829 321.192 378.896 321.55 380.262 321.55ZM389.97 323.125C389.603 323.125 389.295 323 389.045 322.75C388.795 322.5 388.67 322.192 388.67 321.825C388.67 321.408 388.812 321.067 389.095 320.8C389.378 320.533 389.703 320.4 390.07 320.4C390.437 320.4 390.737 320.525 390.97 320.775C391.22 321.008 391.345 321.317 391.345 321.7C391.345 321.983 391.278 322.233 391.145 322.45C391.028 322.65 390.862 322.817 390.645 322.95C390.428 323.067 390.203 323.125 389.97 323.125Z" fill="#09A1CC"/>
<path d="M279.5 399V372H288V394M295 394V361.5H303.5V394M233 432V403.5H241.5V432H233ZM231 392.5L254.5 369L260 373.5L277.5 356L274.5 352.5L284.5 352L284 361.5L280.5 358.5L260 378L254.5 374L234 395L231 392.5ZM248.5 432V392H257V432H248.5ZM264 432V382.5H272.5V432H264Z" stroke="#00498C" stroke-width="1.5"/>
<path d="M294.75 432C304.001 432 311.5 424.501 311.5 415.25C311.5 405.999 304.001 398.5 294.75 398.5C285.499 398.5 278 405.999 278 415.25C278 424.501 285.499 432 294.75 432Z" stroke="#00498C" stroke-width="1.5"/>
<path d="M294.29 429.7V401.5H296.21V429.7H294.29ZM295.04 426.34C293.44 426.34 291.91 426.1 290.45 425.62C288.99 425.12 287.84 424.48 287 423.7L288.11 421.36C288.91 422.06 289.93 422.64 291.17 423.1C292.41 423.56 293.7 423.79 295.04 423.79C296.26 423.79 297.25 423.65 298.01 423.37C298.77 423.09 299.33 422.71 299.69 422.23C300.05 421.73 300.23 421.17 300.23 420.55C300.23 419.83 299.99 419.25 299.51 418.81C299.05 418.37 298.44 418.02 297.68 417.76C296.94 417.48 296.12 417.24 295.22 417.04C294.32 416.84 293.41 416.61 292.49 416.35C291.59 416.07 290.76 415.72 290 415.3C289.26 414.88 288.66 414.32 288.2 413.62C287.74 412.9 287.51 411.98 287.51 410.86C287.51 409.78 287.79 408.79 288.35 407.89C288.93 406.97 289.81 406.24 290.99 405.7C292.19 405.14 293.71 404.86 295.55 404.86C296.77 404.86 297.98 405.02 299.18 405.34C300.38 405.66 301.42 406.12 302.3 406.72L301.31 409.12C300.41 408.52 299.46 408.09 298.46 407.83C297.46 407.55 296.49 407.41 295.55 407.41C294.37 407.41 293.4 407.56 292.64 407.86C291.88 408.16 291.32 408.56 290.96 409.06C290.62 409.56 290.45 410.12 290.45 410.74C290.45 411.48 290.68 412.07 291.14 412.51C291.62 412.95 292.23 413.3 292.97 413.56C293.73 413.82 294.56 414.06 295.46 414.28C296.36 414.48 297.26 414.71 298.16 414.97C299.08 415.23 299.91 415.57 300.65 415.99C301.41 416.41 302.02 416.97 302.48 417.67C302.94 418.37 303.17 419.27 303.17 420.37C303.17 421.43 302.88 422.42 302.3 423.34C301.72 424.24 300.82 424.97 299.6 425.53C298.4 426.07 296.88 426.34 295.04 426.34Z" fill="#00498C"/>
</svg>
