<svg width="534" height="459" viewBox="0 0 534 459" fill="none" xmlns="http://www.w3.org/2000/svg">
<path d="M31 50C14.4315 50 1 63.4315 1 80V428C1 444.569 14.4315 458 31 458H502.5C519.069 458 532.5 444.569 532.5 428V80C532.5 63.4315 519.069 50 502.5 50H31Z" fill="white" stroke="#053661" stroke-width="2"/>
<path d="M267 100C294.614 100 317 77.6142 317 50C317 22.3858 294.614 0 267 0C239.386 0 217 22.3858 217 50C217 77.6142 239.386 100 267 100Z" fill="#00498C"/>
<path d="M265.381 75.7C261.927 75.7 258.544 75.21 255.231 74.23C251.964 73.2033 249.211 71.8033 246.971 70.03L250.821 62.96C252.594 64.4067 254.741 65.5733 257.261 66.46C259.827 67.3467 262.487 67.79 265.241 67.79C268.461 67.79 270.981 67.1133 272.801 65.76C274.667 64.4067 275.601 62.5867 275.601 60.3C275.601 58.76 275.204 57.4067 274.411 56.24C273.664 55.0733 272.311 54.1867 270.351 53.58C268.437 52.9733 265.801 52.67 262.441 52.67H250.611L253.131 26H281.901V33.63H256.491L261.251 29.29L259.361 49.24L254.601 44.97H264.471C269.324 44.97 273.221 45.6233 276.161 46.93C279.147 48.19 281.317 49.9633 282.671 52.25C284.071 54.49 284.771 57.0567 284.771 59.95C284.771 62.7967 284.071 65.41 282.671 67.79C281.271 70.17 279.124 72.0833 276.231 73.53C273.384 74.9767 269.767 75.7 265.381 75.7Z" fill="white"/>
<path d="M169.944 166L185.544 131H193.544L209.194 166H200.694L187.894 135.1H191.094L178.244 166H169.944ZM177.744 158.5L179.894 152.35H197.894L200.094 158.5H177.744ZM225.031 166.4C222.131 166.4 219.547 165.817 217.281 164.65C215.014 163.45 213.231 161.8 211.931 159.7C210.664 157.6 210.031 155.217 210.031 152.55C210.031 149.85 210.664 147.467 211.931 145.4C213.231 143.3 215.014 141.667 217.281 140.5C219.547 139.3 222.131 138.7 225.031 138.7C227.864 138.7 230.331 139.3 232.431 140.5C234.531 141.667 236.081 143.35 237.081 145.55L231.031 148.8C230.331 147.533 229.447 146.6 228.381 146C227.347 145.4 226.214 145.1 224.981 145.1C223.647 145.1 222.447 145.4 221.381 146C220.314 146.6 219.464 147.45 218.831 148.55C218.231 149.65 217.931 150.983 217.931 152.55C217.931 154.117 218.231 155.45 218.831 156.55C219.464 157.65 220.314 158.5 221.381 159.1C222.447 159.7 223.647 160 224.981 160C226.214 160 227.347 159.717 228.381 159.15C229.447 158.55 230.331 157.6 231.031 156.3L237.081 159.6C236.081 161.767 234.531 163.45 232.431 164.65C230.331 165.817 227.864 166.4 225.031 166.4ZM252.962 166.4C249.796 166.4 247.329 165.6 245.562 164C243.796 162.367 242.912 159.95 242.912 156.75V133.15H250.712V156.65C250.712 157.783 251.012 158.667 251.612 159.3C252.212 159.9 253.029 160.2 254.062 160.2C255.296 160.2 256.346 159.867 257.212 159.2L259.312 164.7C258.512 165.267 257.546 165.7 256.412 166C255.312 166.267 254.162 166.4 252.962 166.4ZM238.762 145.7V139.7H257.412V145.7H238.762ZM263.691 166V139.1H271.491V166H263.691ZM267.591 135.35C266.157 135.35 264.991 134.933 264.091 134.1C263.191 133.267 262.741 132.233 262.741 131C262.741 129.767 263.191 128.733 264.091 127.9C264.991 127.067 266.157 126.65 267.591 126.65C269.024 126.65 270.191 127.05 271.091 127.85C271.991 128.617 272.441 129.617 272.441 130.85C272.441 132.15 271.991 133.233 271.091 134.1C270.224 134.933 269.057 135.35 267.591 135.35ZM286.03 166L274.73 139.1H282.78L292.18 162.25H288.18L297.93 139.1H305.43L294.08 166H286.03ZM320.68 166.4C317.814 166.4 315.264 165.8 313.03 164.6C310.83 163.4 309.08 161.767 307.78 159.7C306.514 157.6 305.88 155.217 305.88 152.55C305.88 149.85 306.514 147.467 307.78 145.4C309.08 143.3 310.83 141.667 313.03 140.5C315.264 139.3 317.814 138.7 320.68 138.7C323.514 138.7 326.047 139.3 328.28 140.5C330.514 141.667 332.264 143.283 333.53 145.35C334.797 147.417 335.43 149.817 335.43 152.55C335.43 155.217 334.797 157.6 333.53 159.7C332.264 161.767 330.514 163.4 328.28 164.6C326.047 165.8 323.514 166.4 320.68 166.4ZM320.68 160C321.98 160 323.147 159.7 324.18 159.1C325.214 158.5 326.03 157.65 326.63 156.55C327.23 155.417 327.53 154.083 327.53 152.55C327.53 150.983 327.23 149.65 326.63 148.55C326.03 147.45 325.214 146.6 324.18 146C323.147 145.4 321.98 145.1 320.68 145.1C319.38 145.1 318.214 145.4 317.18 146C316.147 146.6 315.314 147.45 314.68 148.55C314.08 149.65 313.78 150.983 313.78 152.55C313.78 154.083 314.08 155.417 314.68 156.55C315.314 157.65 316.147 158.5 317.18 159.1C318.214 159.7 319.38 160 320.68 160ZM349.694 166.4C347.394 166.4 345.177 166.133 343.044 165.6C340.944 165.033 339.277 164.333 338.044 163.5L340.644 157.9C341.877 158.667 343.327 159.3 344.994 159.8C346.694 160.267 348.361 160.5 349.994 160.5C351.794 160.5 353.061 160.283 353.794 159.85C354.561 159.417 354.944 158.817 354.944 158.05C354.944 157.417 354.644 156.95 354.044 156.65C353.477 156.317 352.711 156.067 351.744 155.9C350.777 155.733 349.711 155.567 348.544 155.4C347.411 155.233 346.261 155.017 345.094 154.75C343.927 154.45 342.861 154.017 341.894 153.45C340.927 152.883 340.144 152.117 339.544 151.15C338.977 150.183 338.694 148.933 338.694 147.4C338.694 145.7 339.177 144.2 340.144 142.9C341.144 141.6 342.577 140.583 344.444 139.85C346.311 139.083 348.544 138.7 351.144 138.7C352.977 138.7 354.844 138.9 356.744 139.3C358.644 139.7 360.227 140.283 361.494 141.05L358.894 146.6C357.594 145.833 356.277 145.317 354.944 145.05C353.644 144.75 352.377 144.6 351.144 144.6C349.411 144.6 348.144 144.833 347.344 145.3C346.544 145.767 346.144 146.367 346.144 147.1C346.144 147.767 346.427 148.267 346.994 148.6C347.594 148.933 348.377 149.2 349.344 149.4C350.311 149.6 351.361 149.783 352.494 149.95C353.661 150.083 354.827 150.3 355.994 150.6C357.161 150.9 358.211 151.333 359.144 151.9C360.111 152.433 360.894 153.183 361.494 154.15C362.094 155.083 362.394 156.317 362.394 157.85C362.394 159.517 361.894 161 360.894 162.3C359.894 163.567 358.444 164.567 356.544 165.3C354.677 166.033 352.394 166.4 349.694 166.4Z" fill="#00498C"/>
<path d="M191.3 235.15C189.583 235.15 188.116 234.85 186.9 234.25C185.683 233.633 184.758 232.783 184.125 231.7C183.508 230.6 183.2 229.325 183.2 227.875C183.2 226.442 183.441 225.092 183.925 223.825C184.408 222.558 185.108 221.442 186.025 220.475C186.958 219.492 188.075 218.725 189.375 218.175C190.675 217.625 192.133 217.35 193.75 217.35C195.483 217.35 196.95 217.658 198.15 218.275C199.366 218.875 200.283 219.725 200.9 220.825C201.533 221.908 201.85 223.175 201.85 224.625C201.85 226.058 201.608 227.408 201.125 228.675C200.641 229.942 199.933 231.067 199 232.05C198.083 233.017 196.975 233.775 195.675 234.325C194.375 234.875 192.916 235.15 191.3 235.15ZM196.3 238.475C195.05 238.475 193.925 238.15 192.925 237.5C191.925 236.85 191.041 235.933 190.275 234.75L192.35 234.3C192.883 235.217 193.475 235.892 194.125 236.325C194.775 236.775 195.516 237 196.35 237C197 237 197.608 236.867 198.175 236.6C198.758 236.333 199.275 235.958 199.725 235.475L200.525 236.6C200.008 237.233 199.375 237.7 198.625 238C197.891 238.317 197.116 238.475 196.3 238.475ZM191.475 233.5C192.775 233.5 193.95 233.275 195 232.825C196.05 232.358 196.95 231.717 197.7 230.9C198.45 230.083 199.025 229.15 199.425 228.1C199.825 227.033 200.025 225.9 200.025 224.7C200.025 223.567 199.775 222.575 199.275 221.725C198.791 220.875 198.075 220.208 197.125 219.725C196.175 219.242 194.991 219 193.575 219C192.275 219 191.1 219.233 190.05 219.7C189 220.15 188.1 220.783 187.35 221.6C186.616 222.417 186.041 223.358 185.625 224.425C185.225 225.475 185.025 226.6 185.025 227.8C185.025 228.917 185.266 229.908 185.75 230.775C186.25 231.625 186.975 232.292 187.925 232.775C188.875 233.258 190.058 233.5 191.475 233.5ZM209.246 235.125C208.096 235.125 207.138 234.892 206.371 234.425C205.621 233.958 205.105 233.292 204.821 232.425C204.538 231.558 204.505 230.533 204.721 229.35L206.221 221.875H207.996L206.496 229.35C206.246 230.65 206.388 231.675 206.921 232.425C207.455 233.158 208.388 233.525 209.721 233.525C211.105 233.525 212.255 233.142 213.171 232.375C214.105 231.608 214.73 230.458 215.046 228.925L216.446 221.875H218.221L215.596 235H213.896L214.646 231.225L215.021 231.85C214.405 232.983 213.588 233.817 212.571 234.35C211.571 234.867 210.463 235.125 209.246 235.125ZM226.543 235.125C225.293 235.125 224.201 234.9 223.268 234.45C222.351 233.983 221.643 233.333 221.143 232.5C220.66 231.667 220.418 230.675 220.418 229.525C220.418 228.025 220.735 226.692 221.368 225.525C222.001 224.358 222.868 223.442 223.968 222.775C225.068 222.092 226.31 221.75 227.693 221.75C228.86 221.75 229.868 221.975 230.718 222.425C231.568 222.858 232.226 223.492 232.693 224.325C233.176 225.158 233.418 226.158 233.418 227.325C233.418 227.592 233.401 227.867 233.368 228.15C233.335 228.417 233.293 228.675 233.243 228.925H221.718L221.943 227.6H232.418L231.693 228.1C231.86 227.05 231.785 226.167 231.468 225.45C231.151 224.733 230.66 224.192 229.993 223.825C229.343 223.442 228.56 223.25 227.643 223.25C226.576 223.25 225.626 223.517 224.793 224.05C223.96 224.567 223.31 225.292 222.843 226.225C222.376 227.142 222.143 228.217 222.143 229.45C222.143 230.767 222.518 231.783 223.268 232.5C224.035 233.2 225.176 233.55 226.693 233.55C227.576 233.55 228.393 233.408 229.143 233.125C229.893 232.825 230.51 232.417 230.993 231.9L231.793 233.175C231.176 233.792 230.401 234.275 229.468 234.625C228.551 234.958 227.576 235.125 226.543 235.125ZM246.349 235.125C245.599 235.125 244.957 234.967 244.424 234.65C243.891 234.317 243.516 233.85 243.299 233.25C243.099 232.65 243.082 231.933 243.249 231.1L245.649 218.975H247.424L245.024 231.025C244.857 231.842 244.916 232.475 245.199 232.925C245.499 233.375 246.041 233.6 246.824 233.6C247.191 233.6 247.549 233.55 247.899 233.45C248.249 233.333 248.566 233.158 248.849 232.925L249.274 234.275C248.857 234.592 248.391 234.817 247.874 234.95C247.357 235.067 246.849 235.125 246.349 235.125ZM242.449 223.35L242.724 221.875H250.849L250.549 223.35H242.449ZM252.33 235L254.93 221.875H256.63L255.88 225.75L255.68 225.075C256.264 223.925 257.03 223.083 257.98 222.55C258.947 222.017 260.147 221.75 261.58 221.75L261.255 223.475C261.172 223.475 261.089 223.475 261.005 223.475C260.939 223.458 260.855 223.45 260.755 223.45C259.355 223.45 258.197 223.858 257.28 224.675C256.38 225.475 255.764 226.692 255.43 228.325L254.105 235H252.33ZM267.647 235.125C266.53 235.125 265.539 234.9 264.672 234.45C263.805 234 263.13 233.358 262.647 232.525C262.164 231.692 261.922 230.7 261.922 229.55C261.922 228.433 262.105 227.4 262.472 226.45C262.839 225.5 263.355 224.675 264.022 223.975C264.689 223.258 265.472 222.708 266.372 222.325C267.289 221.942 268.28 221.75 269.347 221.75C270.497 221.75 271.472 221.958 272.272 222.375C273.072 222.775 273.689 223.367 274.122 224.15C274.555 224.917 274.772 225.85 274.772 226.95C274.772 228.533 274.48 229.942 273.897 231.175C273.314 232.408 272.489 233.375 271.422 234.075C270.355 234.775 269.097 235.125 267.647 235.125ZM268.022 233.55C269.122 233.55 270.097 233.292 270.947 232.775C271.814 232.242 272.489 231.508 272.972 230.575C273.472 229.642 273.722 228.583 273.722 227.4C273.722 226.1 273.339 225.092 272.572 224.375C271.822 223.658 270.764 223.3 269.397 223.3C268.314 223.3 267.339 223.567 266.472 224.1C265.605 224.633 264.922 225.367 264.422 226.3C263.939 227.217 263.697 228.275 263.697 229.475C263.697 230.758 264.072 231.758 264.822 232.475C265.589 233.192 266.655 233.55 268.022 233.55ZM272.347 235L273.097 231.225L273.847 228.575L274.097 225.825L274.897 221.875H276.672L274.047 235H272.347ZM278.99 235L282.69 216.45H284.465L282.615 225.675L281.815 228.275L281.515 230.825L280.69 235H278.99ZM286.29 235.125C285.157 235.125 284.182 234.925 283.365 234.525C282.565 234.108 281.949 233.517 281.515 232.75C281.099 231.967 280.882 231.025 280.865 229.925C280.865 228.725 281.032 227.625 281.365 226.625C281.699 225.625 282.174 224.767 282.79 224.05C283.424 223.317 284.174 222.75 285.04 222.35C285.924 221.95 286.907 221.75 287.99 221.75C289.124 221.75 290.115 221.975 290.965 222.425C291.832 222.858 292.507 223.492 292.99 224.325C293.49 225.158 293.74 226.15 293.74 227.3C293.74 228.433 293.557 229.475 293.19 230.425C292.824 231.375 292.299 232.2 291.615 232.9C290.949 233.6 290.165 234.15 289.265 234.55C288.365 234.933 287.374 235.125 286.29 235.125ZM286.265 233.55C287.365 233.55 288.34 233.292 289.19 232.775C290.04 232.242 290.707 231.508 291.19 230.575C291.69 229.642 291.94 228.583 291.94 227.4C291.94 226.1 291.565 225.092 290.815 224.375C290.065 223.658 288.999 223.3 287.615 223.3C286.532 223.3 285.557 223.567 284.69 224.1C283.84 224.633 283.165 225.367 282.665 226.3C282.182 227.217 281.94 228.275 281.94 229.475C281.94 230.758 282.315 231.758 283.065 232.475C283.815 233.192 284.882 233.55 286.265 233.55ZM301.534 235.125C300.417 235.125 299.425 234.9 298.559 234.45C297.692 234 297.017 233.358 296.534 232.525C296.05 231.692 295.809 230.7 295.809 229.55C295.809 228.433 295.992 227.4 296.359 226.45C296.725 225.5 297.242 224.675 297.909 223.975C298.575 223.258 299.359 222.708 300.259 222.325C301.175 221.942 302.167 221.75 303.234 221.75C304.384 221.75 305.359 221.958 306.159 222.375C306.959 222.775 307.575 223.367 308.009 224.15C308.442 224.917 308.659 225.85 308.659 226.95C308.659 228.533 308.367 229.942 307.784 231.175C307.2 232.408 306.375 233.375 305.309 234.075C304.242 234.775 302.984 235.125 301.534 235.125ZM301.909 233.55C303.009 233.55 303.984 233.292 304.834 232.775C305.7 232.242 306.375 231.508 306.859 230.575C307.359 229.642 307.609 228.583 307.609 227.4C307.609 226.1 307.225 225.092 306.459 224.375C305.709 223.658 304.65 223.3 303.284 223.3C302.2 223.3 301.225 223.567 300.359 224.1C299.492 224.633 298.809 225.367 298.309 226.3C297.825 227.217 297.584 228.275 297.584 229.475C297.584 230.758 297.959 231.758 298.709 232.475C299.475 233.192 300.542 233.55 301.909 233.55ZM306.234 235L306.984 231.225L307.734 228.575L307.984 225.825L308.784 221.875H310.559L307.934 235H306.234ZM310.127 239.975C309.56 239.975 309.044 239.9 308.577 239.75C308.094 239.617 307.685 239.417 307.352 239.15L308.177 237.775C308.694 238.225 309.352 238.45 310.152 238.45C310.869 238.45 311.435 238.25 311.852 237.85C312.285 237.467 312.594 236.833 312.777 235.95L315.602 221.875H317.377L314.552 236C314.019 238.65 312.544 239.975 310.127 239.975ZM317.227 218.975C316.877 218.975 316.585 218.858 316.352 218.625C316.135 218.392 316.027 218.117 316.027 217.8C316.027 217.433 316.152 217.117 316.402 216.85C316.669 216.583 317.002 216.45 317.402 216.45C317.752 216.45 318.044 216.558 318.277 216.775C318.51 216.992 318.627 217.267 318.627 217.6C318.627 218 318.494 218.333 318.227 218.6C317.96 218.85 317.627 218.975 317.227 218.975ZM325.338 235.125C324.221 235.125 323.229 234.9 322.363 234.45C321.496 234 320.821 233.358 320.338 232.525C319.854 231.692 319.613 230.7 319.613 229.55C319.613 228.433 319.796 227.4 320.163 226.45C320.529 225.5 321.046 224.675 321.713 223.975C322.379 223.258 323.163 222.708 324.063 222.325C324.979 221.942 325.971 221.75 327.038 221.75C328.188 221.75 329.163 221.958 329.963 222.375C330.763 222.775 331.379 223.367 331.813 224.15C332.246 224.917 332.463 225.85 332.463 226.95C332.463 228.533 332.171 229.942 331.588 231.175C331.004 232.408 330.179 233.375 329.113 234.075C328.046 234.775 326.788 235.125 325.338 235.125ZM325.713 233.55C326.813 233.55 327.788 233.292 328.638 232.775C329.504 232.242 330.179 231.508 330.663 230.575C331.163 229.642 331.412 228.583 331.412 227.4C331.412 226.1 331.029 225.092 330.263 224.375C329.513 223.658 328.454 223.3 327.088 223.3C326.004 223.3 325.029 223.567 324.163 224.1C323.296 224.633 322.613 225.367 322.113 226.3C321.629 227.217 321.388 228.275 321.388 229.475C321.388 230.758 321.763 231.758 322.513 232.475C323.279 233.192 324.346 233.55 325.713 233.55ZM330.038 235L330.788 231.225L331.538 228.575L331.788 225.825L332.588 221.875H334.363L331.738 235H330.038ZM345.706 221.75C346.889 221.75 347.856 221.983 348.606 222.45C349.373 222.9 349.898 223.558 350.181 224.425C350.481 225.292 350.506 226.325 350.256 227.525L348.756 235H346.981L348.481 227.5C348.748 226.2 348.606 225.183 348.056 224.45C347.523 223.717 346.573 223.35 345.206 223.35C343.806 223.35 342.639 223.733 341.706 224.5C340.789 225.267 340.173 226.417 339.856 227.95L338.456 235H336.681L339.281 221.875H340.981L340.231 225.65L339.856 225C340.489 223.867 341.306 223.042 342.306 222.525C343.323 222.008 344.456 221.75 345.706 221.75ZM239.794 265.125C238.661 265.125 237.686 264.925 236.869 264.525C236.069 264.108 235.452 263.517 235.019 262.75C234.602 261.967 234.386 261.025 234.369 259.925C234.369 258.308 234.661 256.892 235.244 255.675C235.827 254.442 236.652 253.483 237.719 252.8C238.786 252.1 240.044 251.75 241.494 251.75C242.627 251.75 243.619 251.975 244.469 252.425C245.336 252.858 246.011 253.492 246.494 254.325C246.994 255.158 247.244 256.15 247.244 257.3C247.244 258.433 247.061 259.475 246.694 260.425C246.327 261.375 245.802 262.2 245.119 262.9C244.452 263.6 243.669 264.15 242.769 264.55C241.869 264.933 240.877 265.125 239.794 265.125ZM231.519 269.85L235.094 251.875H236.794L236.044 255.65L235.319 258.275L235.044 261.025L233.294 269.85H231.519ZM239.769 263.55C240.869 263.55 241.844 263.292 242.694 262.775C243.544 262.242 244.211 261.508 244.694 260.575C245.194 259.642 245.444 258.583 245.444 257.4C245.444 256.1 245.069 255.092 244.319 254.375C243.569 253.658 242.502 253.3 241.119 253.3C240.036 253.3 239.061 253.567 238.194 254.1C237.344 254.633 236.669 255.367 236.169 256.3C235.686 257.217 235.444 258.275 235.444 259.475C235.444 260.758 235.819 261.758 236.569 262.475C237.319 263.192 238.386 263.55 239.769 263.55ZM255.287 265.125C254.071 265.125 253.012 264.9 252.112 264.45C251.229 263.983 250.537 263.333 250.037 262.5C249.554 261.667 249.312 260.683 249.312 259.55C249.312 258.05 249.637 256.717 250.287 255.55C250.937 254.367 251.837 253.442 252.987 252.775C254.137 252.092 255.446 251.75 256.912 251.75C258.129 251.75 259.179 251.975 260.062 252.425C260.962 252.875 261.654 253.517 262.137 254.35C262.637 255.183 262.887 256.167 262.887 257.3C262.887 258.8 262.562 260.142 261.912 261.325C261.262 262.492 260.362 263.417 259.212 264.1C258.079 264.783 256.771 265.125 255.287 265.125ZM255.412 263.55C256.512 263.55 257.487 263.292 258.337 262.775C259.204 262.242 259.879 261.508 260.362 260.575C260.862 259.642 261.112 258.583 261.112 257.4C261.112 256.1 260.729 255.092 259.962 254.375C259.212 253.658 258.154 253.3 256.787 253.3C255.704 253.3 254.729 253.567 253.862 254.1C252.996 254.633 252.312 255.367 251.812 256.3C251.329 257.217 251.087 258.275 251.087 259.475C251.087 260.758 251.462 261.758 252.212 262.475C252.979 263.192 254.046 263.55 255.412 263.55ZM265.111 265L267.711 251.875H269.411L268.661 255.75L268.461 255.075C269.044 253.925 269.811 253.083 270.761 252.55C271.728 252.017 272.928 251.75 274.361 251.75L274.036 253.475C273.953 253.475 273.869 253.475 273.786 253.475C273.719 253.458 273.636 253.45 273.536 253.45C272.136 253.45 270.978 253.858 270.061 254.675C269.161 255.475 268.544 256.692 268.211 258.325L266.886 265H265.111ZM285.863 265.125C285.113 265.125 284.472 264.967 283.938 264.65C283.405 264.317 283.03 263.85 282.813 263.25C282.613 262.65 282.597 261.933 282.763 261.1L285.163 248.975H286.938L284.538 261.025C284.372 261.842 284.43 262.475 284.713 262.925C285.013 263.375 285.555 263.6 286.338 263.6C286.705 263.6 287.063 263.55 287.413 263.45C287.763 263.333 288.08 263.158 288.363 262.925L288.788 264.275C288.372 264.592 287.905 264.817 287.388 264.95C286.872 265.067 286.363 265.125 285.863 265.125ZM281.963 253.35L282.238 251.875H290.363L290.063 253.35H281.963ZM291.844 265L294.444 251.875H296.219L293.619 265H291.844ZM296.094 248.975C295.744 248.975 295.453 248.858 295.219 248.625C295.003 248.392 294.894 248.117 294.894 247.8C294.894 247.433 295.019 247.117 295.269 246.85C295.536 246.583 295.869 246.45 296.269 246.45C296.619 246.45 296.911 246.558 297.144 246.775C297.378 246.992 297.494 247.267 297.494 247.6C297.494 248 297.361 248.333 297.094 248.6C296.828 248.85 296.494 248.975 296.094 248.975ZM298.933 265.125C298.567 265.125 298.258 265 298.008 264.75C297.758 264.5 297.633 264.192 297.633 263.825C297.633 263.408 297.775 263.067 298.058 262.8C298.342 262.533 298.667 262.4 299.033 262.4C299.4 262.4 299.7 262.525 299.933 262.775C300.183 263.008 300.308 263.317 300.308 263.7C300.308 263.983 300.242 264.233 300.108 264.45C299.992 264.65 299.825 264.817 299.608 264.95C299.392 265.067 299.167 265.125 298.933 265.125Z" fill="#09A1CC"/>
<path d="M259.5 382.25C259.5 385.16 261.75 387.5 264.51 387.5H270.15C272.55 387.5 274.5 385.46 274.5 382.91C274.5 380.18 273.3 379.19 271.53 378.56L262.5 375.41C260.73 374.78 259.53 373.82 259.53 371.06C259.53 368.54 261.48 366.47 263.88 366.47H269.52C272.28 366.47 274.53 368.81 274.53 371.72" stroke="#00498C" stroke-width="3" stroke-linecap="round" stroke-linejoin="round"/>
<path d="M267 363.5V390.5" stroke="#00498C" stroke-width="3" stroke-linecap="round" stroke-linejoin="round"/>
<path d="M297 377C297 393.56 283.56 407 267 407C250.44 407 237 393.56 237 377C237 360.44 250.44 347 267 347" stroke="#00498C" stroke-width="3" stroke-linecap="round" stroke-linejoin="round"/>
<path d="M297 359V347H285" stroke="#00498C" stroke-width="3" stroke-linecap="round" stroke-linejoin="round"/>
<path d="M282 362L297 347" stroke="#00498C" stroke-width="3" stroke-linecap="round" stroke-linejoin="round"/>
</svg>
